<?xml version="1.0" encoding="UTF-8" standalone="no"?>
<svg
   xmlns:dc="http://purl.org/dc/elements/1.1/"
   xmlns:cc="http://creativecommons.org/ns#"
   xmlns:rdf="http://www.w3.org/1999/02/22-rdf-syntax-ns#"
   xmlns:svg="http://www.w3.org/2000/svg"
   xmlns="http://www.w3.org/2000/svg"
   xmlns:sodipodi="http://sodipodi.sourceforge.net/DTD/sodipodi-0.dtd"
   xmlns:inkscape="http://www.inkscape.org/namespaces/inkscape"
   inkscape:version="1.0 (4035a4f, 2020-05-01)"
   sodipodi:docname="user_mapping.svg"
   version="1.1"
   viewBox="0 0 595.276 309.811"
   height="309.811"
   width="595.276"
   data-name="Layer 1"
   id="uuid-a2ec6787-5880-445c-ab8a-c559e142f8e9">
  <metadata
     id="metadata403">
    <rdf:RDF>
      <cc:Work
         rdf:about="">
        <dc:format>image/svg+xml</dc:format>
        <dc:type
           rdf:resource="http://purl.org/dc/dcmitype/StillImage" />
        <dc:title></dc:title>
        <dc:subject>
          <rdf:Bag>
            <rdf:li>containers</rdf:li>
            <rdf:li>user mapping</rdf:li>
          </rdf:Bag>
        </dc:subject>
      </cc:Work>
    </rdf:RDF>
  </metadata>
  <sodipodi:namedview
     inkscape:current-layer="uuid-a2ec6787-5880-445c-ab8a-c559e142f8e9"
     inkscape:window-maximized="0"
     inkscape:window-y="25"
     inkscape:window-x="0"
     inkscape:cy="154.9055"
     inkscape:cx="297.638"
     inkscape:zoom="1.8428426"
     showgrid="false"
     id="namedview401"
     inkscape:window-height="480"
     inkscape:window-width="709"
     inkscape:pageshadow="2"
     inkscape:pageopacity="0"
     guidetolerance="10"
     gridtolerance="10"
     objecttolerance="10"
     borderopacity="1"
     bordercolor="#666666"
     pagecolor="#ffffff" />
  <defs
     id="defs12">
    <style
       id="style10">
      .uuid-a01115cf-eb41-417a-a05d-c449ce6c953d {
        fill: #e6e6e5;
      }

      .uuid-592fdb9a-4348-4d84-a3b5-6e9784a4c64e {
        fill: #fff;
      }

      .uuid-014b2b89-f8e6-4600-bd44-ba5cc65b4688 {
        fill: #231f20;
      }

      .uuid-0de6c208-d600-403b-8d2e-edc6a371b347 {
        fill: #a1c2e7;
      }

      .uuid-c25c922f-05cf-4648-b70b-9f8e90b788f3 {
        fill: none;
        stroke: #231f20;
        stroke-miterlimit: 10;
      }
    </style>
  </defs>
  <rect
     id="rect14"
     height="257.497"
     width="556.111"
     y="26.157"
     x="19.997"
     class="uuid-a01115cf-eb41-417a-a05d-c449ce6c953d" />
  <rect
     id="rect16"
     height="54.039"
     width="520.617"
     y="60.585"
     x="37.744"
     class="uuid-0de6c208-d600-403b-8d2e-edc6a371b347" />
  <rect
     id="rect18"
     height="80.399"
     width="150.872"
     y="184.479"
     x="37.744"
     class="uuid-592fdb9a-4348-4d84-a3b5-6e9784a4c64e" />
  <rect
     id="rect20"
     height="80.399"
     width="150.872"
     y="184.479"
     x="222.616"
     class="uuid-592fdb9a-4348-4d84-a3b5-6e9784a4c64e" />
  <rect
     id="rect22"
     height="80.399"
     width="150.872"
     y="184.479"
     x="407.489"
     class="uuid-592fdb9a-4348-4d84-a3b5-6e9784a4c64e" />
  <g
     id="g62">
    <path
       id="path24"
       d="M38.56,37.932h2.063v3.262h3.394v-3.262h2.063v8.396h-2.063v-3.322h-3.394v3.322h-2.063v-8.396Z"
       class="uuid-014b2b89-f8e6-4600-bd44-ba5cc65b4688" />
    <path
       id="path26"
       d="M47.38,43.245c0-1.823,1.391-3.202,3.226-3.202s3.226,1.379,3.226,3.202-1.391,3.203-3.226,3.203-3.226-1.379-3.226-3.203Zm4.557,0c0-.923-.552-1.583-1.331-1.583s-1.332,.66-1.332,1.583,.552,1.583,1.332,1.583,1.331-.66,1.331-1.583Z"
       class="uuid-014b2b89-f8e6-4600-bd44-ba5cc65b4688" />
    <path
       id="path28"
       d="M54.568,45.692l.852-1.295c.887,.468,1.391,.624,1.991,.624,.552,0,.888-.192,.888-.504,0-.24-.18-.372-.576-.444l-1.188-.216c-1.199-.228-1.823-.839-1.823-1.799,0-1.259,.971-2.015,2.59-2.015,.864,0,1.715,.24,2.519,.708l-.887,1.235c-.624-.36-1.2-.527-1.775-.527-.468,0-.744,.156-.744,.419,0,.252,.156,.36,.636,.444l1.164,.216c1.223,.228,1.859,.852,1.859,1.787,0,1.211-1.139,2.123-2.663,2.123-1.127,0-2.123-.264-2.842-.756Z"
       class="uuid-014b2b89-f8e6-4600-bd44-ba5cc65b4688" />
    <path
       id="path30"
       d="M61.899,44.457v-2.818h-1.2v-1.499h1.2v-1.715l1.943-.396v2.111h1.655v1.499h-1.655v2.435c0,.552,.216,.744,.815,.744,.228,0,.408-.024,.792-.132v1.571c-.36,.108-.936,.192-1.331,.192-1.463,0-2.219-.672-2.219-1.991Z"
       class="uuid-014b2b89-f8e6-4600-bd44-ba5cc65b4688" />
    <path
       id="path32"
       d="M68.884,43.245c0-1.823,1.391-3.202,3.226-3.202s3.226,1.379,3.226,3.202-1.391,3.203-3.226,3.203-3.226-1.379-3.226-3.203Zm4.557,0c0-.923-.552-1.583-1.331-1.583s-1.332,.66-1.332,1.583,.552,1.583,1.332,1.583,1.331-.66,1.331-1.583Z"
       class="uuid-014b2b89-f8e6-4600-bd44-ba5cc65b4688" />
    <path
       id="path34"
       d="M76.575,40.139h1.919v.863c.408-.552,1.092-.899,1.835-.899,1.523,0,2.735,1.403,2.735,3.142s-1.271,3.119-2.878,3.119c-.672,0-1.259-.252-1.667-.72v3.19h-1.943v-8.695Zm4.582,3.094c0-.875-.635-1.523-1.475-1.523-.479,0-.852,.168-1.163,.504v2.063c.3,.312,.708,.492,1.163,.492,.852,0,1.475-.647,1.475-1.535Z"
       class="uuid-014b2b89-f8e6-4600-bd44-ba5cc65b4688" />
    <path
       id="path36"
       d="M84.027,43.245c0-1.811,1.344-3.202,3.119-3.202,1.787,0,3.046,1.355,3.046,3.274v.42h-4.258c.18,.695,.744,1.163,1.451,1.163,.516,0,.947-.18,1.223-.516l1.284,1.067c-.804,.708-1.56,.996-2.603,.996-1.823,0-3.263-1.403-3.263-3.203Zm4.366-.611c-.168-.66-.636-1.08-1.259-1.08-.611,0-1.043,.396-1.199,1.08h2.458Z"
       class="uuid-014b2b89-f8e6-4600-bd44-ba5cc65b4688" />
    <path
       id="path38"
       d="M91.407,40.139h1.943v1.403c.396-1.032,.947-1.523,1.679-1.523,.276,.012,.408,.036,.648,.156v1.667c-.24-.12-.576-.192-.912-.192-.576,0-1.104,.3-1.415,.768v3.91h-1.943v-6.188Z"
       class="uuid-014b2b89-f8e6-4600-bd44-ba5cc65b4688" />
    <path
       id="path40"
       d="M96.303,44.553c0-1.14,.888-1.799,2.411-1.799,.444,0,.888,.084,1.439,.288v-.504c0-.6-.396-.899-1.224-.899-.468,0-1.02,.132-1.739,.432l-.672-1.355c1.02-.456,1.931-.672,2.842-.672,1.715,0,2.711,.852,2.711,2.327v3.958h-1.919v-.54c-.54,.456-1.056,.636-1.715,.636-1.259,0-2.135-.768-2.135-1.871Zm2.734,.587c.408,0,.78-.108,1.116-.312v-.792c-.36-.084-.708-.132-1.068-.132-.635,0-.995,.216-.995,.612s.348,.624,.947,.624Z"
       class="uuid-014b2b89-f8e6-4600-bd44-ba5cc65b4688" />
    <path
       id="path42"
       d="M104.175,44.457v-2.818h-1.2v-1.499h1.2v-1.715l1.943-.396v2.111h1.655v1.499h-1.655v2.435c0,.552,.216,.744,.815,.744,.228,0,.408-.024,.792-.132v1.571c-.36,.108-.936,.192-1.331,.192-1.463,0-2.219-.672-2.219-1.991Z"
       class="uuid-014b2b89-f8e6-4600-bd44-ba5cc65b4688" />
    <path
       id="path44"
       d="M108.735,38.1c0-.6,.492-1.091,1.091-1.091s1.091,.492,1.091,1.091-.492,1.091-1.091,1.091-1.091-.492-1.091-1.091Zm.12,2.039h1.943v6.188h-1.943v-6.188Z"
       class="uuid-014b2b89-f8e6-4600-bd44-ba5cc65b4688" />
    <path
       id="path46"
       d="M112.311,40.139h1.943v1.007c.479-.72,1.151-1.104,1.955-1.104,1.2,0,2.051,.875,2.051,2.111v4.174h-1.943v-3.61c0-.696-.408-1.151-1.031-1.151-.42,0-.756,.168-1.031,.516v4.246h-1.943v-6.188Z"
       class="uuid-014b2b89-f8e6-4600-bd44-ba5cc65b4688" />
    <path
       id="path48"
       d="M120.086,48.402l.6-1.403c.684,.324,1.295,.48,1.895,.48,.924,0,1.403-.384,1.403-1.139v-.84c-.408,.504-1.079,.815-1.799,.815-1.523,0-2.734-1.391-2.734-3.118s1.271-3.094,2.878-3.094c.66,0,1.26,.276,1.679,.78v-.744h1.907v6.225c0,1.667-1.151,2.59-3.262,2.59-.936,0-1.823-.192-2.567-.552Zm3.898-4.162v-2.063c-.3-.312-.708-.479-1.151-.479-.852,0-1.475,.636-1.475,1.511s.636,1.523,1.475,1.523c.468,0,.852-.168,1.151-.492Z"
       class="uuid-014b2b89-f8e6-4600-bd44-ba5cc65b4688" />
    <path
       id="path50"
       d="M129.507,45.692l.852-1.295c.887,.468,1.391,.624,1.991,.624,.552,0,.888-.192,.888-.504,0-.24-.18-.372-.576-.444l-1.188-.216c-1.199-.228-1.823-.839-1.823-1.799,0-1.259,.971-2.015,2.59-2.015,.864,0,1.715,.24,2.519,.708l-.887,1.235c-.624-.36-1.2-.527-1.775-.527-.468,0-.744,.156-.744,.419,0,.252,.156,.36,.636,.444l1.164,.216c1.223,.228,1.859,.852,1.859,1.787,0,1.211-1.139,2.123-2.663,2.123-1.127,0-2.123-.264-2.842-.756Z"
       class="uuid-014b2b89-f8e6-4600-bd44-ba5cc65b4688" />
    <path
       id="path52"
       d="M135.891,48.858v-1.631c.144,.024,.348,.048,.576,.048,.528,0,.816-.216,1.007-.624l.096-.204-2.279-6.309h2.147l1.235,3.994,1.415-3.994h2.099l-2.783,6.884c-.576,1.415-1.283,1.931-2.71,1.931-.228,0-.54-.036-.804-.096Z"
       class="uuid-014b2b89-f8e6-4600-bd44-ba5cc65b4688" />
    <path
       id="path54"
       d="M142.527,45.692l.852-1.295c.887,.468,1.391,.624,1.991,.624,.552,0,.888-.192,.888-.504,0-.24-.18-.372-.576-.444l-1.188-.216c-1.199-.228-1.823-.839-1.823-1.799,0-1.259,.971-2.015,2.59-2.015,.864,0,1.715,.24,2.519,.708l-.887,1.235c-.624-.36-1.2-.527-1.775-.527-.468,0-.744,.156-.744,.419,0,.252,.156,.36,.636,.444l1.164,.216c1.223,.228,1.859,.852,1.859,1.787,0,1.211-1.139,2.123-2.663,2.123-1.127,0-2.123-.264-2.842-.756Z"
       class="uuid-014b2b89-f8e6-4600-bd44-ba5cc65b4688" />
    <path
       id="path56"
       d="M149.858,44.457v-2.818h-1.2v-1.499h1.2v-1.715l1.943-.396v2.111h1.655v1.499h-1.655v2.435c0,.552,.216,.744,.815,.744,.228,0,.408-.024,.792-.132v1.571c-.36,.108-.936,.192-1.331,.192-1.463,0-2.219-.672-2.219-1.991Z"
       class="uuid-014b2b89-f8e6-4600-bd44-ba5cc65b4688" />
    <path
       id="path58"
       d="M154.203,43.245c0-1.811,1.343-3.202,3.118-3.202,1.787,0,3.046,1.355,3.046,3.274v.42h-4.258c.18,.695,.744,1.163,1.451,1.163,.516,0,.947-.18,1.223-.516l1.284,1.067c-.804,.708-1.56,.996-2.603,.996-1.823,0-3.262-1.403-3.262-3.203Zm4.365-.611c-.168-.66-.636-1.08-1.259-1.08-.612,0-1.043,.396-1.199,1.08h2.458Z"
       class="uuid-014b2b89-f8e6-4600-bd44-ba5cc65b4688" />
    <path
       id="path60"
       d="M161.583,40.139h1.943v.983c.456-.708,1.079-1.08,1.835-1.08,.803,0,1.439,.444,1.739,1.151,.48-.744,1.175-1.151,2.027-1.151,1.14,0,1.943,.899,1.943,2.171v4.114h-1.943v-3.73c0-.624-.372-1.031-.923-1.031-.36,0-.647,.144-.899,.468v4.293h-1.943v-3.73c0-.624-.372-1.031-.924-1.031-.36,0-.66,.156-.911,.479v4.282h-1.943v-6.188Z"
       class="uuid-014b2b89-f8e6-4600-bd44-ba5cc65b4688" />
  </g>
  <g
     id="g110">
    <path
       id="path64"
       d="M267.243,82.581v-3.298h1.139v2.968c0,.74,.43,1.209,1.1,1.209,.45,0,.83-.2,1.089-.6v-3.578h1.129v5.007h-1.129v-.81c-.38,.59-.919,.89-1.589,.89-1.02,0-1.739-.74-1.739-1.789Z"
       class="uuid-014b2b89-f8e6-4600-bd44-ba5cc65b4688" />
    <path
       id="path66"
       d="M272.653,83.71l.53-.75c.66,.41,1.099,.569,1.609,.569,.6,0,1.009-.28,1.009-.679,0-.31-.209-.47-.699-.57l-.88-.15c-.979-.18-1.449-.63-1.449-1.379,0-.939,.77-1.549,1.939-1.549,.7,0,1.33,.2,1.969,.6l-.53,.75c-.51-.33-1-.48-1.509-.48-.52,0-.859,.22-.859,.58,0,.32,.18,.46,.7,.55l.889,.17c1,.18,1.479,.64,1.479,1.389,0,.919-.88,1.629-2.049,1.629-.859,0-1.619-.24-2.148-.68Z"
       class="uuid-014b2b89-f8e6-4600-bd44-ba5cc65b4688" />
    <path
       id="path68"
       d="M277.713,81.791c0-1.469,1.06-2.589,2.438-2.589,1.37,0,2.369,1.09,2.369,2.589v.27h-3.698c.11,.81,.72,1.399,1.499,1.399,.47,0,.91-.18,1.189-.47l.74,.669c-.61,.51-1.219,.73-1.979,.73-1.439,0-2.559-1.129-2.559-2.599Zm3.738-.43c-.12-.73-.64-1.239-1.309-1.239-.68,0-1.179,.489-1.309,1.239h2.618Z"
       class="uuid-014b2b89-f8e6-4600-bd44-ba5cc65b4688" />
    <path
       id="path70"
       d="M283.673,79.282h1.129v1.08c.28-.76,.759-1.169,1.379-1.169,.19,.01,.32,.03,.49,.1v.989c-.18-.07-.41-.12-.62-.12-.549,0-1,.31-1.249,.83v3.298h-1.129v-5.007Z"
       class="uuid-014b2b89-f8e6-4600-bd44-ba5cc65b4688" />
    <path
       id="path72"
       d="M287.503,79.912c0-.4,.31-.73,.7-.73s.699,.33,.699,.73-.31,.719-.699,.719-.7-.32-.7-.719Zm0,3.748c0-.399,.31-.729,.7-.729s.699,.33,.699,.729-.31,.72-.699,.72-.7-.32-.7-.72Z"
       class="uuid-014b2b89-f8e6-4600-bd44-ba5cc65b4688" />
    <path
       id="path74"
       d="M291.942,83.27l.65-.879c.899,.74,1.549,1.02,2.358,1.02,.919,0,1.559-.47,1.559-1.12,0-.569-.339-.839-1.269-1l-1.29-.22c-1.209-.22-1.799-.819-1.799-1.779,0-1.27,1.009-2.109,2.579-2.109,1.049,0,2.009,.31,2.809,.899l-.61,.899c-.7-.53-1.449-.81-2.239-.81-.839,0-1.399,.43-1.399,1,0,.51,.32,.77,1.079,.89l1.25,.21c1.409,.25,2.069,.869,2.069,1.929,0,1.29-1.14,2.199-2.809,2.199-1.1,0-2.049-.38-2.938-1.129Z"
       class="uuid-014b2b89-f8e6-4600-bd44-ba5cc65b4688" />
    <path
       id="path76"
       d="M299.242,82.99v-2.809h-1v-.899h1v-1.379l1.129-.24v1.619h1.39v.899h-1.39v2.559c0,.49,.19,.68,.7,.68,.22,0,.379-.03,.68-.12v.949c-.29,.09-.67,.14-.97,.14-1.01,0-1.539-.48-1.539-1.399Z"
       class="uuid-014b2b89-f8e6-4600-bd44-ba5cc65b4688" />
    <path
       id="path78"
       d="M302.722,82.581v-3.298h1.14v2.968c0,.74,.43,1.209,1.1,1.209,.449,0,.829-.2,1.089-.6v-3.578h1.13v5.007h-1.13v-.81c-.38,.59-.919,.89-1.589,.89-1.02,0-1.739-.74-1.739-1.789Z"
       class="uuid-014b2b89-f8e6-4600-bd44-ba5cc65b4688" />
    <path
       id="path80"
       d="M308.352,81.791c0-1.429,1.029-2.549,2.339-2.549,.569,0,1.09,.23,1.459,.65v-2.769l1.13-.2v7.366h-1.119v-.66c-.36,.45-.92,.709-1.55,.709-1.27,0-2.259-1.129-2.259-2.548Zm3.798,1.049v-2.109c-.289-.34-.72-.54-1.189-.54-.859,0-1.499,.68-1.499,1.599,0,.909,.64,1.599,1.499,1.599,.49,0,.9-.19,1.189-.55Z"
       class="uuid-014b2b89-f8e6-4600-bd44-ba5cc65b4688" />
    <path
       id="path82"
       d="M314.452,81.791c0-1.469,1.06-2.589,2.438-2.589,1.369,0,2.369,1.09,2.369,2.589v.27h-3.698c.109,.81,.72,1.399,1.499,1.399,.47,0,.909-.18,1.189-.47l.739,.669c-.609,.51-1.219,.73-1.979,.73-1.439,0-2.559-1.129-2.559-2.599Zm3.737-.43c-.119-.73-.64-1.239-1.309-1.239-.68,0-1.18,.489-1.31,1.239h2.618Z"
       class="uuid-014b2b89-f8e6-4600-bd44-ba5cc65b4688" />
    <path
       id="path84"
       d="M320.412,79.282h1.129v.82c.38-.59,.93-.9,1.579-.9,1.029,0,1.749,.73,1.749,1.789v3.298h-1.14v-2.979c0-.729-.43-1.199-1.099-1.199-.46,0-.83,.21-1.09,.61v3.568h-1.129v-5.007Z"
       class="uuid-014b2b89-f8e6-4600-bd44-ba5cc65b4688" />
    <path
       id="path86"
       d="M326.701,82.99v-2.809h-.999v-.899h.999v-1.379l1.13-.24v1.619h1.389v.899h-1.389v2.559c0,.49,.189,.68,.699,.68,.22,0,.38-.03,.68-.12v.949c-.29,.09-.67,.14-.97,.14-1.009,0-1.539-.48-1.539-1.399Z"
       class="uuid-014b2b89-f8e6-4600-bd44-ba5cc65b4688" />
    <path
       id="path88"
       d="M268.023,89.124l1.129-.2v3.178c.38-.59,.929-.9,1.579-.9,1.029,0,1.749,.73,1.749,1.789v3.298h-1.14v-2.979c0-.729-.43-1.199-1.099-1.199-.46,0-.83,.21-1.089,.61v3.568h-1.129v-7.166Z"
       class="uuid-014b2b89-f8e6-4600-bd44-ba5cc65b4688" />
    <path
       id="path90"
       d="M273.613,93.791c0-1.479,1.08-2.589,2.519-2.589,1.429,0,2.509,1.109,2.509,2.589s-1.08,2.588-2.509,2.588c-1.439,0-2.519-1.109-2.519-2.588Zm3.918,0c0-.93-.59-1.629-1.399-1.629-.819,0-1.409,.7-1.409,1.629,0,.939,.59,1.629,1.409,1.629,.81,0,1.399-.689,1.399-1.629Z"
       class="uuid-014b2b89-f8e6-4600-bd44-ba5cc65b4688" />
    <path
       id="path92"
       d="M279.363,95.71l.53-.75c.659,.41,1.099,.569,1.609,.569,.6,0,1.009-.28,1.009-.679,0-.31-.209-.47-.699-.57l-.88-.15c-.979-.18-1.449-.63-1.449-1.379,0-.939,.77-1.549,1.939-1.549,.7,0,1.33,.2,1.969,.6l-.53,.75c-.51-.33-1-.48-1.509-.48-.52,0-.859,.22-.859,.58,0,.32,.18,.46,.699,.55l.89,.17c1,.18,1.479,.64,1.479,1.389,0,.919-.88,1.629-2.049,1.629-.86,0-1.619-.24-2.149-.68Z"
       class="uuid-014b2b89-f8e6-4600-bd44-ba5cc65b4688" />
    <path
       id="path94"
       d="M285.122,94.99v-2.809h-1v-.899h1v-1.379l1.129-.24v1.619h1.389v.899h-1.389v2.559c0,.49,.19,.68,.7,.68,.22,0,.379-.03,.68-.12v.949c-.29,.09-.67,.14-.97,.14-1.009,0-1.539-.48-1.539-1.399Z"
       class="uuid-014b2b89-f8e6-4600-bd44-ba5cc65b4688" />
    <path
       id="path96"
       d="M290.982,89.293h1.199v6.996h-1.199v-6.996Z"
       class="uuid-014b2b89-f8e6-4600-bd44-ba5cc65b4688" />
    <path
       id="path98"
       d="M293.812,89.293h2.559c2.009,0,3.508,1.529,3.508,3.498s-1.499,3.498-3.508,3.498h-2.559v-6.996Zm2.589,5.957c1.259,0,2.249-1.069,2.249-2.458s-.989-2.458-2.249-2.458h-1.389v4.917h1.389Z"
       class="uuid-014b2b89-f8e6-4600-bd44-ba5cc65b4688" />
    <path
       id="path100"
       d="M300.942,91.912c0-.4,.31-.73,.699-.73s.699,.33,.699,.73-.31,.719-.699,.719-.699-.32-.699-.719Zm0,3.748c0-.399,.31-.729,.699-.729s.699,.33,.699,.729-.31,.72-.699,.72-.699-.32-.699-.72Z"
       class="uuid-014b2b89-f8e6-4600-bd44-ba5cc65b4688" />
    <path
       id="path102"
       d="M306.751,90.443l-1.239,.53v-.97l1.64-.709h.689v6.996h-1.09v-5.847Z"
       class="uuid-014b2b89-f8e6-4600-bd44-ba5cc65b4688" />
    <path
       id="path104"
       d="M309.062,92.792c0-2.149,1.17-3.608,2.869-3.608s2.858,1.459,2.858,3.608-1.159,3.598-2.858,3.598-2.869-1.459-2.869-3.598Zm4.638,0c0-1.609-.689-2.639-1.769-2.639s-1.779,1.029-1.779,2.639c0,1.599,.699,2.628,1.779,2.628s1.769-1.029,1.769-2.628Z"
       class="uuid-014b2b89-f8e6-4600-bd44-ba5cc65b4688" />
    <path
       id="path106"
       d="M315.802,92.792c0-2.149,1.169-3.608,2.868-3.608s2.858,1.459,2.858,3.608-1.159,3.598-2.858,3.598-2.868-1.459-2.868-3.598Zm4.638,0c0-1.609-.689-2.639-1.77-2.639s-1.778,1.029-1.778,2.639c0,1.599,.699,2.628,1.778,2.628s1.77-1.029,1.77-2.628Z"
       class="uuid-014b2b89-f8e6-4600-bd44-ba5cc65b4688" />
    <path
       id="path108"
       d="M322.542,92.792c0-2.149,1.169-3.608,2.868-3.608s2.858,1.459,2.858,3.608-1.159,3.598-2.858,3.598-2.868-1.459-2.868-3.598Zm4.638,0c0-1.609-.689-2.639-1.77-2.639s-1.778,1.029-1.778,2.639c0,1.599,.699,2.628,1.778,2.628s1.77-1.029,1.77-2.628Z"
       class="uuid-014b2b89-f8e6-4600-bd44-ba5cc65b4688" />
  </g>
  <g
     id="g120">
    <path
       id="path112"
       d="M59.575,195.257h1.959l2.688,6.996h-1.859l-.58-1.669h-2.559l-.589,1.669h-1.789l2.729-6.996Zm1.749,3.998l-.81-2.318-.819,2.318h1.629Z"
       class="uuid-014b2b89-f8e6-4600-bd44-ba5cc65b4688" />
    <path
       id="path114"
       d="M64.876,197.096h1.599v.72c.339-.46,.909-.75,1.529-.75,1.27,0,2.279,1.169,2.279,2.619s-1.06,2.598-2.398,2.598c-.56,0-1.05-.209-1.39-.6v2.659h-1.619v-7.246Zm3.818,2.579c0-.729-.53-1.269-1.229-1.269-.4,0-.709,.14-.97,.419v1.719c.25,.26,.59,.41,.97,.41,.709,0,1.229-.54,1.229-1.279Z"
       class="uuid-014b2b89-f8e6-4600-bd44-ba5cc65b4688" />
    <path
       id="path116"
       d="M71.316,197.096h1.599v.72c.339-.46,.909-.75,1.529-.75,1.27,0,2.279,1.169,2.279,2.619s-1.06,2.598-2.398,2.598c-.56,0-1.05-.209-1.39-.6v2.659h-1.619v-7.246Zm3.818,2.579c0-.729-.53-1.269-1.229-1.269-.4,0-.709,.14-.97,.419v1.719c.25,.26,.59,.41,.97,.41,.709,0,1.229-.54,1.229-1.279Z"
       class="uuid-014b2b89-f8e6-4600-bd44-ba5cc65b4688" />
    <path
       id="path118"
       d="M78.826,196.856l-1.379,.57v-1.359l1.949-.81h.97v6.996h-1.539v-5.397Z"
       class="uuid-014b2b89-f8e6-4600-bd44-ba5cc65b4688" />
  </g>
  <g
     id="g170">
    <path
       id="path122"
       d="M57.486,222.89v-3.298h1.139v2.968c0,.74,.43,1.209,1.1,1.209,.45,0,.83-.2,1.089-.6v-3.578h1.129v5.007h-1.129v-.81c-.38,.59-.919,.89-1.589,.89-1.019,0-1.739-.74-1.739-1.789Z"
       class="uuid-014b2b89-f8e6-4600-bd44-ba5cc65b4688" />
    <path
       id="path124"
       d="M62.896,224.019l.53-.75c.659,.41,1.099,.569,1.609,.569,.6,0,1.009-.28,1.009-.679,0-.31-.209-.47-.699-.57l-.88-.15c-.979-.18-1.449-.63-1.449-1.379,0-.939,.77-1.549,1.939-1.549,.7,0,1.33,.2,1.969,.6l-.53,.75c-.51-.33-1-.48-1.509-.48-.52,0-.859,.22-.859,.58,0,.32,.18,.46,.699,.55l.89,.17c1,.18,1.479,.64,1.479,1.389,0,.919-.88,1.629-2.049,1.629-.86,0-1.619-.24-2.149-.68Z"
       class="uuid-014b2b89-f8e6-4600-bd44-ba5cc65b4688" />
    <path
       id="path126"
       d="M67.956,222.1c0-1.469,1.06-2.589,2.438-2.589,1.37,0,2.369,1.09,2.369,2.589v.27h-3.698c.11,.81,.72,1.399,1.499,1.399,.47,0,.91-.18,1.189-.47l.74,.669c-.61,.51-1.219,.73-1.979,.73-1.439,0-2.559-1.129-2.559-2.599Zm3.738-.43c-.12-.73-.64-1.239-1.309-1.239-.68,0-1.179,.489-1.309,1.239h2.618Z"
       class="uuid-014b2b89-f8e6-4600-bd44-ba5cc65b4688" />
    <path
       id="path128"
       d="M73.916,219.591h1.129v1.08c.28-.76,.759-1.169,1.379-1.169,.19,.01,.32,.03,.49,.1v.989c-.18-.07-.41-.12-.62-.12-.549,0-.999,.31-1.249,.83v3.298h-1.129v-5.007Z"
       class="uuid-014b2b89-f8e6-4600-bd44-ba5cc65b4688" />
    <path
       id="path130"
       d="M77.746,220.221c0-.4,.31-.73,.7-.73s.699,.33,.699,.73-.31,.719-.699,.719-.7-.32-.7-.719Zm0,3.748c0-.399,.31-.729,.7-.729s.699,.33,.699,.729-.31,.72-.699,.72-.7-.32-.7-.72Z"
       class="uuid-014b2b89-f8e6-4600-bd44-ba5cc65b4688" />
    <path
       id="path132"
       d="M82.646,219.591h1.129v1.08c.28-.76,.759-1.169,1.379-1.169,.19,.01,.32,.03,.49,.1v.989c-.18-.07-.41-.12-.62-.12-.549,0-.999,.31-1.249,.83v3.298h-1.129v-5.007Z"
       class="uuid-014b2b89-f8e6-4600-bd44-ba5cc65b4688" />
    <path
       id="path134"
       d="M86.116,222.1c0-1.479,1.08-2.589,2.519-2.589,1.429,0,2.509,1.109,2.509,2.589s-1.08,2.588-2.509,2.588c-1.439,0-2.519-1.109-2.519-2.588Zm3.918,0c0-.93-.59-1.629-1.399-1.629-.819,0-1.409,.7-1.409,1.629,0,.939,.59,1.629,1.409,1.629,.81,0,1.399-.689,1.399-1.629Z"
       class="uuid-014b2b89-f8e6-4600-bd44-ba5cc65b4688" />
    <path
       id="path136"
       d="M92.085,222.1c0-1.479,1.08-2.589,2.519-2.589,1.429,0,2.509,1.109,2.509,2.589s-1.08,2.588-2.509,2.588c-1.439,0-2.519-1.109-2.519-2.588Zm3.918,0c0-.93-.59-1.629-1.399-1.629-.819,0-1.409,.7-1.409,1.629,0,.939,.59,1.629,1.409,1.629,.81,0,1.399-.689,1.399-1.629Z"
       class="uuid-014b2b89-f8e6-4600-bd44-ba5cc65b4688" />
    <path
       id="path138"
       d="M98.675,223.299v-2.809h-1v-.899h1v-1.379l1.129-.24v1.619h1.389v.899h-1.389v2.559c0,.49,.19,.68,.7,.68,.22,0,.379-.03,.68-.12v.949c-.29,.09-.67,.14-.97,.14-1.009,0-1.539-.48-1.539-1.399Z"
       class="uuid-014b2b89-f8e6-4600-bd44-ba5cc65b4688" />
    <path
       id="path140"
       d="M57.616,229.603h1.199v6.996h-1.199v-6.996Z"
       class="uuid-014b2b89-f8e6-4600-bd44-ba5cc65b4688" />
    <path
       id="path142"
       d="M60.446,229.603h2.559c2.009,0,3.508,1.529,3.508,3.498s-1.499,3.498-3.508,3.498h-2.559v-6.996Zm2.589,5.957c1.259,0,2.249-1.069,2.249-2.458s-.989-2.458-2.249-2.458h-1.389v4.917h1.389Z"
       class="uuid-014b2b89-f8e6-4600-bd44-ba5cc65b4688" />
    <path
       id="path144"
       d="M67.576,232.221c0-.4,.31-.73,.7-.73s.699,.33,.699,.73-.31,.719-.699,.719-.7-.32-.7-.719Zm0,3.748c0-.399,.31-.729,.7-.729s.699,.33,.699,.729-.31,.72-.699,.72-.7-.32-.7-.72Z"
       class="uuid-014b2b89-f8e6-4600-bd44-ba5cc65b4688" />
    <path
       id="path146"
       d="M72.276,233.101c0-2.149,1.169-3.608,2.869-3.608s2.858,1.459,2.858,3.608-1.159,3.598-2.858,3.598-2.869-1.459-2.869-3.598Zm4.638,0c0-1.609-.689-2.639-1.769-2.639s-1.779,1.029-1.779,2.639c0,1.599,.699,2.628,1.779,2.628s1.769-1.029,1.769-2.628Z"
       class="uuid-014b2b89-f8e6-4600-bd44-ba5cc65b4688" />
    <path
       id="path148"
       d="M57.526,241.433l1.129-.2v3.178c.38-.59,.929-.9,1.579-.9,1.029,0,1.749,.73,1.749,1.789v3.298h-1.14v-2.979c0-.729-.43-1.199-1.099-1.199-.46,0-.83,.21-1.089,.61v3.568h-1.129v-7.166Z"
       class="uuid-014b2b89-f8e6-4600-bd44-ba5cc65b4688" />
    <path
       id="path150"
       d="M63.116,246.1c0-1.479,1.08-2.589,2.519-2.589,1.429,0,2.509,1.109,2.509,2.589s-1.08,2.588-2.509,2.588c-1.439,0-2.519-1.109-2.519-2.588Zm3.918,0c0-.93-.59-1.629-1.399-1.629-.819,0-1.409,.7-1.409,1.629,0,.939,.59,1.629,1.409,1.629,.81,0,1.399-.689,1.399-1.629Z"
       class="uuid-014b2b89-f8e6-4600-bd44-ba5cc65b4688" />
    <path
       id="path152"
       d="M68.866,248.019l.53-.75c.659,.41,1.099,.569,1.609,.569,.6,0,1.009-.28,1.009-.679,0-.31-.209-.47-.699-.57l-.88-.15c-.979-.18-1.449-.63-1.449-1.379,0-.939,.77-1.549,1.939-1.549,.7,0,1.33,.2,1.969,.6l-.53,.75c-.51-.33-1-.48-1.509-.48-.52,0-.859,.22-.859,.58,0,.32,.18,.46,.699,.55l.89,.17c1,.18,1.479,.64,1.479,1.389,0,.919-.88,1.629-2.049,1.629-.86,0-1.619-.24-2.149-.68Z"
       class="uuid-014b2b89-f8e6-4600-bd44-ba5cc65b4688" />
    <path
       id="path154"
       d="M74.625,247.299v-2.809h-1v-.899h1v-1.379l1.129-.24v1.619h1.389v.899h-1.389v2.559c0,.49,.19,.68,.7,.68,.22,0,.379-.03,.68-.12v.949c-.29,.09-.67,.14-.97,.14-1.009,0-1.539-.48-1.539-1.399Z"
       class="uuid-014b2b89-f8e6-4600-bd44-ba5cc65b4688" />
    <path
       id="path156"
       d="M80.486,241.603h1.199v6.996h-1.199v-6.996Z"
       class="uuid-014b2b89-f8e6-4600-bd44-ba5cc65b4688" />
    <path
       id="path158"
       d="M83.315,241.603h2.559c2.009,0,3.508,1.529,3.508,3.498s-1.499,3.498-3.508,3.498h-2.559v-6.996Zm2.589,5.957c1.259,0,2.249-1.069,2.249-2.458s-.989-2.458-2.249-2.458h-1.389v4.917h1.389Z"
       class="uuid-014b2b89-f8e6-4600-bd44-ba5cc65b4688" />
    <path
       id="path160"
       d="M90.446,244.221c0-.4,.31-.73,.7-.73s.699,.33,.699,.73-.31,.719-.699,.719-.7-.32-.7-.719Zm0,3.748c0-.399,.31-.729,.7-.729s.699,.33,.699,.729-.31,.72-.699,.72-.7-.32-.7-.72Z"
       class="uuid-014b2b89-f8e6-4600-bd44-ba5cc65b4688" />
    <path
       id="path162"
       d="M96.255,242.752l-1.239,.53v-.97l1.639-.709h.69v6.996h-1.09v-5.847Z"
       class="uuid-014b2b89-f8e6-4600-bd44-ba5cc65b4688" />
    <path
       id="path164"
       d="M98.565,245.101c0-2.149,1.169-3.608,2.869-3.608s2.858,1.459,2.858,3.608-1.159,3.598-2.858,3.598-2.869-1.459-2.869-3.598Zm4.638,0c0-1.609-.689-2.639-1.769-2.639s-1.779,1.029-1.779,2.639c0,1.599,.699,2.628,1.779,2.628s1.769-1.029,1.769-2.628Z"
       class="uuid-014b2b89-f8e6-4600-bd44-ba5cc65b4688" />
    <path
       id="path166"
       d="M105.305,245.101c0-2.149,1.169-3.608,2.869-3.608s2.858,1.459,2.858,3.608-1.159,3.598-2.858,3.598-2.869-1.459-2.869-3.598Zm4.638,0c0-1.609-.689-2.639-1.769-2.639s-1.779,1.029-1.779,2.639c0,1.599,.699,2.628,1.779,2.628s1.769-1.029,1.769-2.628Z"
       class="uuid-014b2b89-f8e6-4600-bd44-ba5cc65b4688" />
    <path
       id="path168"
       d="M112.045,245.101c0-2.149,1.169-3.608,2.869-3.608s2.858,1.459,2.858,3.608-1.159,3.598-2.858,3.598-2.869-1.459-2.869-3.598Zm4.638,0c0-1.609-.689-2.639-1.769-2.639s-1.779,1.029-1.779,2.639c0,1.599,.699,2.628,1.779,2.628s1.769-1.029,1.769-2.628Z"
       class="uuid-014b2b89-f8e6-4600-bd44-ba5cc65b4688" />
  </g>
  <g
     id="g230">
    <path
       id="path172"
       d="M242.688,222.89v-3.298h1.139v2.968c0,.74,.43,1.209,1.1,1.209,.45,0,.83-.2,1.089-.6v-3.578h1.129v5.007h-1.129v-.81c-.38,.59-.919,.89-1.589,.89-1.019,0-1.739-.74-1.739-1.789Z"
       class="uuid-014b2b89-f8e6-4600-bd44-ba5cc65b4688" />
    <path
       id="path174"
       d="M248.098,224.019l.53-.75c.659,.41,1.099,.569,1.609,.569,.6,0,1.009-.28,1.009-.679,0-.31-.209-.47-.699-.57l-.88-.15c-.979-.18-1.449-.63-1.449-1.379,0-.939,.77-1.549,1.939-1.549,.7,0,1.33,.2,1.969,.6l-.53,.75c-.51-.33-1-.48-1.509-.48-.52,0-.859,.22-.859,.58,0,.32,.18,.46,.699,.55l.89,.17c1,.18,1.479,.64,1.479,1.389,0,.919-.88,1.629-2.049,1.629-.86,0-1.619-.24-2.149-.68Z"
       class="uuid-014b2b89-f8e6-4600-bd44-ba5cc65b4688" />
    <path
       id="path176"
       d="M253.158,222.1c0-1.469,1.06-2.589,2.438-2.589,1.37,0,2.369,1.09,2.369,2.589v.27h-3.698c.11,.81,.72,1.399,1.499,1.399,.47,0,.91-.18,1.189-.47l.74,.669c-.61,.51-1.219,.73-1.979,.73-1.439,0-2.559-1.129-2.559-2.599Zm3.738-.43c-.12-.73-.64-1.239-1.309-1.239-.68,0-1.179,.489-1.309,1.239h2.618Z"
       class="uuid-014b2b89-f8e6-4600-bd44-ba5cc65b4688" />
    <path
       id="path178"
       d="M259.118,219.591h1.129v1.08c.28-.76,.759-1.169,1.379-1.169,.19,.01,.32,.03,.49,.1v.989c-.18-.07-.41-.12-.62-.12-.549,0-.999,.31-1.249,.83v3.298h-1.129v-5.007Z"
       class="uuid-014b2b89-f8e6-4600-bd44-ba5cc65b4688" />
    <path
       id="path180"
       d="M262.948,220.221c0-.4,.31-.73,.7-.73s.699,.33,.699,.73-.31,.719-.699,.719-.7-.32-.7-.719Zm0,3.748c0-.399,.31-.729,.7-.729s.699,.33,.699,.729-.31,.72-.699,.72-.7-.32-.7-.72Z"
       class="uuid-014b2b89-f8e6-4600-bd44-ba5cc65b4688" />
    <path
       id="path182"
       d="M268.756,218.752l-1.239,.53v-.97l1.639-.709h.69v6.996h-1.09v-5.847Z"
       class="uuid-014b2b89-f8e6-4600-bd44-ba5cc65b4688" />
    <path
       id="path184"
       d="M271.067,221.101c0-2.149,1.169-3.608,2.869-3.608s2.858,1.459,2.858,3.608-1.159,3.598-2.858,3.598-2.869-1.459-2.869-3.598Zm4.638,0c0-1.609-.689-2.639-1.769-2.639s-1.779,1.029-1.779,2.639c0,1.599,.699,2.628,1.779,2.628s1.769-1.029,1.769-2.628Z"
       class="uuid-014b2b89-f8e6-4600-bd44-ba5cc65b4688" />
    <path
       id="path186"
       d="M277.807,221.101c0-2.149,1.169-3.608,2.869-3.608s2.858,1.459,2.858,3.608-1.159,3.598-2.858,3.598-2.869-1.459-2.869-3.598Zm4.638,0c0-1.609-.689-2.639-1.769-2.639s-1.779,1.029-1.779,2.639c0,1.599,.699,2.628,1.779,2.628s1.769-1.029,1.769-2.628Z"
       class="uuid-014b2b89-f8e6-4600-bd44-ba5cc65b4688" />
    <path
       id="path188"
       d="M284.547,221.101c0-2.149,1.169-3.608,2.869-3.608s2.858,1.459,2.858,3.608-1.159,3.598-2.858,3.598-2.869-1.459-2.869-3.598Zm4.638,0c0-1.609-.689-2.639-1.769-2.639s-1.779,1.029-1.779,2.639c0,1.599,.699,2.628,1.779,2.628s1.769-1.029,1.769-2.628Z"
       class="uuid-014b2b89-f8e6-4600-bd44-ba5cc65b4688" />
    <path
       id="path190"
       d="M242.818,229.603h1.199v6.996h-1.199v-6.996Z"
       class="uuid-014b2b89-f8e6-4600-bd44-ba5cc65b4688" />
    <path
       id="path192"
       d="M245.647,229.603h2.559c2.009,0,3.508,1.529,3.508,3.498s-1.499,3.498-3.508,3.498h-2.559v-6.996Zm2.589,5.957c1.259,0,2.249-1.069,2.249-2.458s-.989-2.458-2.249-2.458h-1.389v4.917h1.389Z"
       class="uuid-014b2b89-f8e6-4600-bd44-ba5cc65b4688" />
    <path
       id="path194"
       d="M252.778,232.221c0-.4,.31-.73,.7-.73s.699,.33,.699,.73-.31,.719-.699,.719-.7-.32-.7-.719Zm0,3.748c0-.399,.31-.729,.7-.729s.699,.33,.699,.729-.31,.72-.699,.72-.7-.32-.7-.72Z"
       class="uuid-014b2b89-f8e6-4600-bd44-ba5cc65b4688" />
    <path
       id="path196"
       d="M258.587,230.752l-1.239,.53v-.97l1.639-.709h.69v6.996h-1.09v-5.847Z"
       class="uuid-014b2b89-f8e6-4600-bd44-ba5cc65b4688" />
    <path
       id="path198"
       d="M260.897,233.101c0-2.149,1.169-3.608,2.869-3.608s2.858,1.459,2.858,3.608-1.159,3.598-2.858,3.598-2.869-1.459-2.869-3.598Zm4.638,0c0-1.609-.689-2.639-1.769-2.639s-1.779,1.029-1.779,2.639c0,1.599,.699,2.628,1.779,2.628s1.769-1.029,1.769-2.628Z"
       class="uuid-014b2b89-f8e6-4600-bd44-ba5cc65b4688" />
    <path
       id="path200"
       d="M267.638,233.101c0-2.149,1.169-3.608,2.869-3.608s2.858,1.459,2.858,3.608-1.159,3.598-2.858,3.598-2.869-1.459-2.869-3.598Zm4.638,0c0-1.609-.689-2.639-1.769-2.639s-1.779,1.029-1.779,2.639c0,1.599,.699,2.628,1.779,2.628s1.769-1.029,1.769-2.628Z"
       class="uuid-014b2b89-f8e6-4600-bd44-ba5cc65b4688" />
    <path
       id="path202"
       d="M274.377,233.101c0-2.149,1.169-3.608,2.869-3.608s2.858,1.459,2.858,3.608-1.159,3.598-2.858,3.598-2.869-1.459-2.869-3.598Zm4.638,0c0-1.609-.689-2.639-1.769-2.639s-1.779,1.029-1.779,2.639c0,1.599,.699,2.628,1.779,2.628s1.769-1.029,1.769-2.628Z"
       class="uuid-014b2b89-f8e6-4600-bd44-ba5cc65b4688" />
    <path
       id="path204"
       d="M242.728,241.433l1.129-.2v3.178c.38-.59,.929-.9,1.579-.9,1.029,0,1.749,.73,1.749,1.789v3.298h-1.14v-2.979c0-.729-.43-1.199-1.099-1.199-.46,0-.83,.21-1.089,.61v3.568h-1.129v-7.166Z"
       class="uuid-014b2b89-f8e6-4600-bd44-ba5cc65b4688" />
    <path
       id="path206"
       d="M248.318,246.1c0-1.479,1.08-2.589,2.519-2.589,1.429,0,2.509,1.109,2.509,2.589s-1.08,2.588-2.509,2.588c-1.439,0-2.519-1.109-2.519-2.588Zm3.918,0c0-.93-.59-1.629-1.399-1.629-.819,0-1.409,.7-1.409,1.629,0,.939,.59,1.629,1.409,1.629,.81,0,1.399-.689,1.399-1.629Z"
       class="uuid-014b2b89-f8e6-4600-bd44-ba5cc65b4688" />
    <path
       id="path208"
       d="M254.068,248.019l.53-.75c.659,.41,1.099,.569,1.609,.569,.6,0,1.009-.28,1.009-.679,0-.31-.209-.47-.699-.57l-.88-.15c-.979-.18-1.449-.63-1.449-1.379,0-.939,.77-1.549,1.939-1.549,.7,0,1.33,.2,1.969,.6l-.53,.75c-.51-.33-1-.48-1.509-.48-.52,0-.859,.22-.859,.58,0,.32,.18,.46,.699,.55l.89,.17c1,.18,1.479,.64,1.479,1.389,0,.919-.88,1.629-2.049,1.629-.86,0-1.619-.24-2.149-.68Z"
       class="uuid-014b2b89-f8e6-4600-bd44-ba5cc65b4688" />
    <path
       id="path210"
       d="M259.827,247.299v-2.809h-1v-.899h1v-1.379l1.129-.24v1.619h1.389v.899h-1.389v2.559c0,.49,.19,.68,.7,.68,.22,0,.379-.03,.68-.12v.949c-.29,.09-.67,.14-.97,.14-1.009,0-1.539-.48-1.539-1.399Z"
       class="uuid-014b2b89-f8e6-4600-bd44-ba5cc65b4688" />
    <path
       id="path212"
       d="M265.688,241.603h1.199v6.996h-1.199v-6.996Z"
       class="uuid-014b2b89-f8e6-4600-bd44-ba5cc65b4688" />
    <path
       id="path214"
       d="M268.517,241.603h2.559c2.009,0,3.508,1.529,3.508,3.498s-1.499,3.498-3.508,3.498h-2.559v-6.996Zm2.589,5.957c1.259,0,2.249-1.069,2.249-2.458s-.989-2.458-2.249-2.458h-1.389v4.917h1.389Z"
       class="uuid-014b2b89-f8e6-4600-bd44-ba5cc65b4688" />
    <path
       id="path216"
       d="M275.647,244.221c0-.4,.31-.73,.7-.73s.699,.33,.699,.73-.31,.719-.699,.719-.7-.32-.7-.719Zm0,3.748c0-.399,.31-.729,.7-.729s.699,.33,.699,.729-.31,.72-.699,.72-.7-.32-.7-.72Z"
       class="uuid-014b2b89-f8e6-4600-bd44-ba5cc65b4688" />
    <path
       id="path218"
       d="M281.457,242.752l-1.239,.53v-.97l1.639-.709h.69v6.996h-1.09v-5.847Z"
       class="uuid-014b2b89-f8e6-4600-bd44-ba5cc65b4688" />
    <path
       id="path220"
       d="M283.767,245.101c0-2.149,1.169-3.608,2.869-3.608s2.858,1.459,2.858,3.608-1.159,3.598-2.858,3.598-2.869-1.459-2.869-3.598Zm4.638,0c0-1.609-.689-2.639-1.769-2.639s-1.779,1.029-1.779,2.639c0,1.599,.699,2.628,1.779,2.628s1.769-1.029,1.769-2.628Z"
       class="uuid-014b2b89-f8e6-4600-bd44-ba5cc65b4688" />
    <path
       id="path222"
       d="M290.507,245.101c0-2.149,1.169-3.608,2.869-3.608s2.858,1.459,2.858,3.608-1.159,3.598-2.858,3.598-2.869-1.459-2.869-3.598Zm4.638,0c0-1.609-.689-2.639-1.769-2.639s-1.779,1.029-1.779,2.639c0,1.599,.699,2.628,1.779,2.628s1.769-1.029,1.769-2.628Z"
       class="uuid-014b2b89-f8e6-4600-bd44-ba5cc65b4688" />
    <path
       id="path224"
       d="M302.504,244.911c0,2.279-1.3,3.788-3.258,3.788-.67,0-1.399-.23-1.859-.6l.6-.81c.4,.29,.84,.43,1.35,.43,1.299,0,2.059-1.04,2.078-2.799-.479,.66-1.189,1.03-1.929,1.03-1.369,0-2.348-.899-2.348-2.149,0-1.329,1.049-2.309,2.468-2.309,1.719,0,2.898,1.389,2.898,3.418Zm-1.14-.66c-.18-1.099-.829-1.819-1.719-1.819-.819,0-1.429,.569-1.429,1.349,0,.76,.59,1.309,1.439,1.309,.66,0,1.27-.32,1.709-.839Z"
       class="uuid-014b2b89-f8e6-4600-bd44-ba5cc65b4688" />
    <path
       id="path226"
       d="M308.784,244.911c0,2.279-1.3,3.788-3.258,3.788-.67,0-1.399-.23-1.859-.6l.6-.81c.399,.29,.84,.43,1.35,.43,1.299,0,2.059-1.04,2.078-2.799-.479,.66-1.189,1.03-1.929,1.03-1.369,0-2.349-.899-2.349-2.149,0-1.329,1.05-2.309,2.469-2.309,1.719,0,2.898,1.389,2.898,3.418Zm-1.14-.66c-.18-1.099-.829-1.819-1.719-1.819-.819,0-1.43,.569-1.43,1.349,0,.76,.59,1.309,1.439,1.309,.66,0,1.27-.32,1.709-.839Z"
       class="uuid-014b2b89-f8e6-4600-bd44-ba5cc65b4688" />
    <path
       id="path228"
       d="M315.064,244.911c0,2.279-1.3,3.788-3.258,3.788-.67,0-1.399-.23-1.859-.6l.6-.81c.399,.29,.84,.43,1.35,.43,1.299,0,2.059-1.04,2.078-2.799-.479,.66-1.189,1.03-1.929,1.03-1.369,0-2.349-.899-2.349-2.149,0-1.329,1.05-2.309,2.469-2.309,1.719,0,2.898,1.389,2.898,3.418Zm-1.14-.66c-.18-1.099-.829-1.819-1.719-1.819-.819,0-1.43,.569-1.43,1.349,0,.76,.59,1.309,1.439,1.309,.66,0,1.27-.32,1.709-.839Z"
       class="uuid-014b2b89-f8e6-4600-bd44-ba5cc65b4688" />
  </g>
  <g
     id="g306">
    <path
       id="path232"
       d="M428.071,222.889v-3.298h1.14v2.968c0,.74,.43,1.209,1.1,1.209,.449,0,.829-.2,1.089-.6v-3.578h1.13v5.007h-1.13v-.81c-.38,.59-.919,.89-1.589,.89-1.02,0-1.739-.74-1.739-1.789Z"
       class="uuid-014b2b89-f8e6-4600-bd44-ba5cc65b4688" />
    <path
       id="path234"
       d="M433.481,224.019l.53-.75c.659,.41,1.099,.569,1.608,.569,.6,0,1.01-.28,1.01-.679,0-.31-.21-.47-.699-.57l-.88-.15c-.979-.18-1.449-.63-1.449-1.379,0-.939,.77-1.549,1.938-1.549,.7,0,1.33,.2,1.97,.6l-.53,.75c-.51-.33-.999-.48-1.509-.48-.52,0-.859,.22-.859,.58,0,.32,.18,.46,.699,.55l.89,.17c.999,.18,1.479,.64,1.479,1.389,0,.919-.88,1.629-2.049,1.629-.86,0-1.619-.24-2.149-.68Z"
       class="uuid-014b2b89-f8e6-4600-bd44-ba5cc65b4688" />
    <path
       id="path236"
       d="M438.541,222.1c0-1.469,1.06-2.589,2.438-2.589,1.37,0,2.369,1.09,2.369,2.589v.27h-3.698c.11,.81,.72,1.399,1.499,1.399,.47,0,.91-.18,1.189-.47l.74,.669c-.61,.51-1.22,.73-1.979,.73-1.438,0-2.559-1.129-2.559-2.599Zm3.738-.43c-.12-.73-.64-1.239-1.31-1.239-.68,0-1.179,.489-1.309,1.239h2.618Z"
       class="uuid-014b2b89-f8e6-4600-bd44-ba5cc65b4688" />
    <path
       id="path238"
       d="M444.501,219.591h1.13v1.08c.279-.76,.759-1.169,1.379-1.169,.189,.01,.319,.03,.489,.1v.989c-.18-.07-.409-.12-.619-.12-.55,0-.999,.31-1.249,.83v3.298h-1.13v-5.007Z"
       class="uuid-014b2b89-f8e6-4600-bd44-ba5cc65b4688" />
    <path
       id="path240"
       d="M448.331,220.221c0-.4,.31-.73,.7-.73s.699,.33,.699,.73-.31,.719-.699,.719-.7-.32-.7-.719Zm0,3.748c0-.399,.31-.729,.7-.729s.699,.33,.699,.729-.31,.72-.699,.72-.7-.32-.7-.72Z"
       class="uuid-014b2b89-f8e6-4600-bd44-ba5cc65b4688" />
    <path
       id="path242"
       d="M453.23,219.591h1.109v.709c.36-.47,.92-.75,1.56-.75,1.27,0,2.259,1.129,2.259,2.549,0,1.429-1.02,2.548-2.329,2.548-.59,0-1.109-.22-1.469-.64v2.679h-1.13v-7.096Zm3.818,2.509c0-.91-.64-1.599-1.489-1.599-.5,0-.91,.2-1.199,.56v2.089c.289,.35,.72,.56,1.199,.56,.859,0,1.489-.689,1.489-1.609Z"
       class="uuid-014b2b89-f8e6-4600-bd44-ba5cc65b4688" />
    <path
       id="path244"
       d="M458.99,226.717v-.979c.131,.03,.29,.04,.44,.04,.399,0,.64-.18,.81-.569l.229-.56-1.889-5.057h1.249l1.279,3.708,1.39-3.708h1.239l-2.398,5.877c-.391,.969-.85,1.319-1.789,1.319-.16,0-.36-.02-.561-.07Z"
       class="uuid-014b2b89-f8e6-4600-bd44-ba5cc65b4688" />
    <path
       id="path246"
       d="M465.33,223.299v-2.809h-.999v-.899h.999v-1.379l1.13-.24v1.619h1.389v.899h-1.389v2.559c0,.49,.189,.68,.699,.68,.22,0,.38-.03,.68-.12v.949c-.29,.09-.67,.14-.97,.14-1.009,0-1.539-.48-1.539-1.399Z"
       class="uuid-014b2b89-f8e6-4600-bd44-ba5cc65b4688" />
    <path
       id="path248"
       d="M468.851,217.432l1.129-.2v3.178c.38-.59,.93-.9,1.579-.9,1.029,0,1.749,.73,1.749,1.789v3.298h-1.14v-2.979c0-.729-.43-1.199-1.099-1.199-.46,0-.83,.21-1.09,.61v3.568h-1.129v-7.166Z"
       class="uuid-014b2b89-f8e6-4600-bd44-ba5cc65b4688" />
    <path
       id="path250"
       d="M474.44,222.1c0-1.479,1.079-2.589,2.519-2.589,1.429,0,2.509,1.109,2.509,2.589s-1.08,2.588-2.509,2.588c-1.439,0-2.519-1.109-2.519-2.588Zm3.918,0c0-.93-.59-1.629-1.399-1.629-.819,0-1.409,.7-1.409,1.629,0,.939,.59,1.629,1.409,1.629,.81,0,1.399-.689,1.399-1.629Z"
       class="uuid-014b2b89-f8e6-4600-bd44-ba5cc65b4688" />
    <path
       id="path252"
       d="M480.641,219.591h1.129v.82c.38-.59,.93-.9,1.579-.9,1.029,0,1.749,.73,1.749,1.789v3.298h-1.14v-2.979c0-.729-.43-1.199-1.099-1.199-.46,0-.83,.21-1.09,.61v3.568h-1.129v-5.007Z"
       class="uuid-014b2b89-f8e6-4600-bd44-ba5cc65b4688" />
    <path
       id="path254"
       d="M486.32,221.28h3.488v.959h-3.488v-.959Z"
       class="uuid-014b2b89-f8e6-4600-bd44-ba5cc65b4688" />
    <path
       id="path256"
       d="M490.63,224.019l.53-.75c.659,.41,1.099,.569,1.608,.569,.6,0,1.01-.28,1.01-.679,0-.31-.21-.47-.699-.57l-.88-.15c-.979-.18-1.449-.63-1.449-1.379,0-.939,.77-1.549,1.938-1.549,.7,0,1.33,.2,1.97,.6l-.53,.75c-.51-.33-.999-.48-1.509-.48-.52,0-.859,.22-.859,.58,0,.32,.18,.46,.699,.55l.89,.17c.999,.18,1.479,.64,1.479,1.389,0,.919-.88,1.629-2.049,1.629-.86,0-1.619-.24-2.149-.68Z"
       class="uuid-014b2b89-f8e6-4600-bd44-ba5cc65b4688" />
    <path
       id="path258"
       d="M495.689,222.1c0-1.469,1.06-2.589,2.438-2.589,1.37,0,2.369,1.09,2.369,2.589v.27h-3.698c.11,.81,.72,1.399,1.499,1.399,.47,0,.91-.18,1.189-.47l.74,.669c-.61,.51-1.22,.73-1.979,.73-1.438,0-2.559-1.129-2.559-2.599Zm3.738-.43c-.12-.73-.64-1.239-1.31-1.239-.68,0-1.179,.489-1.309,1.239h2.618Z"
       class="uuid-014b2b89-f8e6-4600-bd44-ba5cc65b4688" />
    <path
       id="path260"
       d="M501.649,219.591h1.13v1.08c.279-.76,.759-1.169,1.379-1.169,.189,.01,.319,.03,.489,.1v.989c-.18-.07-.409-.12-.619-.12-.55,0-.999,.31-1.249,.83v3.298h-1.13v-5.007Z"
       class="uuid-014b2b89-f8e6-4600-bd44-ba5cc65b4688" />
    <path
       id="path262"
       d="M505.14,219.591h1.229l1.399,3.638,1.39-3.638h1.179l-2.059,5.007h-1.1l-2.039-5.007Z"
       class="uuid-014b2b89-f8e6-4600-bd44-ba5cc65b4688" />
    <path
       id="path264"
       d="M510.77,222.1c0-1.469,1.06-2.589,2.438-2.589,1.37,0,2.369,1.09,2.369,2.589v.27h-3.698c.11,.81,.72,1.399,1.499,1.399,.47,0,.91-.18,1.189-.47l.74,.669c-.61,.51-1.22,.73-1.979,.73-1.438,0-2.559-1.129-2.559-2.599Zm3.738-.43c-.12-.73-.64-1.239-1.31-1.239-.68,0-1.179,.489-1.309,1.239h2.618Z"
       class="uuid-014b2b89-f8e6-4600-bd44-ba5cc65b4688" />
    <path
       id="path266"
       d="M516.729,219.591h1.13v1.08c.279-.76,.759-1.169,1.379-1.169,.189,.01,.319,.03,.489,.1v.989c-.18-.07-.409-.12-.619-.12-.55,0-.999,.31-1.249,.83v3.298h-1.13v-5.007Z"
       class="uuid-014b2b89-f8e6-4600-bd44-ba5cc65b4688" />
    <path
       id="path268"
       d="M428.201,229.602h1.199v6.996h-1.199v-6.996Z"
       class="uuid-014b2b89-f8e6-4600-bd44-ba5cc65b4688" />
    <path
       id="path270"
       d="M431.031,229.602h2.559c2.009,0,3.508,1.529,3.508,3.498s-1.499,3.498-3.508,3.498h-2.559v-6.996Zm2.589,5.957c1.259,0,2.248-1.069,2.248-2.458s-.989-2.458-2.248-2.458h-1.39v4.917h1.39Z"
       class="uuid-014b2b89-f8e6-4600-bd44-ba5cc65b4688" />
    <path
       id="path272"
       d="M438.161,232.221c0-.4,.31-.73,.7-.73s.699,.33,.699,.73-.31,.719-.699,.719-.7-.32-.7-.719Zm0,3.748c0-.399,.31-.729,.7-.729s.699,.33,.699,.729-.31,.72-.699,.72-.7-.32-.7-.72Z"
       class="uuid-014b2b89-f8e6-4600-bd44-ba5cc65b4688" />
    <path
       id="path274"
       d="M448.168,232.91c0,2.279-1.299,3.788-3.258,3.788-.67,0-1.399-.23-1.859-.6l.6-.81c.4,.29,.84,.43,1.35,.43,1.3,0,2.059-1.04,2.079-2.799-.479,.66-1.189,1.03-1.929,1.03-1.369,0-2.349-.899-2.349-2.149,0-1.329,1.049-2.309,2.468-2.309,1.72,0,2.898,1.389,2.898,3.418Zm-1.139-.66c-.181-1.099-.83-1.819-1.72-1.819-.819,0-1.429,.569-1.429,1.349,0,.76,.59,1.309,1.439,1.309,.659,0,1.269-.32,1.709-.839Z"
       class="uuid-014b2b89-f8e6-4600-bd44-ba5cc65b4688" />
    <path
       id="path276"
       d="M454.448,232.91c0,2.279-1.299,3.788-3.258,3.788-.67,0-1.399-.23-1.859-.6l.6-.81c.4,.29,.84,.43,1.35,.43,1.3,0,2.059-1.04,2.079-2.799-.479,.66-1.189,1.03-1.929,1.03-1.369,0-2.349-.899-2.349-2.149,0-1.329,1.049-2.309,2.468-2.309,1.72,0,2.898,1.389,2.898,3.418Zm-1.139-.66c-.181-1.099-.83-1.819-1.72-1.819-.819,0-1.429,.569-1.429,1.349,0,.76,.59,1.309,1.439,1.309,.659,0,1.269-.32,1.709-.839Z"
       class="uuid-014b2b89-f8e6-4600-bd44-ba5cc65b4688" />
    <path
       id="path278"
       d="M459.159,234.869h-3.848v-.899l3.688-4.368h1.279v4.317h.92v.95h-.92v1.729h-1.119v-1.729Zm0-.95v-3.038l-2.549,3.038h2.549Z"
       class="uuid-014b2b89-f8e6-4600-bd44-ba5cc65b4688" />
    <path
       id="path280"
       d="M428.111,241.432l1.13-.2v3.178c.38-.59,.929-.9,1.579-.9,1.029,0,1.749,.73,1.749,1.789v3.298h-1.14v-2.979c0-.729-.43-1.199-1.1-1.199-.46,0-.829,.21-1.089,.61v3.568h-1.13v-7.166Z"
       class="uuid-014b2b89-f8e6-4600-bd44-ba5cc65b4688" />
    <path
       id="path282"
       d="M433.701,246.1c0-1.479,1.08-2.589,2.519-2.589,1.43,0,2.509,1.109,2.509,2.589s-1.079,2.588-2.509,2.588c-1.438,0-2.519-1.109-2.519-2.588Zm3.918,0c0-.93-.59-1.629-1.399-1.629-.819,0-1.409,.7-1.409,1.629,0,.939,.59,1.629,1.409,1.629,.81,0,1.399-.689,1.399-1.629Z"
       class="uuid-014b2b89-f8e6-4600-bd44-ba5cc65b4688" />
    <path
       id="path284"
       d="M439.451,248.019l.53-.75c.659,.41,1.099,.569,1.608,.569,.6,0,1.01-.28,1.01-.679,0-.31-.21-.47-.699-.57l-.88-.15c-.979-.18-1.449-.63-1.449-1.379,0-.939,.77-1.549,1.938-1.549,.7,0,1.33,.2,1.97,.6l-.53,.75c-.51-.33-.999-.48-1.509-.48-.52,0-.859,.22-.859,.58,0,.32,.18,.46,.699,.55l.89,.17c.999,.18,1.479,.64,1.479,1.389,0,.919-.88,1.629-2.049,1.629-.86,0-1.619-.24-2.149-.68Z"
       class="uuid-014b2b89-f8e6-4600-bd44-ba5cc65b4688" />
    <path
       id="path286"
       d="M445.211,247.299v-2.809h-1v-.899h1v-1.379l1.129-.24v1.619h1.39v.899h-1.39v2.559c0,.49,.19,.68,.7,.68,.22,0,.379-.03,.68-.12v.949c-.29,.09-.67,.14-.97,.14-1.01,0-1.539-.48-1.539-1.399Z"
       class="uuid-014b2b89-f8e6-4600-bd44-ba5cc65b4688" />
    <path
       id="path288"
       d="M451.071,241.602h1.199v6.996h-1.199v-6.996Z"
       class="uuid-014b2b89-f8e6-4600-bd44-ba5cc65b4688" />
    <path
       id="path290"
       d="M453.9,241.602h2.559c2.01,0,3.509,1.529,3.509,3.498s-1.499,3.498-3.509,3.498h-2.559v-6.996Zm2.589,5.957c1.26,0,2.249-1.069,2.249-2.458s-.989-2.458-2.249-2.458h-1.389v4.917h1.389Z"
       class="uuid-014b2b89-f8e6-4600-bd44-ba5cc65b4688" />
    <path
       id="path292"
       d="M461.031,244.221c0-.4,.31-.73,.699-.73s.699,.33,.699,.73-.31,.719-.699,.719-.699-.32-.699-.719Zm0,3.748c0-.399,.31-.729,.699-.729s.699,.33,.699,.729-.31,.72-.699,.72-.699-.32-.699-.72Z"
       class="uuid-014b2b89-f8e6-4600-bd44-ba5cc65b4688" />
    <path
       id="path294"
       d="M466.84,242.751l-1.239,.53v-.97l1.64-.709h.689v6.996h-1.09v-5.847Z"
       class="uuid-014b2b89-f8e6-4600-bd44-ba5cc65b4688" />
    <path
       id="path296"
       d="M469.15,245.1c0-2.149,1.17-3.608,2.869-3.608s2.858,1.459,2.858,3.608-1.159,3.598-2.858,3.598-2.869-1.459-2.869-3.598Zm4.638,0c0-1.609-.689-2.639-1.769-2.639s-1.779,1.029-1.779,2.639c0,1.599,.699,2.628,1.779,2.628s1.769-1.029,1.769-2.628Z"
       class="uuid-014b2b89-f8e6-4600-bd44-ba5cc65b4688" />
    <path
       id="path298"
       d="M475.891,245.1c0-2.149,1.169-3.608,2.868-3.608s2.858,1.459,2.858,3.608-1.159,3.598-2.858,3.598-2.868-1.459-2.868-3.598Zm4.638,0c0-1.609-.689-2.639-1.77-2.639s-1.778,1.029-1.778,2.639c0,1.599,.699,2.628,1.778,2.628s1.77-1.029,1.77-2.628Z"
       class="uuid-014b2b89-f8e6-4600-bd44-ba5cc65b4688" />
    <path
       id="path300"
       d="M487.888,244.91c0,2.279-1.3,3.788-3.258,3.788-.67,0-1.399-.23-1.859-.6l.6-.81c.399,.29,.84,.43,1.35,.43,1.299,0,2.059-1.04,2.078-2.799-.479,.66-1.189,1.03-1.929,1.03-1.369,0-2.349-.899-2.349-2.149,0-1.329,1.05-2.309,2.469-2.309,1.719,0,2.898,1.389,2.898,3.418Zm-1.14-.66c-.18-1.099-.829-1.819-1.719-1.819-.819,0-1.43,.569-1.43,1.349,0,.76,.59,1.309,1.439,1.309,.66,0,1.27-.32,1.709-.839Z"
       class="uuid-014b2b89-f8e6-4600-bd44-ba5cc65b4688" />
    <path
       id="path302"
       d="M494.168,244.91c0,2.279-1.3,3.788-3.258,3.788-.67,0-1.399-.23-1.859-.6l.6-.81c.399,.29,.84,.43,1.35,.43,1.299,0,2.059-1.04,2.078-2.799-.479,.66-1.189,1.03-1.929,1.03-1.369,0-2.349-.899-2.349-2.149,0-1.329,1.05-2.309,2.469-2.309,1.719,0,2.898,1.389,2.898,3.418Zm-1.14-.66c-.18-1.099-.829-1.819-1.719-1.819-.819,0-1.43,.569-1.43,1.349,0,.76,.59,1.309,1.439,1.309,.66,0,1.27-.32,1.709-.839Z"
       class="uuid-014b2b89-f8e6-4600-bd44-ba5cc65b4688" />
    <path
       id="path304"
       d="M495.041,247.659l.729-.7c.56,.58,1.06,.79,1.839,.79,.91,0,1.529-.47,1.529-1.159,0-.63-.51-1.06-1.249-1.06h-.859v-.919h.77c.68,0,1.119-.41,1.119-1.04s-.58-1.109-1.329-1.109c-.7,0-1.17,.22-1.739,.83l-.739-.689c.64-.71,1.549-1.109,2.508-1.109,1.39,0,2.389,.819,2.389,1.969,0,.74-.529,1.359-1.318,1.589,.929,.2,1.549,.819,1.549,1.609,0,1.189-1.1,2.049-2.608,2.049-1.029,0-1.959-.38-2.589-1.049Z"
       class="uuid-014b2b89-f8e6-4600-bd44-ba5cc65b4688" />
  </g>
  <g
     id="g316">
    <path
       id="path308"
       d="M244.757,195.257h1.959l2.688,6.996h-1.859l-.58-1.669h-2.559l-.589,1.669h-1.789l2.729-6.996Zm1.749,3.998l-.81-2.318-.819,2.318h1.629Z"
       class="uuid-014b2b89-f8e6-4600-bd44-ba5cc65b4688" />
    <path
       id="path310"
       d="M250.058,197.096h1.599v.72c.339-.46,.909-.75,1.529-.75,1.27,0,2.279,1.169,2.279,2.619s-1.06,2.598-2.398,2.598c-.56,0-1.05-.209-1.39-.6v2.659h-1.619v-7.246Zm3.818,2.579c0-.729-.53-1.269-1.229-1.269-.4,0-.709,.14-.97,.419v1.719c.25,.26,.59,.41,.97,.41,.709,0,1.229-.54,1.229-1.279Z"
       class="uuid-014b2b89-f8e6-4600-bd44-ba5cc65b4688" />
    <path
       id="path312"
       d="M256.498,197.096h1.599v.72c.339-.46,.909-.75,1.529-.75,1.27,0,2.279,1.169,2.279,2.619s-1.06,2.598-2.398,2.598c-.56,0-1.05-.209-1.39-.6v2.659h-1.619v-7.246Zm3.818,2.579c0-.729-.53-1.269-1.229-1.269-.4,0-.709,.14-.97,.419v1.719c.25,.26,.59,.41,.97,.41,.709,0,1.229-.54,1.229-1.279Z"
       class="uuid-014b2b89-f8e6-4600-bd44-ba5cc65b4688" />
    <path
       id="path314"
       d="M262.818,201.153l2.958-2.928c.33-.32,.47-.62,.47-.949,0-.45-.44-.79-1.03-.79-.629,0-1.129,.24-1.769,.859l-.859-1.049c.8-.76,1.709-1.149,2.679-1.149,1.489,0,2.479,.81,2.479,2.029,0,.66-.28,1.219-.91,1.829l-2.019,1.949,3.028-.01v1.309h-5.027v-1.1Z"
       class="uuid-014b2b89-f8e6-4600-bd44-ba5cc65b4688" />
  </g>
  <g
     id="g326">
    <path
       id="path318"
       d="M430.161,195.257h1.959l2.688,6.996h-1.859l-.58-1.669h-2.559l-.589,1.669h-1.789l2.729-6.996Zm1.749,3.998l-.81-2.318-.819,2.318h1.629Z"
       class="uuid-014b2b89-f8e6-4600-bd44-ba5cc65b4688" />
    <path
       id="path320"
       d="M435.462,197.096h1.6v.72c.339-.46,.909-.75,1.528-.75,1.27,0,2.279,1.169,2.279,2.619s-1.06,2.598-2.398,2.598c-.561,0-1.05-.209-1.39-.6v2.659h-1.619v-7.246Zm3.818,2.579c0-.729-.53-1.269-1.229-1.269-.4,0-.71,.14-.97,.419v1.719c.25,.26,.59,.41,.97,.41,.709,0,1.229-.54,1.229-1.279Z"
       class="uuid-014b2b89-f8e6-4600-bd44-ba5cc65b4688" />
    <path
       id="path322"
       d="M441.902,197.096h1.599v.72c.34-.46,.909-.75,1.529-.75,1.27,0,2.278,1.169,2.278,2.619s-1.06,2.598-2.398,2.598c-.56,0-1.05-.209-1.39-.6v2.659h-1.618v-7.246Zm3.817,2.579c0-.729-.529-1.269-1.229-1.269-.399,0-.709,.14-.97,.419v1.719c.25,.26,.59,.41,.97,.41,.71,0,1.229-.54,1.229-1.279Z"
       class="uuid-014b2b89-f8e6-4600-bd44-ba5cc65b4688" />
    <path
       id="path324"
       d="M448.022,201.233l1.039-.959c.52,.56,.93,.74,1.699,.74,.76,0,1.259-.34,1.259-.859,0-.45-.359-.73-.919-.73h-.899v-1.269h.739c.569,0,.909-.29,.909-.78,0-.5-.47-.859-1.1-.859-.679,0-1.079,.2-1.629,.799l-1.049-.949c.659-.76,1.688-1.219,2.738-1.219,1.529,0,2.589,.83,2.589,2.019,0,.76-.54,1.37-1.33,1.599,.92,.18,1.51,.75,1.51,1.52,0,1.209-1.17,2.079-2.799,2.079-1.119,0-2.139-.42-2.758-1.129Z"
       class="uuid-014b2b89-f8e6-4600-bd44-ba5cc65b4688" />
  </g>
  <g
     id="g332">
    <line
       id="line328"
       y2="177.302"
       x2="113.18"
       y1="114.624"
       x1="113.18"
       class="uuid-c25c922f-05cf-4648-b70b-9f8e90b788f3" />
    <polygon
       id="polygon330"
       points="108.194 175.843 113.18 184.479 118.167 175.843 108.194 175.843"
       class="uuid-014b2b89-f8e6-4600-bd44-ba5cc65b4688" />
  </g>
  <g
     id="g338">
    <line
       id="line334"
       y2="177.384"
       x2="298.053"
       y1="114.706"
       x1="298.053"
       class="uuid-c25c922f-05cf-4648-b70b-9f8e90b788f3" />
    <polygon
       id="polygon336"
       points="293.066 175.925 298.053 184.561 303.039 175.925 293.066 175.925"
       class="uuid-014b2b89-f8e6-4600-bd44-ba5cc65b4688" />
  </g>
  <g
     id="g344">
    <line
       id="line340"
       y2="177.302"
       x2="482.925"
       y1="114.624"
       x1="482.925"
       class="uuid-c25c922f-05cf-4648-b70b-9f8e90b788f3" />
    <polygon
       id="polygon342"
       points="477.939 175.843 482.925 184.479 487.911 175.843 477.939 175.843"
       class="uuid-014b2b89-f8e6-4600-bd44-ba5cc65b4688" />
  </g>
  <rect
     id="rect346"
     height="11.862"
     width="27.407"
     y="143.62"
     x="99.477"
     class="uuid-a01115cf-eb41-417a-a05d-c449ce6c953d" />
  <g
     id="g362">
    <path
       id="path348"
       d="M96.441,149.736c0-1.609,1.229-2.908,2.729-2.908,.82,0,1.569,.37,1.979,1l-.81,.66c-.27-.45-.68-.67-1.199-.67-.87,0-1.599,.83-1.599,1.829,0,.81,.549,1.379,1.299,1.379,.43,0,.829-.17,1.159-.46l.54,.709c-.52,.48-1.189,.73-1.879,.73-1.279,0-2.219-.959-2.219-2.269Z"
       class="uuid-014b2b89-f8e6-4600-bd44-ba5cc65b4688" />
    <path
       id="path350"
       d="M102.321,146.898h1.12l-.22,.99c.42-.71,.92-1.07,1.489-1.07,.2,0,.41,.05,.56,.12l-.22,.989c-.12-.09-.42-.15-.66-.15-.49,0-.969,.27-1.309,.75l-.74,3.378h-1.109l1.089-5.007Z"
       class="uuid-014b2b89-f8e6-4600-bd44-ba5cc65b4688" />
    <path
       id="path352"
       d="M105.341,149.667c0-1.559,1.189-2.849,2.639-2.849,1.229,0,2.089,.92,2.089,2.229,0,.23-.01,.43-.04,.629h-3.608c.01,.8,.589,1.399,1.369,1.399,.43,0,.85-.14,1.149-.4l.6,.73c-.61,.419-1.179,.6-1.839,.6-1.389,0-2.359-.959-2.359-2.339Zm3.728-.689c-.03-.71-.5-1.229-1.159-1.229s-1.2,.5-1.41,1.229h2.569Z"
       class="uuid-014b2b89-f8e6-4600-bd44-ba5cc65b4688" />
    <path
       id="path354"
       d="M110.751,150.586c0-.979,.77-1.609,1.969-1.609,.54,0,1.059,.13,1.469,.36l.1-.43c.17-.77-.19-1.159-1.069-1.159-.37,0-.79,.1-1.359,.32l-.27-.819c.719-.28,1.329-.42,1.899-.42,1.459,0,2.188,.77,1.909,2.039l-.669,3.039h-1.1l.1-.45c-.48,.35-.899,.51-1.369,.51-.979,0-1.609-.54-1.609-1.379Zm3.108,.23l.19-.839c-.32-.19-.72-.28-1.199-.28-.65,0-1.069,.32-1.069,.78,0,.45,.359,.709,.979,.709,.4,0,.75-.11,1.1-.37Z"
       class="uuid-014b2b89-f8e6-4600-bd44-ba5cc65b4688" />
    <path
       id="path356"
       d="M116.821,150.506l.58-2.708h-.979l.2-.899h.959l.3-1.379,1.169-.24-.35,1.619h1.369l-.2,.899h-1.37l-.54,2.509c-.11,.52,.07,.72,.64,.72,.16,0,.26-.01,.57-.09l-.2,.949c-.24,.06-.549,.1-.849,.1-1.04,0-1.5-.53-1.299-1.479Z"
       class="uuid-014b2b89-f8e6-4600-bd44-ba5cc65b4688" />
    <path
       id="path358"
       d="M120.261,149.667c0-1.559,1.189-2.849,2.639-2.849,1.229,0,2.089,.92,2.089,2.229,0,.23-.01,.43-.04,.629h-3.608c.01,.8,.589,1.399,1.369,1.399,.43,0,.85-.14,1.149-.4l.6,.73c-.61,.419-1.179,.6-1.839,.6-1.389,0-2.359-.959-2.359-2.339Zm3.728-.689c-.03-.71-.5-1.229-1.159-1.229s-1.2,.5-1.41,1.229h2.569Z"
       class="uuid-014b2b89-f8e6-4600-bd44-ba5cc65b4688" />
    <path
       id="path360"
       d="M125.441,151.176l.62-.72c.63,.51,1.06,.689,1.609,.689,.529,0,.929-.3,.929-.679,0-.27-.17-.43-.589-.54l-.85-.22c-.78-.22-1.169-.66-1.169-1.31,0-.969,.729-1.589,1.879-1.589,.75,0,1.439,.26,2.039,.75l-.62,.709c-.49-.39-1.02-.6-1.479-.6-.52,0-.83,.23-.83,.59,0,.28,.15,.43,.58,.55l.85,.229c.83,.23,1.229,.64,1.229,1.26,0,.979-.85,1.709-1.999,1.709-.859,0-1.659-.3-2.199-.83Z"
       class="uuid-014b2b89-f8e6-4600-bd44-ba5cc65b4688" />
  </g>
  <rect
     id="rect364"
     height="11.862"
     width="27.407"
     y="143.62"
     x="284.593"
     class="uuid-a01115cf-eb41-417a-a05d-c449ce6c953d" />
  <g
     id="g380">
    <path
       id="path366"
       d="M281.558,149.736c0-1.609,1.229-2.908,2.729-2.908,.82,0,1.569,.37,1.979,1l-.81,.66c-.27-.45-.68-.67-1.199-.67-.87,0-1.599,.83-1.599,1.829,0,.81,.549,1.379,1.299,1.379,.43,0,.829-.17,1.159-.46l.54,.709c-.52,.48-1.189,.73-1.879,.73-1.279,0-2.219-.959-2.219-2.269Z"
       class="uuid-014b2b89-f8e6-4600-bd44-ba5cc65b4688" />
    <path
       id="path368"
       d="M287.437,146.898h1.12l-.22,.99c.42-.71,.92-1.07,1.489-1.07,.2,0,.41,.05,.56,.12l-.22,.989c-.12-.09-.42-.15-.66-.15-.49,0-.969,.27-1.309,.75l-.74,3.378h-1.109l1.089-5.007Z"
       class="uuid-014b2b89-f8e6-4600-bd44-ba5cc65b4688" />
    <path
       id="path370"
       d="M290.458,149.667c0-1.559,1.189-2.849,2.639-2.849,1.229,0,2.089,.92,2.089,2.229,0,.23-.01,.43-.04,.629h-3.608c.01,.8,.589,1.399,1.369,1.399,.43,0,.85-.14,1.149-.4l.6,.73c-.61,.419-1.179,.6-1.839,.6-1.389,0-2.359-.959-2.359-2.339Zm3.728-.689c-.03-.71-.5-1.229-1.159-1.229s-1.2,.5-1.41,1.229h2.569Z"
       class="uuid-014b2b89-f8e6-4600-bd44-ba5cc65b4688" />
    <path
       id="path372"
       d="M295.868,150.586c0-.979,.77-1.609,1.969-1.609,.54,0,1.059,.13,1.47,.36l.1-.43c.17-.77-.19-1.159-1.07-1.159-.37,0-.79,.1-1.359,.32l-.27-.819c.719-.28,1.329-.42,1.899-.42,1.459,0,2.188,.77,1.909,2.039l-.67,3.039h-1.1l.1-.45c-.48,.35-.899,.51-1.369,.51-.979,0-1.609-.54-1.609-1.379Zm3.108,.23l.19-.839c-.32-.19-.72-.28-1.199-.28-.65,0-1.069,.32-1.069,.78,0,.45,.359,.709,.979,.709,.4,0,.75-.11,1.1-.37Z"
       class="uuid-014b2b89-f8e6-4600-bd44-ba5cc65b4688" />
    <path
       id="path374"
       d="M301.938,150.506l.579-2.708h-.979l.2-.899h.959l.3-1.379,1.17-.24-.35,1.619h1.369l-.2,.899h-1.369l-.54,2.509c-.109,.52,.07,.72,.64,.72,.16,0,.26-.01,.57-.09l-.2,.949c-.24,.06-.55,.1-.85,.1-1.039,0-1.499-.53-1.299-1.479Z"
       class="uuid-014b2b89-f8e6-4600-bd44-ba5cc65b4688" />
    <path
       id="path376"
       d="M305.378,149.667c0-1.559,1.189-2.849,2.639-2.849,1.229,0,2.089,.92,2.089,2.229,0,.23-.011,.43-.04,.629h-3.608c.01,.8,.59,1.399,1.369,1.399,.43,0,.85-.14,1.149-.4l.6,.73c-.609,.419-1.179,.6-1.839,.6-1.389,0-2.358-.959-2.358-2.339Zm3.728-.689c-.029-.71-.499-1.229-1.159-1.229s-1.199,.5-1.409,1.229h2.568Z"
       class="uuid-014b2b89-f8e6-4600-bd44-ba5cc65b4688" />
    <path
       id="path378"
       d="M310.558,151.176l.62-.72c.63,.51,1.06,.689,1.609,.689,.529,0,.929-.3,.929-.679,0-.27-.17-.43-.589-.54l-.85-.22c-.78-.22-1.17-.66-1.17-1.31,0-.969,.729-1.589,1.879-1.589,.75,0,1.439,.26,2.039,.75l-.619,.709c-.49-.39-1.02-.6-1.479-.6-.52,0-.83,.23-.83,.59,0,.28,.15,.43,.58,.55l.85,.229c.829,.23,1.229,.64,1.229,1.26,0,.979-.85,1.709-1.999,1.709-.859,0-1.659-.3-2.199-.83Z"
       class="uuid-014b2b89-f8e6-4600-bd44-ba5cc65b4688" />
  </g>
  <rect
     id="rect382"
     height="11.862"
     width="27.407"
     y="143.62"
     x="469.964"
     class="uuid-a01115cf-eb41-417a-a05d-c449ce6c953d" />
  <g
     id="g398">
    <path
       id="path384"
       d="M466.929,149.736c0-1.609,1.229-2.908,2.729-2.908,.82,0,1.569,.37,1.979,1l-.81,.66c-.271-.45-.68-.67-1.199-.67-.87,0-1.6,.83-1.6,1.829,0,.81,.55,1.379,1.3,1.379,.43,0,.829-.17,1.159-.46l.539,.709c-.52,.48-1.188,.73-1.879,.73-1.279,0-2.219-.959-2.219-2.269Z"
       class="uuid-014b2b89-f8e6-4600-bd44-ba5cc65b4688" />
    <path
       id="path386"
       d="M472.809,146.898h1.119l-.22,.99c.42-.71,.92-1.07,1.489-1.07,.2,0,.409,.05,.56,.12l-.22,.989c-.12-.09-.42-.15-.66-.15-.489,0-.969,.27-1.309,.75l-.74,3.378h-1.109l1.09-5.007Z"
       class="uuid-014b2b89-f8e6-4600-bd44-ba5cc65b4688" />
    <path
       id="path388"
       d="M475.829,149.667c0-1.559,1.189-2.849,2.639-2.849,1.229,0,2.089,.92,2.089,2.229,0,.23-.011,.43-.04,.629h-3.608c.01,.8,.59,1.399,1.369,1.399,.43,0,.85-.14,1.149-.4l.6,.73c-.609,.419-1.179,.6-1.839,.6-1.389,0-2.358-.959-2.358-2.339Zm3.728-.689c-.029-.71-.499-1.229-1.159-1.229s-1.199,.5-1.409,1.229h2.568Z"
       class="uuid-014b2b89-f8e6-4600-bd44-ba5cc65b4688" />
    <path
       id="path390"
       d="M481.239,150.586c0-.979,.77-1.609,1.969-1.609,.54,0,1.06,.13,1.47,.36l.1-.43c.17-.77-.19-1.159-1.069-1.159-.37,0-.79,.1-1.359,.32l-.27-.819c.719-.28,1.329-.42,1.898-.42,1.459,0,2.188,.77,1.909,2.039l-.67,3.039h-1.1l.101-.45c-.48,.35-.899,.51-1.369,.51-.979,0-1.609-.54-1.609-1.379Zm3.108,.23l.189-.839c-.319-.19-.72-.28-1.199-.28-.649,0-1.069,.32-1.069,.78,0,.45,.359,.709,.979,.709,.399,0,.75-.11,1.1-.37Z"
       class="uuid-014b2b89-f8e6-4600-bd44-ba5cc65b4688" />
    <path
       id="path392"
       d="M487.309,150.506l.579-2.708h-.979l.2-.899h.959l.3-1.379,1.17-.24-.35,1.619h1.369l-.2,.899h-1.369l-.54,2.509c-.109,.52,.07,.72,.64,.72,.16,0,.26-.01,.57-.09l-.2,.949c-.24,.06-.55,.1-.85,.1-1.039,0-1.499-.53-1.299-1.479Z"
       class="uuid-014b2b89-f8e6-4600-bd44-ba5cc65b4688" />
    <path
       id="path394"
       d="M490.749,149.667c0-1.559,1.189-2.849,2.639-2.849,1.229,0,2.089,.92,2.089,2.229,0,.23-.011,.43-.04,.629h-3.608c.01,.8,.59,1.399,1.369,1.399,.43,0,.85-.14,1.149-.4l.6,.73c-.609,.419-1.179,.6-1.839,.6-1.389,0-2.358-.959-2.358-2.339Zm3.728-.689c-.029-.71-.499-1.229-1.159-1.229s-1.199,.5-1.409,1.229h2.568Z"
       class="uuid-014b2b89-f8e6-4600-bd44-ba5cc65b4688" />
    <path
       id="path396"
       d="M495.929,151.176l.62-.72c.63,.51,1.06,.689,1.609,.689,.529,0,.929-.3,.929-.679,0-.27-.17-.43-.589-.54l-.85-.22c-.78-.22-1.17-.66-1.17-1.31,0-.969,.729-1.589,1.879-1.589,.75,0,1.439,.26,2.039,.75l-.619,.709c-.49-.39-1.02-.6-1.479-.6-.52,0-.83,.23-.83,.59,0,.28,.15,.43,.58,.55l.85,.229c.829,.23,1.229,.64,1.229,1.26,0,.979-.85,1.709-1.999,1.709-.859,0-1.659-.3-2.199-.83Z"
       class="uuid-014b2b89-f8e6-4600-bd44-ba5cc65b4688" />
  </g>
</svg>
