<?xml version="1.0" encoding="UTF-8"?>
<svg id="uuid-fb0bd3cf-58c9-462a-8141-af12e9b20ff0" data-name="Layer 1" xmlns="http://www.w3.org/2000/svg" width="595.276" height="317.851" viewBox="0 0 595.276 317.851">
  <defs>
    <style>
      .uuid-30b05fbc-669c-4fa1-b2f0-70ed9c665168 {
        fill: #e6e6e6;
      }

      .uuid-694bc019-722f-48bb-af58-e7bf561de584 {
        fill: #b4b4b4;
      }

      .uuid-07f58f20-e647-46ec-94be-3463a434a21a {
        fill: #c0d682;
      }

      .uuid-3feec1dd-c712-44a9-8b6c-99377deaef07 {
        fill: #3f9c35;
      }

      .uuid-db07a0f4-8e48-4ecf-9475-298aad5fabd8, .uuid-193f9081-8196-4cde-a356-6f683f2b9af7 {
        fill: #fff;
      }

      .uuid-db07a0f4-8e48-4ecf-9475-298aad5fabd8, .uuid-193f9081-8196-4cde-a356-6f683f2b9af7, .uuid-c0f20026-f5df-428b-9e20-ec80e2261b96, .uuid-ea3345e3-8b32-4698-956c-5b763508ac2c {
        stroke-miterlimit: 10;
      }

      .uuid-db07a0f4-8e48-4ecf-9475-298aad5fabd8, .uuid-c0f20026-f5df-428b-9e20-ec80e2261b96 {
        stroke: #3f9c35;
      }

      .uuid-193f9081-8196-4cde-a356-6f683f2b9af7, .uuid-ea3345e3-8b32-4698-956c-5b763508ac2c {
        stroke: #c0d682;
      }

      .uuid-c0f20026-f5df-428b-9e20-ec80e2261b96, .uuid-ea3345e3-8b32-4698-956c-5b763508ac2c {
        fill: none;
      }

      .uuid-f5f567e8-1ce9-467f-9ed5-1b0af4640eaf {
        isolation: isolate;
      }
    </style>
  </defs>
  <rect class="uuid-30b05fbc-669c-4fa1-b2f0-70ed9c665168" x="231.496" y="16.403" width="333.665" height="281.861"/>
  <rect class="uuid-30b05fbc-669c-4fa1-b2f0-70ed9c665168" x="30.046" y="16.403" width="166.986" height="281.861"/>
  <g class="uuid-f5f567e8-1ce9-467f-9ed5-1b0af4640eaf">
    <path d="M249.897,29.201h1.959l2.688,6.996h-1.858l-.58-1.669h-2.559l-.59,1.669h-1.789l2.729-6.996Zm1.749,3.998l-.81-2.319-.819,2.319h1.629Z"/>
    <path d="M255.258,32.288h-1.069v-1.249h1.069v-.68c0-1.229,.729-1.898,2.06-1.898,.279,0,.649,.04,.859,.1v1.329c-.29-.05-.44-.06-.62-.06-.46,0-.68,.18-.68,.56v.649h1.3v1.249h-1.3v3.908h-1.619v-3.908Z"/>
    <path d="M259.778,34.637v-2.349h-.999v-1.249h.999v-1.429l1.619-.33v1.759h1.379v1.249h-1.379v2.029c0,.46,.18,.619,.68,.619,.189,0,.34-.02,.659-.109v1.31c-.3,.09-.779,.159-1.109,.159-1.219,0-1.849-.56-1.849-1.659Z"/>
    <path d="M263.399,33.628c0-1.51,1.119-2.669,2.599-2.669,1.488,0,2.538,1.13,2.538,2.729v.35h-3.548c.149,.58,.619,.97,1.209,.97,.43,0,.79-.149,1.02-.43l1.069,.89c-.669,.59-1.299,.829-2.169,.829-1.519,0-2.718-1.169-2.718-2.668Zm3.638-.51c-.14-.55-.529-.899-1.05-.899-.51,0-.869,.329-.999,.899h2.049Z"/>
    <path d="M269.549,31.039h1.619v1.169c.33-.859,.79-1.269,1.399-1.269,.229,.01,.34,.029,.539,.13v1.389c-.199-.1-.479-.159-.759-.159-.48,0-.92,.249-1.18,.64v3.258h-1.619v-5.157Z"/>
  </g>
  <g class="uuid-f5f567e8-1ce9-467f-9ed5-1b0af4640eaf">
    <path d="M45.929,29.201h3.458c1.359,0,2.329,.8,2.329,1.909,0,.649-.41,1.199-1.02,1.519,.729,.29,1.219,.89,1.219,1.609,0,1.149-.979,1.959-2.369,1.959h-3.618v-6.996Zm3.258,2.809c.48,0,.8-.29,.8-.72,0-.439-.31-.72-.8-.72h-1.539v1.439h1.539Zm.14,2.818c.52,0,.85-.3,.85-.77s-.33-.77-.85-.77h-1.679v1.539h1.679Z"/>
    <path d="M52.739,33.628c0-1.51,1.119-2.669,2.599-2.669,1.489,0,2.539,1.13,2.539,2.729v.35h-3.548c.15,.58,.62,.97,1.209,.97,.43,0,.79-.149,1.02-.43l1.069,.89c-.669,.59-1.299,.829-2.169,.829-1.519,0-2.718-1.169-2.718-2.668Zm3.638-.51c-.14-.55-.529-.899-1.049-.899-.51,0-.87,.329-1,.899h2.049Z"/>
    <path d="M59.498,32.288h-1.069v-1.249h1.069v-.68c0-1.229,.729-1.898,2.059-1.898,.28,0,.649,.04,.859,.1v1.329c-.29-.05-.44-.06-.62-.06-.46,0-.68,.18-.68,.56v.649h1.299v1.249h-1.299v3.908h-1.619v-3.908Z"/>
    <path d="M62.909,33.628c0-1.52,1.159-2.669,2.688-2.669s2.688,1.149,2.688,2.669-1.159,2.668-2.688,2.668-2.688-1.149-2.688-2.668Zm3.798,0c0-.77-.46-1.319-1.109-1.319s-1.109,.55-1.109,1.319,.459,1.319,1.109,1.319,1.109-.55,1.109-1.319Z"/>
    <path d="M69.319,31.039h1.619v1.169c.33-.859,.79-1.269,1.399-1.269,.23,.01,.34,.029,.54,.13v1.389c-.2-.1-.479-.159-.759-.159-.48,0-.919,.249-1.18,.64v3.258h-1.619v-5.157Z"/>
    <path d="M73.359,33.628c0-1.51,1.119-2.669,2.599-2.669,1.489,0,2.539,1.13,2.539,2.729v.35h-3.548c.15,.58,.62,.97,1.209,.97,.43,0,.79-.149,1.02-.43l1.069,.89c-.669,.59-1.299,.829-2.169,.829-1.519,0-2.718-1.169-2.718-2.668Zm3.638-.51c-.14-.55-.529-.899-1.049-.899-.51,0-.87,.329-1,.899h2.049Z"/>
  </g>
  <g>
    <line class="uuid-c0f20026-f5df-428b-9e20-ec80e2261b96" x1="113.132" y1="106.487" x2="113.132" y2="131.686"/>
    <polygon class="uuid-3feec1dd-c712-44a9-8b6c-99377deaef07" points="109.392 130.592 113.132 137.068 116.871 130.592 109.392 130.592"/>
  </g>
  <g>
    <line class="uuid-c0f20026-f5df-428b-9e20-ec80e2261b96" x1="113.132" y1="193.953" x2="113.132" y2="219.153"/>
    <polygon class="uuid-3feec1dd-c712-44a9-8b6c-99377deaef07" points="109.392 218.058 113.132 224.535 116.871 218.058 109.392 218.058"/>
  </g>
  <g>
    <line class="uuid-ea3345e3-8b32-4698-956c-5b763508ac2c" x1="315.132" y1="106.487" x2="315.132" y2="131.686"/>
    <polygon class="uuid-07f58f20-e647-46ec-94be-3463a434a21a" points="311.392 130.592 315.132 137.068 318.871 130.592 311.392 130.592"/>
  </g>
  <g>
    <polyline class="uuid-c0f20026-f5df-428b-9e20-ec80e2261b96" points="479.933 194.159 479.933 208.056 315.132 208.056 315.132 217.816"/>
    <polygon class="uuid-3feec1dd-c712-44a9-8b6c-99377deaef07" points="311.392 216.722 315.132 223.198 318.872 216.722 311.392 216.722"/>
  </g>
  <path class="uuid-db07a0f4-8e48-4ecf-9475-298aad5fabd8" d="M45.149,85.292V49.697H181.114v35.596" pointer-events="none"/>
  <g>
    <g class="uuid-f5f567e8-1ce9-467f-9ed5-1b0af4640eaf">
      <path d="M63.917,57.768h5.327v1.439h-3.608v1.379h2.519v1.399h-2.519v2.778h-1.719v-6.996Z"/>
      <path d="M69.997,59.607h1.619v1.169c.33-.859,.79-1.269,1.399-1.269,.23,.01,.34,.029,.54,.13v1.389c-.2-.1-.479-.159-.759-.159-.48,0-.919,.249-1.18,.64v3.258h-1.619v-5.157Z"/>
      <path d="M74.037,62.196c0-1.52,1.159-2.669,2.688-2.669s2.688,1.149,2.688,2.669-1.159,2.668-2.688,2.668-2.688-1.149-2.688-2.668Zm3.798,0c0-.77-.46-1.319-1.109-1.319s-1.109,.55-1.109,1.319,.459,1.319,1.109,1.319,1.109-.55,1.109-1.319Z"/>
      <path d="M80.447,59.607h1.619v.84c.4-.6,.959-.92,1.629-.92,1,0,1.709,.729,1.709,1.759v3.479h-1.619v-3.009c0-.579-.34-.959-.859-.959-.35,0-.63,.14-.86,.43v3.538h-1.619v-5.157Z"/>
      <path d="M87.157,63.204v-2.349h-.999v-1.249h.999v-1.429l1.619-.33v1.759h1.379v1.249h-1.379v2.029c0,.46,.18,.619,.68,.619,.19,0,.34-.02,.66-.109v1.31c-.3,.09-.779,.159-1.109,.159-1.219,0-1.849-.56-1.849-1.659Z"/>
      <path d="M90.937,61.226h3.678v1.35h-3.678v-1.35Z"/>
      <path d="M95.627,62.196c0-1.51,1.119-2.669,2.599-2.669,1.489,0,2.539,1.13,2.539,2.729v.35h-3.548c.15,.58,.62,.97,1.209,.97,.43,0,.79-.149,1.02-.43l1.069,.89c-.669,.59-1.299,.829-2.169,.829-1.519,0-2.718-1.169-2.718-2.668Zm3.638-.51c-.14-.55-.529-.899-1.049-.899-.51,0-.87,.329-1,.899h2.049Z"/>
      <path d="M101.777,59.607h1.619v.84c.4-.6,.959-.92,1.629-.92,1,0,1.709,.729,1.709,1.759v3.479h-1.619v-3.009c0-.579-.34-.959-.859-.959-.35,0-.63,.14-.86,.43v3.538h-1.619v-5.157Z"/>
      <path d="M107.727,62.175c0-1.449,1.059-2.599,2.398-2.599,.54,0,1.03,.221,1.379,.62v-2.549l1.619-.25v7.366h-1.599v-.67c-.34,.43-.91,.7-1.519,.7-1.27,0-2.279-1.17-2.279-2.619Zm3.778,.87v-1.739c-.25-.26-.59-.399-.959-.399-.709,0-1.229,.539-1.229,1.279,0,.729,.53,1.269,1.229,1.269,.39,0,.709-.14,.959-.409Z"/>
      <path d="M116.307,62.196c0-1.51,1.159-2.669,2.668-2.669,.85,0,1.629,.34,2.149,.949l-.99,.99c-.33-.39-.66-.56-1.099-.56-.64,0-1.12,.549-1.12,1.289s.48,1.289,1.12,1.289c.439,0,.77-.17,1.099-.56l.99,.989c-.52,.609-1.299,.949-2.149,.949-1.509,0-2.668-1.159-2.668-2.668Z"/>
      <path d="M121.547,62.196c0-1.52,1.159-2.669,2.688-2.669s2.688,1.149,2.688,2.669-1.159,2.668-2.688,2.668-2.688-1.149-2.688-2.668Zm3.798,0c0-.77-.46-1.319-1.109-1.319s-1.109,.55-1.109,1.319,.459,1.319,1.109,1.319,1.109-.55,1.109-1.319Z"/>
      <path d="M127.956,59.607h1.619v.84c.4-.6,.959-.92,1.629-.92,1,0,1.709,.729,1.709,1.759v3.479h-1.619v-3.009c0-.579-.34-.959-.859-.959-.35,0-.63,.14-.86,.43v3.538h-1.619v-5.157Z"/>
      <path d="M134.666,63.204v-2.349h-.999v-1.249h.999v-1.429l1.619-.33v1.759h1.379v1.249h-1.379v2.029c0,.46,.18,.619,.68,.619,.19,0,.34-.02,.66-.109v1.31c-.3,.09-.779,.159-1.109,.159-1.219,0-1.849-.56-1.849-1.659Z"/>
      <path d="M138.326,63.285c0-.949,.74-1.499,2.009-1.499,.37,0,.74,.07,1.2,.24v-.42c0-.5-.33-.75-1.02-.75-.39,0-.85,.11-1.449,.36l-.56-1.13c.85-.38,1.609-.56,2.369-.56,1.429,0,2.259,.71,2.259,1.939v3.298h-1.599v-.45c-.45,.38-.879,.53-1.429,.53-1.05,0-1.779-.64-1.779-1.56Zm2.279,.49c.34,0,.65-.09,.93-.26v-.66c-.3-.069-.59-.109-.89-.109-.53,0-.83,.18-.83,.51s.29,.52,.79,.52Z"/>
      <path d="M144.256,57.908c0-.499,.41-.909,.91-.909s.909,.41,.909,.909-.41,.91-.909,.91-.91-.41-.91-.91Zm.1,1.699h1.619v5.157h-1.619v-5.157Z"/>
      <path d="M147.236,59.607h1.619v.84c.4-.6,.959-.92,1.629-.92,1,0,1.709,.729,1.709,1.759v3.479h-1.619v-3.009c0-.579-.34-.959-.859-.959-.35,0-.63,.14-.86,.43v3.538h-1.619v-5.157Z"/>
      <path d="M153.186,62.196c0-1.51,1.119-2.669,2.599-2.669,1.489,0,2.539,1.13,2.539,2.729v.35h-3.548c.15,.58,.62,.97,1.209,.97,.43,0,.79-.149,1.02-.43l1.069,.89c-.669,.59-1.299,.829-2.169,.829-1.519,0-2.718-1.169-2.718-2.668Zm3.638-.51c-.14-.55-.529-.899-1.049-.899-.51,0-.87,.329-1,.899h2.049Z"/>
      <path d="M159.336,59.607h1.619v1.169c.33-.859,.79-1.269,1.399-1.269,.23,.01,.34,.029,.54,.13v1.389c-.2-.1-.479-.159-.759-.159-.48,0-.919,.249-1.18,.64v3.258h-1.619v-5.157Z"/>
    </g>
    <g class="uuid-f5f567e8-1ce9-467f-9ed5-1b0af4640eaf">
      <path d="M90.457,68.768h1.199v6.996h-1.199v-6.996Z"/>
      <path d="M93.286,68.768h3.128c1.419,0,2.339,.89,2.339,2.179,0,1.26-.919,2.148-2.339,2.148h-1.929v2.669h-1.2v-6.996Zm2.938,3.348c.85,0,1.319-.47,1.319-1.179,0-.689-.47-1.159-1.309-1.159h-1.749v2.338h1.739Z"/>
      <path d="M99.787,71.386c0-.399,.31-.729,.7-.729s.699,.33,.699,.729-.31,.72-.699,.72-.7-.319-.7-.72Zm0,3.748c0-.399,.31-.729,.7-.729s.699,.33,.699,.729-.31,.72-.699,.72-.7-.319-.7-.72Z"/>
      <path d="M105.596,69.917l-1.239,.529v-.969l1.639-.71h.69v6.996h-1.09v-5.847Z"/>
      <path d="M107.907,72.266c0-2.148,1.169-3.608,2.869-3.608s2.858,1.46,2.858,3.608-1.159,3.598-2.858,3.598-2.869-1.459-2.869-3.598Zm4.638,0c0-1.609-.689-2.639-1.769-2.639s-1.779,1.029-1.779,2.639c0,1.599,.699,2.629,1.779,2.629s1.769-1.03,1.769-2.629Z"/>
      <path d="M114.497,75.134c0-.399,.31-.729,.7-.729s.699,.33,.699,.729-.31,.72-.699,.72-.7-.319-.7-.72Z"/>
      <path d="M116.827,73.835c0-.8,.62-1.479,1.499-1.709-.75-.25-1.259-.85-1.259-1.55,0-1.099,1.009-1.919,2.359-1.919s2.358,.82,2.358,1.919c0,.7-.51,1.3-1.259,1.55,.88,.229,1.5,.909,1.5,1.709,0,1.189-1.08,2.039-2.599,2.039s-2.599-.85-2.599-2.039Zm4.098-.07c0-.689-.629-1.199-1.499-1.199s-1.5,.51-1.5,1.199,.63,1.209,1.5,1.209,1.499-.52,1.499-1.209Zm-.21-3.128c0-.62-.56-1.08-1.289-1.08s-1.29,.46-1.29,1.08,.56,1.089,1.29,1.089,1.289-.47,1.289-1.089Z"/>
      <path d="M122.947,75.134c0-.399,.31-.729,.7-.729s.699,.33,.699,.729-.31,.72-.699,.72-.7-.319-.7-.72Z"/>
      <path d="M125.197,72.266c0-2.148,1.169-3.608,2.869-3.608s2.858,1.46,2.858,3.608-1.159,3.598-2.858,3.598-2.869-1.459-2.869-3.598Zm4.638,0c0-1.609-.689-2.639-1.769-2.639s-1.779,1.029-1.779,2.639c0,1.599,.699,2.629,1.779,2.629s1.769-1.03,1.769-2.629Z"/>
      <path d="M131.787,75.134c0-.399,.31-.729,.7-.729s.699,.33,.699,.729-.31,.72-.699,.72-.7-.319-.7-.72Z"/>
      <path d="M134.786,69.917l-1.239,.529v-.969l1.639-.71h.69v6.996h-1.09v-5.847Z"/>
    </g>
  </g>
  <rect class="uuid-db07a0f4-8e48-4ecf-9475-298aad5fabd8" x="45.149" y="85.087" width="135.965" height="21.534" pointer-events="none"/>
  <path class="uuid-db07a0f4-8e48-4ecf-9475-298aad5fabd8" d="M45.149,172.83v-35.596H181.114v35.596" pointer-events="none"/>
  <rect class="uuid-db07a0f4-8e48-4ecf-9475-298aad5fabd8" x="45.149" y="172.625" width="135.965" height="21.534" pointer-events="none"/>
  <path class="uuid-db07a0f4-8e48-4ecf-9475-298aad5fabd8" d="M45.149,259.925v-35.596H181.114v35.596" pointer-events="none"/>
  <rect class="uuid-db07a0f4-8e48-4ecf-9475-298aad5fabd8" x="45.149" y="259.72" width="135.965" height="21.534" pointer-events="none"/>
  <g class="uuid-f5f567e8-1ce9-467f-9ed5-1b0af4640eaf">
    <path d="M53.897,91.488l1.129-.19v2.988c.35-.439,.909-.709,1.539-.709,1.27,0,2.259,1.129,2.259,2.548,0,1.43-1.02,2.549-2.328,2.549-.59,0-1.109-.239-1.489-.689v.64h-1.109v-7.136Zm3.817,4.637c0-.909-.64-1.599-1.489-1.599-.499,0-.909,.2-1.199,.56v2.089c.29,.35,.72,.56,1.199,.56,.859,0,1.489-.689,1.489-1.609Z"/>
    <path d="M59.797,97.184c0-.899,.739-1.469,1.919-1.469,.47,0,.909,.1,1.35,.319v-.56c0-.659-.38-.999-1.149-.999-.42,0-.88,.12-1.459,.39l-.4-.819c.75-.34,1.409-.51,2.079-.51,1.31,0,2.049,.659,2.049,1.818v3.269h-1.119v-.52c-.43,.42-.91,.609-1.489,.609-1.05,0-1.779-.63-1.779-1.529Zm2.089,.729c.45,0,.84-.13,1.18-.419v-.81c-.36-.17-.72-.24-1.149-.24-.649,0-1.06,.27-1.06,.72,0,.46,.399,.749,1.029,.749Z"/>
    <path d="M65.327,96.124c0-1.449,1.1-2.588,2.528-2.588,.779,0,1.499,.31,1.999,.85l-.699,.729c-.351-.39-.78-.59-1.26-.59-.81,0-1.439,.699-1.439,1.599,0,.91,.63,1.6,1.439,1.6,.479,0,.909-.2,1.26-.58l.699,.72c-.5,.54-1.22,.85-1.999,.85-1.429,0-2.528-1.129-2.528-2.589Z"/>
    <path d="M70.787,91.437l1.129-.189v4.497l2.079-2.128h1.299l-2.309,2.318,2.429,2.688h-1.439l-2.059-2.309v2.309h-1.129v-7.187Z"/>
    <path d="M75.566,96.124c0-1.469,1.06-2.588,2.438-2.588,1.37,0,2.369,1.089,2.369,2.588v.271h-3.698c.11,.81,.72,1.399,1.499,1.399,.47,0,.91-.181,1.189-.47l.74,.669c-.61,.51-1.22,.729-1.979,.729-1.438,0-2.559-1.129-2.559-2.599Zm3.738-.43c-.12-.729-.64-1.239-1.31-1.239-.68,0-1.179,.49-1.309,1.239h2.618Z"/>
    <path d="M81.526,93.617h1.13v.819c.38-.59,.929-.899,1.579-.899,1.029,0,1.749,.729,1.749,1.789v3.298h-1.14v-2.979c0-.729-.43-1.199-1.1-1.199-.46,0-.829,.21-1.089,.609v3.568h-1.13v-5.007Z"/>
    <path d="M87.116,96.124c0-1.429,1.029-2.548,2.339-2.548,.569,0,1.09,.229,1.459,.649v-2.769l1.13-.2v7.366h-1.119v-.659c-.36,.449-.92,.709-1.55,.709-1.27,0-2.259-1.129-2.259-2.549Zm3.798,1.05v-2.108c-.289-.34-.72-.54-1.189-.54-.859,0-1.499,.68-1.499,1.599,0,.91,.64,1.6,1.499,1.6,.49,0,.9-.19,1.189-.55Z"/>
    <path d="M93.297,97.993c0-.399,.31-.729,.699-.729s.699,.33,.699,.729-.31,.72-.699,.72-.699-.319-.699-.72Z"/>
    <path d="M95.946,91.457l1.13-.2v3.179c.38-.59,.929-.899,1.579-.899,1.029,0,1.749,.729,1.749,1.789v3.298h-1.14v-2.979c0-.729-.43-1.199-1.1-1.199-.46,0-.829,.21-1.089,.609v3.568h-1.13v-7.166Z"/>
    <path d="M101.536,96.124c0-1.479,1.08-2.588,2.519-2.588,1.43,0,2.509,1.109,2.509,2.588s-1.079,2.589-2.509,2.589c-1.438,0-2.519-1.109-2.519-2.589Zm3.918,0c0-.929-.59-1.629-1.399-1.629-.819,0-1.409,.7-1.409,1.629,0,.939,.59,1.63,1.409,1.63,.81,0,1.399-.69,1.399-1.63Z"/>
    <path d="M107.286,98.043l.53-.749c.659,.409,1.099,.569,1.608,.569,.6,0,1.01-.279,1.01-.68,0-.31-.21-.47-.699-.569l-.88-.15c-.979-.18-1.449-.629-1.449-1.379,0-.939,.77-1.549,1.938-1.549,.7,0,1.33,.199,1.97,.6l-.53,.749c-.51-.329-.999-.479-1.509-.479-.52,0-.859,.22-.859,.58,0,.319,.18,.459,.699,.55l.89,.17c.999,.18,1.479,.64,1.479,1.389,0,.92-.88,1.629-2.05,1.629-.859,0-1.618-.239-2.148-.68Z"/>
    <path d="M113.046,97.325v-2.809h-1v-.899h1v-1.38l1.129-.239v1.619h1.39v.899h-1.39v2.559c0,.489,.19,.68,.7,.68,.22,0,.379-.03,.68-.12v.949c-.29,.09-.67,.14-.97,.14-1.01,0-1.539-.479-1.539-1.398Z"/>
    <path d="M119.015,93.746h4.197v.869h-4.197v-.869Zm0,1.799h4.197v.869h-4.197v-.869Z"/>
    <path d="M127.974,92.777l-1.239,.529v-.969l1.64-.71h.689v6.996h-1.09v-5.847Z"/>
    <path d="M130.285,95.125c0-2.148,1.17-3.608,2.869-3.608s2.858,1.46,2.858,3.608-1.159,3.598-2.858,3.598-2.869-1.459-2.869-3.598Zm4.638,0c0-1.609-.689-2.639-1.769-2.639s-1.779,1.029-1.779,2.639c0,1.599,.699,2.629,1.779,2.629s1.769-1.03,1.769-2.629Z"/>
    <path d="M136.876,97.993c0-.399,.31-.729,.699-.729s.699,.33,.699,.729-.31,.72-.699,.72-.699-.319-.699-.72Z"/>
    <path d="M139.206,96.695c0-.8,.619-1.479,1.499-1.709-.75-.25-1.26-.85-1.26-1.55,0-1.099,1.01-1.919,2.359-1.919s2.358,.82,2.358,1.919c0,.7-.51,1.3-1.26,1.55,.88,.229,1.5,.909,1.5,1.709,0,1.189-1.08,2.039-2.599,2.039s-2.599-.85-2.599-2.039Zm4.098-.07c0-.689-.63-1.199-1.499-1.199s-1.5,.51-1.5,1.199,.63,1.209,1.5,1.209,1.499-.52,1.499-1.209Zm-.21-3.128c0-.62-.56-1.08-1.289-1.08s-1.29,.46-1.29,1.08,.56,1.089,1.29,1.089,1.289-.47,1.289-1.089Z"/>
    <path d="M145.326,97.993c0-.399,.31-.729,.699-.729s.699,.33,.699,.729-.31,.72-.699,.72-.699-.319-.699-.72Z"/>
    <path d="M147.575,95.125c0-2.148,1.17-3.608,2.869-3.608s2.858,1.46,2.858,3.608-1.159,3.598-2.858,3.598-2.869-1.459-2.869-3.598Zm4.638,0c0-1.609-.689-2.639-1.769-2.639s-1.779,1.029-1.779,2.639c0,1.599,.699,2.629,1.779,2.629s1.769-1.03,1.769-2.629Z"/>
    <path d="M154.166,97.993c0-.399,.31-.729,.7-.729s.699,.33,.699,.729-.31,.72-.699,.72-.7-.319-.7-.72Z"/>
    <path d="M156.626,97.833l2.868-2.998c.51-.539,.68-.89,.68-1.339,0-.58-.539-1.02-1.269-1.02-.65,0-1.149,.229-1.819,.85l-.62-.75c.77-.709,1.579-1.06,2.459-1.06,1.369,0,2.309,.78,2.309,1.919,0,.68-.239,1.17-.989,1.959l-2.229,2.299,3.348-.01v.939h-4.737v-.79Z"/>
  </g>
  <g>
    <g class="uuid-f5f567e8-1ce9-467f-9ed5-1b0af4640eaf">
      <path d="M65.482,145.306h3.458c1.359,0,2.328,.8,2.328,1.909,0,.649-.409,1.199-1.02,1.519,.729,.29,1.22,.89,1.22,1.609,0,1.149-.979,1.959-2.369,1.959h-3.617v-6.996Zm3.258,2.809c.479,0,.8-.29,.8-.72,0-.439-.311-.72-.8-.72h-1.539v1.439h1.539Zm.14,2.818c.52,0,.85-.3,.85-.77s-.33-.77-.85-.77h-1.679v1.539h1.679Z"/>
      <path d="M72.382,150.823c0-.949,.74-1.499,2.01-1.499,.369,0,.739,.07,1.199,.24v-.42c0-.5-.33-.75-1.02-.75-.39,0-.85,.11-1.449,.36l-.56-1.13c.85-.38,1.608-.56,2.368-.56,1.43,0,2.259,.71,2.259,1.939v3.298h-1.599v-.45c-.45,.38-.88,.53-1.43,.53-1.049,0-1.779-.64-1.779-1.56Zm2.279,.49c.34,0,.649-.09,.93-.26v-.66c-.3-.069-.59-.109-.89-.109-.53,0-.83,.18-.83,.51s.29,.52,.79,.52Z"/>
      <path d="M78.182,149.734c0-1.51,1.159-2.669,2.669-2.669,.85,0,1.629,.34,2.148,.949l-.989,.99c-.33-.39-.66-.56-1.1-.56-.64,0-1.119,.549-1.119,1.289s.479,1.289,1.119,1.289c.439,0,.77-.17,1.1-.56l.989,.989c-.52,.609-1.299,.949-2.148,.949-1.51,0-2.669-1.159-2.669-2.668Z"/>
      <path d="M83.802,145.156l1.619-.249v4.287l1.799-2.049h1.789l-2.099,2.309,2.249,2.849h-2.02l-1.719-2.278v2.278h-1.619v-7.146Z"/>
      <path d="M89.372,148.764h3.678v1.35h-3.678v-1.35Z"/>
      <path d="M94.061,149.734c0-1.51,1.119-2.669,2.599-2.669,1.489,0,2.539,1.13,2.539,2.729v.35h-3.549c.15,.58,.62,.97,1.21,.97,.43,0,.789-.149,1.02-.43l1.069,.89c-.67,.59-1.3,.829-2.169,.829-1.52,0-2.719-1.169-2.719-2.668Zm3.638-.51c-.14-.55-.529-.899-1.049-.899-.51,0-.87,.329-1,.899h2.049Z"/>
      <path d="M100.212,147.145h1.618v.84c.4-.6,.96-.92,1.63-.92,.999,0,1.709,.729,1.709,1.759v3.479h-1.619v-3.009c0-.579-.34-.959-.859-.959-.351,0-.63,.14-.86,.43v3.538h-1.618v-5.157Z"/>
      <path d="M106.162,149.713c0-1.449,1.059-2.599,2.398-2.599,.54,0,1.029,.221,1.379,.62v-2.549l1.619-.25v7.366h-1.599v-.67c-.34,.43-.91,.7-1.52,.7-1.27,0-2.278-1.17-2.278-2.619Zm3.777,.87v-1.739c-.25-.26-.59-.399-.959-.399-.71,0-1.229,.539-1.229,1.279,0,.729,.529,1.269,1.229,1.269,.39,0,.709-.14,.959-.409Z"/>
      <path d="M114.741,149.734c0-1.51,1.159-2.669,2.669-2.669,.85,0,1.629,.34,2.148,.949l-.989,.99c-.33-.39-.66-.56-1.1-.56-.64,0-1.119,.549-1.119,1.289s.479,1.289,1.119,1.289c.439,0,.77-.17,1.1-.56l.989,.989c-.52,.609-1.299,.949-2.148,.949-1.51,0-2.669-1.159-2.669-2.668Z"/>
      <path d="M119.981,149.734c0-1.52,1.159-2.669,2.688-2.669s2.688,1.149,2.688,2.669-1.159,2.668-2.688,2.668-2.688-1.149-2.688-2.668Zm3.798,0c0-.77-.46-1.319-1.109-1.319s-1.109,.55-1.109,1.319,.46,1.319,1.109,1.319,1.109-.55,1.109-1.319Z"/>
      <path d="M126.391,147.145h1.618v.84c.4-.6,.96-.92,1.63-.92,.999,0,1.709,.729,1.709,1.759v3.479h-1.619v-3.009c0-.579-.34-.959-.859-.959-.351,0-.63,.14-.86,.43v3.538h-1.618v-5.157Z"/>
      <path d="M133.1,150.743v-2.349h-.999v-1.249h.999v-1.429l1.619-.33v1.759h1.379v1.249h-1.379v2.029c0,.46,.18,.619,.68,.619,.189,0,.34-.02,.659-.109v1.31c-.3,.09-.779,.159-1.109,.159-1.219,0-1.849-.56-1.849-1.659Z"/>
      <path d="M136.761,150.823c0-.949,.74-1.499,2.01-1.499,.369,0,.739,.07,1.199,.24v-.42c0-.5-.33-.75-1.02-.75-.39,0-.85,.11-1.449,.36l-.56-1.13c.85-.38,1.608-.56,2.368-.56,1.43,0,2.259,.71,2.259,1.939v3.298h-1.599v-.45c-.45,.38-.88,.53-1.43,.53-1.049,0-1.779-.64-1.779-1.56Zm2.279,.49c.34,0,.649-.09,.93-.26v-.66c-.3-.069-.59-.109-.89-.109-.53,0-.83,.18-.83,.51s.29,.52,.79,.52Z"/>
      <path d="M142.691,145.446c0-.499,.409-.909,.909-.909s.909,.41,.909,.909-.409,.91-.909,.91-.909-.41-.909-.91Zm.1,1.699h1.619v5.157h-1.619v-5.157Z"/>
      <path d="M145.671,147.145h1.619v.84c.399-.6,.959-.92,1.629-.92,1,0,1.709,.729,1.709,1.759v3.479h-1.619v-3.009c0-.579-.34-.959-.859-.959-.35,0-.63,.14-.859,.43v3.538h-1.619v-5.157Z"/>
      <path d="M151.621,149.734c0-1.51,1.119-2.669,2.599-2.669,1.489,0,2.539,1.13,2.539,2.729v.35h-3.549c.15,.58,.62,.97,1.21,.97,.43,0,.789-.149,1.02-.43l1.069,.89c-.67,.59-1.3,.829-2.169,.829-1.52,0-2.719-1.169-2.719-2.668Zm3.638-.51c-.14-.55-.529-.899-1.049-.899-.51,0-.87,.329-1,.899h2.049Z"/>
      <path d="M157.771,147.145h1.618v1.169c.33-.859,.79-1.269,1.399-1.269,.23,.01,.34,.029,.54,.13v1.389c-.2-.1-.479-.159-.76-.159-.479,0-.919,.249-1.18,.64v3.258h-1.618v-5.157Z"/>
    </g>
    <g class="uuid-f5f567e8-1ce9-467f-9ed5-1b0af4640eaf">
      <path d="M89.036,156.306h1.199v6.996h-1.199v-6.996Z"/>
      <path d="M91.865,156.306h3.129c1.419,0,2.339,.89,2.339,2.179,0,1.26-.92,2.148-2.339,2.148h-1.929v2.669h-1.2v-6.996Zm2.938,3.348c.85,0,1.319-.47,1.319-1.179,0-.689-.47-1.159-1.309-1.159h-1.749v2.338h1.738Z"/>
      <path d="M98.366,158.924c0-.399,.31-.729,.699-.729s.699,.33,.699,.729-.31,.72-.699,.72-.699-.319-.699-.72Zm0,3.748c0-.399,.31-.729,.699-.729s.699,.33,.699,.729-.31,.72-.699,.72-.699-.319-.699-.72Z"/>
      <path d="M104.175,157.455l-1.239,.529v-.969l1.64-.71h.689v6.996h-1.09v-5.847Z"/>
      <path d="M106.485,159.804c0-2.148,1.17-3.608,2.869-3.608s2.858,1.46,2.858,3.608-1.159,3.598-2.858,3.598-2.869-1.459-2.869-3.598Zm4.638,0c0-1.609-.689-2.639-1.769-2.639s-1.779,1.029-1.779,2.639c0,1.599,.699,2.629,1.779,2.629s1.769-1.03,1.769-2.629Z"/>
      <path d="M113.076,162.672c0-.399,.31-.729,.699-.729s.699,.33,.699,.729-.31,.72-.699,.72-.699-.319-.699-.72Z"/>
      <path d="M115.406,161.373c0-.8,.619-1.479,1.499-1.709-.75-.25-1.26-.85-1.26-1.55,0-1.099,1.01-1.919,2.359-1.919s2.358,.82,2.358,1.919c0,.7-.51,1.3-1.26,1.55,.88,.229,1.5,.909,1.5,1.709,0,1.189-1.08,2.039-2.599,2.039s-2.599-.85-2.599-2.039Zm4.098-.07c0-.689-.63-1.199-1.499-1.199s-1.5,.51-1.5,1.199,.63,1.209,1.5,1.209,1.499-.52,1.499-1.209Zm-.21-3.128c0-.62-.56-1.08-1.289-1.08s-1.29,.46-1.29,1.08,.56,1.089,1.29,1.089,1.289-.47,1.289-1.089Z"/>
      <path d="M121.526,162.672c0-.399,.31-.729,.699-.729s.699,.33,.699,.729-.31,.72-.699,.72-.699-.319-.699-.72Z"/>
      <path d="M123.775,159.804c0-2.148,1.17-3.608,2.869-3.608s2.858,1.46,2.858,3.608-1.159,3.598-2.858,3.598-2.869-1.459-2.869-3.598Zm4.638,0c0-1.609-.689-2.639-1.769-2.639s-1.779,1.029-1.779,2.639c0,1.599,.699,2.629,1.779,2.629s1.769-1.03,1.769-2.629Z"/>
      <path d="M130.366,162.672c0-.399,.31-.729,.699-.729s.699,.33,.699,.729-.31,.72-.699,.72-.699-.319-.699-.72Z"/>
      <path d="M132.826,162.512l2.868-2.998c.51-.539,.68-.89,.68-1.339,0-.58-.54-1.02-1.27-1.02-.649,0-1.149,.229-1.819,.85l-.619-.75c.77-.709,1.579-1.06,2.459-1.06,1.369,0,2.309,.78,2.309,1.919,0,.68-.24,1.17-.989,1.959l-2.229,2.299,3.349-.01v.939h-4.737v-.79Z"/>
    </g>
  </g>
  <g class="uuid-f5f567e8-1ce9-467f-9ed5-1b0af4640eaf">
    <path d="M51.742,183.662c0-1.429,1.029-2.548,2.339-2.548,.569,0,1.09,.229,1.459,.649v-2.769l1.13-.2v7.366h-1.119v-.659c-.36,.449-.92,.709-1.55,.709-1.27,0-2.259-1.129-2.259-2.549Zm3.798,1.05v-2.108c-.289-.34-.72-.54-1.189-.54-.859,0-1.499,.68-1.499,1.599,0,.91,.64,1.6,1.499,1.6,.49,0,.9-.19,1.189-.55Z"/>
    <path d="M57.812,184.722c0-.899,.739-1.469,1.919-1.469,.47,0,.909,.1,1.349,.319v-.56c0-.659-.38-.999-1.149-.999-.42,0-.879,.12-1.459,.39l-.399-.819c.749-.34,1.409-.51,2.078-.51,1.31,0,2.049,.659,2.049,1.818v3.269h-1.119v-.52c-.43,.42-.909,.609-1.489,.609-1.049,0-1.778-.63-1.778-1.529Zm2.089,.729c.449,0,.839-.13,1.179-.419v-.81c-.359-.17-.72-.24-1.149-.24-.649,0-1.06,.27-1.06,.72,0,.46,.4,.749,1.03,.749Z"/>
    <path d="M64.042,184.863v-2.809h-1v-.899h1v-1.38l1.129-.239v1.619h1.39v.899h-1.39v2.559c0,.489,.19,.68,.7,.68,.22,0,.379-.03,.68-.12v.949c-.29,.09-.67,.14-.97,.14-1.01,0-1.539-.479-1.539-1.398Z"/>
    <path d="M67.303,184.722c0-.899,.739-1.469,1.919-1.469,.47,0,.909,.1,1.349,.319v-.56c0-.659-.38-.999-1.149-.999-.42,0-.879,.12-1.459,.39l-.399-.819c.749-.34,1.409-.51,2.078-.51,1.31,0,2.049,.659,2.049,1.818v3.269h-1.119v-.52c-.43,.42-.909,.609-1.489,.609-1.049,0-1.778-.63-1.778-1.529Zm2.089,.729c.449,0,.839-.13,1.179-.419v-.81c-.359-.17-.72-.24-1.149-.24-.649,0-1.06,.27-1.06,.72,0,.46,.4,.749,1.03,.749Z"/>
    <path d="M73.061,179.026l1.13-.19v2.988c.35-.439,.909-.709,1.539-.709,1.269,0,2.259,1.129,2.259,2.548,0,1.43-1.02,2.549-2.329,2.549-.59,0-1.109-.239-1.489-.689v.64h-1.109v-7.136Zm3.818,4.637c0-.909-.64-1.599-1.489-1.599-.5,0-.91,.2-1.199,.56v2.089c.289,.35,.72,.56,1.199,.56,.859,0,1.489-.689,1.489-1.609Z"/>
    <path d="M78.962,184.722c0-.899,.739-1.469,1.919-1.469,.47,0,.909,.1,1.35,.319v-.56c0-.659-.38-.999-1.149-.999-.42,0-.88,.12-1.459,.39l-.4-.819c.75-.34,1.409-.51,2.079-.51,1.31,0,2.049,.659,2.049,1.818v3.269h-1.119v-.52c-.43,.42-.91,.609-1.489,.609-1.05,0-1.779-.63-1.779-1.529Zm2.089,.729c.45,0,.84-.13,1.18-.419v-.81c-.36-.17-.72-.24-1.149-.24-.649,0-1.06,.27-1.06,.72,0,.46,.399,.749,1.029,.749Z"/>
    <path d="M84.271,185.581l.53-.749c.659,.409,1.099,.569,1.608,.569,.6,0,1.01-.279,1.01-.68,0-.31-.21-.47-.699-.569l-.88-.15c-.979-.18-1.449-.629-1.449-1.379,0-.939,.77-1.549,1.938-1.549,.7,0,1.33,.199,1.97,.6l-.53,.749c-.51-.329-.999-.479-1.509-.479-.52,0-.859,.22-.859,.58,0,.319,.18,.459,.699,.55l.89,.17c.999,.18,1.479,.64,1.479,1.389,0,.92-.88,1.629-2.05,1.629-.859,0-1.618-.239-2.148-.68Z"/>
    <path d="M89.331,183.662c0-1.469,1.06-2.588,2.438-2.588,1.37,0,2.369,1.089,2.369,2.588v.271h-3.698c.11,.81,.72,1.399,1.499,1.399,.47,0,.91-.181,1.189-.47l.74,.669c-.61,.51-1.22,.729-1.979,.729-1.438,0-2.559-1.129-2.559-2.599Zm3.738-.43c-.12-.729-.64-1.239-1.31-1.239-.68,0-1.179,.49-1.309,1.239h2.618Z"/>
    <path d="M94.891,185.532c0-.399,.31-.729,.699-.729s.699,.33,.699,.729-.31,.72-.699,.72-.699-.319-.699-.72Z"/>
    <path d="M97.541,178.995l1.13-.2v3.179c.38-.59,.929-.899,1.579-.899,1.029,0,1.749,.729,1.749,1.789v3.298h-1.14v-2.979c0-.729-.43-1.199-1.1-1.199-.46,0-.829,.21-1.089,.609v3.568h-1.13v-7.166Z"/>
    <path d="M103.131,183.662c0-1.479,1.08-2.588,2.519-2.588,1.43,0,2.509,1.109,2.509,2.588s-1.079,2.589-2.509,2.589c-1.438,0-2.519-1.109-2.519-2.589Zm3.918,0c0-.929-.59-1.629-1.399-1.629-.819,0-1.409,.7-1.409,1.629,0,.939,.59,1.63,1.409,1.63,.81,0,1.399-.69,1.399-1.63Z"/>
    <path d="M108.882,185.581l.529-.749c.659,.409,1.1,.569,1.609,.569,.6,0,1.009-.279,1.009-.68,0-.31-.209-.47-.699-.569l-.88-.15c-.979-.18-1.449-.629-1.449-1.379,0-.939,.77-1.549,1.939-1.549,.699,0,1.329,.199,1.969,.6l-.529,.749c-.51-.329-1-.479-1.51-.479-.52,0-.859,.22-.859,.58,0,.319,.18,.459,.699,.55l.89,.17c1,.18,1.479,.64,1.479,1.389,0,.92-.88,1.629-2.049,1.629-.859,0-1.619-.239-2.148-.68Z"/>
    <path d="M114.64,184.863v-2.809h-.999v-.899h.999v-1.38l1.13-.239v1.619h1.389v.899h-1.389v2.559c0,.489,.189,.68,.699,.68,.22,0,.38-.03,.68-.12v.949c-.29,.09-.67,.14-.97,.14-1.009,0-1.539-.479-1.539-1.398Z"/>
    <path d="M120.61,181.285h4.198v.869h-4.198v-.869Zm0,1.799h4.198v.869h-4.198v-.869Z"/>
    <path d="M129.57,180.315l-1.239,.529v-.969l1.639-.71h.69v6.996h-1.09v-5.847Z"/>
    <path d="M131.881,182.663c0-2.148,1.169-3.608,2.868-3.608s2.858,1.46,2.858,3.608-1.159,3.598-2.858,3.598-2.868-1.459-2.868-3.598Zm4.638,0c0-1.609-.689-2.639-1.77-2.639s-1.778,1.029-1.778,2.639c0,1.599,.699,2.629,1.778,2.629s1.77-1.03,1.77-2.629Z"/>
    <path d="M138.471,185.532c0-.399,.31-.729,.7-.729s.699,.33,.699,.729-.31,.72-.699,.72-.7-.319-.7-.72Z"/>
    <path d="M140.801,184.233c0-.8,.619-1.479,1.499-1.709-.75-.25-1.26-.85-1.26-1.55,0-1.099,1.01-1.919,2.359-1.919s2.358,.82,2.358,1.919c0,.7-.51,1.3-1.26,1.55,.88,.229,1.5,.909,1.5,1.709,0,1.189-1.08,2.039-2.599,2.039s-2.599-.85-2.599-2.039Zm4.098-.07c0-.689-.63-1.199-1.499-1.199s-1.5,.51-1.5,1.199,.63,1.209,1.5,1.209,1.499-.52,1.499-1.209Zm-.21-3.128c0-.62-.56-1.08-1.289-1.08s-1.29,.46-1.29,1.08,.56,1.089,1.29,1.089,1.289-.47,1.289-1.089Z"/>
    <path d="M146.921,185.532c0-.399,.31-.729,.699-.729s.699,.33,.699,.729-.31,.72-.699,.72-.699-.319-.699-.72Z"/>
    <path d="M149.171,182.663c0-2.148,1.169-3.608,2.868-3.608s2.858,1.46,2.858,3.608-1.159,3.598-2.858,3.598-2.868-1.459-2.868-3.598Zm4.638,0c0-1.609-.689-2.639-1.77-2.639s-1.778,1.029-1.778,2.639c0,1.599,.699,2.629,1.778,2.629s1.77-1.03,1.77-2.629Z"/>
    <path d="M155.761,185.532c0-.399,.31-.729,.7-.729s.699,.33,.699,.729-.31,.72-.699,.72-.7-.319-.7-.72Z"/>
    <path d="M158.011,185.222l.73-.699c.56,.579,1.059,.789,1.839,.789,.909,0,1.529-.47,1.529-1.159,0-.63-.51-1.06-1.25-1.06h-.859v-.92h.77c.68,0,1.119-.409,1.119-1.039s-.579-1.109-1.329-1.109c-.699,0-1.169,.22-1.739,.83l-.739-.69c.64-.709,1.549-1.109,2.509-1.109,1.389,0,2.389,.82,2.389,1.97,0,.739-.529,1.358-1.319,1.589,.93,.199,1.549,.819,1.549,1.609,0,1.188-1.099,2.049-2.608,2.049-1.029,0-1.959-.38-2.589-1.05Z"/>
  </g>
  <g>
    <g class="uuid-f5f567e8-1ce9-467f-9ed5-1b0af4640eaf">
      <path d="M65.793,232.401h2.848c1.959,0,3.519,1.559,3.519,3.498s-1.56,3.498-3.519,3.498h-2.848v-6.996Zm2.848,5.527c.97,0,1.739-.9,1.739-2.029s-.77-2.029-1.739-2.029h-1.129v4.059h1.129Z"/>
      <path d="M72.902,237.917c0-.949,.74-1.499,2.009-1.499,.37,0,.74,.07,1.2,.24v-.42c0-.5-.33-.75-1.02-.75-.39,0-.85,.11-1.449,.36l-.56-1.13c.85-.38,1.608-.56,2.368-.56,1.43,0,2.259,.71,2.259,1.939v3.298h-1.599v-.45c-.45,.38-.88,.53-1.43,.53-1.05,0-1.779-.64-1.779-1.56Zm2.279,.49c.34,0,.649-.09,.93-.26v-.66c-.3-.069-.59-.109-.89-.109-.53,0-.83,.18-.83,.51s.29,.52,.79,.52Z"/>
      <path d="M79.462,237.837v-2.349h-.999v-1.249h.999v-1.429l1.619-.33v1.759h1.38v1.249h-1.38v2.029c0,.46,.181,.619,.68,.619,.19,0,.34-.02,.66-.109v1.31c-.3,.09-.779,.159-1.109,.159-1.22,0-1.85-.56-1.85-1.659Z"/>
      <path d="M83.122,237.917c0-.949,.74-1.499,2.009-1.499,.37,0,.74,.07,1.2,.24v-.42c0-.5-.33-.75-1.02-.75-.39,0-.85,.11-1.449,.36l-.56-1.13c.85-.38,1.608-.56,2.368-.56,1.43,0,2.259,.71,2.259,1.939v3.298h-1.599v-.45c-.45,.38-.88,.53-1.43,.53-1.05,0-1.779-.64-1.779-1.56Zm2.279,.49c.34,0,.649-.09,.93-.26v-.66c-.3-.069-.59-.109-.89-.109-.53,0-.83,.18-.83,.51s.29,.52,.79,.52Z"/>
      <path d="M89.152,232.281l1.619-.25v2.869c.34-.42,.899-.69,1.509-.69,1.27,0,2.279,1.17,2.279,2.619s-1.06,2.599-2.398,2.599c-.561,0-1.06-.24-1.409-.66v.63h-1.6v-7.116Zm3.818,4.538c0-.73-.53-1.27-1.229-1.27-.4,0-.71,.14-.97,.42v1.719c.25,.26,.59,.41,.97,.41,.709,0,1.229-.54,1.229-1.279Z"/>
      <path d="M95.402,237.917c0-.949,.739-1.499,2.009-1.499,.37,0,.739,.07,1.199,.24v-.42c0-.5-.33-.75-1.02-.75-.39,0-.85,.11-1.449,.36l-.56-1.13c.85-.38,1.609-.56,2.369-.56,1.429,0,2.259,.71,2.259,1.939v3.298h-1.6v-.45c-.449,.38-.88,.53-1.429,.53-1.05,0-1.779-.64-1.779-1.56Zm2.278,.49c.34,0,.65-.09,.93-.26v-.66c-.3-.069-.59-.109-.89-.109-.529,0-.829,.18-.829,.51s.29,.52,.789,.52Z"/>
      <path d="M101.013,238.868l.709-1.08c.74,.39,1.159,.52,1.659,.52,.46,0,.74-.159,.74-.419,0-.2-.15-.311-.48-.37l-.989-.18c-.999-.19-1.52-.7-1.52-1.499,0-1.05,.81-1.68,2.159-1.68,.72,0,1.43,.2,2.099,.59l-.739,1.029c-.52-.3-.999-.439-1.479-.439-.39,0-.619,.13-.619,.35,0,.21,.13,.3,.529,.37l.97,.18c1.02,.189,1.549,.71,1.549,1.489,0,1.01-.949,1.769-2.219,1.769-.939,0-1.769-.22-2.368-.629Z"/>
      <path d="M106.362,236.828c0-1.51,1.119-2.669,2.599-2.669,1.488,0,2.538,1.13,2.538,2.729v.35h-3.548c.149,.58,.619,.97,1.209,.97,.43,0,.79-.149,1.02-.43l1.069,.89c-.669,.59-1.299,.829-2.169,.829-1.519,0-2.718-1.169-2.718-2.668Zm3.638-.51c-.14-.55-.529-.899-1.05-.899-.51,0-.869,.329-.999,.899h2.049Z"/>
      <path d="M114.432,236.828c0-1.51,1.159-2.669,2.668-2.669,.85,0,1.629,.34,2.149,.949l-.99,.99c-.329-.39-.659-.56-1.099-.56-.64,0-1.12,.549-1.12,1.289s.48,1.289,1.12,1.289c.439,0,.77-.17,1.099-.56l.99,.989c-.521,.609-1.3,.949-2.149,.949-1.509,0-2.668-1.159-2.668-2.668Z"/>
      <path d="M119.672,236.828c0-1.52,1.159-2.669,2.688-2.669s2.688,1.149,2.688,2.669-1.159,2.668-2.688,2.668-2.688-1.149-2.688-2.668Zm3.798,0c0-.77-.46-1.319-1.109-1.319s-1.109,.55-1.109,1.319,.46,1.319,1.109,1.319,1.109-.55,1.109-1.319Z"/>
      <path d="M126.082,234.24h1.618v.84c.4-.6,.96-.92,1.63-.92,.999,0,1.709,.729,1.709,1.759v3.479h-1.619v-3.009c0-.579-.34-.959-.859-.959-.351,0-.63,.14-.86,.43v3.538h-1.618v-5.157Z"/>
      <path d="M132.791,237.837v-2.349h-.999v-1.249h.999v-1.429l1.619-.33v1.759h1.38v1.249h-1.38v2.029c0,.46,.181,.619,.68,.619,.19,0,.34-.02,.66-.109v1.31c-.3,.09-.779,.159-1.109,.159-1.22,0-1.85-.56-1.85-1.659Z"/>
      <path d="M136.451,237.917c0-.949,.74-1.499,2.009-1.499,.37,0,.74,.07,1.2,.24v-.42c0-.5-.33-.75-1.02-.75-.39,0-.85,.11-1.449,.36l-.56-1.13c.85-.38,1.608-.56,2.368-.56,1.43,0,2.259,.71,2.259,1.939v3.298h-1.599v-.45c-.45,.38-.88,.53-1.43,.53-1.05,0-1.779-.64-1.779-1.56Zm2.279,.49c.34,0,.649-.09,.93-.26v-.66c-.3-.069-.59-.109-.89-.109-.53,0-.83,.18-.83,.51s.29,.52,.79,.52Z"/>
      <path d="M142.382,232.54c0-.499,.409-.909,.909-.909s.909,.41,.909,.909-.409,.91-.909,.91-.909-.41-.909-.91Zm.1,1.699h1.619v5.157h-1.619v-5.157Z"/>
      <path d="M145.361,234.24h1.619v.84c.399-.6,.959-.92,1.629-.92,1,0,1.709,.729,1.709,1.759v3.479h-1.619v-3.009c0-.579-.34-.959-.859-.959-.35,0-.63,.14-.859,.43v3.538h-1.619v-5.157Z"/>
      <path d="M151.311,236.828c0-1.51,1.119-2.669,2.599-2.669,1.489,0,2.539,1.13,2.539,2.729v.35h-3.549c.15,.58,.62,.97,1.21,.97,.43,0,.789-.149,1.02-.43l1.069,.89c-.67,.59-1.3,.829-2.169,.829-1.52,0-2.719-1.169-2.719-2.668Zm3.638-.51c-.14-.55-.529-.899-1.049-.899-.51,0-.87,.329-1,.899h2.049Z"/>
      <path d="M157.462,234.24h1.618v1.169c.33-.859,.79-1.269,1.399-1.269,.23,.01,.34,.029,.54,.13v1.389c-.2-.1-.479-.159-.76-.159-.479,0-.919,.249-1.18,.64v3.258h-1.618v-5.157Z"/>
    </g>
    <g class="uuid-f5f567e8-1ce9-467f-9ed5-1b0af4640eaf">
      <path d="M88.877,243.401h1.199v6.996h-1.199v-6.996Z"/>
      <path d="M91.706,243.401h3.129c1.419,0,2.339,.89,2.339,2.179,0,1.26-.92,2.148-2.339,2.148h-1.929v2.669h-1.2v-6.996Zm2.938,3.348c.85,0,1.319-.47,1.319-1.179,0-.689-.47-1.159-1.309-1.159h-1.749v2.338h1.738Z"/>
      <path d="M98.207,246.019c0-.399,.31-.729,.699-.729s.699,.33,.699,.729-.31,.72-.699,.72-.699-.319-.699-.72Zm0,3.748c0-.399,.31-.729,.699-.729s.699,.33,.699,.729-.31,.72-.699,.72-.699-.319-.699-.72Z"/>
      <path d="M104.015,244.55l-1.239,.529v-.969l1.64-.71h.689v6.996h-1.09v-5.847Z"/>
      <path d="M106.326,246.899c0-2.148,1.17-3.608,2.869-3.608s2.858,1.46,2.858,3.608-1.159,3.598-2.858,3.598-2.869-1.459-2.869-3.598Zm4.638,0c0-1.609-.689-2.639-1.769-2.639s-1.779,1.029-1.779,2.639c0,1.599,.699,2.629,1.779,2.629s1.769-1.03,1.769-2.629Z"/>
      <path d="M112.917,249.767c0-.399,.31-.729,.699-.729s.699,.33,.699,.729-.31,.72-.699,.72-.699-.319-.699-.72Z"/>
      <path d="M115.247,248.468c0-.8,.619-1.479,1.499-1.709-.75-.25-1.26-.85-1.26-1.55,0-1.099,1.01-1.919,2.359-1.919s2.358,.82,2.358,1.919c0,.7-.51,1.3-1.26,1.55,.88,.229,1.5,.909,1.5,1.709,0,1.189-1.08,2.039-2.599,2.039s-2.599-.85-2.599-2.039Zm4.098-.07c0-.689-.63-1.199-1.499-1.199s-1.5,.51-1.5,1.199,.63,1.209,1.5,1.209,1.499-.52,1.499-1.209Zm-.21-3.128c0-.62-.56-1.08-1.289-1.08s-1.29,.46-1.29,1.08,.56,1.089,1.29,1.089,1.289-.47,1.289-1.089Z"/>
      <path d="M121.367,249.767c0-.399,.31-.729,.699-.729s.699,.33,.699,.729-.31,.72-.699,.72-.699-.319-.699-.72Z"/>
      <path d="M123.616,246.899c0-2.148,1.17-3.608,2.869-3.608s2.858,1.46,2.858,3.608-1.159,3.598-2.858,3.598-2.869-1.459-2.869-3.598Zm4.638,0c0-1.609-.689-2.639-1.769-2.639s-1.779,1.029-1.779,2.639c0,1.599,.699,2.629,1.779,2.629s1.769-1.03,1.769-2.629Z"/>
      <path d="M130.207,249.767c0-.399,.31-.729,.699-.729s.699,.33,.699,.729-.31,.72-.699,.72-.699-.319-.699-.72Z"/>
      <path d="M132.457,249.457l.729-.699c.56,.579,1.06,.789,1.839,.789,.91,0,1.529-.47,1.529-1.159,0-.63-.51-1.06-1.249-1.06h-.859v-.92h.77c.68,0,1.119-.409,1.119-1.039s-.58-1.109-1.329-1.109c-.7,0-1.17,.22-1.739,.83l-.739-.69c.64-.709,1.549-1.109,2.508-1.109,1.39,0,2.389,.82,2.389,1.97,0,.739-.529,1.358-1.319,1.589,.93,.199,1.55,.819,1.55,1.609,0,1.188-1.1,2.049-2.608,2.049-1.029,0-1.959-.38-2.589-1.05Z"/>
    </g>
  </g>
  <path class="uuid-db07a0f4-8e48-4ecf-9475-298aad5fabd8" d="M247.149,259.925v-35.596h135.965v35.596" pointer-events="none"/>
  <rect class="uuid-db07a0f4-8e48-4ecf-9475-298aad5fabd8" x="247.149" y="259.72" width="135.965" height="21.534" pointer-events="none"/>
  <g>
    <g class="uuid-f5f567e8-1ce9-467f-9ed5-1b0af4640eaf">
      <path d="M267.793,232.401h2.848c1.959,0,3.519,1.559,3.519,3.498s-1.56,3.498-3.519,3.498h-2.848v-6.996Zm2.848,5.527c.97,0,1.739-.9,1.739-2.029s-.77-2.029-1.739-2.029h-1.129v4.059h1.129Z"/>
      <path d="M274.902,237.917c0-.949,.74-1.499,2.009-1.499,.37,0,.74,.07,1.2,.24v-.42c0-.5-.33-.75-1.02-.75-.39,0-.85,.11-1.449,.36l-.56-1.13c.85-.38,1.608-.56,2.368-.56,1.43,0,2.259,.71,2.259,1.939v3.298h-1.599v-.45c-.45,.38-.88,.53-1.43,.53-1.05,0-1.779-.64-1.779-1.56Zm2.279,.49c.34,0,.649-.09,.93-.26v-.66c-.3-.069-.59-.109-.89-.109-.53,0-.83,.18-.83,.51s.29,.52,.79,.52Z"/>
      <path d="M281.462,237.837v-2.349h-.999v-1.249h.999v-1.429l1.619-.33v1.759h1.38v1.249h-1.38v2.029c0,.46,.181,.619,.68,.619,.19,0,.34-.02,.66-.109v1.31c-.3,.09-.779,.159-1.109,.159-1.22,0-1.85-.56-1.85-1.659Z"/>
      <path d="M285.122,237.917c0-.949,.74-1.499,2.009-1.499,.37,0,.74,.07,1.2,.24v-.42c0-.5-.33-.75-1.02-.75-.39,0-.85,.11-1.449,.36l-.56-1.13c.85-.38,1.608-.56,2.368-.56,1.43,0,2.259,.71,2.259,1.939v3.298h-1.599v-.45c-.45,.38-.88,.53-1.43,.53-1.05,0-1.779-.64-1.779-1.56Zm2.279,.49c.34,0,.649-.09,.93-.26v-.66c-.3-.069-.59-.109-.89-.109-.53,0-.83,.18-.83,.51s.29,.52,.79,.52Z"/>
      <path d="M291.152,232.281l1.619-.25v2.869c.34-.42,.899-.69,1.509-.69,1.27,0,2.279,1.17,2.279,2.619s-1.06,2.599-2.398,2.599c-.561,0-1.06-.24-1.409-.66v.63h-1.6v-7.116Zm3.818,4.538c0-.73-.53-1.27-1.229-1.27-.4,0-.71,.14-.97,.42v1.719c.25,.26,.59,.41,.97,.41,.709,0,1.229-.54,1.229-1.279Z"/>
      <path d="M297.402,237.917c0-.949,.739-1.499,2.009-1.499,.37,0,.739,.07,1.199,.24v-.42c0-.5-.33-.75-1.02-.75-.39,0-.85,.11-1.449,.36l-.56-1.13c.85-.38,1.609-.56,2.369-.56,1.429,0,2.259,.71,2.259,1.939v3.298h-1.6v-.45c-.449,.38-.88,.53-1.429,.53-1.05,0-1.779-.64-1.779-1.56Zm2.278,.49c.34,0,.65-.09,.93-.26v-.66c-.3-.069-.59-.109-.89-.109-.529,0-.829,.18-.829,.51s.29,.52,.789,.52Z"/>
      <path d="M303.013,238.868l.709-1.08c.74,.39,1.159,.52,1.659,.52,.46,0,.74-.159,.74-.419,0-.2-.15-.311-.48-.37l-.989-.18c-.999-.19-1.52-.7-1.52-1.499,0-1.05,.81-1.68,2.159-1.68,.72,0,1.43,.2,2.099,.59l-.739,1.029c-.52-.3-.999-.439-1.479-.439-.39,0-.619,.13-.619,.35,0,.21,.13,.3,.529,.37l.97,.18c1.02,.189,1.549,.71,1.549,1.489,0,1.01-.949,1.769-2.219,1.769-.939,0-1.769-.22-2.368-.629Z"/>
      <path d="M308.362,236.828c0-1.51,1.119-2.669,2.599-2.669,1.488,0,2.538,1.13,2.538,2.729v.35h-3.548c.149,.58,.619,.97,1.209,.97,.43,0,.79-.149,1.02-.43l1.069,.89c-.669,.59-1.299,.829-2.169,.829-1.519,0-2.718-1.169-2.718-2.668Zm3.638-.51c-.14-.55-.529-.899-1.05-.899-.51,0-.869,.329-.999,.899h2.049Z"/>
      <path d="M316.432,236.828c0-1.51,1.159-2.669,2.668-2.669,.85,0,1.629,.34,2.149,.949l-.99,.99c-.329-.39-.659-.56-1.099-.56-.64,0-1.12,.549-1.12,1.289s.48,1.289,1.12,1.289c.439,0,.77-.17,1.099-.56l.99,.989c-.521,.609-1.3,.949-2.149,.949-1.509,0-2.668-1.159-2.668-2.668Z"/>
      <path d="M321.672,236.828c0-1.52,1.159-2.669,2.688-2.669s2.688,1.149,2.688,2.669-1.159,2.668-2.688,2.668-2.688-1.149-2.688-2.668Zm3.798,0c0-.77-.46-1.319-1.109-1.319s-1.109,.55-1.109,1.319,.46,1.319,1.109,1.319,1.109-.55,1.109-1.319Z"/>
      <path d="M328.082,234.24h1.618v.84c.4-.6,.96-.92,1.63-.92,.999,0,1.709,.729,1.709,1.759v3.479h-1.619v-3.009c0-.579-.34-.959-.859-.959-.351,0-.63,.14-.86,.43v3.538h-1.618v-5.157Z"/>
      <path d="M334.791,237.837v-2.349h-.999v-1.249h.999v-1.429l1.619-.33v1.759h1.38v1.249h-1.38v2.029c0,.46,.181,.619,.68,.619,.19,0,.34-.02,.66-.109v1.31c-.3,.09-.779,.159-1.109,.159-1.22,0-1.85-.56-1.85-1.659Z"/>
      <path d="M338.451,237.917c0-.949,.74-1.499,2.009-1.499,.37,0,.74,.07,1.2,.24v-.42c0-.5-.33-.75-1.02-.75-.39,0-.85,.11-1.449,.36l-.56-1.13c.85-.38,1.608-.56,2.368-.56,1.43,0,2.259,.71,2.259,1.939v3.298h-1.599v-.45c-.45,.38-.88,.53-1.43,.53-1.05,0-1.779-.64-1.779-1.56Zm2.279,.49c.34,0,.649-.09,.93-.26v-.66c-.3-.069-.59-.109-.89-.109-.53,0-.83,.18-.83,.51s.29,.52,.79,.52Z"/>
      <path d="M344.382,232.54c0-.499,.409-.909,.909-.909s.909,.41,.909,.909-.409,.91-.909,.91-.909-.41-.909-.91Zm.1,1.699h1.619v5.157h-1.619v-5.157Z"/>
      <path d="M347.361,234.24h1.619v.84c.399-.6,.959-.92,1.629-.92,1,0,1.709,.729,1.709,1.759v3.479h-1.619v-3.009c0-.579-.34-.959-.859-.959-.35,0-.63,.14-.859,.43v3.538h-1.619v-5.157Z"/>
      <path d="M353.311,236.828c0-1.51,1.119-2.669,2.599-2.669,1.489,0,2.539,1.13,2.539,2.729v.35h-3.549c.15,.58,.62,.97,1.21,.97,.43,0,.789-.149,1.02-.43l1.069,.89c-.67,.59-1.3,.829-2.169,.829-1.52,0-2.719-1.169-2.719-2.668Zm3.638-.51c-.14-.55-.529-.899-1.049-.899-.51,0-.87,.329-1,.899h2.049Z"/>
      <path d="M359.462,234.24h1.618v1.169c.33-.859,.79-1.269,1.399-1.269,.23,.01,.34,.029,.54,.13v1.389c-.2-.1-.479-.159-.76-.159-.479,0-.919,.249-1.18,.64v3.258h-1.618v-5.157Z"/>
    </g>
    <g class="uuid-f5f567e8-1ce9-467f-9ed5-1b0af4640eaf">
      <path d="M290.877,243.401h1.199v6.996h-1.199v-6.996Z"/>
      <path d="M293.706,243.401h3.129c1.419,0,2.339,.89,2.339,2.179,0,1.26-.92,2.148-2.339,2.148h-1.929v2.669h-1.2v-6.996Zm2.938,3.348c.85,0,1.319-.47,1.319-1.179,0-.689-.47-1.159-1.309-1.159h-1.749v2.338h1.738Z"/>
      <path d="M300.207,246.019c0-.399,.31-.729,.699-.729s.699,.33,.699,.729-.31,.72-.699,.72-.699-.319-.699-.72Zm0,3.748c0-.399,.31-.729,.699-.729s.699,.33,.699,.729-.31,.72-.699,.72-.699-.319-.699-.72Z"/>
      <path d="M306.015,244.55l-1.239,.529v-.969l1.64-.71h.689v6.996h-1.09v-5.847Z"/>
      <path d="M308.326,246.899c0-2.148,1.17-3.608,2.869-3.608s2.858,1.46,2.858,3.608-1.159,3.598-2.858,3.598-2.869-1.459-2.869-3.598Zm4.638,0c0-1.609-.689-2.639-1.769-2.639s-1.779,1.029-1.779,2.639c0,1.599,.699,2.629,1.779,2.629s1.769-1.03,1.769-2.629Z"/>
      <path d="M314.917,249.767c0-.399,.31-.729,.699-.729s.699,.33,.699,.729-.31,.72-.699,.72-.699-.319-.699-.72Z"/>
      <path d="M317.247,248.468c0-.8,.619-1.479,1.499-1.709-.75-.25-1.26-.85-1.26-1.55,0-1.099,1.01-1.919,2.359-1.919s2.358,.82,2.358,1.919c0,.7-.51,1.3-1.26,1.55,.88,.229,1.5,.909,1.5,1.709,0,1.189-1.08,2.039-2.599,2.039s-2.599-.85-2.599-2.039Zm4.098-.07c0-.689-.63-1.199-1.499-1.199s-1.5,.51-1.5,1.199,.63,1.209,1.5,1.209,1.499-.52,1.499-1.209Zm-.21-3.128c0-.62-.56-1.08-1.289-1.08s-1.29,.46-1.29,1.08,.56,1.089,1.29,1.089,1.289-.47,1.289-1.089Z"/>
      <path d="M323.367,249.767c0-.399,.31-.729,.699-.729s.699,.33,.699,.729-.31,.72-.699,.72-.699-.319-.699-.72Z"/>
      <path d="M325.616,246.899c0-2.148,1.17-3.608,2.869-3.608s2.858,1.46,2.858,3.608-1.159,3.598-2.858,3.598-2.869-1.459-2.869-3.598Zm4.638,0c0-1.609-.689-2.639-1.769-2.639s-1.779,1.029-1.779,2.639c0,1.599,.699,2.629,1.779,2.629s1.769-1.03,1.769-2.629Z"/>
      <path d="M332.207,249.767c0-.399,.31-.729,.699-.729s.699,.33,.699,.729-.31,.72-.699,.72-.699-.319-.699-.72Z"/>
      <path d="M334.457,249.457l.729-.699c.56,.579,1.06,.789,1.839,.789,.91,0,1.529-.47,1.529-1.159,0-.63-.51-1.06-1.249-1.06h-.859v-.92h.77c.68,0,1.119-.409,1.119-1.039s-.58-1.109-1.329-1.109c-.7,0-1.17,.22-1.739,.83l-.739-.69c.64-.709,1.549-1.109,2.508-1.109,1.39,0,2.389,.82,2.389,1.97,0,.739-.529,1.358-1.319,1.589,.93,.199,1.55,.819,1.55,1.609,0,1.188-1.1,2.049-2.608,2.049-1.029,0-1.959-.38-2.589-1.05Z"/>
    </g>
  </g>
  <path class="uuid-db07a0f4-8e48-4ecf-9475-298aad5fabd8" d="M247.149,85.292V49.697h135.965v35.596" pointer-events="none"/>
  <g>
    <g class="uuid-f5f567e8-1ce9-467f-9ed5-1b0af4640eaf">
      <path d="M265.917,57.768h5.327v1.439h-3.608v1.379h2.519v1.399h-2.519v2.778h-1.719v-6.996Z"/>
      <path d="M271.997,59.607h1.619v1.169c.33-.859,.79-1.269,1.399-1.269,.23,.01,.34,.029,.54,.13v1.389c-.2-.1-.479-.159-.759-.159-.48,0-.919,.249-1.18,.64v3.258h-1.619v-5.157Z"/>
      <path d="M276.037,62.196c0-1.52,1.159-2.669,2.688-2.669s2.688,1.149,2.688,2.669-1.159,2.668-2.688,2.668-2.688-1.149-2.688-2.668Zm3.798,0c0-.77-.46-1.319-1.109-1.319s-1.109,.55-1.109,1.319,.459,1.319,1.109,1.319,1.109-.55,1.109-1.319Z"/>
      <path d="M282.447,59.607h1.619v.84c.4-.6,.959-.92,1.629-.92,1,0,1.709,.729,1.709,1.759v3.479h-1.619v-3.009c0-.579-.34-.959-.859-.959-.35,0-.63,.14-.86,.43v3.538h-1.619v-5.157Z"/>
      <path d="M289.157,63.204v-2.349h-.999v-1.249h.999v-1.429l1.619-.33v1.759h1.379v1.249h-1.379v2.029c0,.46,.18,.619,.68,.619,.19,0,.34-.02,.66-.109v1.31c-.3,.09-.779,.159-1.109,.159-1.219,0-1.849-.56-1.849-1.659Z"/>
      <path d="M292.937,61.226h3.678v1.35h-3.678v-1.35Z"/>
      <path d="M297.627,62.196c0-1.51,1.119-2.669,2.599-2.669,1.489,0,2.539,1.13,2.539,2.729v.35h-3.548c.15,.58,.62,.97,1.209,.97,.43,0,.79-.149,1.02-.43l1.069,.89c-.669,.59-1.299,.829-2.169,.829-1.519,0-2.718-1.169-2.718-2.668Zm3.638-.51c-.14-.55-.529-.899-1.049-.899-.51,0-.87,.329-1,.899h2.049Z"/>
      <path d="M303.777,59.607h1.618v.84c.4-.6,.96-.92,1.63-.92,.999,0,1.709,.729,1.709,1.759v3.479h-1.619v-3.009c0-.579-.34-.959-.859-.959-.351,0-.63,.14-.86,.43v3.538h-1.618v-5.157Z"/>
      <path d="M309.727,62.175c0-1.449,1.059-2.599,2.398-2.599,.54,0,1.029,.221,1.379,.62v-2.549l1.619-.25v7.366h-1.599v-.67c-.34,.43-.91,.7-1.52,.7-1.27,0-2.278-1.17-2.278-2.619Zm3.777,.87v-1.739c-.25-.26-.59-.399-.959-.399-.71,0-1.229,.539-1.229,1.279,0,.729,.529,1.269,1.229,1.269,.39,0,.709-.14,.959-.409Z"/>
      <path d="M318.307,62.196c0-1.51,1.159-2.669,2.668-2.669,.85,0,1.629,.34,2.149,.949l-.99,.99c-.329-.39-.659-.56-1.099-.56-.64,0-1.12,.549-1.12,1.289s.48,1.289,1.12,1.289c.439,0,.77-.17,1.099-.56l.99,.989c-.521,.609-1.3,.949-2.149,.949-1.509,0-2.668-1.159-2.668-2.668Z"/>
      <path d="M323.547,62.196c0-1.52,1.159-2.669,2.688-2.669s2.688,1.149,2.688,2.669-1.159,2.668-2.688,2.668-2.688-1.149-2.688-2.668Zm3.798,0c0-.77-.46-1.319-1.109-1.319s-1.109,.55-1.109,1.319,.46,1.319,1.109,1.319,1.109-.55,1.109-1.319Z"/>
      <path d="M329.957,59.607h1.618v.84c.4-.6,.96-.92,1.63-.92,.999,0,1.709,.729,1.709,1.759v3.479h-1.619v-3.009c0-.579-.34-.959-.859-.959-.351,0-.63,.14-.86,.43v3.538h-1.618v-5.157Z"/>
      <path d="M336.666,63.204v-2.349h-.999v-1.249h.999v-1.429l1.619-.33v1.759h1.38v1.249h-1.38v2.029c0,.46,.181,.619,.68,.619,.19,0,.34-.02,.66-.109v1.31c-.3,.09-.779,.159-1.109,.159-1.22,0-1.85-.56-1.85-1.659Z"/>
      <path d="M340.326,63.285c0-.949,.74-1.499,2.009-1.499,.37,0,.74,.07,1.2,.24v-.42c0-.5-.33-.75-1.02-.75-.39,0-.85,.11-1.449,.36l-.56-1.13c.85-.38,1.608-.56,2.368-.56,1.43,0,2.259,.71,2.259,1.939v3.298h-1.599v-.45c-.45,.38-.88,.53-1.43,.53-1.05,0-1.779-.64-1.779-1.56Zm2.279,.49c.34,0,.649-.09,.93-.26v-.66c-.3-.069-.59-.109-.89-.109-.53,0-.83,.18-.83,.51s.29,.52,.79,.52Z"/>
      <path d="M346.257,57.908c0-.499,.409-.909,.909-.909s.909,.41,.909,.909-.409,.91-.909,.91-.909-.41-.909-.91Zm.1,1.699h1.619v5.157h-1.619v-5.157Z"/>
      <path d="M349.236,59.607h1.619v.84c.399-.6,.959-.92,1.629-.92,1,0,1.709,.729,1.709,1.759v3.479h-1.619v-3.009c0-.579-.34-.959-.859-.959-.35,0-.63,.14-.859,.43v3.538h-1.619v-5.157Z"/>
      <path d="M355.186,62.196c0-1.51,1.119-2.669,2.599-2.669,1.489,0,2.539,1.13,2.539,2.729v.35h-3.549c.15,.58,.62,.97,1.21,.97,.43,0,.789-.149,1.02-.43l1.069,.89c-.67,.59-1.3,.829-2.169,.829-1.52,0-2.719-1.169-2.719-2.668Zm3.638-.51c-.14-.55-.529-.899-1.049-.899-.51,0-.87,.329-1,.899h2.049Z"/>
      <path d="M361.337,59.607h1.618v1.169c.33-.859,.79-1.269,1.399-1.269,.23,.01,.34,.029,.54,.13v1.389c-.2-.1-.479-.159-.76-.159-.479,0-.919,.249-1.18,.64v3.258h-1.618v-5.157Z"/>
    </g>
    <g class="uuid-f5f567e8-1ce9-467f-9ed5-1b0af4640eaf">
      <path d="M292.457,68.768h1.199v6.996h-1.199v-6.996Z"/>
      <path d="M295.286,68.768h3.128c1.419,0,2.339,.89,2.339,2.179,0,1.26-.919,2.148-2.339,2.148h-1.929v2.669h-1.2v-6.996Zm2.938,3.348c.85,0,1.319-.47,1.319-1.179,0-.689-.47-1.159-1.309-1.159h-1.749v2.338h1.739Z"/>
      <path d="M301.787,71.386c0-.399,.31-.729,.7-.729s.699,.33,.699,.729-.31,.72-.699,.72-.7-.319-.7-.72Zm0,3.748c0-.399,.31-.729,.7-.729s.699,.33,.699,.729-.31,.72-.699,.72-.7-.319-.7-.72Z"/>
      <path d="M307.596,69.917l-1.239,.529v-.969l1.64-.71h.689v6.996h-1.09v-5.847Z"/>
      <path d="M309.906,72.266c0-2.148,1.17-3.608,2.869-3.608s2.858,1.46,2.858,3.608-1.159,3.598-2.858,3.598-2.869-1.459-2.869-3.598Zm4.638,0c0-1.609-.689-2.639-1.769-2.639s-1.779,1.029-1.779,2.639c0,1.599,.699,2.629,1.779,2.629s1.769-1.03,1.769-2.629Z"/>
      <path d="M316.497,75.134c0-.399,.31-.729,.699-.729s.699,.33,.699,.729-.31,.72-.699,.72-.699-.319-.699-.72Z"/>
      <path d="M318.827,73.835c0-.8,.619-1.479,1.499-1.709-.75-.25-1.26-.85-1.26-1.55,0-1.099,1.01-1.919,2.359-1.919s2.358,.82,2.358,1.919c0,.7-.51,1.3-1.26,1.55,.88,.229,1.5,.909,1.5,1.709,0,1.189-1.08,2.039-2.599,2.039s-2.599-.85-2.599-2.039Zm4.098-.07c0-.689-.63-1.199-1.499-1.199s-1.5,.51-1.5,1.199,.63,1.209,1.5,1.209,1.499-.52,1.499-1.209Zm-.21-3.128c0-.62-.56-1.08-1.289-1.08s-1.29,.46-1.29,1.08,.56,1.089,1.29,1.089,1.289-.47,1.289-1.089Z"/>
      <path d="M324.947,75.134c0-.399,.31-.729,.699-.729s.699,.33,.699,.729-.31,.72-.699,.72-.699-.319-.699-.72Z"/>
      <path d="M327.196,72.266c0-2.148,1.17-3.608,2.869-3.608s2.858,1.46,2.858,3.608-1.159,3.598-2.858,3.598-2.869-1.459-2.869-3.598Zm4.638,0c0-1.609-.689-2.639-1.769-2.639s-1.779,1.029-1.779,2.639c0,1.599,.699,2.629,1.779,2.629s1.769-1.03,1.769-2.629Z"/>
      <path d="M333.787,75.134c0-.399,.31-.729,.699-.729s.699,.33,.699,.729-.31,.72-.699,.72-.699-.319-.699-.72Z"/>
      <path d="M336.786,69.917l-1.239,.529v-.969l1.639-.71h.69v6.996h-1.09v-5.847Z"/>
    </g>
  </g>
  <rect class="uuid-db07a0f4-8e48-4ecf-9475-298aad5fabd8" x="247.149" y="85.087" width="135.965" height="21.534" pointer-events="none"/>
  <path class="uuid-193f9081-8196-4cde-a356-6f683f2b9af7" d="M247.149,172.83v-35.596h135.965v35.596" pointer-events="none"/>
  <rect class="uuid-193f9081-8196-4cde-a356-6f683f2b9af7" x="247.149" y="172.625" width="135.965" height="21.534" pointer-events="none"/>
  <path class="uuid-db07a0f4-8e48-4ecf-9475-298aad5fabd8" d="M413.341,172.83v-35.596h135.965v35.596" pointer-events="none"/>
  <rect class="uuid-db07a0f4-8e48-4ecf-9475-298aad5fabd8" x="413.341" y="172.625" width="135.965" height="21.534" pointer-events="none"/>
  <g class="uuid-f5f567e8-1ce9-467f-9ed5-1b0af4640eaf">
    <path d="M255.897,91.488l1.129-.19v2.988c.35-.439,.909-.709,1.539-.709,1.27,0,2.259,1.129,2.259,2.548,0,1.43-1.02,2.549-2.329,2.549-.59,0-1.109-.239-1.489-.689v.64h-1.109v-7.136Zm3.818,4.637c0-.909-.64-1.599-1.489-1.599-.5,0-.91,.2-1.199,.56v2.089c.29,.35,.72,.56,1.199,.56,.859,0,1.489-.689,1.489-1.609Z"/>
    <path d="M261.797,97.184c0-.899,.739-1.469,1.919-1.469,.47,0,.909,.1,1.349,.319v-.56c0-.659-.38-.999-1.149-.999-.42,0-.879,.12-1.459,.39l-.4-.819c.75-.34,1.409-.51,2.079-.51,1.31,0,2.049,.659,2.049,1.818v3.269h-1.119v-.52c-.43,.42-.91,.609-1.489,.609-1.049,0-1.779-.63-1.779-1.529Zm2.089,.729c.45,0,.839-.13,1.179-.419v-.81c-.36-.17-.72-.24-1.149-.24-.649,0-1.06,.27-1.06,.72,0,.46,.4,.749,1.03,.749Z"/>
    <path d="M267.327,96.124c0-1.449,1.1-2.588,2.529-2.588,.779,0,1.499,.31,1.999,.85l-.699,.729c-.35-.39-.78-.59-1.259-.59-.81,0-1.439,.699-1.439,1.599,0,.91,.63,1.6,1.439,1.6,.479,0,.909-.2,1.259-.58l.699,.72c-.5,.54-1.219,.85-1.999,.85-1.429,0-2.529-1.129-2.529-2.589Z"/>
    <path d="M272.786,91.437l1.129-.189v4.497l2.079-2.128h1.299l-2.309,2.318,2.429,2.688h-1.439l-2.059-2.309v2.309h-1.129v-7.187Z"/>
    <path d="M277.566,96.124c0-1.469,1.06-2.588,2.438-2.588,1.37,0,2.369,1.089,2.369,2.588v.271h-3.698c.11,.81,.72,1.399,1.499,1.399,.47,0,.91-.181,1.189-.47l.74,.669c-.61,.51-1.219,.729-1.979,.729-1.439,0-2.559-1.129-2.559-2.599Zm3.738-.43c-.12-.729-.64-1.239-1.309-1.239-.68,0-1.179,.49-1.309,1.239h2.618Z"/>
    <path d="M283.526,93.617h1.129v.819c.38-.59,.929-.899,1.579-.899,1.029,0,1.749,.729,1.749,1.789v3.298h-1.14v-2.979c0-.729-.43-1.199-1.099-1.199-.46,0-.83,.21-1.089,.609v3.568h-1.129v-5.007Z"/>
    <path d="M289.116,96.124c0-1.429,1.029-2.548,2.339-2.548,.569,0,1.089,.229,1.459,.649v-2.769l1.129-.2v7.366h-1.119v-.659c-.36,.449-.919,.709-1.549,.709-1.27,0-2.259-1.129-2.259-2.549Zm3.798,1.05v-2.108c-.29-.34-.72-.54-1.189-.54-.859,0-1.499,.68-1.499,1.599,0,.91,.64,1.6,1.499,1.6,.49,0,.9-.19,1.189-.55Z"/>
    <path d="M295.296,97.993c0-.399,.31-.729,.7-.729s.699,.33,.699,.729-.31,.72-.699,.72-.7-.319-.7-.72Z"/>
    <path d="M297.946,91.457l1.129-.2v3.179c.38-.59,.929-.899,1.579-.899,1.029,0,1.749,.729,1.749,1.789v3.298h-1.14v-2.979c0-.729-.43-1.199-1.099-1.199-.46,0-.83,.21-1.089,.609v3.568h-1.129v-7.166Z"/>
    <path d="M303.536,96.124c0-1.479,1.08-2.588,2.519-2.588,1.429,0,2.509,1.109,2.509,2.588s-1.08,2.589-2.509,2.589c-1.438,0-2.519-1.109-2.519-2.589Zm3.918,0c0-.929-.59-1.629-1.399-1.629-.819,0-1.409,.7-1.409,1.629,0,.939,.59,1.63,1.409,1.63,.81,0,1.399-.69,1.399-1.63Z"/>
    <path d="M309.286,98.043l.529-.749c.66,.409,1.1,.569,1.609,.569,.6,0,1.01-.279,1.01-.68,0-.31-.21-.47-.699-.569l-.881-.15c-.979-.18-1.449-.629-1.449-1.379,0-.939,.77-1.549,1.939-1.549,.699,0,1.33,.199,1.969,.6l-.529,.749c-.51-.329-1-.479-1.51-.479-.52,0-.859,.22-.859,.58,0,.319,.18,.459,.7,.55l.89,.17c.999,.18,1.479,.64,1.479,1.389,0,.92-.879,1.629-2.049,1.629-.859,0-1.619-.239-2.148-.68Z"/>
    <path d="M315.046,97.325v-2.809h-1v-.899h1v-1.38l1.129-.239v1.619h1.389v.899h-1.389v2.559c0,.489,.189,.68,.699,.68,.221,0,.38-.03,.68-.12v.949c-.289,.09-.67,.14-.969,.14-1.01,0-1.539-.479-1.539-1.398Z"/>
    <path d="M321.015,93.746h4.198v.869h-4.198v-.869Zm0,1.799h4.198v.869h-4.198v-.869Z"/>
    <path d="M329.974,92.777l-1.239,.529v-.969l1.639-.71h.69v6.996h-1.09v-5.847Z"/>
    <path d="M332.285,95.125c0-2.148,1.169-3.608,2.868-3.608s2.859,1.46,2.859,3.608-1.16,3.598-2.859,3.598-2.868-1.459-2.868-3.598Zm4.638,0c0-1.609-.689-2.639-1.77-2.639s-1.778,1.029-1.778,2.639c0,1.599,.699,2.629,1.778,2.629s1.77-1.03,1.77-2.629Z"/>
    <path d="M338.876,97.993c0-.399,.309-.729,.699-.729s.699,.33,.699,.729-.31,.72-.699,.72-.699-.319-.699-.72Z"/>
    <path d="M341.206,96.695c0-.8,.619-1.479,1.498-1.709-.749-.25-1.259-.85-1.259-1.55,0-1.099,1.009-1.919,2.358-1.919s2.359,.82,2.359,1.919c0,.7-.51,1.3-1.26,1.55,.88,.229,1.5,.909,1.5,1.709,0,1.189-1.08,2.039-2.6,2.039s-2.598-.85-2.598-2.039Zm4.098-.07c0-.689-.63-1.199-1.5-1.199s-1.499,.51-1.499,1.199,.63,1.209,1.499,1.209,1.5-.52,1.5-1.209Zm-.211-3.128c0-.62-.559-1.08-1.289-1.08s-1.289,.46-1.289,1.08,.56,1.089,1.289,1.089,1.289-.47,1.289-1.089Z"/>
    <path d="M347.325,97.993c0-.399,.311-.729,.7-.729s.699,.33,.699,.729-.31,.72-.699,.72-.7-.319-.7-.72Z"/>
    <path d="M349.575,95.125c0-2.148,1.17-3.608,2.869-3.608s2.857,1.46,2.857,3.608-1.158,3.598-2.857,3.598-2.869-1.459-2.869-3.598Zm4.638,0c0-1.609-.689-2.639-1.769-2.639s-1.779,1.029-1.779,2.639c0,1.599,.699,2.629,1.779,2.629s1.769-1.03,1.769-2.629Z"/>
    <path d="M356.166,97.993c0-.399,.31-.729,.7-.729s.699,.33,.699,.729-.311,.72-.699,.72c-.391,0-.7-.319-.7-.72Z"/>
    <path d="M358.626,97.833l2.868-2.998c.51-.539,.68-.89,.68-1.339,0-.58-.54-1.02-1.269-1.02-.65,0-1.15,.229-1.82,.85l-.619-.75c.77-.709,1.579-1.06,2.459-1.06,1.369,0,2.309,.78,2.309,1.919,0,.68-.24,1.17-.989,1.959l-2.229,2.299,3.349-.01v.939h-4.737v-.79Z"/>
  </g>
  <g>
    <g class="uuid-f5f567e8-1ce9-467f-9ed5-1b0af4640eaf">
      <path class="uuid-694bc019-722f-48bb-af58-e7bf561de584" d="M269.767,145.306h3.458c1.359,0,2.329,.8,2.329,1.909,0,.649-.41,1.199-1.02,1.519,.729,.29,1.219,.89,1.219,1.609,0,1.149-.979,1.959-2.368,1.959h-3.618v-6.996Zm3.258,2.809c.48,0,.8-.29,.8-.72,0-.439-.31-.72-.8-.72h-1.539v1.439h1.539Zm.141,2.818c.52,0,.85-.3,.85-.77s-.33-.77-.85-.77h-1.68v1.539h1.68Z"/>
      <path class="uuid-694bc019-722f-48bb-af58-e7bf561de584" d="M276.668,150.823c0-.949,.739-1.499,2.009-1.499,.37,0,.739,.07,1.199,.24v-.42c0-.5-.33-.75-1.02-.75-.39,0-.85,.11-1.449,.36l-.56-1.13c.85-.38,1.609-.56,2.369-.56,1.429,0,2.259,.71,2.259,1.939v3.298h-1.6v-.45c-.449,.38-.879,.53-1.429,.53-1.05,0-1.779-.64-1.779-1.56Zm2.278,.49c.34,0,.65-.09,.93-.26v-.66c-.3-.069-.59-.109-.89-.109-.529,0-.829,.18-.829,.51s.29,.52,.789,.52Z"/>
      <path class="uuid-694bc019-722f-48bb-af58-e7bf561de584" d="M282.468,149.734c0-1.51,1.159-2.669,2.669-2.669,.85,0,1.629,.34,2.148,.949l-.989,.99c-.33-.39-.66-.56-1.1-.56-.64,0-1.119,.549-1.119,1.289s.479,1.289,1.119,1.289c.439,0,.77-.17,1.1-.56l.989,.989c-.52,.609-1.299,.949-2.148,.949-1.51,0-2.669-1.159-2.669-2.668Z"/>
      <path class="uuid-694bc019-722f-48bb-af58-e7bf561de584" d="M288.088,145.156l1.618-.249v4.287l1.8-2.049h1.789l-2.1,2.309,2.249,2.849h-2.019l-1.72-2.278v2.278h-1.618v-7.146Z"/>
      <path class="uuid-694bc019-722f-48bb-af58-e7bf561de584" d="M293.657,148.764h3.678v1.35h-3.678v-1.35Z"/>
      <path class="uuid-694bc019-722f-48bb-af58-e7bf561de584" d="M298.348,149.734c0-1.51,1.119-2.669,2.599-2.669,1.488,0,2.538,1.13,2.538,2.729v.35h-3.548c.149,.58,.619,.97,1.209,.97,.43,0,.79-.149,1.02-.43l1.069,.89c-.669,.59-1.299,.829-2.169,.829-1.519,0-2.718-1.169-2.718-2.668Zm3.638-.51c-.14-.55-.529-.899-1.05-.899-.51,0-.869,.329-.999,.899h2.049Z"/>
      <path class="uuid-694bc019-722f-48bb-af58-e7bf561de584" d="M304.497,147.145h1.619v.84c.399-.6,.959-.92,1.629-.92,1,0,1.709,.729,1.709,1.759v3.479h-1.619v-3.009c0-.579-.34-.959-.859-.959-.35,0-.63,.14-.859,.43v3.538h-1.619v-5.157Z"/>
      <path class="uuid-694bc019-722f-48bb-af58-e7bf561de584" d="M310.447,149.713c0-1.449,1.06-2.599,2.398-2.599,.54,0,1.03,.221,1.38,.62v-2.549l1.619-.25v7.366h-1.6v-.67c-.34,.43-.909,.7-1.519,.7-1.27,0-2.279-1.17-2.279-2.619Zm3.778,.87v-1.739c-.25-.26-.59-.399-.96-.399-.709,0-1.229,.539-1.229,1.279,0,.729,.53,1.269,1.229,1.269,.39,0,.71-.14,.96-.409Z"/>
      <path class="uuid-694bc019-722f-48bb-af58-e7bf561de584" d="M319.027,149.734c0-1.51,1.159-2.669,2.668-2.669,.85,0,1.629,.34,2.149,.949l-.99,.99c-.329-.39-.659-.56-1.099-.56-.64,0-1.12,.549-1.12,1.289s.48,1.289,1.12,1.289c.439,0,.77-.17,1.099-.56l.99,.989c-.521,.609-1.3,.949-2.149,.949-1.509,0-2.668-1.159-2.668-2.668Z"/>
      <path class="uuid-694bc019-722f-48bb-af58-e7bf561de584" d="M324.266,149.734c0-1.52,1.159-2.669,2.688-2.669s2.688,1.149,2.688,2.669-1.159,2.668-2.688,2.668-2.688-1.149-2.688-2.668Zm3.798,0c0-.77-.46-1.319-1.109-1.319s-1.109,.55-1.109,1.319,.46,1.319,1.109,1.319,1.109-.55,1.109-1.319Z"/>
      <path class="uuid-694bc019-722f-48bb-af58-e7bf561de584" d="M330.677,147.145h1.619v.84c.399-.6,.959-.92,1.629-.92,1,0,1.709,.729,1.709,1.759v3.479h-1.619v-3.009c0-.579-.34-.959-.859-.959-.35,0-.63,.14-.859,.43v3.538h-1.619v-5.157Z"/>
      <path class="uuid-694bc019-722f-48bb-af58-e7bf561de584" d="M337.386,150.743v-2.349h-.999v-1.249h.999v-1.429l1.619-.33v1.759h1.38v1.249h-1.38v2.029c0,.46,.181,.619,.68,.619,.19,0,.34-.02,.66-.109v1.31c-.3,.09-.779,.159-1.109,.159-1.22,0-1.85-.56-1.85-1.659Z"/>
      <path class="uuid-694bc019-722f-48bb-af58-e7bf561de584" d="M341.047,150.823c0-.949,.739-1.499,2.009-1.499,.37,0,.739,.07,1.199,.24v-.42c0-.5-.33-.75-1.02-.75-.39,0-.85,.11-1.449,.36l-.56-1.13c.85-.38,1.609-.56,2.369-.56,1.429,0,2.259,.71,2.259,1.939v3.298h-1.6v-.45c-.449,.38-.879,.53-1.429,.53-1.05,0-1.779-.64-1.779-1.56Zm2.278,.49c.34,0,.65-.09,.93-.26v-.66c-.3-.069-.59-.109-.89-.109-.529,0-.829,.18-.829,.51s.29,.52,.789,.52Z"/>
      <path class="uuid-694bc019-722f-48bb-af58-e7bf561de584" d="M346.976,145.446c0-.499,.41-.909,.91-.909s.909,.41,.909,.909-.41,.91-.909,.91-.91-.41-.91-.91Zm.101,1.699h1.618v5.157h-1.618v-5.157Z"/>
      <path class="uuid-694bc019-722f-48bb-af58-e7bf561de584" d="M349.957,147.145h1.618v.84c.4-.6,.96-.92,1.63-.92,.999,0,1.709,.729,1.709,1.759v3.479h-1.619v-3.009c0-.579-.34-.959-.859-.959-.351,0-.63,.14-.86,.43v3.538h-1.618v-5.157Z"/>
      <path class="uuid-694bc019-722f-48bb-af58-e7bf561de584" d="M355.907,149.734c0-1.51,1.119-2.669,2.599-2.669,1.488,0,2.538,1.13,2.538,2.729v.35h-3.548c.149,.58,.619,.97,1.209,.97,.43,0,.79-.149,1.02-.43l1.069,.89c-.669,.59-1.299,.829-2.169,.829-1.519,0-2.718-1.169-2.718-2.668Zm3.638-.51c-.14-.55-.529-.899-1.05-.899-.51,0-.869,.329-.999,.899h2.049Z"/>
      <path class="uuid-694bc019-722f-48bb-af58-e7bf561de584" d="M362.057,147.145h1.619v1.169c.33-.859,.79-1.269,1.399-1.269,.229,.01,.34,.029,.539,.13v1.389c-.199-.1-.479-.159-.759-.159-.48,0-.92,.249-1.18,.64v3.258h-1.619v-5.157Z"/>
    </g>
    <g class="uuid-f5f567e8-1ce9-467f-9ed5-1b0af4640eaf">
      <path class="uuid-694bc019-722f-48bb-af58-e7bf561de584" d="M295.769,156.306h1.199v6.996h-1.199v-6.996Z"/>
      <path class="uuid-694bc019-722f-48bb-af58-e7bf561de584" d="M298.599,156.306h3.128c1.42,0,2.339,.89,2.339,2.179,0,1.26-.919,2.148-2.339,2.148h-1.929v2.669h-1.199v-6.996Zm2.938,3.348c.85,0,1.319-.47,1.319-1.179,0-.689-.47-1.159-1.31-1.159h-1.749v2.338h1.739Z"/>
      <path class="uuid-694bc019-722f-48bb-af58-e7bf561de584" d="M305.099,158.924c0-.399,.31-.729,.7-.729s.699,.33,.699,.729-.31,.72-.699,.72-.7-.319-.7-.72Zm0,3.748c0-.399,.31-.729,.7-.729s.699,.33,.699,.729-.31,.72-.699,.72-.7-.319-.7-.72Z"/>
      <path class="uuid-694bc019-722f-48bb-af58-e7bf561de584" d="M310.909,157.455l-1.239,.529v-.969l1.639-.71h.69v6.996h-1.09v-5.847Z"/>
      <path class="uuid-694bc019-722f-48bb-af58-e7bf561de584" d="M313.22,159.804c0-2.148,1.169-3.608,2.868-3.608s2.858,1.46,2.858,3.608-1.159,3.598-2.858,3.598-2.868-1.459-2.868-3.598Zm4.638,0c0-1.609-.689-2.639-1.77-2.639s-1.778,1.029-1.778,2.639c0,1.599,.699,2.629,1.778,2.629s1.77-1.03,1.77-2.629Z"/>
      <path class="uuid-694bc019-722f-48bb-af58-e7bf561de584" d="M319.809,162.672c0-.399,.31-.729,.7-.729s.699,.33,.699,.729-.31,.72-.699,.72-.7-.319-.7-.72Z"/>
      <path class="uuid-694bc019-722f-48bb-af58-e7bf561de584" d="M322.14,161.373c0-.8,.62-1.479,1.499-1.709-.749-.25-1.259-.85-1.259-1.55,0-1.099,1.009-1.919,2.358-1.919s2.358,.82,2.358,1.919c0,.7-.51,1.3-1.259,1.55,.88,.229,1.499,.909,1.499,1.709,0,1.189-1.079,2.039-2.599,2.039s-2.599-.85-2.599-2.039Zm4.098-.07c0-.689-.629-1.199-1.499-1.199s-1.499,.51-1.499,1.199,.63,1.209,1.499,1.209,1.499-.52,1.499-1.209Zm-.21-3.128c0-.62-.56-1.08-1.289-1.08s-1.289,.46-1.289,1.08,.56,1.089,1.289,1.089,1.289-.47,1.289-1.089Z"/>
      <path class="uuid-694bc019-722f-48bb-af58-e7bf561de584" d="M328.26,162.672c0-.399,.31-.729,.7-.729s.699,.33,.699,.729-.31,.72-.699,.72-.7-.319-.7-.72Z"/>
      <path class="uuid-694bc019-722f-48bb-af58-e7bf561de584" d="M330.51,159.804c0-2.148,1.169-3.608,2.868-3.608s2.858,1.46,2.858,3.608-1.159,3.598-2.858,3.598-2.868-1.459-2.868-3.598Zm4.638,0c0-1.609-.689-2.639-1.77-2.639s-1.778,1.029-1.778,2.639c0,1.599,.699,2.629,1.778,2.629s1.77-1.03,1.77-2.629Z"/>
      <path class="uuid-694bc019-722f-48bb-af58-e7bf561de584" d="M337.099,162.672c0-.399,.31-.729,.7-.729s.699,.33,.699,.729-.31,.72-.699,.72-.7-.319-.7-.72Z"/>
      <path class="uuid-694bc019-722f-48bb-af58-e7bf561de584" d="M339.559,162.512l2.868-2.998c.51-.539,.68-.89,.68-1.339,0-.58-.539-1.02-1.269-1.02-.65,0-1.149,.229-1.819,.85l-.62-.75c.771-.709,1.579-1.06,2.459-1.06,1.369,0,2.309,.78,2.309,1.919,0,.68-.239,1.17-.989,1.959l-2.229,2.299,3.348-.01v.939h-4.737v-.79Z"/>
    </g>
  </g>
  <g class="uuid-f5f567e8-1ce9-467f-9ed5-1b0af4640eaf">
    <path class="uuid-694bc019-722f-48bb-af58-e7bf561de584" d="M259.372,183.662c0-1.429,1.029-2.548,2.339-2.548,.569,0,1.09,.229,1.459,.649v-2.769l1.13-.2v7.366h-1.119v-.659c-.36,.449-.92,.709-1.55,.709-1.27,0-2.259-1.129-2.259-2.549Zm3.798,1.05v-2.108c-.289-.34-.72-.54-1.189-.54-.859,0-1.499,.68-1.499,1.599,0,.91,.64,1.6,1.499,1.6,.49,0,.9-.19,1.189-.55Z"/>
    <path class="uuid-694bc019-722f-48bb-af58-e7bf561de584" d="M265.442,184.722c0-.899,.739-1.469,1.919-1.469,.47,0,.909,.1,1.349,.319v-.56c0-.659-.38-.999-1.149-.999-.42,0-.879,.12-1.459,.39l-.399-.819c.749-.34,1.409-.51,2.078-.51,1.31,0,2.049,.659,2.049,1.818v3.269h-1.119v-.52c-.43,.42-.909,.609-1.489,.609-1.049,0-1.778-.63-1.778-1.529Zm2.089,.729c.449,0,.839-.13,1.179-.419v-.81c-.359-.17-.72-.24-1.149-.24-.649,0-1.06,.27-1.06,.72,0,.46,.4,.749,1.03,.749Z"/>
    <path class="uuid-694bc019-722f-48bb-af58-e7bf561de584" d="M271.672,184.863v-2.809h-1v-.899h1v-1.38l1.129-.239v1.619h1.39v.899h-1.39v2.559c0,.489,.19,.68,.7,.68,.22,0,.379-.03,.68-.12v.949c-.29,.09-.67,.14-.97,.14-1.01,0-1.539-.479-1.539-1.398Z"/>
    <path class="uuid-694bc019-722f-48bb-af58-e7bf561de584" d="M274.932,184.722c0-.899,.739-1.469,1.919-1.469,.47,0,.909,.1,1.349,.319v-.56c0-.659-.38-.999-1.149-.999-.42,0-.879,.12-1.459,.39l-.399-.819c.749-.34,1.409-.51,2.078-.51,1.31,0,2.049,.659,2.049,1.818v3.269h-1.119v-.52c-.43,.42-.909,.609-1.489,.609-1.049,0-1.778-.63-1.778-1.529Zm2.089,.729c.449,0,.839-.13,1.179-.419v-.81c-.359-.17-.72-.24-1.149-.24-.649,0-1.06,.27-1.06,.72,0,.46,.4,.749,1.03,.749Z"/>
    <path class="uuid-694bc019-722f-48bb-af58-e7bf561de584" d="M280.691,179.026l1.13-.19v2.988c.35-.439,.909-.709,1.539-.709,1.269,0,2.259,1.129,2.259,2.548,0,1.43-1.02,2.549-2.329,2.549-.59,0-1.109-.239-1.489-.689v.64h-1.109v-7.136Zm3.818,4.637c0-.909-.64-1.599-1.489-1.599-.5,0-.91,.2-1.199,.56v2.089c.289,.35,.72,.56,1.199,.56,.859,0,1.489-.689,1.489-1.609Z"/>
    <path class="uuid-694bc019-722f-48bb-af58-e7bf561de584" d="M286.592,184.722c0-.899,.739-1.469,1.919-1.469,.47,0,.909,.1,1.35,.319v-.56c0-.659-.38-.999-1.149-.999-.42,0-.88,.12-1.459,.39l-.4-.819c.75-.34,1.409-.51,2.079-.51,1.31,0,2.049,.659,2.049,1.818v3.269h-1.119v-.52c-.43,.42-.91,.609-1.489,.609-1.05,0-1.779-.63-1.779-1.529Zm2.089,.729c.45,0,.84-.13,1.18-.419v-.81c-.36-.17-.72-.24-1.149-.24-.649,0-1.06,.27-1.06,.72,0,.46,.399,.749,1.029,.749Z"/>
    <path class="uuid-694bc019-722f-48bb-af58-e7bf561de584" d="M291.901,185.581l.53-.749c.659,.409,1.099,.569,1.608,.569,.6,0,1.01-.279,1.01-.68,0-.31-.21-.47-.699-.569l-.88-.15c-.979-.18-1.449-.629-1.449-1.379,0-.939,.77-1.549,1.938-1.549,.7,0,1.33,.199,1.97,.6l-.53,.749c-.51-.329-.999-.479-1.509-.479-.52,0-.859,.22-.859,.58,0,.319,.18,.459,.699,.55l.89,.17c.999,.18,1.479,.64,1.479,1.389,0,.92-.88,1.629-2.05,1.629-.859,0-1.618-.239-2.148-.68Z"/>
    <path class="uuid-694bc019-722f-48bb-af58-e7bf561de584" d="M296.961,183.662c0-1.469,1.06-2.588,2.438-2.588,1.37,0,2.369,1.089,2.369,2.588v.271h-3.698c.11,.81,.72,1.399,1.499,1.399,.47,0,.91-.181,1.189-.47l.74,.669c-.61,.51-1.22,.729-1.979,.729-1.438,0-2.559-1.129-2.559-2.599Zm3.738-.43c-.12-.729-.64-1.239-1.31-1.239-.68,0-1.179,.49-1.309,1.239h2.618Z"/>
    <path class="uuid-694bc019-722f-48bb-af58-e7bf561de584" d="M302.521,185.532c0-.399,.31-.729,.699-.729s.699,.33,.699,.729-.31,.72-.699,.72-.699-.319-.699-.72Z"/>
    <path class="uuid-694bc019-722f-48bb-af58-e7bf561de584" d="M305.171,178.995l1.13-.2v3.179c.38-.59,.929-.899,1.579-.899,1.029,0,1.749,.729,1.749,1.789v3.298h-1.14v-2.979c0-.729-.43-1.199-1.1-1.199-.46,0-.829,.21-1.089,.609v3.568h-1.13v-7.166Z"/>
    <path class="uuid-694bc019-722f-48bb-af58-e7bf561de584" d="M310.761,183.662c0-1.479,1.08-2.588,2.519-2.588,1.43,0,2.509,1.109,2.509,2.588s-1.079,2.589-2.509,2.589c-1.438,0-2.519-1.109-2.519-2.589Zm3.918,0c0-.929-.59-1.629-1.399-1.629-.819,0-1.409,.7-1.409,1.629,0,.939,.59,1.63,1.409,1.63,.81,0,1.399-.69,1.399-1.63Z"/>
    <path class="uuid-694bc019-722f-48bb-af58-e7bf561de584" d="M316.512,185.581l.529-.749c.659,.409,1.1,.569,1.609,.569,.6,0,1.009-.279,1.009-.68,0-.31-.209-.47-.699-.569l-.88-.15c-.979-.18-1.449-.629-1.449-1.379,0-.939,.77-1.549,1.939-1.549,.699,0,1.329,.199,1.969,.6l-.529,.749c-.51-.329-1-.479-1.51-.479-.52,0-.859,.22-.859,.58,0,.319,.18,.459,.699,.55l.89,.17c1,.18,1.479,.64,1.479,1.389,0,.92-.88,1.629-2.049,1.629-.859,0-1.619-.239-2.148-.68Z"/>
    <path class="uuid-694bc019-722f-48bb-af58-e7bf561de584" d="M322.27,184.863v-2.809h-.999v-.899h.999v-1.38l1.13-.239v1.619h1.389v.899h-1.389v2.559c0,.489,.189,.68,.699,.68,.22,0,.38-.03,.68-.12v.949c-.29,.09-.67,.14-.97,.14-1.009,0-1.539-.479-1.539-1.398Z"/>
    <path class="uuid-694bc019-722f-48bb-af58-e7bf561de584" d="M328.24,181.285h4.198v.869h-4.198v-.869Zm0,1.799h4.198v.869h-4.198v-.869Z"/>
    <path class="uuid-694bc019-722f-48bb-af58-e7bf561de584" d="M337.2,180.315l-1.239,.529v-.969l1.639-.71h.69v6.996h-1.09v-5.847Z"/>
    <path class="uuid-694bc019-722f-48bb-af58-e7bf561de584" d="M339.511,182.663c0-2.148,1.169-3.608,2.868-3.608s2.858,1.46,2.858,3.608-1.159,3.598-2.858,3.598-2.868-1.459-2.868-3.598Zm4.638,0c0-1.609-.689-2.639-1.77-2.639s-1.778,1.029-1.778,2.639c0,1.599,.699,2.629,1.778,2.629s1.77-1.03,1.77-2.629Z"/>
    <path class="uuid-694bc019-722f-48bb-af58-e7bf561de584" d="M346.1,185.532c0-.399,.31-.729,.7-.729s.699,.33,.699,.729-.31,.72-.699,.72-.7-.319-.7-.72Z"/>
    <path class="uuid-694bc019-722f-48bb-af58-e7bf561de584" d="M348.431,184.233c0-.8,.619-1.479,1.499-1.709-.75-.25-1.26-.85-1.26-1.55,0-1.099,1.01-1.919,2.359-1.919s2.358,.82,2.358,1.919c0,.7-.51,1.3-1.26,1.55,.88,.229,1.5,.909,1.5,1.709,0,1.189-1.08,2.039-2.599,2.039s-2.599-.85-2.599-2.039Zm4.098-.07c0-.689-.63-1.199-1.499-1.199s-1.5,.51-1.5,1.199,.63,1.209,1.5,1.209,1.499-.52,1.499-1.209Zm-.21-3.128c0-.62-.56-1.08-1.289-1.08s-1.29,.46-1.29,1.08,.56,1.089,1.29,1.089,1.289-.47,1.289-1.089Z"/>
    <path class="uuid-694bc019-722f-48bb-af58-e7bf561de584" d="M354.551,185.532c0-.399,.31-.729,.699-.729s.699,.33,.699,.729-.31,.72-.699,.72-.699-.319-.699-.72Z"/>
    <path class="uuid-694bc019-722f-48bb-af58-e7bf561de584" d="M356.801,182.663c0-2.148,1.169-3.608,2.868-3.608s2.858,1.46,2.858,3.608-1.159,3.598-2.858,3.598-2.868-1.459-2.868-3.598Zm4.638,0c0-1.609-.689-2.639-1.77-2.639s-1.778,1.029-1.778,2.639c0,1.599,.699,2.629,1.778,2.629s1.77-1.03,1.77-2.629Z"/>
    <path class="uuid-694bc019-722f-48bb-af58-e7bf561de584" d="M363.39,185.532c0-.399,.31-.729,.7-.729s.699,.33,.699,.729-.31,.72-.699,.72-.7-.319-.7-.72Z"/>
    <path class="uuid-694bc019-722f-48bb-af58-e7bf561de584" d="M365.64,185.222l.73-.699c.56,.579,1.059,.789,1.839,.789,.909,0,1.529-.47,1.529-1.159,0-.63-.51-1.06-1.25-1.06h-.859v-.92h.77c.68,0,1.119-.409,1.119-1.039s-.579-1.109-1.329-1.109c-.699,0-1.169,.22-1.739,.83l-.739-.69c.64-.709,1.549-1.109,2.509-1.109,1.389,0,2.389,.82,2.389,1.97,0,.739-.529,1.358-1.319,1.589,.93,.199,1.549,.819,1.549,1.609,0,1.188-1.099,2.049-2.608,2.049-1.029,0-1.959-.38-2.589-1.05Z"/>
  </g>
  <g>
    <g class="uuid-f5f567e8-1ce9-467f-9ed5-1b0af4640eaf">
      <path d="M422.234,145.306h1.619l3.108,4.237-.03-4.237h1.619v6.996h-1.519l-3.209-4.378,.03,4.378h-1.619v-6.996Z"/>
      <path d="M429.734,149.734c0-1.51,1.119-2.669,2.599-2.669,1.489,0,2.539,1.13,2.539,2.729v.35h-3.549c.15,.58,.62,.97,1.21,.97,.43,0,.789-.149,1.02-.43l1.069,.89c-.67,.59-1.3,.829-2.169,.829-1.52,0-2.719-1.169-2.719-2.668Zm3.638-.51c-.14-.55-.529-.899-1.049-.899-.51,0-.87,.329-1,.899h2.049Z"/>
      <path d="M435.315,147.145h1.528l.72,3.078,.87-3.078h1.329l.859,3.068,.71-3.068h1.489l-1.37,5.157h-1.539l-.839-3.038-.82,3.038h-1.559l-1.379-5.157Z"/>
      <path d="M445.765,145.186l1.618-.25v2.869c.34-.42,.9-.69,1.51-.69,1.27,0,2.278,1.17,2.278,2.619s-1.06,2.599-2.398,2.599c-.56,0-1.06-.24-1.409-.66v.63h-1.599v-7.116Zm3.817,4.538c0-.73-.529-1.27-1.229-1.27-.399,0-.709,.14-.97,.42v1.719c.25,.26,.59,.41,.97,.41,.71,0,1.229-.54,1.229-1.279Z"/>
      <path d="M452.015,150.823c0-.949,.739-1.499,2.009-1.499,.37,0,.739,.07,1.199,.24v-.42c0-.5-.33-.75-1.02-.75-.39,0-.85,.11-1.449,.36l-.56-1.13c.85-.38,1.609-.56,2.369-.56,1.429,0,2.259,.71,2.259,1.939v3.298h-1.6v-.45c-.449,.38-.879,.53-1.429,.53-1.05,0-1.779-.64-1.779-1.56Zm2.278,.49c.34,0,.65-.09,.93-.26v-.66c-.3-.069-.59-.109-.89-.109-.529,0-.829,.18-.829,.51s.29,.52,.789,.52Z"/>
      <path d="M457.814,149.734c0-1.51,1.159-2.669,2.668-2.669,.85,0,1.629,.34,2.149,.949l-.99,.99c-.329-.39-.659-.56-1.099-.56-.64,0-1.12,.549-1.12,1.289s.48,1.289,1.12,1.289c.439,0,.77-.17,1.099-.56l.99,.989c-.521,.609-1.3,.949-2.149,.949-1.509,0-2.668-1.159-2.668-2.668Z"/>
      <path d="M463.434,145.156l1.618-.249v4.287l1.8-2.049h1.789l-2.1,2.309,2.249,2.849h-2.019l-1.72-2.278v2.278h-1.618v-7.146Z"/>
      <path d="M469.004,148.764h3.678v1.35h-3.678v-1.35Z"/>
      <path d="M473.694,149.734c0-1.51,1.119-2.669,2.599-2.669,1.488,0,2.538,1.13,2.538,2.729v.35h-3.548c.149,.58,.619,.97,1.209,.97,.43,0,.79-.149,1.02-.43l1.069,.89c-.669,.59-1.299,.829-2.169,.829-1.519,0-2.718-1.169-2.718-2.668Zm3.638-.51c-.14-.55-.529-.899-1.05-.899-.51,0-.869,.329-.999,.899h2.049Z"/>
      <path d="M479.844,147.145h1.619v.84c.399-.6,.959-.92,1.629-.92,1,0,1.709,.729,1.709,1.759v3.479h-1.619v-3.009c0-.579-.34-.959-.859-.959-.35,0-.63,.14-.859,.43v3.538h-1.619v-5.157Z"/>
      <path d="M485.794,149.713c0-1.449,1.06-2.599,2.398-2.599,.54,0,1.03,.221,1.38,.62v-2.549l1.619-.25v7.366h-1.6v-.67c-.34,.43-.909,.7-1.519,.7-1.27,0-2.279-1.17-2.279-2.619Zm3.778,.87v-1.739c-.25-.26-.59-.399-.96-.399-.709,0-1.229,.539-1.229,1.279,0,.729,.53,1.269,1.229,1.269,.39,0,.71-.14,.96-.409Z"/>
      <path d="M494.374,149.734c0-1.51,1.159-2.669,2.668-2.669,.85,0,1.629,.34,2.149,.949l-.99,.99c-.329-.39-.659-.56-1.099-.56-.64,0-1.12,.549-1.12,1.289s.48,1.289,1.12,1.289c.439,0,.77-.17,1.099-.56l.99,.989c-.521,.609-1.3,.949-2.149,.949-1.509,0-2.668-1.159-2.668-2.668Z"/>
      <path d="M499.613,149.734c0-1.52,1.159-2.669,2.688-2.669s2.688,1.149,2.688,2.669-1.159,2.668-2.688,2.668-2.688-1.149-2.688-2.668Zm3.798,0c0-.77-.46-1.319-1.109-1.319s-1.109,.55-1.109,1.319,.46,1.319,1.109,1.319,1.109-.55,1.109-1.319Z"/>
      <path d="M506.023,147.145h1.619v.84c.399-.6,.959-.92,1.629-.92,1,0,1.709,.729,1.709,1.759v3.479h-1.619v-3.009c0-.579-.34-.959-.859-.959-.35,0-.63,.14-.859,.43v3.538h-1.619v-5.157Z"/>
      <path d="M512.732,150.743v-2.349h-.999v-1.249h.999v-1.429l1.619-.33v1.759h1.38v1.249h-1.38v2.029c0,.46,.181,.619,.68,.619,.19,0,.34-.02,.66-.109v1.31c-.3,.09-.779,.159-1.109,.159-1.22,0-1.85-.56-1.85-1.659Z"/>
      <path d="M516.393,150.823c0-.949,.739-1.499,2.009-1.499,.37,0,.739,.07,1.199,.24v-.42c0-.5-.33-.75-1.02-.75-.39,0-.85,.11-1.449,.36l-.56-1.13c.85-.38,1.609-.56,2.369-.56,1.429,0,2.259,.71,2.259,1.939v3.298h-1.6v-.45c-.449,.38-.879,.53-1.429,.53-1.05,0-1.779-.64-1.779-1.56Zm2.278,.49c.34,0,.65-.09,.93-.26v-.66c-.3-.069-.59-.109-.89-.109-.529,0-.829,.18-.829,.51s.29,.52,.789,.52Z"/>
      <path d="M522.323,145.446c0-.499,.41-.909,.91-.909s.909,.41,.909,.909-.41,.91-.909,.91-.91-.41-.91-.91Zm.101,1.699h1.618v5.157h-1.618v-5.157Z"/>
      <path d="M525.304,147.145h1.618v.84c.4-.6,.96-.92,1.63-.92,.999,0,1.709,.729,1.709,1.759v3.479h-1.619v-3.009c0-.579-.34-.959-.859-.959-.351,0-.63,.14-.86,.43v3.538h-1.618v-5.157Z"/>
      <path d="M531.253,149.734c0-1.51,1.119-2.669,2.599-2.669,1.489,0,2.539,1.13,2.539,2.729v.35h-3.549c.15,.58,.62,.97,1.21,.97,.43,0,.789-.149,1.02-.43l1.069,.89c-.67,.59-1.3,.829-2.169,.829-1.52,0-2.719-1.169-2.719-2.668Zm3.638-.51c-.14-.55-.529-.899-1.049-.899-.51,0-.87,.329-1,.899h2.049Z"/>
      <path d="M537.403,147.145h1.618v1.169c.33-.859,.79-1.269,1.399-1.269,.23,.01,.34,.029,.54,.13v1.389c-.2-.1-.479-.159-.76-.159-.479,0-.919,.249-1.18,.64v3.258h-1.618v-5.157Z"/>
    </g>
    <g class="uuid-f5f567e8-1ce9-467f-9ed5-1b0af4640eaf">
      <path d="M456.893,156.306h1.199v6.996h-1.199v-6.996Z"/>
      <path d="M459.723,156.306h3.128c1.42,0,2.339,.89,2.339,2.179,0,1.26-.919,2.148-2.339,2.148h-1.929v2.669h-1.199v-6.996Zm2.938,3.348c.85,0,1.319-.47,1.319-1.179,0-.689-.47-1.159-1.31-1.159h-1.749v2.338h1.739Z"/>
      <path d="M466.223,158.924c0-.399,.31-.729,.7-.729s.699,.33,.699,.729-.31,.72-.699,.72-.7-.319-.7-.72Zm0,3.748c0-.399,.31-.729,.7-.729s.699,.33,.699,.729-.31,.72-.699,.72-.7-.319-.7-.72Z"/>
      <path d="M472.033,157.455l-1.239,.529v-.969l1.639-.71h.69v6.996h-1.09v-5.847Z"/>
      <path d="M474.344,159.804c0-2.148,1.169-3.608,2.868-3.608s2.858,1.46,2.858,3.608-1.159,3.598-2.858,3.598-2.868-1.459-2.868-3.598Zm4.638,0c0-1.609-.689-2.639-1.77-2.639s-1.778,1.029-1.778,2.639c0,1.599,.699,2.629,1.778,2.629s1.77-1.03,1.77-2.629Z"/>
      <path d="M480.933,162.672c0-.399,.31-.729,.7-.729s.699,.33,.699,.729-.31,.72-.699,.72-.7-.319-.7-.72Z"/>
      <path d="M483.264,161.373c0-.8,.62-1.479,1.499-1.709-.749-.25-1.259-.85-1.259-1.55,0-1.099,1.009-1.919,2.358-1.919s2.358,.82,2.358,1.919c0,.7-.51,1.3-1.259,1.55,.88,.229,1.499,.909,1.499,1.709,0,1.189-1.079,2.039-2.599,2.039s-2.599-.85-2.599-2.039Zm4.098-.07c0-.689-.629-1.199-1.499-1.199s-1.499,.51-1.499,1.199,.63,1.209,1.499,1.209,1.499-.52,1.499-1.209Zm-.21-3.128c0-.62-.56-1.08-1.289-1.08s-1.289,.46-1.289,1.08,.56,1.089,1.289,1.089,1.289-.47,1.289-1.089Z"/>
      <path d="M489.384,162.672c0-.399,.31-.729,.7-.729s.699,.33,.699,.729-.31,.72-.699,.72-.7-.319-.7-.72Z"/>
      <path d="M491.634,159.804c0-2.148,1.169-3.608,2.868-3.608s2.858,1.46,2.858,3.608-1.159,3.598-2.858,3.598-2.868-1.459-2.868-3.598Zm4.638,0c0-1.609-.689-2.639-1.77-2.639s-1.778,1.029-1.778,2.639c0,1.599,.699,2.629,1.778,2.629s1.77-1.03,1.77-2.629Z"/>
      <path d="M498.223,162.672c0-.399,.31-.729,.7-.729s.699,.33,.699,.729-.31,.72-.699,.72-.7-.319-.7-.72Z"/>
      <path d="M504.212,161.573h-3.848v-.899l3.688-4.367h1.279v4.317h.92v.949h-.92v1.729h-1.119v-1.729Zm0-.949v-3.038l-2.549,3.038h2.549Z"/>
    </g>
  </g>
  <g class="uuid-f5f567e8-1ce9-467f-9ed5-1b0af4640eaf">
    <path d="M425.563,183.662c0-1.429,1.029-2.548,2.339-2.548,.569,0,1.09,.229,1.459,.649v-2.769l1.13-.2v7.366h-1.119v-.659c-.36,.449-.92,.709-1.55,.709-1.27,0-2.259-1.129-2.259-2.549Zm3.798,1.05v-2.108c-.289-.34-.72-.54-1.189-.54-.859,0-1.499,.68-1.499,1.599,0,.91,.64,1.6,1.499,1.6,.49,0,.9-.19,1.189-.55Z"/>
    <path d="M431.634,184.722c0-.899,.739-1.469,1.919-1.469,.47,0,.909,.1,1.349,.319v-.56c0-.659-.38-.999-1.149-.999-.42,0-.879,.12-1.459,.39l-.399-.819c.749-.34,1.409-.51,2.078-.51,1.31,0,2.049,.659,2.049,1.818v3.269h-1.119v-.52c-.43,.42-.909,.609-1.489,.609-1.049,0-1.778-.63-1.778-1.529Zm2.089,.729c.449,0,.839-.13,1.179-.419v-.81c-.359-.17-.72-.24-1.149-.24-.649,0-1.06,.27-1.06,.72,0,.46,.4,.749,1.03,.749Z"/>
    <path d="M437.863,184.863v-2.809h-1v-.899h1v-1.38l1.129-.239v1.619h1.39v.899h-1.39v2.559c0,.489,.19,.68,.7,.68,.22,0,.379-.03,.68-.12v.949c-.29,.09-.67,.14-.97,.14-1.01,0-1.539-.479-1.539-1.398Z"/>
    <path d="M441.124,184.722c0-.899,.739-1.469,1.919-1.469,.47,0,.909,.1,1.349,.319v-.56c0-.659-.38-.999-1.149-.999-.42,0-.879,.12-1.459,.39l-.399-.819c.749-.34,1.409-.51,2.078-.51,1.31,0,2.049,.659,2.049,1.818v3.269h-1.119v-.52c-.43,.42-.909,.609-1.489,.609-1.049,0-1.778-.63-1.778-1.529Zm2.089,.729c.449,0,.839-.13,1.179-.419v-.81c-.359-.17-.72-.24-1.149-.24-.649,0-1.06,.27-1.06,.72,0,.46,.4,.749,1.03,.749Z"/>
    <path d="M446.883,179.026l1.13-.19v2.988c.35-.439,.909-.709,1.539-.709,1.269,0,2.259,1.129,2.259,2.548,0,1.43-1.02,2.549-2.329,2.549-.59,0-1.109-.239-1.489-.689v.64h-1.109v-7.136Zm3.818,4.637c0-.909-.64-1.599-1.489-1.599-.5,0-.91,.2-1.199,.56v2.089c.289,.35,.72,.56,1.199,.56,.859,0,1.489-.689,1.489-1.609Z"/>
    <path d="M452.783,184.722c0-.899,.739-1.469,1.919-1.469,.47,0,.909,.1,1.35,.319v-.56c0-.659-.38-.999-1.149-.999-.42,0-.88,.12-1.459,.39l-.4-.819c.75-.34,1.409-.51,2.079-.51,1.31,0,2.049,.659,2.049,1.818v3.269h-1.119v-.52c-.43,.42-.91,.609-1.489,.609-1.05,0-1.779-.63-1.779-1.529Zm2.089,.729c.45,0,.84-.13,1.18-.419v-.81c-.36-.17-.72-.24-1.149-.24-.649,0-1.06,.27-1.06,.72,0,.46,.399,.749,1.029,.749Z"/>
    <path d="M458.093,185.581l.53-.749c.659,.409,1.099,.569,1.608,.569,.6,0,1.01-.279,1.01-.68,0-.31-.21-.47-.699-.569l-.88-.15c-.979-.18-1.449-.629-1.449-1.379,0-.939,.77-1.549,1.938-1.549,.7,0,1.33,.199,1.97,.6l-.53,.749c-.51-.329-.999-.479-1.509-.479-.52,0-.859,.22-.859,.58,0,.319,.18,.459,.699,.55l.89,.17c.999,.18,1.479,.64,1.479,1.389,0,.92-.88,1.629-2.05,1.629-.859,0-1.618-.239-2.148-.68Z"/>
    <path d="M463.152,183.662c0-1.469,1.06-2.588,2.438-2.588,1.37,0,2.369,1.089,2.369,2.588v.271h-3.698c.11,.81,.72,1.399,1.499,1.399,.47,0,.91-.181,1.189-.47l.74,.669c-.61,.51-1.22,.729-1.979,.729-1.438,0-2.559-1.129-2.559-2.599Zm3.738-.43c-.12-.729-.64-1.239-1.31-1.239-.68,0-1.179,.49-1.309,1.239h2.618Z"/>
    <path d="M468.713,185.532c0-.399,.31-.729,.699-.729s.699,.33,.699,.729-.31,.72-.699,.72-.699-.319-.699-.72Z"/>
    <path d="M471.362,178.995l1.13-.2v3.179c.38-.59,.929-.899,1.579-.899,1.029,0,1.749,.729,1.749,1.789v3.298h-1.14v-2.979c0-.729-.43-1.199-1.1-1.199-.46,0-.829,.21-1.089,.609v3.568h-1.13v-7.166Z"/>
    <path d="M476.952,183.662c0-1.479,1.08-2.588,2.519-2.588,1.43,0,2.509,1.109,2.509,2.588s-1.079,2.589-2.509,2.589c-1.438,0-2.519-1.109-2.519-2.589Zm3.918,0c0-.929-.59-1.629-1.399-1.629-.819,0-1.409,.7-1.409,1.629,0,.939,.59,1.63,1.409,1.63,.81,0,1.399-.69,1.399-1.63Z"/>
    <path d="M482.703,185.581l.529-.749c.659,.409,1.1,.569,1.609,.569,.6,0,1.009-.279,1.009-.68,0-.31-.209-.47-.699-.569l-.88-.15c-.979-.18-1.449-.629-1.449-1.379,0-.939,.77-1.549,1.939-1.549,.699,0,1.329,.199,1.969,.6l-.529,.749c-.51-.329-1-.479-1.51-.479-.52,0-.859,.22-.859,.58,0,.319,.18,.459,.699,.55l.89,.17c1,.18,1.479,.64,1.479,1.389,0,.92-.88,1.629-2.049,1.629-.859,0-1.619-.239-2.148-.68Z"/>
    <path d="M488.462,184.863v-2.809h-.999v-.899h.999v-1.38l1.13-.239v1.619h1.389v.899h-1.389v2.559c0,.489,.189,.68,.699,.68,.22,0,.38-.03,.68-.12v.949c-.29,.09-.67,.14-.97,.14-1.009,0-1.539-.479-1.539-1.398Z"/>
    <path d="M494.432,181.285h4.198v.869h-4.198v-.869Zm0,1.799h4.198v.869h-4.198v-.869Z"/>
    <path d="M503.391,180.315l-1.239,.529v-.969l1.639-.71h.69v6.996h-1.09v-5.847Z"/>
    <path d="M505.702,182.663c0-2.148,1.169-3.608,2.868-3.608s2.858,1.46,2.858,3.608-1.159,3.598-2.858,3.598-2.868-1.459-2.868-3.598Zm4.638,0c0-1.609-.689-2.639-1.77-2.639s-1.778,1.029-1.778,2.639c0,1.599,.699,2.629,1.778,2.629s1.77-1.03,1.77-2.629Z"/>
    <path d="M512.292,185.532c0-.399,.31-.729,.7-.729s.699,.33,.699,.729-.31,.72-.699,.72-.7-.319-.7-.72Z"/>
    <path d="M514.622,184.233c0-.8,.619-1.479,1.499-1.709-.75-.25-1.26-.85-1.26-1.55,0-1.099,1.01-1.919,2.359-1.919s2.358,.82,2.358,1.919c0,.7-.51,1.3-1.26,1.55,.88,.229,1.5,.909,1.5,1.709,0,1.189-1.08,2.039-2.599,2.039s-2.599-.85-2.599-2.039Zm4.098-.07c0-.689-.63-1.199-1.499-1.199s-1.5,.51-1.5,1.199,.63,1.209,1.5,1.209,1.499-.52,1.499-1.209Zm-.21-3.128c0-.62-.56-1.08-1.289-1.08s-1.29,.46-1.29,1.08,.56,1.089,1.29,1.089,1.289-.47,1.289-1.089Z"/>
    <path d="M520.742,185.532c0-.399,.31-.729,.699-.729s.699,.33,.699,.729-.31,.72-.699,.72-.699-.319-.699-.72Z"/>
    <path d="M522.992,182.663c0-2.148,1.169-3.608,2.868-3.608s2.858,1.46,2.858,3.608-1.159,3.598-2.858,3.598-2.868-1.459-2.868-3.598Zm4.638,0c0-1.609-.689-2.639-1.77-2.639s-1.778,1.029-1.778,2.639c0,1.599,.699,2.629,1.778,2.629s1.77-1.03,1.77-2.629Z"/>
    <path d="M529.582,185.532c0-.399,.31-.729,.7-.729s.699,.33,.699,.729-.31,.72-.699,.72-.7-.319-.7-.72Z"/>
    <path d="M531.832,185.222l.73-.699c.56,.579,1.059,.789,1.839,.789,.909,0,1.529-.47,1.529-1.159,0-.63-.51-1.06-1.25-1.06h-.859v-.92h.77c.68,0,1.119-.409,1.119-1.039s-.579-1.109-1.329-1.109c-.699,0-1.169,.22-1.739,.83l-.739-.69c.64-.709,1.549-1.109,2.509-1.109,1.389,0,2.389,.82,2.389,1.97,0,.739-.529,1.358-1.319,1.589,.93,.199,1.549,.819,1.549,1.609,0,1.188-1.099,2.049-2.608,2.049-1.029,0-1.959-.38-2.589-1.05Z"/>
  </g>
  <g>
    <path d="M320.635,115.869c-.299,.289,.165,.75,.452,.452,3.086-3.289-1.535-7.912-4.825-4.825,0,0-2.734,2.733-2.734,2.733-1.33,1.33-1.33,3.495,0,4.825,.299,.293,.745-.153,.452-.451-1.081-1.082-1.081-2.841,0-3.922l2.734-2.733c2.671-2.509,6.43,1.248,3.921,3.921Z"/>
    <path d="M316.714,115.87c-.299-.293-.745,.153-.452,.451,1.081,1.082,1.081,2.841,0,3.922l-2.734,2.733c-2.671,2.509-6.43-1.249-3.921-3.921,.124-.125,.124-.327,0-.452-.125-.125-.327-.125-.452,0-2.153,2.097-.559,5.876,2.413,5.823,.874,0,1.747-.332,2.413-.997l2.734-2.733c1.33-1.33,1.33-3.495,0-4.825Z"/>
    <path d="M310.324,113.118c.297,.294,.746-.155,.452-.452,0,0-1.053-1.053-1.053-1.053-.289-.297-.749,.163-.452,.452,0,0,1.053,1.053,1.053,1.053Z"/>
    <path d="M312.565,112.625c.176,0,.319-.143,.319-.319v-1.489c0-.176-.143-.319-.319-.319s-.319,.143-.319,.319v1.489c0,.176,.143,.319,.319,.319Z"/>
    <path d="M308.475,115.226h1.489c.417-.002,.418-.637,0-.639,0,0-1.489,0-1.489,0-.417,.002-.418,.637,0,.639Z"/>
    <path d="M319.917,121.806c-.289-.297-.749,.163-.452,.452,0,0,1.053,1.053,1.053,1.053,.062,.062,.144,.093,.226,.093,.274,.01,.429-.355,.226-.546,0,0-1.053-1.053-1.053-1.053Z"/>
    <path d="M317.677,122.299c-.176,0-.319,.143-.319,.319v1.489c0,.176,.143,.319,.319,.319s.319-.143,.319-.319v-1.489c0-.176-.143-.319-.319-.319Z"/>
    <path d="M321.766,119.699h-1.489c-.417,.002-.418,.637,0,.639,0,0,1.489,0,1.489,0,.417-.002,.418-.637,0-.639Z"/>
  </g>
  <polygon class="uuid-694bc019-722f-48bb-af58-e7bf561de584" points="207.842 106.62 207.842 202.707 220.687 154.664 207.842 106.62"/>
</svg>