<?xml version="1.0" encoding="UTF-8"?>
<svg id="uuid-10d389f9-b4c8-4925-b1ad-3d10bda97cb0" data-name="Layer 1" xmlns="http://www.w3.org/2000/svg" width="595.276" height="278.815" viewBox="0 0 595.276 278.815">
  <defs>
    <style>
      .uuid-35620374-f88a-41e0-b4ca-dc7515231b26 {
        fill: #06c;
      }

      .uuid-35620374-f88a-41e0-b4ca-dc7515231b26, .uuid-219b1772-e844-4c84-8763-8f9284f0d6d1, .uuid-3a1d0852-9dd3-4c95-89d7-8c8827479935, .uuid-ccf39db8-7bef-4708-8180-8e5ae5a209f7, .uuid-61031d12-25c2-456a-88db-f95d7492acb7 {
        stroke-width: 0px;
      }

      .uuid-94466112-a78b-43f1-bb57-406d87a47efc {
        stroke: #b4b4b4;
      }

      .uuid-94466112-a78b-43f1-bb57-406d87a47efc, .uuid-adbe44be-7e52-434d-bafc-5f80f08177ae {
        stroke-miterlimit: 10;
      }

      .uuid-94466112-a78b-43f1-bb57-406d87a47efc, .uuid-ccf39db8-7bef-4708-8180-8e5ae5a209f7 {
        fill: #fff;
      }

      .uuid-219b1772-e844-4c84-8763-8f9284f0d6d1 {
        fill: #000;
      }

      .uuid-3a1d0852-9dd3-4c95-89d7-8c8827479935 {
        fill: #dbe8f5;
      }

      .uuid-adbe44be-7e52-434d-bafc-5f80f08177ae {
        fill: none;
        stroke: #000;
      }

      .uuid-61031d12-25c2-456a-88db-f95d7492acb7 {
        fill: #e6e6e6;
      }
    </style>
  </defs>
  <g>
    <rect class="uuid-61031d12-25c2-456a-88db-f95d7492acb7" x="10.452" y="21.424" width="281.134" height="77.821"/>
    <g>
      <path class="uuid-219b1772-e844-4c84-8763-8f9284f0d6d1" d="M22.355,34.015h3.398c1.439,0,2.469.929,2.469,2.229,0,.89-.51,1.609-1.299,1.959l1.469,2.809h-1.919l-1.27-2.568h-1.129v2.568h-1.719v-6.996ZM25.593,37.094c.53,0,.89-.33.89-.83s-.36-.83-.89-.83h-1.519v1.659h1.519Z"/>
      <path class="uuid-219b1772-e844-4c84-8763-8f9284f0d6d1" d="M28.755,38.443c0-1.509,1.119-2.669,2.599-2.669,1.489,0,2.539,1.129,2.539,2.729v.35h-3.548c.15.58.62.969,1.209.969.43,0,.79-.15,1.02-.43l1.069.89c-.669.589-1.299.83-2.169.83-1.519,0-2.718-1.169-2.718-2.668ZM32.393,37.933c-.14-.55-.529-.9-1.049-.9-.51,0-.87.33-1,.9h2.049Z"/>
      <path class="uuid-219b1772-e844-4c84-8763-8f9284f0d6d1" d="M35.255,42.741l.5-1.169c.57.27,1.08.4,1.579.4.77,0,1.169-.32,1.169-.95v-.699c-.34.419-.899.68-1.499.68-1.27,0-2.279-1.16-2.279-2.599s1.059-2.579,2.398-2.579c.55,0,1.049.229,1.399.649v-.62h1.589v5.187c0,1.39-.959,2.159-2.718,2.159-.78,0-1.519-.16-2.139-.46ZM38.503,39.272v-1.719c-.25-.26-.59-.4-.959-.4-.709,0-1.229.53-1.229,1.259s.53,1.27,1.229,1.27c.39,0,.709-.14.959-.41Z"/>
      <path class="uuid-219b1772-e844-4c84-8763-8f9284f0d6d1" d="M41.275,34.155c0-.5.41-.909.909-.909s.91.41.91.909-.41.91-.91.91-.909-.41-.909-.91ZM41.375,35.854h1.619v5.157h-1.619v-5.157Z"/>
      <path class="uuid-219b1772-e844-4c84-8763-8f9284f0d6d1" d="M43.835,40.482l.709-1.079c.74.39,1.159.52,1.659.52.46,0,.74-.16.74-.42,0-.2-.15-.31-.48-.37l-.989-.18c-1-.189-1.52-.699-1.52-1.499,0-1.049.81-1.679,2.159-1.679.719,0,1.429.2,2.099.59l-.74,1.029c-.52-.3-.999-.439-1.479-.439-.39,0-.62.13-.62.35,0,.21.13.3.53.37l.969.18c1.02.19,1.549.709,1.549,1.489,0,1.009-.95,1.769-2.219,1.769-.939,0-1.769-.22-2.369-.63Z"/>
      <path class="uuid-219b1772-e844-4c84-8763-8f9284f0d6d1" d="M49.944,39.452v-2.349h-.999v-1.25h.999v-1.429l1.619-.33v1.759h1.379v1.25h-1.379v2.029c0,.459.18.62.68.62.19,0,.34-.02.66-.11v1.309c-.3.09-.779.16-1.109.16-1.219,0-1.849-.56-1.849-1.659Z"/>
      <path class="uuid-219b1772-e844-4c84-8763-8f9284f0d6d1" d="M53.845,35.854h1.619v1.169c.33-.859.79-1.27,1.399-1.27.23.01.34.03.54.13v1.389c-.2-.1-.479-.16-.759-.16-.48,0-.919.25-1.18.64v3.258h-1.619v-5.157Z"/>
      <path class="uuid-219b1772-e844-4c84-8763-8f9284f0d6d1" d="M58.254,43.12v-1.359c.12.02.29.04.48.04.439,0,.68-.18.839-.52l.08-.17-1.899-5.257h1.789l1.029,3.328,1.179-3.328h1.749l-2.318,5.737c-.48,1.18-1.069,1.609-2.259,1.609-.19,0-.45-.03-.67-.08Z"/>
      <path class="uuid-219b1772-e844-4c84-8763-8f9284f0d6d1" d="M68.473,34.015h1.959l2.688,6.996h-1.859l-.58-1.669h-2.559l-.59,1.669h-1.789l2.729-6.996ZM70.222,38.013l-.81-2.318-.819,2.318h1.629Z"/>
    </g>
    <rect class="uuid-94466112-a78b-43f1-bb57-406d87a47efc" x="21.575" y="183.041" width="78.712" height="32.915"/>
    <g>
      <path class="uuid-219b1772-e844-4c84-8763-8f9284f0d6d1" d="M56.796,194.802h1.719v6.996h-1.719v-6.996Z"/>
      <path class="uuid-219b1772-e844-4c84-8763-8f9284f0d6d1" d="M59.387,200.848l.879-1.269c.97.68,1.579.93,2.269.93.739,0,1.189-.3,1.189-.74,0-.41-.24-.61-.919-.729l-1.489-.26c-1.109-.189-1.719-.889-1.719-1.879,0-1.359,1.039-2.208,2.778-2.208,1.08,0,2.149.35,2.869.919l-.87,1.249c-.68-.52-1.349-.77-2.089-.77-.68,0-1.069.28-1.069.66,0,.36.229.54.79.64l1.399.24c1.31.22,1.999.909,1.999,1.979,0,1.37-1.159,2.299-2.988,2.299-1.109,0-2.099-.37-3.028-1.06Z"/>
    </g>
    <rect class="uuid-94466112-a78b-43f1-bb57-406d87a47efc" x="179.039" y="183.041" width="78.712" height="32.915"/>
    <g>
      <path class="uuid-219b1772-e844-4c84-8763-8f9284f0d6d1" d="M201.82,194.802h2.848c1.959,0,3.518,1.559,3.518,3.498s-1.559,3.498-3.518,3.498h-2.848v-6.996ZM204.668,200.329c.97,0,1.739-.899,1.739-2.029s-.77-2.029-1.739-2.029h-1.129v4.058h1.129Z"/>
      <path class="uuid-219b1772-e844-4c84-8763-8f9284f0d6d1" d="M209.04,199.23c0-1.509,1.119-2.669,2.599-2.669,1.489,0,2.539,1.129,2.539,2.729v.35h-3.548c.15.58.62.969,1.209.969.43,0,.79-.15,1.02-.43l1.069.89c-.669.589-1.299.83-2.169.83-1.519,0-2.718-1.169-2.718-2.668ZM212.678,198.72c-.14-.55-.529-.9-1.049-.9-.51,0-.87.33-1,.9h2.049Z"/>
      <path class="uuid-219b1772-e844-4c84-8763-8f9284f0d6d1" d="M215.19,196.641h1.599v.72c.339-.46.909-.75,1.529-.75,1.27,0,2.279,1.169,2.279,2.619s-1.06,2.598-2.398,2.598c-.56,0-1.05-.209-1.39-.6v2.659h-1.619v-7.246ZM219.008,199.22c0-.729-.53-1.269-1.229-1.269-.4,0-.709.14-.97.419v1.719c.25.26.59.41.97.41.709,0,1.229-.54,1.229-1.279Z"/>
      <path class="uuid-219b1772-e844-4c84-8763-8f9284f0d6d1" d="M221.63,194.682l1.619-.25v7.366h-1.619v-7.116Z"/>
      <path class="uuid-219b1772-e844-4c84-8763-8f9284f0d6d1" d="M224.28,199.23c0-1.52,1.159-2.669,2.688-2.669s2.688,1.149,2.688,2.669-1.159,2.668-2.688,2.668-2.688-1.149-2.688-2.668ZM228.078,199.23c0-.77-.46-1.319-1.109-1.319s-1.109.549-1.109,1.319.459,1.319,1.109,1.319,1.109-.549,1.109-1.319Z"/>
      <path class="uuid-219b1772-e844-4c84-8763-8f9284f0d6d1" d="M230.429,203.907v-1.359c.12.02.29.04.48.04.44,0,.68-.18.839-.52l.08-.17-1.899-5.257h1.789l1.029,3.328,1.179-3.328h1.749l-2.318,5.737c-.48,1.18-1.069,1.609-2.259,1.609-.19,0-.45-.03-.67-.08Z"/>
    </g>
    <rect class="uuid-94466112-a78b-43f1-bb57-406d87a47efc" x="336.502" y="183.041" width="78.712" height="32.915"/>
    <g>
      <path class="uuid-219b1772-e844-4c84-8763-8f9284f0d6d1" d="M364.428,194.802h3.418c1.489,0,2.469.969,2.469,2.309,0,1.27-.979,2.249-2.469,2.249h-1.699v2.438h-1.719v-6.996ZM367.536,197.99c.699,0,1.039-.379,1.039-.889,0-.5-.34-.88-1.029-.88h-1.399v1.769h1.39Z"/>
      <path class="uuid-219b1772-e844-4c84-8763-8f9284f0d6d1" d="M370.748,199.23c0-1.52,1.159-2.669,2.688-2.669s2.688,1.149,2.688,2.669-1.159,2.668-2.688,2.668-2.688-1.149-2.688-2.668ZM374.546,199.23c0-.77-.46-1.319-1.109-1.319s-1.109.549-1.109,1.319.46,1.319,1.109,1.319,1.109-.549,1.109-1.319Z"/>
      <path class="uuid-219b1772-e844-4c84-8763-8f9284f0d6d1" d="M376.928,199.21c0-1.449,1.06-2.599,2.398-2.599.54,0,1.03.22,1.38.62v-2.549l1.619-.25v7.366h-1.6v-.669c-.34.43-.909.699-1.519.699-1.27,0-2.279-1.169-2.279-2.618ZM380.706,200.079v-1.739c-.25-.26-.59-.4-.96-.4-.709,0-1.229.54-1.229,1.279,0,.729.53,1.27,1.229,1.27.39,0,.71-.14.96-.41Z"/>
      <path class="uuid-219b1772-e844-4c84-8763-8f9284f0d6d1" d="M383.168,201.268l.71-1.079c.739.39,1.159.52,1.659.52.46,0,.739-.16.739-.42,0-.2-.149-.31-.479-.37l-.989-.18c-1-.189-1.52-.699-1.52-1.499,0-1.049.81-1.679,2.159-1.679.719,0,1.429.2,2.099.59l-.74,1.029c-.52-.3-.999-.439-1.479-.439-.39,0-.62.13-.62.35,0,.21.13.3.53.37l.969.18c1.02.19,1.55.709,1.55,1.489,0,1.009-.95,1.769-2.219,1.769-.939,0-1.77-.22-2.369-.63Z"/>
    </g>
    <rect class="uuid-94466112-a78b-43f1-bb57-406d87a47efc" x="493.966" y="183.041" width="78.712" height="32.915"/>
    <g>
      <path class="uuid-219b1772-e844-4c84-8763-8f9284f0d6d1" d="M523.152,200.848l.88-1.269c.97.68,1.579.93,2.269.93.739,0,1.189-.3,1.189-.74,0-.41-.24-.61-.92-.729l-1.489-.26c-1.109-.189-1.719-.889-1.719-1.879,0-1.359,1.039-2.208,2.778-2.208,1.08,0,2.149.35,2.869.919l-.87,1.249c-.68-.52-1.349-.77-2.089-.77-.68,0-1.069.28-1.069.66,0,.36.229.54.79.64l1.398.24c1.31.22,1.999.909,1.999,1.979,0,1.37-1.159,2.299-2.988,2.299-1.109,0-2.099-.37-3.028-1.06Z"/>
      <path class="uuid-219b1772-e844-4c84-8763-8f9284f0d6d1" d="M529.433,194.802h1.859l1.849,5.207,1.879-5.207h1.789l-2.729,6.996h-1.959l-2.688-6.996Z"/>
      <path class="uuid-219b1772-e844-4c84-8763-8f9284f0d6d1" d="M536.933,198.3c0-2.039,1.609-3.608,3.688-3.608,1.12,0,2.229.53,2.839,1.359l-1.159,1.1c-.46-.62-1.02-.93-1.68-.93-1.089,0-1.908.89-1.908,2.079s.819,2.079,1.908,2.079c.66,0,1.22-.31,1.68-.929l1.159,1.099c-.609.83-1.719,1.359-2.839,1.359-2.078,0-3.688-1.569-3.688-3.608Z"/>
    </g>
    <rect class="uuid-35620374-f88a-41e0-b4ca-dc7515231b26" x="21.575" y="113.69" width="168.289" height="32.915"/>
    <g>
      <path class="uuid-ccf39db8-7bef-4708-8180-8e5ae5a209f7" d="M83.165,125.451h1.719v6.996h-1.719v-6.996Z"/>
      <path class="uuid-ccf39db8-7bef-4708-8180-8e5ae5a209f7" d="M85.755,131.497l.879-1.269c.97.68,1.579.93,2.269.93.739,0,1.189-.3,1.189-.74,0-.41-.24-.61-.919-.729l-1.489-.26c-1.109-.189-1.719-.889-1.719-1.879,0-1.359,1.039-2.208,2.778-2.208,1.08,0,2.149.35,2.869.919l-.87,1.249c-.68-.52-1.349-.77-2.089-.77-.68,0-1.069.28-1.069.66,0,.36.229.54.79.64l1.399.24c1.31.22,1.999.909,1.999,1.979,0,1.37-1.159,2.299-2.988,2.299-1.109,0-2.099-.37-3.028-1.06Z"/>
      <path class="uuid-ccf39db8-7bef-4708-8180-8e5ae5a209f7" d="M94.424,126.92h-2.249v-1.469h6.216v1.469h-2.249v5.527h-1.719v-5.527Z"/>
      <path class="uuid-ccf39db8-7bef-4708-8180-8e5ae5a209f7" d="M100.154,125.451h1.959l2.688,6.996h-1.859l-.58-1.669h-2.559l-.59,1.669h-1.789l2.729-6.996ZM101.903,129.449l-.81-2.318-.819,2.318h1.629Z"/>
      <path class="uuid-ccf39db8-7bef-4708-8180-8e5ae5a209f7" d="M104.925,128.949c0-2.029,1.599-3.608,3.648-3.608,1.169,0,2.289.49,2.938,1.359l-1.209,1.05c-.439-.59-1.039-.88-1.729-.88-1.079,0-1.869.89-1.869,2.079,0,1.199.819,2.099,1.929,2.099.79,0,1.409-.479,1.599-1.169h-1.749v-1.449h3.598v.49c0,2.099-1.459,3.638-3.478,3.638-2.069,0-3.678-1.579-3.678-3.608Z"/>
      <path class="uuid-ccf39db8-7bef-4708-8180-8e5ae5a209f7" d="M115.195,128.909h3.678v1.349h-3.678v-1.349Z"/>
      <path class="uuid-ccf39db8-7bef-4708-8180-8e5ae5a209f7" d="M124.284,125.451h1.959l2.688,6.996h-1.859l-.58-1.669h-2.559l-.59,1.669h-1.789l2.729-6.996ZM126.033,129.449l-.81-2.318-.819,2.318h1.629Z"/>
    </g>
    <rect class="uuid-35620374-f88a-41e0-b4ca-dc7515231b26" x="200.729" y="113.69" width="78.712" height="32.915"/>
    <g>
      <path class="uuid-ccf39db8-7bef-4708-8180-8e5ae5a209f7" d="M217.595,125.451h1.719v6.996h-1.719v-6.996Z"/>
      <path class="uuid-ccf39db8-7bef-4708-8180-8e5ae5a209f7" d="M220.186,131.497l.879-1.269c.97.68,1.579.93,2.269.93.739,0,1.189-.3,1.189-.74,0-.41-.24-.61-.919-.729l-1.489-.26c-1.109-.189-1.719-.889-1.719-1.879,0-1.359,1.04-2.208,2.778-2.208,1.08,0,2.149.35,2.869.919l-.87,1.249c-.68-.52-1.349-.77-2.089-.77-.68,0-1.069.28-1.069.66,0,.36.229.54.79.64l1.399.24c1.31.22,1.999.909,1.999,1.979,0,1.37-1.159,2.299-2.988,2.299-1.109,0-2.099-.37-3.028-1.06Z"/>
      <path class="uuid-ccf39db8-7bef-4708-8180-8e5ae5a209f7" d="M228.854,126.92h-2.249v-1.469h6.216v1.469h-2.249v5.527h-1.719v-5.527Z"/>
      <path class="uuid-ccf39db8-7bef-4708-8180-8e5ae5a209f7" d="M234.584,125.451h1.959l2.688,6.996h-1.859l-.58-1.669h-2.559l-.589,1.669h-1.789l2.729-6.996ZM236.333,129.449l-.81-2.318-.819,2.318h1.629Z"/>
      <path class="uuid-ccf39db8-7bef-4708-8180-8e5ae5a209f7" d="M239.355,128.949c0-2.029,1.599-3.608,3.648-3.608,1.169,0,2.289.49,2.938,1.359l-1.209,1.05c-.439-.59-1.039-.88-1.729-.88-1.079,0-1.869.89-1.869,2.079,0,1.199.819,2.099,1.929,2.099.79,0,1.409-.479,1.599-1.169h-1.749v-1.449h3.598v.49c0,2.099-1.459,3.638-3.478,3.638-2.069,0-3.678-1.579-3.678-3.608Z"/>
      <path class="uuid-ccf39db8-7bef-4708-8180-8e5ae5a209f7" d="M249.625,128.909h3.678v1.349h-3.678v-1.349Z"/>
      <path class="uuid-ccf39db8-7bef-4708-8180-8e5ae5a209f7" d="M256.745,125.451h3.458c1.359,0,2.329.799,2.329,1.909,0,.65-.41,1.2-1.02,1.52.729.29,1.219.889,1.219,1.609,0,1.149-.979,1.959-2.369,1.959h-3.618v-6.996ZM260.003,128.26c.48,0,.8-.29.8-.72,0-.44-.31-.72-.8-.72h-1.539v1.439h1.539ZM260.143,131.078c.52,0,.85-.3.85-.77s-.33-.77-.85-.77h-1.679v1.539h1.679Z"/>
    </g>
    <g>
      <rect class="uuid-ccf39db8-7bef-4708-8180-8e5ae5a209f7" x="22.086" y="54.339" width="78.712" height="32.915"/>
      <rect class="uuid-ccf39db8-7bef-4708-8180-8e5ae5a209f7" x="111.663" y="54.339" width="78.712" height="32.915"/>
      <rect class="uuid-ccf39db8-7bef-4708-8180-8e5ae5a209f7" x="201.24" y="54.339" width="78.712" height="32.915"/>
      <g>
        <path class="uuid-219b1772-e844-4c84-8763-8f9284f0d6d1" d="M42.753,66.1h1.719v6.996h-1.719v-6.996Z"/>
        <path class="uuid-219b1772-e844-4c84-8763-8f9284f0d6d1" d="M45.783,67.939h1.619v.82c.38-.59.9-.9,1.529-.9.67,0,1.199.37,1.449.959.4-.62.979-.959,1.689-.959.95,0,1.619.75,1.619,1.809v3.428h-1.619v-3.108c0-.52-.31-.859-.77-.859-.3,0-.54.12-.75.39v3.578h-1.619v-3.108c0-.52-.31-.859-.77-.859-.3,0-.55.13-.76.4v3.568h-1.619v-5.157Z"/>
        <path class="uuid-219b1772-e844-4c84-8763-8f9284f0d6d1" d="M54.673,71.617c0-.95.74-1.5,2.009-1.5.37,0,.74.07,1.2.24v-.42c0-.5-.33-.75-1.02-.75-.39,0-.85.11-1.449.36l-.56-1.129c.85-.38,1.609-.56,2.369-.56,1.429,0,2.259.71,2.259,1.939v3.298h-1.599v-.45c-.45.38-.879.53-1.429.53-1.05,0-1.779-.64-1.779-1.559ZM56.952,72.107c.34,0,.65-.09.93-.26v-.66c-.3-.07-.59-.11-.89-.11-.53,0-.83.18-.83.51s.29.52.79.52Z"/>
        <path class="uuid-219b1772-e844-4c84-8763-8f9284f0d6d1" d="M61.003,74.825l.5-1.169c.57.27,1.08.4,1.579.4.77,0,1.169-.32,1.169-.95v-.699c-.34.419-.899.68-1.499.68-1.27,0-2.279-1.16-2.279-2.599s1.059-2.579,2.398-2.579c.55,0,1.049.23,1.399.649v-.62h1.589v5.187c0,1.39-.959,2.159-2.718,2.159-.78,0-1.519-.16-2.139-.46ZM64.251,71.357v-1.719c-.25-.26-.59-.4-.959-.4-.709,0-1.229.53-1.229,1.259s.53,1.27,1.229,1.27c.39,0,.709-.14.959-.41Z"/>
        <path class="uuid-219b1772-e844-4c84-8763-8f9284f0d6d1" d="M66.893,70.528c0-1.509,1.119-2.669,2.599-2.669,1.489,0,2.539,1.129,2.539,2.729v.35h-3.548c.15.58.62.969,1.209.969.43,0,.79-.15,1.02-.43l1.069.89c-.669.589-1.299.83-2.169.83-1.519,0-2.718-1.169-2.718-2.668ZM70.531,70.018c-.14-.55-.529-.9-1.049-.9-.51,0-.87.33-1,.9h2.049Z"/>
        <path class="uuid-219b1772-e844-4c84-8763-8f9284f0d6d1" d="M73.023,69.558h3.678v1.349h-3.678v-1.349Z"/>
        <path class="uuid-219b1772-e844-4c84-8763-8f9284f0d6d1" d="M78.662,67.699l-1.379.57v-1.359l1.949-.81h.97v6.996h-1.539v-5.397Z"/>
      </g>
      <g>
        <path class="uuid-219b1772-e844-4c84-8763-8f9284f0d6d1" d="M131.27,66.1h1.719v6.996h-1.719v-6.996Z"/>
        <path class="uuid-219b1772-e844-4c84-8763-8f9284f0d6d1" d="M134.3,67.939h1.619v.82c.38-.59.9-.9,1.529-.9.67,0,1.199.37,1.449.959.4-.62.979-.959,1.689-.959.95,0,1.619.75,1.619,1.809v3.428h-1.619v-3.108c0-.52-.31-.859-.77-.859-.3,0-.54.12-.75.39v3.578h-1.619v-3.108c0-.52-.31-.859-.77-.859-.3,0-.55.13-.76.4v3.568h-1.619v-5.157Z"/>
        <path class="uuid-219b1772-e844-4c84-8763-8f9284f0d6d1" d="M143.189,71.617c0-.95.74-1.5,2.009-1.5.37,0,.74.07,1.2.24v-.42c0-.5-.33-.75-1.02-.75-.39,0-.85.11-1.449.36l-.56-1.129c.85-.38,1.609-.56,2.369-.56,1.429,0,2.259.71,2.259,1.939v3.298h-1.599v-.45c-.45.38-.879.53-1.429.53-1.05,0-1.779-.64-1.779-1.559ZM145.468,72.107c.34,0,.65-.09.93-.26v-.66c-.3-.07-.59-.11-.89-.11-.53,0-.83.18-.83.51s.29.52.79.52Z"/>
        <path class="uuid-219b1772-e844-4c84-8763-8f9284f0d6d1" d="M149.52,74.825l.5-1.169c.57.27,1.08.4,1.579.4.77,0,1.169-.32,1.169-.95v-.699c-.34.419-.899.68-1.499.68-1.27,0-2.279-1.16-2.279-2.599s1.059-2.579,2.398-2.579c.55,0,1.049.23,1.399.649v-.62h1.589v5.187c0,1.39-.959,2.159-2.718,2.159-.78,0-1.519-.16-2.139-.46ZM152.768,71.357v-1.719c-.25-.26-.59-.4-.959-.4-.709,0-1.229.53-1.229,1.259s.53,1.27,1.229,1.27c.39,0,.709-.14.959-.41Z"/>
        <path class="uuid-219b1772-e844-4c84-8763-8f9284f0d6d1" d="M155.41,70.528c0-1.509,1.119-2.669,2.599-2.669,1.489,0,2.539,1.129,2.539,2.729v.35h-3.548c.15.58.62.969,1.209.969.43,0,.79-.15,1.02-.43l1.069.89c-.669.589-1.299.83-2.169.83-1.519,0-2.718-1.169-2.718-2.668ZM159.047,70.018c-.14-.55-.529-.9-1.049-.9-.51,0-.87.33-1,.9h2.049Z"/>
        <path class="uuid-219b1772-e844-4c84-8763-8f9284f0d6d1" d="M161.54,69.558h3.678v1.349h-3.678v-1.349Z"/>
        <path class="uuid-219b1772-e844-4c84-8763-8f9284f0d6d1" d="M165.989,71.996l2.958-2.928c.33-.32.47-.62.47-.949,0-.45-.44-.79-1.03-.79-.629,0-1.129.24-1.769.859l-.859-1.049c.8-.76,1.709-1.149,2.679-1.149,1.489,0,2.479.81,2.479,2.029,0,.66-.28,1.219-.91,1.829l-2.019,1.949,3.028-.01v1.309h-5.027v-1.1Z"/>
      </g>
      <g>
        <path class="uuid-219b1772-e844-4c84-8763-8f9284f0d6d1" d="M220.666,66.1h1.719v6.996h-1.719v-6.996Z"/>
        <path class="uuid-219b1772-e844-4c84-8763-8f9284f0d6d1" d="M223.696,67.939h1.619v.82c.38-.59.9-.9,1.529-.9.67,0,1.199.37,1.449.959.4-.62.979-.959,1.689-.959.95,0,1.619.75,1.619,1.809v3.428h-1.619v-3.108c0-.52-.31-.859-.77-.859-.3,0-.54.12-.75.39v3.578h-1.619v-3.108c0-.52-.31-.859-.77-.859-.3,0-.55.13-.76.4v3.568h-1.619v-5.157Z"/>
        <path class="uuid-219b1772-e844-4c84-8763-8f9284f0d6d1" d="M232.586,71.617c0-.95.74-1.5,2.009-1.5.37,0,.74.07,1.2.24v-.42c0-.5-.33-.75-1.02-.75-.39,0-.85.11-1.449.36l-.56-1.129c.85-.38,1.609-.56,2.369-.56,1.429,0,2.259.71,2.259,1.939v3.298h-1.599v-.45c-.45.38-.879.53-1.429.53-1.05,0-1.779-.64-1.779-1.559ZM234.865,72.107c.34,0,.65-.09.93-.26v-.66c-.3-.07-.59-.11-.89-.11-.53,0-.83.18-.83.51s.29.52.79.52Z"/>
        <path class="uuid-219b1772-e844-4c84-8763-8f9284f0d6d1" d="M238.916,74.825l.5-1.169c.57.27,1.08.4,1.579.4.77,0,1.169-.32,1.169-.95v-.699c-.34.419-.899.68-1.499.68-1.27,0-2.279-1.16-2.279-2.599s1.059-2.579,2.398-2.579c.55,0,1.049.23,1.399.649v-.62h1.589v5.187c0,1.39-.959,2.159-2.718,2.159-.78,0-1.519-.16-2.139-.46ZM242.164,71.357v-1.719c-.25-.26-.59-.4-.959-.4-.709,0-1.229.53-1.229,1.259s.53,1.27,1.229,1.27c.39,0,.709-.14.959-.41Z"/>
        <path class="uuid-219b1772-e844-4c84-8763-8f9284f0d6d1" d="M244.806,70.528c0-1.509,1.119-2.669,2.599-2.669,1.489,0,2.539,1.129,2.539,2.729v.35h-3.548c.15.58.62.969,1.209.969.43,0,.79-.15,1.02-.43l1.069.89c-.669.589-1.299.83-2.169.83-1.519,0-2.718-1.169-2.718-2.668ZM248.444,70.018c-.14-.55-.529-.9-1.049-.9-.51,0-.87.33-1,.9h2.049Z"/>
        <path class="uuid-219b1772-e844-4c84-8763-8f9284f0d6d1" d="M250.936,69.558h3.678v1.349h-3.678v-1.349Z"/>
        <path class="uuid-219b1772-e844-4c84-8763-8f9284f0d6d1" d="M255.186,72.076l1.039-.959c.52.56.93.74,1.699.74.76,0,1.259-.34,1.259-.859,0-.45-.36-.73-.919-.73h-.899v-1.269h.739c.57,0,.91-.29.91-.78,0-.5-.47-.859-1.1-.859-.679,0-1.079.2-1.629.799l-1.049-.949c.66-.76,1.689-1.219,2.738-1.219,1.529,0,2.589.83,2.589,2.019,0,.76-.54,1.37-1.33,1.599.92.18,1.509.75,1.509,1.52,0,1.209-1.169,2.079-2.798,2.079-1.12,0-2.139-.42-2.758-1.129Z"/>
      </g>
    </g>
    <rect class="uuid-3a1d0852-9dd3-4c95-89d7-8c8827479935" x="303.689" y="21.424" width="281.134" height="77.821"/>
    <g>
      <path class="uuid-219b1772-e844-4c84-8763-8f9284f0d6d1" d="M315.592,34.015h3.398c1.439,0,2.469.929,2.469,2.229,0,.89-.51,1.609-1.3,1.959l1.47,2.809h-1.919l-1.27-2.568h-1.129v2.568h-1.72v-6.996ZM318.83,37.094c.53,0,.89-.33.89-.83s-.359-.83-.89-.83h-1.519v1.659h1.519Z"/>
      <path class="uuid-219b1772-e844-4c84-8763-8f9284f0d6d1" d="M321.992,38.443c0-1.509,1.12-2.669,2.599-2.669,1.489,0,2.539,1.129,2.539,2.729v.35h-3.548c.149.58.619.969,1.209.969.43,0,.79-.15,1.02-.43l1.069.89c-.67.589-1.299.83-2.169.83-1.52,0-2.719-1.169-2.719-2.668ZM325.631,37.933c-.141-.55-.53-.9-1.05-.9-.51,0-.869.33-.999.9h2.049Z"/>
      <path class="uuid-219b1772-e844-4c84-8763-8f9284f0d6d1" d="M328.492,42.741l.5-1.169c.569.27,1.079.4,1.579.4.77,0,1.169-.32,1.169-.95v-.699c-.34.419-.899.68-1.499.68-1.27,0-2.279-1.16-2.279-2.599s1.06-2.579,2.399-2.579c.55,0,1.049.229,1.398.649v-.62h1.59v5.187c0,1.39-.96,2.159-2.719,2.159-.779,0-1.52-.16-2.139-.46ZM331.74,39.272v-1.719c-.25-.26-.59-.4-.96-.4-.709,0-1.229.53-1.229,1.259s.529,1.27,1.229,1.27c.391,0,.71-.14.96-.41Z"/>
      <path class="uuid-219b1772-e844-4c84-8763-8f9284f0d6d1" d="M334.512,34.155c0-.5.41-.909.91-.909s.909.41.909.909-.41.91-.909.91-.91-.41-.91-.91ZM334.612,35.854h1.619v5.157h-1.619v-5.157Z"/>
      <path class="uuid-219b1772-e844-4c84-8763-8f9284f0d6d1" d="M337.072,40.482l.71-1.079c.739.39,1.159.52,1.658.52.46,0,.74-.16.74-.42,0-.2-.15-.31-.479-.37l-.99-.18c-.999-.189-1.519-.699-1.519-1.499,0-1.049.81-1.679,2.158-1.679.72,0,1.43.2,2.1.59l-.74,1.029c-.52-.3-.999-.439-1.479-.439-.391,0-.62.13-.62.35,0,.21.13.3.529.37l.97.18c1.02.19,1.55.709,1.55,1.489,0,1.009-.95,1.769-2.22,1.769-.939,0-1.769-.22-2.368-.63Z"/>
      <path class="uuid-219b1772-e844-4c84-8763-8f9284f0d6d1" d="M343.182,39.452v-2.349h-1v-1.25h1v-1.429l1.619-.33v1.759h1.379v1.25h-1.379v2.029c0,.459.18.62.68.62.189,0,.34-.02.659-.11v1.309c-.3.09-.779.16-1.109.16-1.22,0-1.849-.56-1.849-1.659Z"/>
      <path class="uuid-219b1772-e844-4c84-8763-8f9284f0d6d1" d="M347.082,35.854h1.619v1.169c.329-.859.789-1.27,1.399-1.27.229.01.34.03.539.13v1.389c-.199-.1-.479-.16-.76-.16-.479,0-.919.25-1.179.64v3.258h-1.619v-5.157Z"/>
      <path class="uuid-219b1772-e844-4c84-8763-8f9284f0d6d1" d="M351.491,43.12v-1.359c.12.02.29.04.479.04.44,0,.68-.18.84-.52l.08-.17-1.899-5.257h1.789l1.03,3.328,1.179-3.328h1.749l-2.318,5.737c-.479,1.18-1.069,1.609-2.259,1.609-.19,0-.45-.03-.67-.08Z"/>
      <path class="uuid-219b1772-e844-4c84-8763-8f9284f0d6d1" d="M359.741,34.015h3.458c1.359,0,2.329.799,2.329,1.909,0,.65-.41,1.2-1.02,1.52.729.29,1.22.889,1.22,1.609,0,1.149-.979,1.959-2.369,1.959h-3.618v-6.996ZM363,36.824c.479,0,.799-.29.799-.72,0-.44-.31-.72-.799-.72h-1.539v1.439h1.539ZM363.14,39.642c.52,0,.85-.3.85-.77s-.33-.77-.85-.77h-1.679v1.539h1.679Z"/>
    </g>
    <g>
      <rect class="uuid-ccf39db8-7bef-4708-8180-8e5ae5a209f7" x="315.323" y="54.339" width="78.712" height="32.915"/>
      <rect class="uuid-ccf39db8-7bef-4708-8180-8e5ae5a209f7" x="404.9" y="54.339" width="78.712" height="32.915"/>
      <rect class="uuid-ccf39db8-7bef-4708-8180-8e5ae5a209f7" x="494.477" y="54.339" width="78.712" height="32.915"/>
      <g>
        <path class="uuid-219b1772-e844-4c84-8763-8f9284f0d6d1" d="M334.319,66.1h1.719v6.996h-1.719v-6.996Z"/>
        <path class="uuid-219b1772-e844-4c84-8763-8f9284f0d6d1" d="M337.35,67.939h1.619v.82c.38-.59.899-.9,1.529-.9.669,0,1.199.37,1.449.959.399-.62.979-.959,1.688-.959.949,0,1.619.75,1.619,1.809v3.428h-1.619v-3.108c0-.52-.31-.859-.77-.859-.3,0-.54.12-.749.39v3.578h-1.619v-3.108c0-.52-.311-.859-.77-.859-.3,0-.55.13-.76.4v3.568h-1.619v-5.157Z"/>
        <path class="uuid-219b1772-e844-4c84-8763-8f9284f0d6d1" d="M346.239,71.617c0-.95.739-1.5,2.009-1.5.37,0,.74.07,1.199.24v-.42c0-.5-.329-.75-1.02-.75-.39,0-.849.11-1.449.36l-.56-1.129c.85-.38,1.609-.56,2.369-.56,1.429,0,2.259.71,2.259,1.939v3.298h-1.6v-.45c-.449.38-.879.53-1.429.53-1.05,0-1.779-.64-1.779-1.559ZM348.519,72.107c.34,0,.649-.09.929-.26v-.66c-.3-.07-.589-.11-.889-.11-.53,0-.83.18-.83.51s.29.52.79.52Z"/>
        <path class="uuid-219b1772-e844-4c84-8763-8f9284f0d6d1" d="M352.569,74.825l.5-1.169c.569.27,1.079.4,1.579.4.77,0,1.169-.32,1.169-.95v-.699c-.34.419-.899.68-1.499.68-1.27,0-2.279-1.16-2.279-2.599s1.06-2.579,2.399-2.579c.55,0,1.049.23,1.398.649v-.62h1.59v5.187c0,1.39-.96,2.159-2.719,2.159-.779,0-1.52-.16-2.139-.46ZM355.817,71.357v-1.719c-.25-.26-.59-.4-.96-.4-.709,0-1.229.53-1.229,1.259s.529,1.27,1.229,1.27c.391,0,.71-.14.96-.41Z"/>
        <path class="uuid-219b1772-e844-4c84-8763-8f9284f0d6d1" d="M358.459,70.528c0-1.509,1.12-2.669,2.599-2.669,1.489,0,2.539,1.129,2.539,2.729v.35h-3.548c.149.58.619.969,1.209.969.43,0,.79-.15,1.02-.43l1.069.89c-.67.589-1.299.83-2.169.83-1.519,0-2.719-1.169-2.719-2.668ZM362.098,70.018c-.141-.55-.53-.9-1.05-.9-.51,0-.869.33-.999.9h2.049Z"/>
        <path class="uuid-219b1772-e844-4c84-8763-8f9284f0d6d1" d="M364.589,69.558h3.678v1.349h-3.678v-1.349Z"/>
        <path class="uuid-219b1772-e844-4c84-8763-8f9284f0d6d1" d="M372.987,71.547h-3.938v-1.309l3.668-4.138h1.89v4.098h.869v1.349h-.869v1.549h-1.619v-1.549ZM372.987,70.198v-2.319l-2.069,2.319h2.069Z"/>
      </g>
      <g>
        <path class="uuid-219b1772-e844-4c84-8763-8f9284f0d6d1" d="M424.412,66.1h1.719v6.996h-1.719v-6.996Z"/>
        <path class="uuid-219b1772-e844-4c84-8763-8f9284f0d6d1" d="M427.442,67.939h1.619v.82c.38-.59.899-.9,1.529-.9.669,0,1.199.37,1.449.959.399-.62.979-.959,1.688-.959.949,0,1.619.75,1.619,1.809v3.428h-1.619v-3.108c0-.52-.31-.859-.77-.859-.3,0-.54.12-.749.39v3.578h-1.619v-3.108c0-.52-.311-.859-.77-.859-.3,0-.55.13-.76.4v3.568h-1.619v-5.157Z"/>
        <path class="uuid-219b1772-e844-4c84-8763-8f9284f0d6d1" d="M436.332,71.617c0-.95.739-1.5,2.009-1.5.37,0,.74.07,1.199.24v-.42c0-.5-.329-.75-1.02-.75-.39,0-.849.11-1.449.36l-.56-1.129c.85-.38,1.609-.56,2.369-.56,1.429,0,2.259.71,2.259,1.939v3.298h-1.6v-.45c-.449.38-.879.53-1.429.53-1.05,0-1.779-.64-1.779-1.559ZM438.611,72.107c.34,0,.649-.09.929-.26v-.66c-.3-.07-.589-.11-.889-.11-.53,0-.83.18-.83.51s.29.52.79.52Z"/>
        <path class="uuid-219b1772-e844-4c84-8763-8f9284f0d6d1" d="M442.662,74.825l.5-1.169c.569.27,1.079.4,1.579.4.77,0,1.169-.32,1.169-.95v-.699c-.34.419-.899.68-1.499.68-1.27,0-2.279-1.16-2.279-2.599s1.06-2.579,2.399-2.579c.55,0,1.049.23,1.398.649v-.62h1.59v5.187c0,1.39-.96,2.159-2.719,2.159-.779,0-1.52-.16-2.139-.46ZM445.91,71.357v-1.719c-.25-.26-.59-.4-.96-.4-.709,0-1.229.53-1.229,1.259s.529,1.27,1.229,1.27c.391,0,.71-.14.96-.41Z"/>
        <path class="uuid-219b1772-e844-4c84-8763-8f9284f0d6d1" d="M448.552,70.528c0-1.509,1.12-2.669,2.599-2.669,1.489,0,2.539,1.129,2.539,2.729v.35h-3.548c.149.58.619.969,1.209.969.43,0,.79-.15,1.02-.43l1.069.89c-.67.589-1.299.83-2.169.83-1.52,0-2.719-1.169-2.719-2.668ZM452.19,70.018c-.141-.55-.53-.9-1.05-.9-.51,0-.869.33-.999.9h2.049Z"/>
        <path class="uuid-219b1772-e844-4c84-8763-8f9284f0d6d1" d="M454.682,69.558h3.678v1.349h-3.678v-1.349Z"/>
        <path class="uuid-219b1772-e844-4c84-8763-8f9284f0d6d1" d="M458.932,72.266l.92-1.069c.59.479,1.1.68,1.719.68.729,0,1.22-.4,1.22-1.01,0-.589-.55-1.019-1.289-1.019-.38,0-.74.12-1.14.34l-1.109-.33.17-3.758h4.577v1.309h-3.218l-.07,1.52c.479-.22.899-.27,1.299-.27,1.42,0,2.359.85,2.359,2.129,0,1.449-1.159,2.418-2.879,2.418-.969,0-1.839-.32-2.559-.939Z"/>
      </g>
      <g>
        <path class="uuid-219b1772-e844-4c84-8763-8f9284f0d6d1" d="M513.688,66.1h1.719v6.996h-1.719v-6.996Z"/>
        <path class="uuid-219b1772-e844-4c84-8763-8f9284f0d6d1" d="M516.718,67.939h1.619v.82c.38-.59.899-.9,1.529-.9.669,0,1.199.37,1.449.959.399-.62.979-.959,1.688-.959.949,0,1.619.75,1.619,1.809v3.428h-1.619v-3.108c0-.52-.31-.859-.77-.859-.3,0-.54.12-.749.39v3.578h-1.619v-3.108c0-.52-.311-.859-.77-.859-.3,0-.55.13-.76.4v3.568h-1.619v-5.157Z"/>
        <path class="uuid-219b1772-e844-4c84-8763-8f9284f0d6d1" d="M525.607,71.617c0-.95.739-1.5,2.009-1.5.37,0,.74.07,1.199.24v-.42c0-.5-.329-.75-1.02-.75-.39,0-.849.11-1.449.36l-.56-1.129c.85-.38,1.609-.56,2.369-.56,1.429,0,2.259.71,2.259,1.939v3.298h-1.6v-.45c-.449.38-.879.53-1.429.53-1.05,0-1.779-.64-1.779-1.559ZM527.887,72.107c.34,0,.649-.09.929-.26v-.66c-.3-.07-.589-.11-.889-.11-.53,0-.83.18-.83.51s.29.52.79.52Z"/>
        <path class="uuid-219b1772-e844-4c84-8763-8f9284f0d6d1" d="M531.938,74.825l.5-1.169c.569.27,1.079.4,1.579.4.77,0,1.169-.32,1.169-.95v-.699c-.34.419-.899.68-1.499.68-1.27,0-2.279-1.16-2.279-2.599s1.06-2.579,2.399-2.579c.55,0,1.049.23,1.398.649v-.62h1.59v5.187c0,1.39-.96,2.159-2.719,2.159-.779,0-1.52-.16-2.139-.46ZM535.186,71.357v-1.719c-.25-.26-.59-.4-.96-.4-.709,0-1.229.53-1.229,1.259s.529,1.27,1.229,1.27c.391,0,.71-.14.96-.41Z"/>
        <path class="uuid-219b1772-e844-4c84-8763-8f9284f0d6d1" d="M537.827,70.528c0-1.509,1.12-2.669,2.599-2.669,1.489,0,2.539,1.129,2.539,2.729v.35h-3.548c.149.58.619.969,1.209.969.43,0,.79-.15,1.02-.43l1.069.89c-.67.589-1.299.83-2.169.83-1.52,0-2.719-1.169-2.719-2.668ZM541.466,70.018c-.141-.55-.53-.9-1.05-.9-.51,0-.869.33-.999.9h2.049Z"/>
        <path class="uuid-219b1772-e844-4c84-8763-8f9284f0d6d1" d="M543.957,69.558h3.678v1.349h-3.678v-1.349Z"/>
        <path class="uuid-219b1772-e844-4c84-8763-8f9284f0d6d1" d="M548.577,69.708c0-2.229,1.359-3.718,3.398-3.718.779,0,1.639.3,2.129.759l-.89,1.1c-.39-.33-.8-.48-1.359-.48-1.14,0-1.749.86-1.749,2.389.439-.629,1.089-.989,1.789-.989,1.379,0,2.349.879,2.349,2.119,0,1.33-1.1,2.319-2.589,2.319-1.839,0-3.078-1.409-3.078-3.498ZM550.196,70.577c.2.799.71,1.309,1.379,1.309.66,0,1.16-.41,1.16-.969s-.45-.95-1.1-.95c-.57,0-1.069.22-1.439.61Z"/>
      </g>
    </g>
    <g>
      <line class="uuid-adbe44be-7e52-434d-bafc-5f80f08177ae" x1="240.085" y1="113.69" x2="240.085" y2="92.636"/>
      <polygon class="uuid-219b1772-e844-4c84-8763-8f9284f0d6d1" points="243.825 93.73 240.085 87.254 236.345 93.73 243.825 93.73"/>
    </g>
    <g>
      <line class="uuid-adbe44be-7e52-434d-bafc-5f80f08177ae" x1="493.966" y1="199.499" x2="420.597" y2="199.499"/>
      <polygon class="uuid-219b1772-e844-4c84-8763-8f9284f0d6d1" points="421.691 195.759 415.215 199.499 421.691 203.238 421.691 195.759"/>
    </g>
    <g>
      <line class="uuid-adbe44be-7e52-434d-bafc-5f80f08177ae" x1="331.12" y1="199.499" x2="257.751" y2="199.499"/>
      <polygon class="uuid-219b1772-e844-4c84-8763-8f9284f0d6d1" points="330.026 195.759 336.502 199.499 330.026 203.238 330.026 195.759"/>
    </g>
    <g>
      <line class="uuid-adbe44be-7e52-434d-bafc-5f80f08177ae" x1="179.039" y1="199.499" x2="105.67" y2="199.499"/>
      <polygon class="uuid-219b1772-e844-4c84-8763-8f9284f0d6d1" points="106.764 195.759 100.288 199.499 106.764 203.238 106.764 195.759"/>
    </g>
    <g>
      <line class="uuid-adbe44be-7e52-434d-bafc-5f80f08177ae" x1="60.931" y1="113.69" x2="60.931" y2="92.636"/>
      <polygon class="uuid-219b1772-e844-4c84-8763-8f9284f0d6d1" points="64.671 93.73 60.931 87.254 57.192 93.73 64.671 93.73"/>
    </g>
    <g>
      <line class="uuid-adbe44be-7e52-434d-bafc-5f80f08177ae" x1="150.508" y1="113.69" x2="150.508" y2="92.636"/>
      <polygon class="uuid-219b1772-e844-4c84-8763-8f9284f0d6d1" points="154.248 93.73 150.508 87.254 146.769 93.73 154.248 93.73"/>
    </g>
    <g>
      <polyline class="uuid-adbe44be-7e52-434d-bafc-5f80f08177ae" points="279.441 129.556 354.169 129.556 354.169 92.636"/>
      <polygon class="uuid-219b1772-e844-4c84-8763-8f9284f0d6d1" points="357.908 93.73 354.169 87.254 350.429 93.73 357.908 93.73"/>
    </g>
    <g>
      <line class="uuid-adbe44be-7e52-434d-bafc-5f80f08177ae" x1="65.407" y1="183.041" x2="65.407" y2="151.987"/>
      <polygon class="uuid-219b1772-e844-4c84-8763-8f9284f0d6d1" points="69.146 153.082 65.407 146.605 61.667 153.082 69.146 153.082"/>
    </g>
    <g>
      <polyline class="uuid-adbe44be-7e52-434d-bafc-5f80f08177ae" points="65.407 164.823 240.085 164.823 240.085 151.987"/>
      <polygon class="uuid-219b1772-e844-4c84-8763-8f9284f0d6d1" points="243.825 153.082 240.085 146.605 236.345 153.082 243.825 153.082"/>
    </g>
  </g>
  <g>
    <g>
      <path class="uuid-219b1772-e844-4c84-8763-8f9284f0d6d1" d="M11.132,249.196h1.719v6.996h-1.719v-6.996Z"/>
      <path class="uuid-219b1772-e844-4c84-8763-8f9284f0d6d1" d="M13.722,255.242l.879-1.269c.97.68,1.579.93,2.269.93.739,0,1.189-.3,1.189-.74,0-.41-.24-.61-.919-.729l-1.489-.26c-1.109-.189-1.719-.889-1.719-1.879,0-1.359,1.039-2.208,2.778-2.208,1.08,0,2.149.35,2.869.919l-.87,1.249c-.68-.52-1.349-.77-2.089-.77-.68,0-1.069.28-1.069.66,0,.36.229.54.79.64l1.399.24c1.31.22,1.999.909,1.999,1.979,0,1.37-1.159,2.299-2.988,2.299-1.109,0-2.099-.37-3.028-1.06Z"/>
      <path class="uuid-219b1772-e844-4c84-8763-8f9284f0d6d1" d="M22.892,252.874h3.488v.959h-3.488v-.959Z"/>
      <path class="uuid-219b1772-e844-4c84-8763-8f9284f0d6d1" d="M29.991,249.196h1.199v6.996h-1.199v-6.996Z"/>
      <path class="uuid-219b1772-e844-4c84-8763-8f9284f0d6d1" d="M32.682,251.185h1.129v.79c.37-.57.87-.87,1.479-.87.69,0,1.219.37,1.479.959.39-.629.949-.959,1.659-.959.97,0,1.639.75,1.639,1.809v3.278h-1.129v-3.028c0-.7-.39-1.149-1.009-1.149-.41,0-.75.19-1,.6.01.1.02.2.02.3v3.278h-1.139v-3.028c0-.7-.39-1.149-1.01-1.149-.41,0-.739.19-.989.58v3.598h-1.129v-5.007Z"/>
      <path class="uuid-219b1772-e844-4c84-8763-8f9284f0d6d1" d="M41.182,254.753c0-.899.739-1.469,1.919-1.469.47,0,.909.1,1.349.32v-.56c0-.66-.38-1-1.149-1-.42,0-.879.12-1.459.39l-.4-.82c.75-.34,1.409-.51,2.079-.51,1.31,0,2.049.66,2.049,1.819v3.268h-1.119v-.52c-.43.419-.91.609-1.489.609-1.049,0-1.779-.629-1.779-1.529ZM43.271,255.483c.45,0,.839-.13,1.179-.42v-.81c-.36-.17-.72-.24-1.149-.24-.649,0-1.06.27-1.06.72,0,.459.4.75,1.03.75Z"/>
      <path class="uuid-219b1772-e844-4c84-8763-8f9284f0d6d1" d="M47.271,257.891l.39-.83c.589.29,1.069.419,1.569.419.84,0,1.279-.379,1.279-1.109v-.849c-.36.439-.909.699-1.539.699-1.27,0-2.259-1.129-2.259-2.548s1.029-2.529,2.339-2.529c.58,0,1.099.23,1.469.67v-.63h1.119v5.187c0,1.29-.839,2.009-2.359,2.009-.719,0-1.419-.18-2.009-.49ZM50.509,254.733v-2.099c-.29-.34-.72-.54-1.189-.54-.859,0-1.499.669-1.499,1.589,0,.91.64,1.599,1.499,1.599.49,0,.9-.2,1.189-.549Z"/>
      <path class="uuid-219b1772-e844-4c84-8763-8f9284f0d6d1" d="M52.801,253.694c0-1.469,1.06-2.589,2.438-2.589,1.37,0,2.369,1.089,2.369,2.589v.27h-3.698c.11.81.72,1.399,1.499,1.399.47,0,.91-.18,1.189-.47l.74.669c-.61.51-1.219.73-1.979.73-1.439,0-2.559-1.129-2.559-2.599ZM56.539,253.264c-.12-.73-.64-1.239-1.309-1.239-.68,0-1.179.49-1.309,1.239h2.618Z"/>
      <path class="uuid-219b1772-e844-4c84-8763-8f9284f0d6d1" d="M60.562,255.613l.53-.75c.659.41,1.099.569,1.609.569.6,0,1.009-.28,1.009-.68,0-.31-.209-.47-.699-.569l-.88-.15c-.979-.18-1.449-.63-1.449-1.379,0-.939.77-1.549,1.939-1.549.7,0,1.33.2,1.969.6l-.53.75c-.51-.33-1-.48-1.509-.48-.52,0-.859.22-.859.58,0,.32.18.46.699.55l.89.17c1,.18,1.479.64,1.479,1.389,0,.919-.88,1.629-2.049,1.629-.86,0-1.619-.24-2.149-.68Z"/>
      <path class="uuid-219b1772-e844-4c84-8763-8f9284f0d6d1" d="M66.321,254.893v-2.809h-1v-.899h1v-1.379l1.129-.24v1.619h1.389v.899h-1.389v2.559c0,.49.19.68.7.68.22,0,.379-.03.68-.12v.949c-.29.09-.67.14-.97.14-1.009,0-1.539-.48-1.539-1.399Z"/>
      <path class="uuid-219b1772-e844-4c84-8763-8f9284f0d6d1" d="M69.841,251.185h1.129v1.08c.28-.76.759-1.169,1.379-1.169.19.01.32.03.49.1v.989c-.18-.07-.41-.12-.62-.12-.549,0-.999.31-1.249.83v3.298h-1.129v-5.007Z"/>
      <path class="uuid-219b1772-e844-4c84-8763-8f9284f0d6d1" d="M73.311,253.694c0-1.469,1.06-2.589,2.438-2.589,1.37,0,2.369,1.089,2.369,2.589v.27h-3.698c.11.81.72,1.399,1.499,1.399.47,0,.91-.18,1.189-.47l.74.669c-.61.51-1.219.73-1.979.73-1.439,0-2.559-1.129-2.559-2.599ZM77.049,253.264c-.12-.73-.64-1.239-1.309-1.239-.68,0-1.179.49-1.309,1.239h2.618Z"/>
      <path class="uuid-219b1772-e844-4c84-8763-8f9284f0d6d1" d="M78.961,254.753c0-.899.739-1.469,1.919-1.469.47,0,.909.1,1.349.32v-.56c0-.66-.38-1-1.149-1-.42,0-.879.12-1.459.39l-.4-.82c.75-.34,1.409-.51,2.079-.51,1.31,0,2.049.66,2.049,1.819v3.268h-1.119v-.52c-.43.419-.91.609-1.489.609-1.049,0-1.779-.629-1.779-1.529ZM81.05,255.483c.45,0,.839-.13,1.179-.42v-.81c-.36-.17-.72-.24-1.149-.24-.649,0-1.06.27-1.06.72,0,.459.4.75,1.03.75Z"/>
      <path class="uuid-219b1772-e844-4c84-8763-8f9284f0d6d1" d="M84.721,251.185h1.129v.79c.37-.57.87-.87,1.479-.87.69,0,1.219.37,1.479.959.39-.629.949-.959,1.659-.959.97,0,1.639.75,1.639,1.809v3.278h-1.129v-3.028c0-.7-.39-1.149-1.009-1.149-.41,0-.75.19-1,.6.01.1.02.2.02.3v3.278h-1.139v-3.028c0-.7-.39-1.149-1.01-1.149-.41,0-.739.19-.989.58v3.598h-1.129v-5.007Z"/>
    </g>
    <g>
      <path class="uuid-219b1772-e844-4c84-8763-8f9284f0d6d1" d="M106.178,249.196h1.719v6.996h-1.719v-6.996Z"/>
      <path class="uuid-219b1772-e844-4c84-8763-8f9284f0d6d1" d="M108.769,255.242l.879-1.269c.97.68,1.579.93,2.269.93.739,0,1.189-.3,1.189-.74,0-.41-.24-.61-.919-.729l-1.489-.26c-1.109-.189-1.719-.889-1.719-1.879,0-1.359,1.039-2.208,2.778-2.208,1.08,0,2.149.35,2.869.919l-.87,1.249c-.68-.52-1.349-.77-2.089-.77-.68,0-1.069.28-1.069.66,0,.36.229.54.79.64l1.399.24c1.31.22,1.999.909,1.999,1.979,0,1.37-1.159,2.299-2.988,2.299-1.109,0-2.099-.37-3.028-1.06Z"/>
      <path class="uuid-219b1772-e844-4c84-8763-8f9284f0d6d1" d="M117.437,250.665h-2.249v-1.469h6.216v1.469h-2.249v5.527h-1.719v-5.527Z"/>
      <path class="uuid-219b1772-e844-4c84-8763-8f9284f0d6d1" d="M123.167,249.196h1.959l2.688,6.996h-1.859l-.58-1.669h-2.559l-.59,1.669h-1.789l2.729-6.996ZM124.916,253.194l-.81-2.318-.819,2.318h1.629Z"/>
      <path class="uuid-219b1772-e844-4c84-8763-8f9284f0d6d1" d="M127.938,252.694c0-2.029,1.599-3.608,3.648-3.608,1.169,0,2.289.49,2.938,1.359l-1.209,1.05c-.439-.59-1.039-.88-1.729-.88-1.079,0-1.869.89-1.869,2.079,0,1.199.819,2.099,1.929,2.099.79,0,1.409-.479,1.599-1.169h-1.749v-1.449h3.598v.49c0,2.099-1.459,3.638-3.478,3.638-2.069,0-3.678-1.579-3.678-3.608Z"/>
      <path class="uuid-219b1772-e844-4c84-8763-8f9284f0d6d1" d="M138.358,252.874h3.488v.959h-3.488v-.959Z"/>
      <path class="uuid-219b1772-e844-4c84-8763-8f9284f0d6d1" d="M145.458,249.196h1.199v6.996h-1.199v-6.996Z"/>
      <path class="uuid-219b1772-e844-4c84-8763-8f9284f0d6d1" d="M148.148,251.185h1.129v.79c.37-.57.87-.87,1.479-.87.69,0,1.219.37,1.479.959.39-.629.949-.959,1.659-.959.97,0,1.639.75,1.639,1.809v3.278h-1.129v-3.028c0-.7-.39-1.149-1.009-1.149-.41,0-.75.19-1,.6.01.1.02.2.02.3v3.278h-1.139v-3.028c0-.7-.39-1.149-1.01-1.149-.41,0-.739.19-.989.58v3.598h-1.129v-5.007Z"/>
      <path class="uuid-219b1772-e844-4c84-8763-8f9284f0d6d1" d="M156.648,254.753c0-.899.739-1.469,1.919-1.469.47,0,.909.1,1.349.32v-.56c0-.66-.38-1-1.149-1-.42,0-.879.12-1.459.39l-.4-.82c.75-.34,1.409-.51,2.079-.51,1.31,0,2.049.66,2.049,1.819v3.268h-1.119v-.52c-.43.419-.91.609-1.489.609-1.049,0-1.779-.629-1.779-1.529ZM158.737,255.483c.45,0,.839-.13,1.179-.42v-.81c-.36-.17-.72-.24-1.149-.24-.649,0-1.06.27-1.06.72,0,.459.4.75,1.03.75Z"/>
      <path class="uuid-219b1772-e844-4c84-8763-8f9284f0d6d1" d="M162.737,257.891l.39-.83c.589.29,1.069.419,1.569.419.84,0,1.279-.379,1.279-1.109v-.849c-.36.439-.909.699-1.539.699-1.27,0-2.259-1.129-2.259-2.548s1.029-2.529,2.339-2.529c.58,0,1.099.23,1.469.67v-.63h1.119v5.187c0,1.29-.839,2.009-2.359,2.009-.719,0-1.419-.18-2.009-.49ZM165.976,254.733v-2.099c-.29-.34-.72-.54-1.189-.54-.859,0-1.499.669-1.499,1.589,0,.91.64,1.599,1.499,1.599.49,0,.9-.2,1.189-.549Z"/>
      <path class="uuid-219b1772-e844-4c84-8763-8f9284f0d6d1" d="M168.268,253.694c0-1.469,1.06-2.589,2.438-2.589,1.37,0,2.369,1.089,2.369,2.589v.27h-3.698c.11.81.72,1.399,1.499,1.399.47,0,.91-.18,1.189-.47l.74.669c-.61.51-1.219.73-1.979.73-1.439,0-2.559-1.129-2.559-2.599ZM172.005,253.264c-.12-.73-.64-1.239-1.309-1.239-.68,0-1.179.49-1.309,1.239h2.618Z"/>
      <path class="uuid-219b1772-e844-4c84-8763-8f9284f0d6d1" d="M176.028,255.613l.53-.75c.659.41,1.099.569,1.609.569.6,0,1.009-.28,1.009-.68,0-.31-.209-.47-.699-.569l-.88-.15c-.979-.18-1.449-.63-1.449-1.379,0-.939.77-1.549,1.939-1.549.7,0,1.33.2,1.969.6l-.53.75c-.51-.33-1-.48-1.509-.48-.52,0-.859.22-.859.58,0,.32.18.46.699.55l.89.17c1,.18,1.479.64,1.479,1.389,0,.919-.88,1.629-2.049,1.629-.86,0-1.619-.24-2.149-.68Z"/>
      <path class="uuid-219b1772-e844-4c84-8763-8f9284f0d6d1" d="M181.787,254.893v-2.809h-1v-.899h1v-1.379l1.129-.24v1.619h1.389v.899h-1.389v2.559c0,.49.19.68.7.68.22,0,.379-.03.68-.12v.949c-.29.09-.67.14-.97.14-1.009,0-1.539-.48-1.539-1.399Z"/>
      <path class="uuid-219b1772-e844-4c84-8763-8f9284f0d6d1" d="M185.307,251.185h1.129v1.08c.28-.76.759-1.169,1.379-1.169.19.01.32.03.49.1v.989c-.18-.07-.41-.12-.62-.12-.549,0-.999.31-1.249.83v3.298h-1.129v-5.007Z"/>
      <path class="uuid-219b1772-e844-4c84-8763-8f9284f0d6d1" d="M188.777,253.694c0-1.469,1.06-2.589,2.438-2.589,1.37,0,2.369,1.089,2.369,2.589v.27h-3.698c.11.81.72,1.399,1.499,1.399.47,0,.91-.18,1.189-.47l.74.669c-.61.51-1.219.73-1.979.73-1.439,0-2.559-1.129-2.559-2.599ZM192.515,253.264c-.12-.73-.64-1.239-1.309-1.239-.68,0-1.179.49-1.309,1.239h2.618Z"/>
      <path class="uuid-219b1772-e844-4c84-8763-8f9284f0d6d1" d="M194.428,254.753c0-.899.739-1.469,1.919-1.469.47,0,.909.1,1.349.32v-.56c0-.66-.38-1-1.149-1-.42,0-.879.12-1.459.39l-.4-.82c.75-.34,1.409-.51,2.079-.51,1.31,0,2.049.66,2.049,1.819v3.268h-1.119v-.52c-.43.419-.91.609-1.489.609-1.049,0-1.779-.629-1.779-1.529ZM196.517,255.483c.45,0,.839-.13,1.179-.42v-.81c-.36-.17-.72-.24-1.149-.24-.649,0-1.06.27-1.06.72,0,.459.4.75,1.03.75Z"/>
      <path class="uuid-219b1772-e844-4c84-8763-8f9284f0d6d1" d="M200.187,251.185h1.129v.79c.37-.57.87-.87,1.479-.87.69,0,1.219.37,1.479.959.39-.629.949-.959,1.659-.959.97,0,1.639.75,1.639,1.809v3.278h-1.129v-3.028c0-.7-.39-1.149-1.009-1.149-.41,0-.75.19-1,.6.01.1.02.2.02.3v3.278h-1.139v-3.028c0-.7-.39-1.149-1.01-1.149-.41,0-.739.19-.989.58v3.598h-1.129v-5.007Z"/>
      <path class="uuid-219b1772-e844-4c84-8763-8f9284f0d6d1" d="M211.816,254.893v-2.809h-1v-.899h1v-1.379l1.129-.24v1.619h1.389v.899h-1.389v2.559c0,.49.19.68.7.68.22,0,.379-.03.68-.12v.949c-.29.09-.67.14-.97.14-1.009,0-1.539-.48-1.539-1.399Z"/>
      <path class="uuid-219b1772-e844-4c84-8763-8f9284f0d6d1" d="M215.077,254.753c0-.899.739-1.469,1.919-1.469.47,0,.909.1,1.349.32v-.56c0-.66-.38-1-1.149-1-.42,0-.879.12-1.459.39l-.4-.82c.75-.34,1.409-.51,2.079-.51,1.31,0,2.049.66,2.049,1.819v3.268h-1.119v-.52c-.43.419-.91.609-1.489.609-1.049,0-1.779-.629-1.779-1.529ZM217.166,255.483c.45,0,.839-.13,1.179-.42v-.81c-.36-.17-.72-.24-1.149-.24-.649,0-1.06.27-1.06.72,0,.459.4.75,1.03.75Z"/>
      <path class="uuid-219b1772-e844-4c84-8763-8f9284f0d6d1" d="M221.167,257.891l.39-.83c.589.29,1.069.419,1.569.419.84,0,1.279-.379,1.279-1.109v-.849c-.36.439-.91.699-1.539.699-1.27,0-2.259-1.129-2.259-2.548s1.029-2.529,2.339-2.529c.58,0,1.099.23,1.469.67v-.63h1.119v5.187c0,1.29-.839,2.009-2.358,2.009-.72,0-1.419-.18-2.009-.49ZM224.405,254.733v-2.099c-.29-.34-.72-.54-1.189-.54-.859,0-1.499.669-1.499,1.589,0,.91.64,1.599,1.499,1.599.49,0,.9-.2,1.189-.549Z"/>
    </g>
    <g>
      <path class="uuid-219b1772-e844-4c84-8763-8f9284f0d6d1" d="M239.135,255.242l.879-1.269c.97.68,1.579.93,2.269.93.739,0,1.189-.3,1.189-.74,0-.41-.24-.61-.919-.729l-1.489-.26c-1.109-.189-1.719-.889-1.719-1.879,0-1.359,1.039-2.208,2.778-2.208,1.08,0,2.149.35,2.869.919l-.87,1.249c-.68-.52-1.349-.77-2.089-.77-.68,0-1.069.28-1.069.66,0,.36.229.54.79.64l1.399.24c1.31.22,1.999.909,1.999,1.979,0,1.37-1.159,2.299-2.988,2.299-1.109,0-2.099-.37-3.028-1.06Z"/>
      <path class="uuid-219b1772-e844-4c84-8763-8f9284f0d6d1" d="M245.415,249.196h1.859l1.849,5.207,1.879-5.207h1.789l-2.729,6.996h-1.959l-2.688-6.996Z"/>
      <path class="uuid-219b1772-e844-4c84-8763-8f9284f0d6d1" d="M252.915,252.694c0-2.039,1.609-3.608,3.688-3.608,1.12,0,2.229.53,2.838,1.359l-1.159,1.1c-.46-.62-1.02-.93-1.679-.93-1.089,0-1.909.89-1.909,2.079s.819,2.079,1.909,2.079c.66,0,1.219-.31,1.679-.929l1.159,1.099c-.609.83-1.719,1.359-2.838,1.359-2.079,0-3.688-1.569-3.688-3.608Z"/>
      <path class="uuid-219b1772-e844-4c84-8763-8f9284f0d6d1" d="M262.474,252.874h3.488v.959h-3.488v-.959Z"/>
      <path class="uuid-219b1772-e844-4c84-8763-8f9284f0d6d1" d="M269.024,255.173l.65-.879c.899.74,1.549,1.02,2.358,1.02.919,0,1.559-.47,1.559-1.12,0-.569-.339-.839-1.269-1l-1.29-.22c-1.209-.22-1.799-.819-1.799-1.779,0-1.27,1.009-2.109,2.579-2.109,1.049,0,2.009.31,2.809.899l-.61.899c-.7-.53-1.449-.81-2.239-.81-.839,0-1.399.43-1.399,1,0,.51.32.77,1.079.89l1.25.21c1.409.25,2.069.869,2.069,1.929,0,1.289-1.14,2.199-2.809,2.199-1.1,0-2.049-.38-2.938-1.129Z"/>
      <path class="uuid-219b1772-e844-4c84-8763-8f9284f0d6d1" d="M275.724,253.694c0-1.469,1.06-2.589,2.438-2.589,1.37,0,2.369,1.089,2.369,2.589v.27h-3.698c.11.81.72,1.399,1.499,1.399.47,0,.91-.18,1.189-.47l.74.669c-.61.51-1.219.73-1.979.73-1.439,0-2.559-1.129-2.559-2.599ZM279.462,253.264c-.12-.73-.64-1.239-1.309-1.239-.68,0-1.179.49-1.309,1.239h2.618Z"/>
      <path class="uuid-219b1772-e844-4c84-8763-8f9284f0d6d1" d="M281.684,251.185h1.129v1.08c.28-.76.759-1.169,1.379-1.169.19.01.32.03.49.1v.989c-.18-.07-.41-.12-.62-.12-.549,0-.999.31-1.249.83v3.298h-1.129v-5.007Z"/>
      <path class="uuid-219b1772-e844-4c84-8763-8f9284f0d6d1" d="M285.174,251.185h1.229l1.399,3.638,1.39-3.638h1.179l-2.059,5.007h-1.099l-2.039-5.007Z"/>
      <path class="uuid-219b1772-e844-4c84-8763-8f9284f0d6d1" d="M291.044,249.476c0-.38.31-.7.7-.7.38,0,.7.32.7.7s-.32.689-.7.689c-.39,0-.7-.31-.7-.689ZM291.174,251.185h1.129v5.007h-1.129v-5.007Z"/>
      <path class="uuid-219b1772-e844-4c84-8763-8f9284f0d6d1" d="M293.474,253.694c0-1.449,1.1-2.589,2.529-2.589.779,0,1.499.31,1.999.85l-.699.729c-.35-.39-.78-.589-1.26-.589-.809,0-1.439.7-1.439,1.599,0,.909.63,1.599,1.439,1.599.48,0,.91-.2,1.26-.58l.699.719c-.5.54-1.219.85-1.999.85-1.429,0-2.529-1.129-2.529-2.588Z"/>
      <path class="uuid-219b1772-e844-4c84-8763-8f9284f0d6d1" d="M298.554,253.694c0-1.469,1.06-2.589,2.438-2.589,1.369,0,2.369,1.089,2.369,2.589v.27h-3.698c.109.81.72,1.399,1.499,1.399.47,0,.909-.18,1.189-.47l.739.669c-.609.51-1.219.73-1.979.73-1.439,0-2.559-1.129-2.559-2.599ZM302.291,253.264c-.119-.73-.64-1.239-1.309-1.239-.68,0-1.18.49-1.31,1.239h2.618Z"/>
    </g>
    <g>
      <path class="uuid-219b1772-e844-4c84-8763-8f9284f0d6d1" d="M317.311,249.196h2.849c1.959,0,3.518,1.559,3.518,3.498s-1.559,3.498-3.518,3.498h-2.849v-6.996ZM320.159,254.723c.97,0,1.739-.899,1.739-2.029s-.77-2.029-1.739-2.029h-1.13v4.058h1.13Z"/>
      <path class="uuid-219b1772-e844-4c84-8763-8f9284f0d6d1" d="M324.531,253.624c0-1.509,1.119-2.669,2.599-2.669,1.488,0,2.538,1.129,2.538,2.729v.35h-3.548c.149.58.619.969,1.209.969.43,0,.79-.15,1.02-.43l1.069.89c-.669.589-1.299.83-2.169.83-1.519,0-2.718-1.169-2.718-2.668ZM328.169,253.114c-.14-.55-.529-.9-1.05-.9-.51,0-.869.33-.999.9h2.049Z"/>
      <path class="uuid-219b1772-e844-4c84-8763-8f9284f0d6d1" d="M330.681,251.035h1.6v.72c.339-.46.909-.75,1.528-.75,1.27,0,2.279,1.169,2.279,2.619s-1.06,2.598-2.398,2.598c-.561,0-1.05-.209-1.39-.6v2.659h-1.619v-7.246ZM334.499,253.614c0-.729-.53-1.269-1.229-1.269-.4,0-.71.14-.97.419v1.719c.25.26.59.41.97.41.709,0,1.229-.54,1.229-1.279Z"/>
      <path class="uuid-219b1772-e844-4c84-8763-8f9284f0d6d1" d="M337.121,249.076l1.618-.25v7.366h-1.618v-7.116Z"/>
      <path class="uuid-219b1772-e844-4c84-8763-8f9284f0d6d1" d="M339.771,253.624c0-1.52,1.159-2.669,2.688-2.669s2.688,1.149,2.688,2.669-1.159,2.668-2.688,2.668-2.688-1.149-2.688-2.668ZM343.568,253.624c0-.77-.46-1.319-1.109-1.319s-1.109.549-1.109,1.319.46,1.319,1.109,1.319,1.109-.549,1.109-1.319Z"/>
      <path class="uuid-219b1772-e844-4c84-8763-8f9284f0d6d1" d="M345.92,258.301v-1.359c.12.02.29.04.48.04.439,0,.68-.18.839-.52l.08-.17-1.898-5.257h1.789l1.029,3.328,1.179-3.328h1.749l-2.318,5.737c-.479,1.179-1.069,1.609-2.259,1.609-.189,0-.449-.03-.67-.08Z"/>
      <path class="uuid-219b1772-e844-4c84-8763-8f9284f0d6d1" d="M354.05,252.874h3.488v.959h-3.488v-.959Z"/>
      <path class="uuid-219b1772-e844-4c84-8763-8f9284f0d6d1" d="M361.2,249.196h2.559c2.009,0,3.508,1.529,3.508,3.498s-1.499,3.498-3.508,3.498h-2.559v-6.996ZM363.789,255.153c1.259,0,2.248-1.069,2.248-2.458s-.989-2.458-2.248-2.458h-1.39v4.917h1.39Z"/>
      <path class="uuid-219b1772-e844-4c84-8763-8f9284f0d6d1" d="M368.25,253.694c0-1.469,1.06-2.589,2.438-2.589,1.37,0,2.369,1.089,2.369,2.589v.27h-3.698c.11.81.72,1.399,1.499,1.399.47,0,.91-.18,1.189-.47l.74.669c-.61.51-1.22.73-1.979.73-1.438,0-2.559-1.129-2.559-2.599ZM371.988,253.264c-.12-.73-.64-1.239-1.31-1.239-.68,0-1.179.49-1.309,1.239h2.618Z"/>
      <path class="uuid-219b1772-e844-4c84-8763-8f9284f0d6d1" d="M374.21,251.185h1.109v.709c.36-.47.92-.75,1.56-.75,1.269,0,2.259,1.129,2.259,2.549,0,1.429-1.02,2.548-2.329,2.548-.59,0-1.109-.22-1.469-.64v2.679h-1.13v-7.096ZM378.028,253.694c0-.91-.64-1.599-1.489-1.599-.5,0-.91.2-1.199.56v2.089c.289.35.72.56,1.199.56.859,0,1.489-.689,1.489-1.609Z"/>
      <path class="uuid-219b1772-e844-4c84-8763-8f9284f0d6d1" d="M380.32,249.026l1.129-.2v7.366h-1.129v-7.166Z"/>
      <path class="uuid-219b1772-e844-4c84-8763-8f9284f0d6d1" d="M382.61,253.694c0-1.479,1.079-2.589,2.519-2.589,1.429,0,2.509,1.109,2.509,2.589s-1.08,2.588-2.509,2.588c-1.439,0-2.519-1.109-2.519-2.588ZM386.528,253.694c0-.93-.59-1.629-1.399-1.629-.819,0-1.409.7-1.409,1.629,0,.939.59,1.629,1.409,1.629.81,0,1.399-.689,1.399-1.629Z"/>
      <path class="uuid-219b1772-e844-4c84-8763-8f9284f0d6d1" d="M388.46,258.311v-.979c.13.03.29.04.439.04.4,0,.64-.18.81-.569l.23-.56-1.89-5.057h1.25l1.279,3.708,1.389-3.708h1.239l-2.398,5.877c-.39.969-.85,1.319-1.789,1.319-.16,0-.359-.02-.56-.07Z"/>
      <path class="uuid-219b1772-e844-4c84-8763-8f9284f0d6d1" d="M394.029,251.185h1.13v.79c.369-.57.869-.87,1.479-.87.689,0,1.22.37,1.479.959.39-.629.949-.959,1.659-.959.97,0,1.639.75,1.639,1.809v3.278h-1.129v-3.028c0-.7-.39-1.149-1.01-1.149-.409,0-.749.19-.999.6.01.1.02.2.02.3v3.278h-1.139v-3.028c0-.7-.391-1.149-1.01-1.149-.41,0-.74.19-.989.58v3.598h-1.13v-5.007Z"/>
      <path class="uuid-219b1772-e844-4c84-8763-8f9284f0d6d1" d="M402.56,253.694c0-1.469,1.06-2.589,2.438-2.589,1.37,0,2.369,1.089,2.369,2.589v.27h-3.698c.11.81.72,1.399,1.499,1.399.47,0,.91-.18,1.189-.47l.74.669c-.61.51-1.22.73-1.979.73-1.438,0-2.559-1.129-2.559-2.599ZM406.298,253.264c-.12-.73-.64-1.239-1.31-1.239-.68,0-1.179.49-1.309,1.239h2.618Z"/>
      <path class="uuid-219b1772-e844-4c84-8763-8f9284f0d6d1" d="M408.52,251.185h1.13v.82c.38-.59.929-.9,1.579-.9,1.029,0,1.749.73,1.749,1.789v3.298h-1.14v-2.979c0-.729-.43-1.199-1.1-1.199-.46,0-.829.21-1.089.61v3.568h-1.13v-5.007Z"/>
      <path class="uuid-219b1772-e844-4c84-8763-8f9284f0d6d1" d="M414.81,254.893v-2.809h-1v-.899h1v-1.379l1.129-.24v1.619h1.39v.899h-1.39v2.559c0,.49.19.68.7.68.22,0,.379-.03.68-.12v.949c-.29.09-.67.14-.97.14-1.01,0-1.539-.48-1.539-1.399Z"/>
    </g>
  </g>
</svg>