<?xml version="1.0" encoding="UTF-8" standalone="no"?>
<svg
   xmlns:dc="http://purl.org/dc/elements/1.1/"
   xmlns:cc="http://creativecommons.org/ns#"
   xmlns:rdf="http://www.w3.org/1999/02/22-rdf-syntax-ns#"
   xmlns:svg="http://www.w3.org/2000/svg"
   xmlns="http://www.w3.org/2000/svg"
   xmlns:sodipodi="http://sodipodi.sourceforge.net/DTD/sodipodi-0.dtd"
   xmlns:inkscape="http://www.inkscape.org/namespaces/inkscape"
   inkscape:version="1.0 (4035a4f, 2020-05-01)"
   sodipodi:docname="pod_lifecycle.svg"
   version="1.1"
   viewBox="0 0 595.276 367.71"
   height="367.71"
   width="595.276"
   data-name="Layer 1"
   id="uuid-d51a2a94-70b9-4b81-9494-86810d7fc0e9">
  <metadata
     id="metadata441">
    <rdf:RDF>
      <cc:Work
         rdf:about="">
        <dc:format>image/svg+xml</dc:format>
        <dc:type
           rdf:resource="http://purl.org/dc/dcmitype/StillImage" />
        <dc:title></dc:title>
        <dc:subject>
          <rdf:Bag>
            <rdf:li>do188</rdf:li>
            <rdf:li>overview</rdf:li>
            <rdf:li>podman</rdf:li>
          </rdf:Bag>
        </dc:subject>
      </cc:Work>
    </rdf:RDF>
  </metadata>
  <sodipodi:namedview
     inkscape:current-layer="uuid-d51a2a94-70b9-4b81-9494-86810d7fc0e9"
     inkscape:window-maximized="0"
     inkscape:window-y="25"
     inkscape:window-x="0"
     inkscape:cy="183.855"
     inkscape:cx="297.638"
     inkscape:zoom="1.7689274"
     showgrid="false"
     id="namedview439"
     inkscape:window-height="480"
     inkscape:window-width="709"
     inkscape:pageshadow="2"
     inkscape:pageopacity="0"
     guidetolerance="10"
     gridtolerance="10"
     objecttolerance="10"
     borderopacity="1"
     bordercolor="#666666"
     pagecolor="#ffffff" />
  <defs
     id="defs12">
    <style
       id="style10">
      .uuid-a9b75941-b435-4ae9-a805-085d6f0141bd, .uuid-418c5042-a55a-4b5c-9948-34c66b0f6016, .uuid-daabd439-83eb-44e5-9e33-ca9a869cbb91, .uuid-35d4e25a-c755-41db-82eb-1e45fb479bbe, .uuid-db9fb4e8-4ecc-41d6-b3f2-f9bafcd8d760, .uuid-344f86f8-0faf-46f0-b25f-69de9479abec, .uuid-dab6b00c-8acb-40df-95cf-53257c5e5db7, .uuid-e5dcd9fa-9e20-48f8-a815-d7257eac095f, .uuid-9feacab6-b8fe-4dee-abd5-f174902a7631, .uuid-87ddd0a1-8671-4c14-b95c-0ab42e52f16b {
        fill: none;
      }

      .uuid-a9b75941-b435-4ae9-a805-085d6f0141bd, .uuid-418c5042-a55a-4b5c-9948-34c66b0f6016, .uuid-daabd439-83eb-44e5-9e33-ca9a869cbb91, .uuid-35d4e25a-c755-41db-82eb-1e45fb479bbe, .uuid-db9fb4e8-4ecc-41d6-b3f2-f9bafcd8d760, .uuid-dab6b00c-8acb-40df-95cf-53257c5e5db7, .uuid-87ddd0a1-8671-4c14-b95c-0ab42e52f16b {
        stroke-linecap: round;
        stroke-linejoin: round;
      }

      .uuid-a9b75941-b435-4ae9-a805-085d6f0141bd, .uuid-344f86f8-0faf-46f0-b25f-69de9479abec, .uuid-dab6b00c-8acb-40df-95cf-53257c5e5db7, .uuid-e5dcd9fa-9e20-48f8-a815-d7257eac095f {
        stroke: #000;
      }

      .uuid-418c5042-a55a-4b5c-9948-34c66b0f6016, .uuid-35d4e25a-c755-41db-82eb-1e45fb479bbe, .uuid-9feacab6-b8fe-4dee-abd5-f174902a7631 {
        stroke: #dbe8f5;
      }

      .uuid-daabd439-83eb-44e5-9e33-ca9a869cbb91, .uuid-db9fb4e8-4ecc-41d6-b3f2-f9bafcd8d760, .uuid-87ddd0a1-8671-4c14-b95c-0ab42e52f16b {
        stroke: #3789d3;
      }

      .uuid-35d4e25a-c755-41db-82eb-1e45fb479bbe {
        stroke-dasharray: 0 0 2.422 2.422;
      }

      .uuid-aa48b7de-eace-450e-b32c-7ba0f7ac9887 {
        fill: #e00;
      }

      .uuid-7e2d992e-588e-40e5-a411-863c01ffd507, .uuid-c71a4db0-1ff6-4b5a-9b3d-3eb7e44b414b, .uuid-a2175093-4710-486a-b8b9-98f08ea14366 {
        fill: #dbe8f5;
      }

      .uuid-85b34dbc-a0a4-44dc-83bb-b075cfd7cff3 {
        fill: #3f9c35;
      }

      .uuid-b120d2f9-1a6c-4576-bcc7-99f2efd73c4e {
        fill: #a1c2e7;
      }

      .uuid-a4639e35-4c75-464c-b5a4-499e435626a0 {
        fill: #3789d3;
      }

      .uuid-db9fb4e8-4ecc-41d6-b3f2-f9bafcd8d760 {
        stroke-dasharray: 0 0 2.759 2.759;
      }

      .uuid-344f86f8-0faf-46f0-b25f-69de9479abec {
        stroke-dasharray: 0 0 2.689 2.689;
      }

      .uuid-344f86f8-0faf-46f0-b25f-69de9479abec, .uuid-613eda37-d370-440f-80cd-46da51e9138e, .uuid-c71a4db0-1ff6-4b5a-9b3d-3eb7e44b414b, .uuid-a2175093-4710-486a-b8b9-98f08ea14366, .uuid-e5dcd9fa-9e20-48f8-a815-d7257eac095f, .uuid-9feacab6-b8fe-4dee-abd5-f174902a7631 {
        stroke-miterlimit: 10;
      }

      .uuid-dab6b00c-8acb-40df-95cf-53257c5e5db7 {
        stroke-dasharray: 0 0 2.975 2.975;
      }

      .uuid-613eda37-d370-440f-80cd-46da51e9138e {
        fill: #fff;
        stroke: #06c;
      }

      .uuid-c71a4db0-1ff6-4b5a-9b3d-3eb7e44b414b {
        stroke: #3f9c35;
      }

      .uuid-a2175093-4710-486a-b8b9-98f08ea14366 {
        stroke: #e00;
      }

      .uuid-87ddd0a1-8671-4c14-b95c-0ab42e52f16b {
        stroke-dasharray: 0 3;
      }
    </style>
  </defs>
  <rect
     id="rect14"
     height="96.153"
     width="194.609"
     y="237.443"
     x="260.807"
     class="uuid-b120d2f9-1a6c-4576-bcc7-99f2efd73c4e" />
  <rect
     id="rect16"
     height="96.153"
     width="194.609"
     y="108.708"
     x="24.517"
     class="uuid-7e2d992e-588e-40e5-a411-863c01ffd507" />
  <rect
     id="rect18"
     height="58.568"
     width="82.129"
     y="136.434"
     x="35.098"
     class="uuid-613eda37-d370-440f-80cd-46da51e9138e" />
  <rect
     id="rect20"
     height="58.568"
     width="82.129"
     y="136.434"
     x="126.731"
     class="uuid-613eda37-d370-440f-80cd-46da51e9138e" />
  <g
     id="g28">
    <path
       id="path22"
       d="M35.878,120.829h3.418c1.489,0,2.469,.969,2.469,2.309,0,1.27-.979,2.249-2.469,2.249h-1.699v2.438h-1.719v-6.996Zm3.108,3.188c.7,0,1.04-.379,1.04-.889,0-.5-.34-.88-1.029-.88h-1.399v1.769h1.389Z" />
    <path
       id="path24"
       d="M42.199,125.257c0-1.52,1.159-2.669,2.688-2.669s2.688,1.149,2.688,2.669-1.159,2.668-2.688,2.668-2.688-1.149-2.688-2.668Zm3.798,0c0-.77-.46-1.319-1.109-1.319s-1.109,.549-1.109,1.319,.459,1.319,1.109,1.319,1.109-.549,1.109-1.319Z" />
    <path
       id="path26"
       d="M48.378,125.237c0-1.449,1.059-2.599,2.398-2.599,.54,0,1.03,.22,1.379,.62v-2.549l1.619-.25v7.366h-1.599v-.669c-.34,.43-.91,.699-1.519,.699-1.27,0-2.279-1.169-2.279-2.618Zm3.778,.869v-1.739c-.25-.26-.59-.4-.959-.4-.709,0-1.229,.54-1.229,1.279,0,.729,.53,1.27,1.229,1.27,.39,0,.709-.14,.959-.41Z" />
  </g>
  <g
     id="g40">
    <rect
       id="rect30"
       height="58.568"
       width="82.129"
       y="17.558"
       x="80.757"
       class="uuid-7e2d992e-588e-40e5-a411-863c01ffd507" />
    <g
       id="g38">
      <path
         id="path32"
         d="M112.946,42.531h3.418c1.489,0,2.469,.969,2.469,2.309,0,1.27-.979,2.249-2.469,2.249h-1.699v2.438h-1.719v-6.996Zm3.108,3.188c.7,0,1.04-.379,1.04-.889,0-.5-.34-.88-1.029-.88h-1.399v1.769h1.389Z" />
      <path
         id="path34"
         d="M119.267,46.958c0-1.52,1.159-2.669,2.688-2.669s2.688,1.149,2.688,2.669-1.159,2.668-2.688,2.668-2.688-1.149-2.688-2.668Zm3.798,0c0-.77-.46-1.319-1.109-1.319s-1.109,.549-1.109,1.319,.459,1.319,1.109,1.319,1.109-.549,1.109-1.319Z" />
      <path
         id="path36"
         d="M125.446,46.938c0-1.449,1.059-2.599,2.398-2.599,.54,0,1.03,.22,1.379,.62v-2.549l1.619-.25v7.366h-1.599v-.669c-.34,.43-.91,.699-1.519,.699-1.27,0-2.279-1.169-2.279-2.618Zm3.778,.869v-1.739c-.25-.26-.59-.4-.959-.4-.709,0-1.229,.54-1.229,1.279,0,.729,.53,1.27,1.229,1.27,.39,0,.709-.14,.959-.41Z" />
    </g>
  </g>
  <g
     id="g62">
    <path
       id="path42"
       d="M50.659,165.544c0-2.029,1.579-3.608,3.618-3.608,1.069,0,2.089,.46,2.729,1.249l-.8,.78c-.5-.62-1.189-.95-1.929-.95-1.359,0-2.389,1.09-2.389,2.529s1.029,2.528,2.389,2.528c.739,0,1.429-.33,1.929-.949l.8,.779c-.64,.79-1.659,1.249-2.729,1.249-2.039,0-3.618-1.579-3.618-3.607Z" />
    <path
       id="path44"
       d="M57.699,166.543c0-1.479,1.079-2.589,2.519-2.589,1.43,0,2.509,1.109,2.509,2.589s-1.079,2.589-2.509,2.589c-1.439,0-2.519-1.109-2.519-2.589Zm3.918,0c0-.93-.59-1.629-1.399-1.629-.819,0-1.409,.699-1.409,1.629,0,.939,.59,1.629,1.409,1.629,.81,0,1.399-.689,1.399-1.629Z" />
    <path
       id="path46"
       d="M63.898,164.035h1.13v.82c.38-.59,.93-.9,1.579-.9,1.029,0,1.749,.73,1.749,1.789v3.299h-1.14v-2.979c0-.729-.43-1.199-1.1-1.199-.459,0-.829,.21-1.089,.609v3.568h-1.13v-5.008Z" />
    <path
       id="path48"
       d="M70.188,167.743v-2.809h-.999v-.899h.999v-1.379l1.129-.24v1.619h1.39v.899h-1.39v2.559c0,.49,.19,.68,.7,.68,.22,0,.38-.029,.68-.119v.949c-.29,.09-.67,.14-.97,.14-1.01,0-1.539-.479-1.539-1.399Z" />
    <path
       id="path50"
       d="M73.448,167.603c0-.899,.74-1.469,1.919-1.469,.47,0,.91,.1,1.35,.319v-.56c0-.66-.38-1-1.149-1-.42,0-.88,.12-1.459,.391l-.4-.82c.75-.34,1.409-.51,2.079-.51,1.31,0,2.049,.66,2.049,1.819v3.269h-1.119v-.52c-.43,.419-.909,.609-1.489,.609-1.05,0-1.779-.63-1.779-1.529Zm2.089,.729c.45,0,.84-.13,1.18-.42v-.81c-.359-.17-.72-.239-1.149-.239-.649,0-1.06,.27-1.06,.72,0,.459,.4,.749,1.029,.749Z" />
    <path
       id="path52"
       d="M79.068,162.326c0-.38,.31-.699,.7-.699,.379,0,.699,.319,.699,.699s-.32,.689-.699,.689c-.391,0-.7-.31-.7-.689Zm.13,1.709h1.13v5.008h-1.13v-5.008Z" />
    <path
       id="path54"
       d="M81.727,164.035h1.13v.82c.38-.59,.93-.9,1.579-.9,1.029,0,1.749,.73,1.749,1.789v3.299h-1.14v-2.979c0-.729-.43-1.199-1.1-1.199-.459,0-.829,.21-1.089,.609v3.568h-1.13v-5.008Z" />
    <path
       id="path56"
       d="M87.318,166.543c0-1.469,1.06-2.589,2.438-2.589,1.369,0,2.369,1.09,2.369,2.589v.27h-3.698c.11,.81,.72,1.399,1.499,1.399,.47,0,.91-.18,1.189-.47l.739,.67c-.609,.51-1.219,.729-1.979,.729-1.439,0-2.559-1.129-2.559-2.599Zm3.738-.43c-.12-.729-.64-1.239-1.31-1.239-.68,0-1.18,.49-1.31,1.239h2.619Z" />
    <path
       id="path58"
       d="M93.277,164.035h1.13v1.08c.279-.76,.76-1.17,1.379-1.17,.19,.01,.32,.03,.49,.101v.989c-.181-.07-.41-.12-.62-.12-.55,0-.999,.31-1.249,.829v3.299h-1.13v-5.008Z" />
    <path
       id="path60"
       d="M100.368,163.196l-1.239,.529v-.97l1.639-.709h.689v6.996h-1.089v-5.847Z" />
  </g>
  <g
     id="g84">
    <path
       id="path64"
       d="M141.152,165.544c0-2.029,1.579-3.608,3.618-3.608,1.069,0,2.089,.46,2.729,1.249l-.8,.78c-.5-.62-1.189-.95-1.929-.95-1.359,0-2.389,1.09-2.389,2.529s1.029,2.528,2.389,2.528c.739,0,1.429-.33,1.929-.949l.8,.779c-.64,.79-1.659,1.249-2.729,1.249-2.039,0-3.618-1.579-3.618-3.607Z" />
    <path
       id="path66"
       d="M148.192,166.543c0-1.479,1.079-2.589,2.519-2.589,1.43,0,2.509,1.109,2.509,2.589s-1.079,2.589-2.509,2.589c-1.439,0-2.519-1.109-2.519-2.589Zm3.918,0c0-.93-.59-1.629-1.399-1.629-.819,0-1.409,.699-1.409,1.629,0,.939,.59,1.629,1.409,1.629,.81,0,1.399-.689,1.399-1.629Z" />
    <path
       id="path68"
       d="M154.391,164.035h1.13v.82c.38-.59,.93-.9,1.579-.9,1.029,0,1.749,.73,1.749,1.789v3.299h-1.14v-2.979c0-.729-.43-1.199-1.1-1.199-.459,0-.829,.21-1.089,.609v3.568h-1.13v-5.008Z" />
    <path
       id="path70"
       d="M160.681,167.743v-2.809h-1v-.899h1v-1.379l1.129-.24v1.619h1.39v.899h-1.39v2.559c0,.49,.19,.68,.7,.68,.22,0,.38-.029,.68-.119v.949c-.29,.09-.67,.14-.97,.14-1.01,0-1.539-.479-1.539-1.399Z" />
    <path
       id="path72"
       d="M163.941,167.603c0-.899,.74-1.469,1.919-1.469,.47,0,.91,.1,1.35,.319v-.56c0-.66-.38-1-1.149-1-.42,0-.88,.12-1.459,.391l-.4-.82c.75-.34,1.409-.51,2.079-.51,1.31,0,2.049,.66,2.049,1.819v3.269h-1.119v-.52c-.43,.419-.909,.609-1.489,.609-1.05,0-1.779-.63-1.779-1.529Zm2.089,.729c.45,0,.84-.13,1.18-.42v-.81c-.359-.17-.72-.239-1.149-.239-.649,0-1.06,.27-1.06,.72,0,.459,.4,.749,1.029,.749Z" />
    <path
       id="path74"
       d="M169.561,162.326c0-.38,.31-.699,.7-.699,.379,0,.699,.319,.699,.699s-.32,.689-.699,.689c-.391,0-.7-.31-.7-.689Zm.13,1.709h1.13v5.008h-1.13v-5.008Z" />
    <path
       id="path76"
       d="M172.22,164.035h1.13v.82c.38-.59,.93-.9,1.579-.9,1.029,0,1.749,.73,1.749,1.789v3.299h-1.14v-2.979c0-.729-.43-1.199-1.1-1.199-.459,0-.829,.21-1.089,.609v3.568h-1.13v-5.008Z" />
    <path
       id="path78"
       d="M177.811,166.543c0-1.469,1.06-2.589,2.438-2.589,1.369,0,2.369,1.09,2.369,2.589v.27h-3.698c.11,.81,.72,1.399,1.499,1.399,.47,0,.91-.18,1.189-.47l.739,.67c-.609,.51-1.219,.729-1.979,.729-1.439,0-2.559-1.129-2.559-2.599Zm3.738-.43c-.12-.729-.64-1.239-1.31-1.239-.68,0-1.18,.49-1.31,1.239h2.619Z" />
    <path
       id="path80"
       d="M183.771,164.035h1.13v1.08c.279-.76,.76-1.17,1.379-1.17,.19,.01,.32,.03,.49,.101v.989c-.181-.07-.41-.12-.62-.12-.55,0-.999,.31-1.249,.829v3.299h-1.13v-5.008Z" />
    <path
       id="path82"
       d="M189.761,168.252l2.868-2.998c.51-.54,.68-.89,.68-1.339,0-.58-.54-1.02-1.27-1.02-.649,0-1.149,.229-1.818,.85l-.62-.75c.77-.71,1.579-1.06,2.459-1.06,1.369,0,2.309,.779,2.309,1.919,0,.68-.24,1.17-.989,1.959l-2.229,2.299,3.348-.01v.939h-4.737v-.79Z" />
  </g>
  <rect
     id="rect86"
     height="96.153"
     width="194.609"
     y="108.708"
     x="260.807"
     class="uuid-b120d2f9-1a6c-4576-bcc7-99f2efd73c4e" />
  <rect
     id="rect88"
     height="58.568"
     width="82.129"
     y="136.434"
     x="271.389"
     class="uuid-c71a4db0-1ff6-4b5a-9b3d-3eb7e44b414b" />
  <rect
     id="rect90"
     height="58.568"
     width="82.129"
     y="136.434"
     x="363.022"
     class="uuid-a2175093-4710-486a-b8b9-98f08ea14366" />
  <rect
     id="rect92"
     height="58.568"
     width="82.129"
     y="265.17"
     x="363.022"
     class="uuid-9feacab6-b8fe-4dee-abd5-f174902a7631" />
  <g
     id="g102">
    <path
       id="path94"
       d="M272.168,120.829h1.619l3.108,4.238-.03-4.238h1.619v6.996h-1.519l-3.208-4.377,.03,4.377h-1.619v-6.996Z" />
    <path
       id="path96"
       d="M279.668,125.257c0-1.52,1.159-2.669,2.688-2.669s2.688,1.149,2.688,2.669-1.159,2.668-2.688,2.668-2.688-1.149-2.688-2.668Zm3.798,0c0-.77-.46-1.319-1.109-1.319s-1.109,.549-1.109,1.319,.459,1.319,1.109,1.319,1.109-.549,1.109-1.319Z" />
    <path
       id="path98"
       d="M285.849,125.237c0-1.449,1.059-2.599,2.398-2.599,.54,0,1.03,.22,1.379,.62v-2.549l1.619-.25v7.366h-1.599v-.669c-.34,.43-.91,.699-1.519,.699-1.27,0-2.279-1.169-2.279-2.618Zm3.778,.869v-1.739c-.25-.26-.59-.4-.959-.4-.709,0-1.229,.54-1.229,1.279,0,.729,.53,1.27,1.229,1.27,.39,0,.709-.14,.959-.41Z" />
    <path
       id="path100"
       d="M292.278,125.257c0-1.509,1.119-2.669,2.599-2.669,1.489,0,2.539,1.129,2.539,2.729v.35h-3.548c.15,.58,.62,.969,1.209,.969,.43,0,.79-.15,1.02-.43l1.069,.89c-.669,.589-1.299,.83-2.169,.83-1.519,0-2.718-1.169-2.718-2.668Zm3.638-.51c-.14-.55-.529-.9-1.049-.9-.51,0-.87,.33-1,.9h2.049Z" />
  </g>
  <g
     id="g130">
    <path
       id="path104"
       d="M301.254,155.492h3.128c1.419,0,2.339,.89,2.339,2.179,0,1.259-.92,2.149-2.339,2.149h-1.929v2.668h-1.199v-6.996Zm2.938,3.348c.85,0,1.319-.47,1.319-1.179,0-.69-.47-1.16-1.31-1.16h-1.749v2.339h1.739Z" />
    <path
       id="path106"
       d="M307.224,159.99c0-1.479,1.079-2.589,2.519-2.589,1.43,0,2.509,1.109,2.509,2.589s-1.079,2.588-2.509,2.588c-1.439,0-2.519-1.109-2.519-2.588Zm3.918,0c0-.93-.59-1.629-1.399-1.629-.819,0-1.409,.7-1.409,1.629,0,.939,.59,1.629,1.409,1.629,.81,0,1.399-.689,1.399-1.629Z" />
    <path
       id="path108"
       d="M313.193,159.99c0-1.429,1.029-2.549,2.339-2.549,.569,0,1.089,.23,1.459,.65v-2.769l1.13-.2v7.366h-1.12v-.66c-.359,.45-.919,.709-1.549,.709-1.27,0-2.259-1.129-2.259-2.548Zm3.798,1.049v-2.109c-.29-.34-.72-.54-1.189-.54-.859,0-1.499,.68-1.499,1.599,0,.909,.64,1.599,1.499,1.599,.49,0,.899-.19,1.189-.55Z" />
    <path
       id="path110"
       d="M322.683,156.641l-1.239,.53v-.97l1.639-.709h.689v6.996h-1.089v-5.847Z" />
    <path
       id="path112"
       d="M291.119,172.039c0-2.049,.85-3.698,2.429-4.667l.59,.729c-1.289,.83-1.999,2.219-1.999,3.938,0,1.729,.71,3.118,1.999,3.948l-.59,.72c-1.579-.969-2.429-2.619-2.429-4.667Z"
       class="uuid-85b34dbc-a0a4-44dc-83bb-b075cfd7cff3" />
    <path
       id="path114"
       d="M295.269,169.481h1.13v1.08c.279-.76,.76-1.169,1.379-1.169,.19,.01,.32,.03,.49,.1v.989c-.181-.07-.41-.12-.62-.12-.55,0-.999,.31-1.249,.83v3.298h-1.13v-5.007Z"
       class="uuid-85b34dbc-a0a4-44dc-83bb-b075cfd7cff3" />
    <path
       id="path116"
       d="M299.108,172.779v-3.298h1.14v2.968c0,.74,.43,1.209,1.1,1.209,.45,0,.829-.2,1.09-.6v-3.578h1.129v5.007h-1.129v-.81c-.38,.59-.92,.89-1.59,.89-1.02,0-1.739-.74-1.739-1.789Z"
       class="uuid-85b34dbc-a0a4-44dc-83bb-b075cfd7cff3" />
    <path
       id="path118"
       d="M304.969,169.481h1.13v.82c.38-.59,.93-.9,1.579-.9,1.029,0,1.749,.73,1.749,1.789v3.298h-1.14v-2.979c0-.729-.43-1.199-1.1-1.199-.459,0-.829,.21-1.089,.61v3.568h-1.13v-5.007Z"
       class="uuid-85b34dbc-a0a4-44dc-83bb-b075cfd7cff3" />
    <path
       id="path120"
       d="M310.788,169.481h1.13v.82c.38-.59,.93-.9,1.579-.9,1.029,0,1.749,.73,1.749,1.789v3.298h-1.14v-2.979c0-.729-.43-1.199-1.1-1.199-.459,0-.829,.21-1.089,.61v3.568h-1.13v-5.007Z"
       class="uuid-85b34dbc-a0a4-44dc-83bb-b075cfd7cff3" />
    <path
       id="path122"
       d="M316.469,167.772c0-.38,.31-.7,.7-.7,.379,0,.699,.32,.699,.7s-.32,.689-.699,.689c-.391,0-.7-.31-.7-.689Zm.13,1.709h1.13v5.007h-1.13v-5.007Z"
       class="uuid-85b34dbc-a0a4-44dc-83bb-b075cfd7cff3" />
    <path
       id="path124"
       d="M319.128,169.481h1.13v.82c.38-.59,.93-.9,1.579-.9,1.029,0,1.749,.73,1.749,1.789v3.298h-1.14v-2.979c0-.729-.43-1.199-1.1-1.199-.459,0-.829,.21-1.089,.61v3.568h-1.13v-5.007Z"
       class="uuid-85b34dbc-a0a4-44dc-83bb-b075cfd7cff3" />
    <path
       id="path126"
       d="M325.278,176.187l.39-.83c.59,.29,1.069,.419,1.569,.419,.84,0,1.279-.379,1.279-1.109v-.849c-.359,.439-.909,.699-1.539,.699-1.27,0-2.259-1.129-2.259-2.548s1.029-2.529,2.339-2.529c.579,0,1.1,.23,1.469,.67v-.63h1.12v5.187c0,1.29-.84,2.009-2.359,2.009-.72,0-1.419-.18-2.009-.49Zm3.238-3.158v-2.099c-.29-.34-.72-.54-1.189-.54-.859,0-1.499,.669-1.499,1.589,0,.91,.64,1.599,1.499,1.599,.49,0,.899-.2,1.189-.549Z"
       class="uuid-85b34dbc-a0a4-44dc-83bb-b075cfd7cff3" />
    <path
       id="path128"
       d="M333.787,172.05c0,2.049-.85,3.698-2.429,4.667l-.59-.73c1.289-.83,1.999-2.219,1.999-3.938,0-1.729-.71-3.119-1.999-3.948l.59-.719c1.579,.969,2.429,2.619,2.429,4.667Z"
       class="uuid-85b34dbc-a0a4-44dc-83bb-b075cfd7cff3" />
  </g>
  <g
     id="g156">
    <path
       id="path132"
       d="M391.747,155.492h3.128c1.419,0,2.339,.89,2.339,2.179,0,1.259-.92,2.149-2.339,2.149h-1.929v2.668h-1.199v-6.996Zm2.938,3.348c.85,0,1.319-.47,1.319-1.179,0-.69-.47-1.16-1.31-1.16h-1.749v2.339h1.739Z" />
    <path
       id="path134"
       d="M397.717,159.99c0-1.479,1.079-2.589,2.519-2.589,1.43,0,2.509,1.109,2.509,2.589s-1.079,2.588-2.509,2.588c-1.439,0-2.519-1.109-2.519-2.588Zm3.918,0c0-.93-.59-1.629-1.399-1.629-.819,0-1.409,.7-1.409,1.629,0,.939,.59,1.629,1.409,1.629,.81,0,1.399-.689,1.399-1.629Z" />
    <path
       id="path136"
       d="M403.687,159.99c0-1.429,1.029-2.549,2.339-2.549,.569,0,1.089,.23,1.459,.65v-2.769l1.13-.2v7.366h-1.12v-.66c-.359,.45-.919,.709-1.549,.709-1.27,0-2.259-1.129-2.259-2.548Zm3.798,1.049v-2.109c-.29-.34-.72-.54-1.189-.54-.859,0-1.499,.68-1.499,1.599,0,.909,.64,1.599,1.499,1.599,.49,0,.899-.19,1.189-.55Z" />
    <path
       id="path138"
       d="M412.076,161.699l2.868-2.999c.51-.54,.68-.889,.68-1.339,0-.58-.539-1.02-1.27-1.02-.649,0-1.149,.229-1.818,.85l-.62-.75c.77-.709,1.579-1.059,2.459-1.059,1.369,0,2.309,.779,2.309,1.919,0,.68-.24,1.169-.989,1.959l-2.229,2.298,3.348-.01v.939h-4.737v-.79Z" />
    <path
       id="path140"
       d="M386.071,172.039c0-2.049,.85-3.698,2.429-4.667l.59,.729c-1.289,.83-1.999,2.219-1.999,3.938,0,1.729,.71,3.118,1.999,3.948l-.59,.72c-1.579-.969-2.429-2.619-2.429-4.667Z"
       class="uuid-aa48b7de-eace-450e-b32c-7ba0f7ac9887" />
    <path
       id="path142"
       d="M389.941,171.99c0-1.469,1.06-2.589,2.438-2.589,1.369,0,2.369,1.089,2.369,2.589v.27h-3.698c.11,.81,.72,1.399,1.499,1.399,.47,0,.91-.18,1.189-.47l.739,.669c-.609,.51-1.219,.73-1.979,.73-1.439,0-2.559-1.129-2.559-2.599Zm3.738-.43c-.12-.73-.64-1.239-1.31-1.239-.68,0-1.18,.49-1.31,1.239h2.619Z"
       class="uuid-aa48b7de-eace-450e-b32c-7ba0f7ac9887" />
    <path
       id="path144"
       d="M396.891,171.91l-1.809-2.429h1.329l1.169,1.649,1.17-1.649h1.269l-1.828,2.458,1.908,2.549h-1.319l-1.259-1.749-1.26,1.749h-1.259l1.889-2.579Z"
       class="uuid-aa48b7de-eace-450e-b32c-7ba0f7ac9887" />
    <path
       id="path146"
       d="M400.781,167.772c0-.38,.31-.7,.7-.7,.379,0,.699,.32,.699,.7s-.32,.689-.699,.689c-.391,0-.7-.31-.7-.689Zm.13,1.709h1.13v5.007h-1.13v-5.007Z"
       class="uuid-aa48b7de-eace-450e-b32c-7ba0f7ac9887" />
    <path
       id="path148"
       d="M404.062,173.189v-2.809h-1v-.899h1v-1.379l1.129-.24v1.619h1.39v.899h-1.39v2.559c0,.49,.19,.68,.7,.68,.22,0,.38-.03,.68-.12v.949c-.29,.09-.67,.14-.97,.14-1.01,0-1.539-.48-1.539-1.399Z"
       class="uuid-aa48b7de-eace-450e-b32c-7ba0f7ac9887" />
    <path
       id="path150"
       d="M407.271,171.99c0-1.469,1.06-2.589,2.438-2.589,1.369,0,2.369,1.089,2.369,2.589v.27h-3.698c.11,.81,.72,1.399,1.499,1.399,.47,0,.91-.18,1.189-.47l.739,.669c-.609,.51-1.219,.73-1.979,.73-1.439,0-2.559-1.129-2.559-2.599Zm3.738-.43c-.12-.73-.64-1.239-1.31-1.239-.68,0-1.18,.49-1.31,1.239h2.619Z"
       class="uuid-aa48b7de-eace-450e-b32c-7ba0f7ac9887" />
    <path
       id="path152"
       d="M413.021,171.99c0-1.429,1.029-2.549,2.339-2.549,.569,0,1.089,.23,1.459,.65v-2.769l1.13-.2v7.366h-1.12v-.66c-.359,.45-.919,.709-1.549,.709-1.27,0-2.259-1.129-2.259-2.548Zm3.798,1.049v-2.109c-.29-.34-.72-.54-1.189-.54-.859,0-1.499,.68-1.499,1.599,0,.909,.64,1.599,1.499,1.599,.49,0,.899-.19,1.189-.55Z"
       class="uuid-aa48b7de-eace-450e-b32c-7ba0f7ac9887" />
    <path
       id="path154"
       d="M422.1,172.05c0,2.049-.85,3.698-2.429,4.667l-.59-.73c1.289-.83,1.999-2.219,1.999-3.938,0-1.729-.71-3.119-1.999-3.948l.59-.719c1.579,.969,2.429,2.619,2.429,4.667Z"
       class="uuid-aa48b7de-eace-450e-b32c-7ba0f7ac9887" />
  </g>
  <g
     id="g170">
    <rect
       id="rect158"
       height="58.568"
       width="82.129"
       y="17.558"
       x="317.047"
       class="uuid-b120d2f9-1a6c-4576-bcc7-99f2efd73c4e" />
    <g
       id="g168">
      <path
         id="path160"
         d="M345.687,42.53h1.619l3.108,4.238-.03-4.238h1.619v6.996h-1.519l-3.209-4.377,.03,4.377h-1.619v-6.996Z" />
      <path
         id="path162"
         d="M353.187,46.958c0-1.52,1.159-2.669,2.688-2.669s2.688,1.149,2.688,2.669-1.159,2.668-2.688,2.668-2.688-1.149-2.688-2.668Zm3.798,0c0-.77-.46-1.319-1.109-1.319s-1.109,.549-1.109,1.319,.46,1.319,1.109,1.319,1.109-.549,1.109-1.319Z" />
      <path
         id="path164"
         d="M359.367,46.938c0-1.449,1.059-2.599,2.398-2.599,.54,0,1.029,.22,1.379,.62v-2.549l1.619-.25v7.366h-1.599v-.669c-.34,.43-.91,.699-1.52,.699-1.27,0-2.278-1.169-2.278-2.618Zm3.777,.869v-1.739c-.25-.26-.59-.4-.959-.4-.71,0-1.229,.54-1.229,1.279,0,.729,.529,1.27,1.229,1.27,.39,0,.709-.14,.959-.41Z" />
      <path
         id="path166"
         d="M365.797,46.958c0-1.509,1.119-2.669,2.599-2.669,1.488,0,2.538,1.129,2.538,2.729v.35h-3.548c.149,.58,.619,.969,1.209,.969,.43,0,.79-.15,1.02-.43l1.069,.89c-.669,.589-1.299,.83-2.169,.83-1.519,0-2.718-1.169-2.718-2.668Zm3.638-.51c-.14-.55-.529-.9-1.05-.9-.51,0-.869,.33-.999,.9h2.049Z" />
    </g>
  </g>
  <g
     id="g180">
    <line
       id="line172"
       y2="46.841"
       x2="164.386"
       y1="46.841"
       x1="162.886"
       class="uuid-a9b75941-b435-4ae9-a805-085d6f0141bd" />
    <line
       id="line174"
       y2="46.841"
       x2="308.678"
       y1="46.841"
       x1="167.361"
       class="uuid-dab6b00c-8acb-40df-95cf-53257c5e5db7" />
    <line
       id="line176"
       y2="46.841"
       x2="311.665"
       y1="46.841"
       x1="310.165"
       class="uuid-a9b75941-b435-4ae9-a805-085d6f0141bd" />
    <polygon
       id="polygon178"
       points="310.571 50.581 317.047 46.841 310.571 43.102 310.571 50.581" />
  </g>
  <g
     id="g190">
    <line
       id="line182"
       y2="206.361"
       x2="358.112"
       y1="204.861"
       x1="358.112"
       class="uuid-e5dcd9fa-9e20-48f8-a815-d7257eac095f" />
    <line
       id="line184"
       y2="229.217"
       x2="358.112"
       y1="209.05"
       x1="358.112"
       class="uuid-344f86f8-0faf-46f0-b25f-69de9479abec" />
    <line
       id="line186"
       y2="232.061"
       x2="358.112"
       y1="230.561"
       x1="358.112"
       class="uuid-e5dcd9fa-9e20-48f8-a815-d7257eac095f" />
    <polygon
       id="polygon188"
       points="354.372 230.967 358.112 237.443 361.852 230.967 354.372 230.967" />
  </g>
  <g
     id="g200">
    <line
       id="line192"
       y2="294.454"
       x2="456.917"
       y1="294.454"
       x1="455.417"
       class="uuid-daabd439-83eb-44e5-9e33-ca9a869cbb91" />
    <line
       id="line194"
       y2="294.454"
       x2="480.368"
       y1="294.454"
       x1="459.676"
       class="uuid-db9fb4e8-4ecc-41d6-b3f2-f9bafcd8d760" />
    <line
       id="line196"
       y2="294.454"
       x2="483.247"
       y1="294.454"
       x1="481.747"
       class="uuid-daabd439-83eb-44e5-9e33-ca9a869cbb91" />
    <polygon
       id="polygon198"
       points="482.153 298.193 488.629 294.454 482.153 290.714 482.153 298.193"
       class="uuid-a4639e35-4c75-464c-b5a4-499e435626a0" />
  </g>
  <g
     id="g208">
    <line
       id="line202"
       y2="294.454"
       x2="446.651"
       y1="294.454"
       x1="445.151"
       class="uuid-418c5042-a55a-4b5c-9948-34c66b0f6016" />
    <line
       id="line204"
       y2="294.454"
       x2="452.706"
       y1="294.454"
       x1="449.073"
       class="uuid-35d4e25a-c755-41db-82eb-1e45fb479bbe" />
    <line
       id="line206"
       y2="294.454"
       x2="455.417"
       y1="294.454"
       x1="453.917"
       class="uuid-418c5042-a55a-4b5c-9948-34c66b0f6016" />
  </g>
  <line
     id="line210"
     y2="108.708"
     x2="219.126"
     y1="76.125"
     x1="162.886"
     class="uuid-87ddd0a1-8671-4c14-b95c-0ab42e52f16b" />
  <line
     id="line212"
     y2="108.708"
     x2="260.807"
     y1="76.125"
     x1="317.047"
     class="uuid-87ddd0a1-8671-4c14-b95c-0ab42e52f16b" />
  <line
     id="line214"
     y2="108.708"
     x2="24.517"
     y1="76.125"
     x1="80.757"
     class="uuid-87ddd0a1-8671-4c14-b95c-0ab42e52f16b" />
  <line
     id="line216"
     y2="108.708"
     x2="455.417"
     y1="76.125"
     x1="399.177"
     class="uuid-87ddd0a1-8671-4c14-b95c-0ab42e52f16b" />
  <g
     id="g250">
    <path
       id="path218"
       d="M83.46,95.716h2.305c1.81,0,3.16,1.377,3.16,3.151s-1.35,3.151-3.16,3.151h-2.305v-6.302Zm2.332,5.366c1.134,0,2.026-.963,2.026-2.215s-.892-2.215-2.026-2.215h-1.251v4.43h1.251Z" />
    <path
       id="path220"
       d="M89.805,99.767c0-1.324,.954-2.332,2.196-2.332,1.233,0,2.134,.981,2.134,2.332v.243h-3.331c.099,.729,.648,1.261,1.351,1.261,.423,0,.819-.162,1.071-.423l.666,.603c-.549,.459-1.098,.657-1.782,.657-1.296,0-2.305-1.017-2.305-2.34Zm3.367-.387c-.108-.657-.576-1.116-1.179-1.116-.612,0-1.062,.441-1.179,1.116h2.358Z" />
    <path
       id="path222"
       d="M95.646,98.317h-.972v-.81h.972v-.774c0-.981,.549-1.512,1.558-1.512,.252,0,.504,.027,.675,.081v.864c-.225-.045-.36-.063-.54-.063-.468,0-.675,.207-.675,.648v.756h1.215v.81h-1.215v3.7h-1.018v-3.7Z" />
    <path
       id="path224"
       d="M98.607,95.968c0-.342,.279-.63,.63-.63,.342,0,.63,.288,.63,.63s-.288,.621-.63,.621c-.351,0-.63-.279-.63-.621Zm.117,1.54h1.018v4.51h-1.018v-4.51Z" />
    <path
       id="path226"
       d="M101.001,97.507h1.017v.738c.342-.531,.837-.811,1.422-.811,.927,0,1.576,.657,1.576,1.612v2.971h-1.026v-2.683c0-.657-.387-1.081-.99-1.081-.414,0-.748,.189-.981,.549v3.214h-1.017v-4.51Z" />
    <path
       id="path228"
       d="M106.113,95.968c0-.342,.279-.63,.63-.63,.342,0,.63,.288,.63,.63s-.288,.621-.63,.621c-.351,0-.63-.279-.63-.621Zm.117,1.54h1.018v4.51h-1.018v-4.51Z" />
    <path
       id="path230"
       d="M109.065,100.847v-2.53h-.9v-.81h.9v-1.243l1.017-.216v1.458h1.251v.81h-1.251v2.305c0,.441,.171,.612,.63,.612,.198,0,.342-.027,.612-.108v.855c-.261,.081-.604,.126-.874,.126-.909,0-1.386-.432-1.386-1.26Z" />
    <path
       id="path232"
       d="M112.107,95.968c0-.342,.279-.63,.63-.63,.342,0,.63,.288,.63,.63s-.288,.621-.63,.621c-.351,0-.63-.279-.63-.621Zm.117,1.54h1.018v4.51h-1.018v-4.51Z" />
    <path
       id="path234"
       d="M114.294,99.767c0-1.333,.972-2.332,2.269-2.332,1.287,0,2.26,1,2.26,2.332s-.973,2.332-2.26,2.332c-1.296,0-2.269-1-2.269-2.332Zm3.529,0c0-.837-.531-1.468-1.26-1.468-.738,0-1.27,.63-1.27,1.468,0,.846,.531,1.467,1.27,1.467,.729,0,1.26-.621,1.26-1.467Z" />
    <path
       id="path236"
       d="M119.874,97.507h1.017v.738c.342-.531,.837-.811,1.422-.811,.927,0,1.576,.657,1.576,1.612v2.971h-1.026v-2.683c0-.657-.387-1.081-.99-1.081-.414,0-.748,.189-.981,.549v3.214h-1.017v-4.51Z" />
    <path
       id="path238"
       d="M126.93,99.767c0-1.333,.972-2.332,2.269-2.332,1.287,0,2.26,1,2.26,2.332s-.973,2.332-2.26,2.332c-1.296,0-2.269-1-2.269-2.332Zm3.529,0c0-.837-.531-1.468-1.26-1.468-.738,0-1.27,.63-1.27,1.468,0,.846,.531,1.467,1.27,1.467,.729,0,1.26-.621,1.26-1.467Z" />
    <path
       id="path240"
       d="M132.915,98.317h-.972v-.81h.972v-.774c0-.981,.549-1.512,1.558-1.512,.252,0,.504,.027,.675,.081v.864c-.225-.045-.36-.063-.54-.063-.468,0-.675,.207-.675,.648v.756h1.215v.81h-1.215v3.7h-1.018v-3.7Z" />
    <path
       id="path242"
       d="M137.792,100.721c0-.81,.667-1.323,1.729-1.323,.423,0,.819,.09,1.215,.288v-.504c0-.594-.342-.9-1.035-.9-.378,0-.792,.108-1.314,.351l-.36-.738c.675-.306,1.269-.459,1.873-.459,1.179,0,1.845,.594,1.845,1.639v2.944h-1.008v-.468c-.387,.378-.819,.549-1.341,.549-.945,0-1.603-.567-1.603-1.377Zm1.882,.657c.405,0,.756-.117,1.062-.378v-.729c-.324-.153-.648-.216-1.035-.216-.585,0-.954,.243-.954,.648,0,.414,.36,.675,.927,.675Z" />
    <path
       id="path244"
       d="M145.127,95.716h2.818c1.278,0,2.106,.801,2.106,1.962,0,1.134-.828,1.936-2.106,1.936h-1.738v2.404h-1.08v-6.302Zm2.646,3.016c.766,0,1.188-.423,1.188-1.062,0-.621-.423-1.044-1.179-1.044h-1.576v2.106h1.566Z" />
    <path
       id="path246"
       d="M150.5,99.767c0-1.333,.972-2.332,2.269-2.332,1.287,0,2.26,1,2.26,2.332s-.973,2.332-2.26,2.332c-1.296,0-2.269-1-2.269-2.332Zm3.529,0c0-.837-.531-1.468-1.26-1.468-.738,0-1.27,.63-1.27,1.468,0,.846,.531,1.467,1.27,1.467,.729,0,1.26-.621,1.26-1.467Z" />
    <path
       id="path248"
       d="M155.873,99.767c0-1.288,.927-2.296,2.106-2.296,.513,0,.981,.207,1.314,.585v-2.494l1.017-.18v6.635h-1.008v-.594c-.324,.405-.828,.639-1.396,.639-1.143,0-2.034-1.017-2.034-2.295Zm3.421,.945v-1.9c-.261-.306-.648-.486-1.071-.486-.774,0-1.351,.612-1.351,1.44,0,.819,.576,1.44,1.351,1.44,.441,0,.81-.171,1.071-.495Z" />
  </g>
  <g
     id="g288">
    <path
       id="path252"
       d="M315.976,95.716h2.817c1.278,0,2.106,.801,2.106,1.962,0,1.134-.828,1.936-2.106,1.936h-1.737v2.404h-1.08v-6.302Zm2.646,3.016c.766,0,1.188-.423,1.188-1.062,0-.621-.423-1.044-1.18-1.044h-1.575v2.106h1.566Z" />
    <path
       id="path254"
       d="M321.349,99.767c0-1.333,.972-2.332,2.269-2.332,1.287,0,2.26,1,2.26,2.332s-.973,2.332-2.26,2.332c-1.297,0-2.269-1-2.269-2.332Zm3.528,0c0-.837-.531-1.468-1.26-1.468-.738,0-1.27,.63-1.27,1.468,0,.846,.531,1.467,1.27,1.467,.729,0,1.26-.621,1.26-1.467Z" />
    <path
       id="path256"
       d="M326.721,99.767c0-1.288,.928-2.296,2.106-2.296,.514,0,.981,.207,1.314,.585v-2.494l1.018-.18v6.635h-1.009v-.594c-.323,.405-.828,.639-1.396,.639-1.143,0-2.034-1.017-2.034-2.295Zm3.421,.945v-1.9c-.261-.306-.648-.486-1.071-.486-.774,0-1.351,.612-1.351,1.44,0,.819,.576,1.44,1.351,1.44,.441,0,.811-.171,1.071-.495Z" />
    <path
       id="path258"
       d="M334.443,97.507h1.017v.972c.252-.684,.685-1.053,1.242-1.053,.172,.009,.288,.027,.441,.09v.892c-.162-.063-.369-.108-.558-.108-.495,0-.9,.279-1.126,.748v2.971h-1.017v-4.51Z" />
    <path
       id="path260"
       d="M337.898,100.478v-2.971h1.026v2.674c0,.666,.388,1.089,.99,1.089,.405,0,.747-.18,.981-.541v-3.223h1.018v4.51h-1.018v-.729c-.342,.531-.828,.801-1.432,.801-.918,0-1.566-.666-1.566-1.611Z" />
    <path
       id="path262"
       d="M343.173,97.507h1.017v.738c.343-.531,.838-.811,1.423-.811,.927,0,1.575,.657,1.575,1.612v2.971h-1.026v-2.683c0-.657-.387-1.081-.99-1.081-.414,0-.747,.189-.981,.549v3.214h-1.017v-4.51Z" />
    <path
       id="path264"
       d="M348.005,101.495l.478-.675c.594,.369,.99,.513,1.449,.513,.54,0,.909-.252,.909-.612,0-.279-.188-.423-.63-.513l-.792-.135c-.883-.162-1.306-.567-1.306-1.242,0-.846,.693-1.396,1.746-1.396,.631,0,1.197,.18,1.773,.541l-.477,.675c-.459-.297-.9-.432-1.359-.432-.469,0-.774,.198-.774,.522,0,.288,.162,.414,.63,.495l.802,.153c.9,.162,1.332,.576,1.332,1.251,0,.828-.792,1.467-1.846,1.467-.774,0-1.458-.216-1.936-.612Z" />
    <path
       id="path266"
       d="M354.71,100.478v-2.971h1.026v2.674c0,.666,.388,1.089,.99,1.089,.405,0,.747-.18,.981-.541v-3.223h1.018v4.51h-1.018v-.729c-.342,.531-.828,.801-1.432,.801-.918,0-1.566-.666-1.566-1.611Z" />
    <path
       id="path268"
       d="M359.984,97.507h1.017v.738c.343-.531,.838-.811,1.423-.811,.927,0,1.575,.657,1.575,1.612v2.971h-1.026v-2.683c0-.657-.387-1.081-.99-1.081-.414,0-.747,.189-.981,.549v3.214h-1.017v-4.51Z" />
    <path
       id="path270"
       d="M365.646,100.847v-2.53h-.9v-.81h.9v-1.243l1.017-.216v1.458h1.252v.81h-1.252v2.305c0,.441,.172,.612,.631,.612,.197,0,.342-.027,.612-.108v.855c-.262,.081-.604,.126-.874,.126-.909,0-1.386-.432-1.386-1.26Z" />
    <path
       id="path272"
       d="M368.688,95.968c0-.342,.278-.63,.63-.63,.342,0,.63,.288,.63,.63s-.288,.621-.63,.621c-.352,0-.63-.279-.63-.621Zm.116,1.54h1.018v4.51h-1.018v-4.51Z" />
    <path
       id="path274"
       d="M371.081,95.562l1.018-.18v6.635h-1.018v-6.455Z" />
    <path
       id="path276"
       d="M375.167,99.767c0-1.324,.954-2.332,2.196-2.332,1.233,0,2.134,.981,2.134,2.332v.243h-3.331c.099,.729,.648,1.261,1.351,1.261,.423,0,.819-.162,1.071-.423l.666,.603c-.549,.459-1.099,.657-1.782,.657-1.297,0-2.305-1.017-2.305-2.34Zm3.366-.387c-.107-.657-.576-1.116-1.179-1.116-.612,0-1.062,.441-1.18,1.116h2.358Z" />
    <path
       id="path278"
       d="M381.422,99.695l-1.629-2.188h1.197l1.053,1.485,1.054-1.485h1.144l-1.647,2.214,1.719,2.296h-1.188l-1.135-1.576-1.135,1.576h-1.134l1.701-2.323Z" />
    <path
       id="path280"
       d="M384.923,95.968c0-.342,.279-.63,.63-.63,.343,0,.631,.288,.631,.63s-.288,.621-.631,.621c-.351,0-.63-.279-.63-.621Zm.117,1.54h1.018v4.51h-1.018v-4.51Z" />
    <path
       id="path282"
       d="M387.875,100.847v-2.53h-.9v-.81h.9v-1.243l1.018-.216v1.458h1.251v.81h-1.251v2.305c0,.441,.171,.612,.63,.612,.198,0,.342-.027,.612-.108v.855c-.261,.081-.604,.126-.873,.126-.909,0-1.387-.432-1.387-1.26Z" />
    <path
       id="path284"
       d="M390.764,99.767c0-1.324,.954-2.332,2.196-2.332,1.233,0,2.134,.981,2.134,2.332v.243h-3.331c.1,.729,.648,1.261,1.351,1.261,.423,0,.819-.162,1.071-.423l.666,.603c-.549,.459-1.098,.657-1.782,.657-1.296,0-2.305-1.017-2.305-2.34Zm3.367-.387c-.108-.657-.576-1.116-1.18-1.116-.612,0-1.062,.441-1.179,1.116h2.358Z" />
    <path
       id="path286"
       d="M395.938,99.767c0-1.288,.928-2.296,2.106-2.296,.514,0,.981,.207,1.314,.585v-2.494l1.018-.18v6.635h-1.009v-.594c-.323,.405-.828,.639-1.396,.639-1.143,0-2.034-1.017-2.034-2.295Zm3.421,.945v-1.9c-.261-.306-.648-.486-1.071-.486-.774,0-1.351,.612-1.351,1.44,0,.819,.576,1.44,1.351,1.44,.441,0,.811-.171,1.071-.495Z" />
  </g>
  <g
     id="g326">
    <path
       id="path290"
       d="M307.461,341.968h2.818c1.278,0,2.106,.801,2.106,1.962,0,1.134-.828,1.936-2.106,1.936h-1.738v2.404h-1.08v-6.302Zm2.646,3.016c.766,0,1.188-.423,1.188-1.062,0-.621-.423-1.044-1.179-1.044h-1.576v2.106h1.566Z" />
    <path
       id="path292"
       d="M312.834,346.019c0-1.333,.973-2.332,2.269-2.332,1.287,0,2.26,1,2.26,2.332s-.973,2.332-2.26,2.332c-1.296,0-2.269-1-2.269-2.332Zm3.529,0c0-.837-.531-1.468-1.261-1.468-.738,0-1.27,.63-1.27,1.468,0,.846,.531,1.467,1.27,1.467,.729,0,1.261-.621,1.261-1.467Z" />
    <path
       id="path294"
       d="M318.207,346.019c0-1.288,.927-2.296,2.106-2.296,.513,0,.981,.207,1.314,.585v-2.494l1.017-.18v6.635h-1.008v-.594c-.324,.405-.828,.639-1.396,.639-1.144,0-2.034-1.017-2.034-2.295Zm3.421,.945v-1.9c-.262-.306-.648-.486-1.071-.486-.774,0-1.351,.612-1.351,1.44,0,.819,.576,1.44,1.351,1.44,.44,0,.81-.171,1.071-.495Z" />
    <path
       id="path296"
       d="M325.929,343.76h1.018v.972c.252-.684,.684-1.053,1.242-1.053,.171,.009,.288,.027,.441,.09v.892c-.162-.063-.369-.108-.559-.108-.495,0-.9,.279-1.125,.748v2.971h-1.018v-4.51Z" />
    <path
       id="path298"
       d="M329.052,346.019c0-1.324,.954-2.332,2.196-2.332,1.233,0,2.134,.981,2.134,2.332v.243h-3.331c.099,.729,.648,1.261,1.351,1.261,.423,0,.819-.162,1.071-.423l.666,.603c-.549,.459-1.099,.657-1.782,.657-1.297,0-2.305-1.017-2.305-2.34Zm3.366-.387c-.107-.657-.576-1.116-1.179-1.116-.612,0-1.062,.441-1.18,1.116h2.358Z" />
    <path
       id="path300"
       d="M334.416,343.76h1.017v.711c.333-.513,.783-.783,1.333-.783,.621,0,1.098,.333,1.332,.864,.352-.567,.855-.864,1.494-.864,.874,0,1.477,.675,1.477,1.63v2.953h-1.017v-2.728c0-.63-.352-1.035-.91-1.035-.369,0-.675,.171-.899,.54,.009,.09,.018,.18,.018,.271v2.953h-1.026v-2.728c0-.63-.351-1.035-.909-1.035-.369,0-.666,.171-.892,.522v3.241h-1.017v-4.51Z" />
    <path
       id="path302"
       d="M342.093,346.019c0-1.333,.972-2.332,2.269-2.332,1.287,0,2.26,1,2.26,2.332s-.973,2.332-2.26,2.332c-1.297,0-2.269-1-2.269-2.332Zm3.528,0c0-.837-.531-1.468-1.26-1.468-.738,0-1.27,.63-1.27,1.468,0,.846,.531,1.467,1.27,1.467,.729,0,1.26-.621,1.26-1.467Z" />
    <path
       id="path304"
       d="M347.006,343.76h1.107l1.261,3.277,1.251-3.277h1.062l-1.854,4.51h-.99l-1.837-4.51Z" />
    <path
       id="path306"
       d="M352.073,346.019c0-1.324,.954-2.332,2.196-2.332,1.233,0,2.134,.981,2.134,2.332v.243h-3.331c.1,.729,.648,1.261,1.351,1.261,.423,0,.819-.162,1.071-.423l.666,.603c-.549,.459-1.098,.657-1.782,.657-1.296,0-2.305-1.017-2.305-2.34Zm3.367-.387c-.108-.657-.576-1.116-1.18-1.116-.612,0-1.062,.441-1.179,1.116h2.358Z" />
    <path
       id="path308"
       d="M357.248,346.019c0-1.288,.928-2.296,2.106-2.296,.514,0,.981,.207,1.314,.585v-2.494l1.018-.18v6.635h-1.009v-.594c-.323,.405-.828,.639-1.396,.639-1.143,0-2.034-1.017-2.034-2.295Zm3.421,.945v-1.9c-.261-.306-.648-.486-1.071-.486-.774,0-1.351,.612-1.351,1.44,0,.819,.576,1.44,1.351,1.44,.441,0,.811-.171,1.071-.495Z" />
    <path
       id="path310"
       d="M365.582,344.57h-.973v-.81h.973v-.774c0-.981,.549-1.512,1.558-1.512,.252,0,.504,.027,.675,.081v.864c-.225-.045-.36-.063-.54-.063-.468,0-.675,.207-.675,.648v.756h1.215v.81h-1.215v3.7h-1.018v-3.7Z" />
    <path
       id="path312"
       d="M368.669,343.76h1.018v.972c.252-.684,.684-1.053,1.242-1.053,.171,.009,.288,.027,.441,.09v.892c-.162-.063-.369-.108-.559-.108-.495,0-.9,.279-1.125,.748v2.971h-1.018v-4.51Z" />
    <path
       id="path314"
       d="M371.792,346.019c0-1.333,.973-2.332,2.269-2.332,1.287,0,2.26,1,2.26,2.332s-.973,2.332-2.26,2.332c-1.296,0-2.269-1-2.269-2.332Zm3.529,0c0-.837-.531-1.468-1.261-1.468-.738,0-1.27,.63-1.27,1.468,0,.846,.531,1.467,1.27,1.467,.729,0,1.261-.621,1.261-1.467Z" />
    <path
       id="path316"
       d="M377.372,343.76h1.017v.711c.333-.513,.783-.783,1.333-.783,.621,0,1.098,.333,1.332,.864,.352-.567,.855-.864,1.494-.864,.874,0,1.477,.675,1.477,1.63v2.953h-1.017v-2.728c0-.63-.352-1.035-.91-1.035-.369,0-.675,.171-.899,.54,.009,.09,.018,.18,.018,.271v2.953h-1.026v-2.728c0-.63-.351-1.035-.909-1.035-.369,0-.666,.171-.892,.522v3.241h-1.017v-4.51Z" />
    <path
       id="path318"
       d="M387.407,341.968h1.053l3.286,4.582-.018-4.582h1.017v6.302h-.963l-3.376-4.708,.018,4.708h-1.017v-6.302Z" />
    <path
       id="path320"
       d="M393.923,346.019c0-1.333,.972-2.332,2.269-2.332,1.287,0,2.26,1,2.26,2.332s-.973,2.332-2.26,2.332c-1.297,0-2.269-1-2.269-2.332Zm3.528,0c0-.837-.531-1.468-1.26-1.468-.738,0-1.27,.63-1.27,1.468,0,.846,.531,1.467,1.27,1.467,.729,0,1.26-.621,1.26-1.467Z" />
    <path
       id="path322"
       d="M399.296,346.019c0-1.288,.927-2.296,2.106-2.296,.513,0,.981,.207,1.314,.585v-2.494l1.017-.18v6.635h-1.008v-.594c-.324,.405-.828,.639-1.396,.639-1.144,0-2.034-1.017-2.034-2.295Zm3.421,.945v-1.9c-.262-.306-.648-.486-1.071-.486-.774,0-1.351,.612-1.351,1.44,0,.819,.576,1.44,1.351,1.44,.44,0,.81-.171,1.071-.495Z" />
    <path
       id="path324"
       d="M404.785,346.019c0-1.324,.954-2.332,2.196-2.332,1.233,0,2.134,.981,2.134,2.332v.243h-3.331c.1,.729,.648,1.261,1.351,1.261,.423,0,.819-.162,1.071-.423l.666,.603c-.549,.459-1.098,.657-1.782,.657-1.296,0-2.305-1.017-2.305-2.34Zm3.367-.387c-.108-.657-.576-1.116-1.18-1.116-.612,0-1.062,.441-1.179,1.116h2.358Z" />
  </g>
  <rect
     id="rect328"
     height="58.568"
     width="82.129"
     y="265.17"
     x="488.629"
     class="uuid-a2175093-4710-486a-b8b9-98f08ea14366" />
  <g
     id="g338">
    <path
       id="path330"
       d="M272.168,249.565h1.619l3.108,4.238-.03-4.238h1.619v6.996h-1.519l-3.208-4.377,.03,4.377h-1.619v-6.996Z" />
    <path
       id="path332"
       d="M279.668,253.993c0-1.52,1.159-2.669,2.688-2.669s2.688,1.149,2.688,2.669-1.159,2.668-2.688,2.668-2.688-1.149-2.688-2.668Zm3.798,0c0-.77-.46-1.319-1.109-1.319s-1.109,.549-1.109,1.319,.459,1.319,1.109,1.319,1.109-.549,1.109-1.319Z" />
    <path
       id="path334"
       d="M285.849,253.973c0-1.449,1.059-2.599,2.398-2.599,.54,0,1.03,.22,1.379,.62v-2.549l1.619-.25v7.366h-1.599v-.669c-.34,.43-.91,.699-1.519,.699-1.27,0-2.279-1.169-2.279-2.618Zm3.778,.869v-1.739c-.25-.26-.59-.4-.959-.4-.709,0-1.229,.54-1.229,1.279,0,.729,.53,1.27,1.229,1.27,.39,0,.709-.14,.959-.41Z" />
    <path
       id="path336"
       d="M292.278,253.993c0-1.509,1.119-2.669,2.599-2.669,1.489,0,2.539,1.129,2.539,2.729v.35h-3.548c.15,.58,.62,.969,1.209,.969,.43,0,.79-.15,1.02-.43l1.069,.89c-.669,.589-1.299,.83-2.169,.83-1.519,0-2.718-1.169-2.718-2.668Zm3.638-.51c-.14-.55-.529-.9-1.049-.9-.51,0-.87,.33-1,.9h2.049Z" />
  </g>
  <g
     id="g370">
    <rect
       id="rect340"
       height="58.568"
       width="82.129"
       y="265.17"
       x="271.389"
       class="uuid-c71a4db0-1ff6-4b5a-9b3d-3eb7e44b414b" />
    <g
       id="g368">
      <path
         id="path342"
         d="M301.254,284.227h3.128c1.419,0,2.339,.89,2.339,2.179,0,1.259-.92,2.149-2.339,2.149h-1.929v2.668h-1.199v-6.996Zm2.938,3.348c.85,0,1.319-.47,1.319-1.179,0-.69-.47-1.16-1.31-1.16h-1.749v2.339h1.739Z" />
      <path
         id="path344"
         d="M307.224,288.725c0-1.479,1.079-2.589,2.519-2.589,1.43,0,2.509,1.109,2.509,2.589s-1.079,2.588-2.509,2.588c-1.439,0-2.519-1.109-2.519-2.588Zm3.918,0c0-.93-.59-1.629-1.399-1.629-.819,0-1.409,.7-1.409,1.629,0,.939,.59,1.629,1.409,1.629,.81,0,1.399-.689,1.399-1.629Z" />
      <path
         id="path346"
         d="M313.193,288.725c0-1.429,1.029-2.549,2.339-2.549,.569,0,1.089,.23,1.459,.65v-2.769l1.13-.2v7.366h-1.12v-.66c-.359,.45-.919,.709-1.549,.709-1.27,0-2.259-1.129-2.259-2.548Zm3.798,1.049v-2.109c-.29-.34-.72-.54-1.189-.54-.859,0-1.499,.68-1.499,1.599,0,.909,.64,1.599,1.499,1.599,.49,0,.899-.19,1.189-.55Z" />
      <path
         id="path348"
         d="M322.683,285.377l-1.239,.53v-.97l1.639-.709h.689v6.996h-1.089v-5.847Z" />
      <path
         id="path350"
         d="M291.119,300.775c0-2.049,.85-3.698,2.429-4.667l.59,.729c-1.289,.83-1.999,2.219-1.999,3.938,0,1.729,.71,3.118,1.999,3.948l-.59,.72c-1.579-.969-2.429-2.619-2.429-4.667Z"
         class="uuid-85b34dbc-a0a4-44dc-83bb-b075cfd7cff3" />
      <path
         id="path352"
         d="M295.269,298.216h1.13v1.08c.279-.76,.76-1.169,1.379-1.169,.19,.01,.32,.03,.49,.1v.989c-.181-.07-.41-.12-.62-.12-.55,0-.999,.31-1.249,.83v3.298h-1.13v-5.007Z"
         class="uuid-85b34dbc-a0a4-44dc-83bb-b075cfd7cff3" />
      <path
         id="path354"
         d="M299.108,301.515v-3.298h1.14v2.968c0,.74,.43,1.209,1.1,1.209,.45,0,.829-.2,1.09-.6v-3.578h1.129v5.007h-1.129v-.81c-.38,.59-.92,.89-1.59,.89-1.02,0-1.739-.74-1.739-1.789Z"
         class="uuid-85b34dbc-a0a4-44dc-83bb-b075cfd7cff3" />
      <path
         id="path356"
         d="M304.969,298.216h1.13v.82c.38-.59,.93-.9,1.579-.9,1.029,0,1.749,.73,1.749,1.789v3.298h-1.14v-2.979c0-.729-.43-1.199-1.1-1.199-.459,0-.829,.21-1.089,.61v3.568h-1.13v-5.007Z"
         class="uuid-85b34dbc-a0a4-44dc-83bb-b075cfd7cff3" />
      <path
         id="path358"
         d="M310.788,298.216h1.13v.82c.38-.59,.93-.9,1.579-.9,1.029,0,1.749,.73,1.749,1.789v3.298h-1.14v-2.979c0-.729-.43-1.199-1.1-1.199-.459,0-.829,.21-1.089,.61v3.568h-1.13v-5.007Z"
         class="uuid-85b34dbc-a0a4-44dc-83bb-b075cfd7cff3" />
      <path
         id="path360"
         d="M316.469,296.507c0-.38,.31-.7,.7-.7,.379,0,.699,.32,.699,.7s-.32,.689-.699,.689c-.391,0-.7-.31-.7-.689Zm.13,1.709h1.13v5.007h-1.13v-5.007Z"
         class="uuid-85b34dbc-a0a4-44dc-83bb-b075cfd7cff3" />
      <path
         id="path362"
         d="M319.128,298.216h1.13v.82c.38-.59,.93-.9,1.579-.9,1.029,0,1.749,.73,1.749,1.789v3.298h-1.14v-2.979c0-.729-.43-1.199-1.1-1.199-.459,0-.829,.21-1.089,.61v3.568h-1.13v-5.007Z"
         class="uuid-85b34dbc-a0a4-44dc-83bb-b075cfd7cff3" />
      <path
         id="path364"
         d="M325.278,304.923l.39-.83c.59,.29,1.069,.419,1.569,.419,.84,0,1.279-.379,1.279-1.109v-.849c-.359,.439-.909,.699-1.539,.699-1.27,0-2.259-1.129-2.259-2.548s1.029-2.529,2.339-2.529c.579,0,1.1,.23,1.469,.67v-.63h1.12v5.187c0,1.29-.84,2.009-2.359,2.009-.72,0-1.419-.18-2.009-.49Zm3.238-3.158v-2.099c-.29-.34-.72-.54-1.189-.54-.859,0-1.499,.669-1.499,1.589,0,.91,.64,1.599,1.499,1.599,.49,0,.899-.2,1.189-.549Z"
         class="uuid-85b34dbc-a0a4-44dc-83bb-b075cfd7cff3" />
      <path
         id="path366"
         d="M333.787,300.785c0,2.049-.85,3.698-2.429,4.667l-.59-.73c1.289-.83,1.999-2.219,1.999-3.938,0-1.729-.71-3.119-1.999-3.948l.59-.719c1.579,.969,2.429,2.619,2.429,4.667Z"
         class="uuid-85b34dbc-a0a4-44dc-83bb-b075cfd7cff3" />
    </g>
  </g>
  <g
     id="g396">
    <path
       id="path372"
       d="M517.354,284.227h3.128c1.419,0,2.339,.89,2.339,2.179,0,1.259-.92,2.149-2.339,2.149h-1.929v2.668h-1.199v-6.996Zm2.938,3.348c.85,0,1.319-.47,1.319-1.179,0-.69-.47-1.16-1.31-1.16h-1.749v2.339h1.739Z" />
    <path
       id="path374"
       d="M523.324,288.725c0-1.479,1.079-2.589,2.519-2.589,1.43,0,2.509,1.109,2.509,2.589s-1.079,2.588-2.509,2.588c-1.439,0-2.519-1.109-2.519-2.588Zm3.918,0c0-.93-.59-1.629-1.399-1.629-.819,0-1.409,.7-1.409,1.629,0,.939,.59,1.629,1.409,1.629,.81,0,1.399-.689,1.399-1.629Z" />
    <path
       id="path376"
       d="M529.294,288.725c0-1.429,1.029-2.549,2.339-2.549,.569,0,1.089,.23,1.459,.65v-2.769l1.13-.2v7.366h-1.12v-.66c-.359,.45-.919,.709-1.549,.709-1.27,0-2.259-1.129-2.259-2.548Zm3.798,1.049v-2.109c-.29-.34-.72-.54-1.189-.54-.859,0-1.499,.68-1.499,1.599,0,.909,.64,1.599,1.499,1.599,.49,0,.899-.19,1.189-.55Z" />
    <path
       id="path378"
       d="M537.684,290.434l2.868-2.999c.51-.54,.68-.889,.68-1.339,0-.58-.539-1.02-1.27-1.02-.649,0-1.149,.229-1.818,.85l-.62-.75c.77-.709,1.579-1.059,2.459-1.059,1.369,0,2.309,.779,2.309,1.919,0,.68-.24,1.169-.989,1.959l-2.229,2.298,3.348-.01v.939h-4.737v-.79Z" />
    <path
       id="path380"
       d="M511.679,300.775c0-2.049,.85-3.698,2.429-4.667l.59,.729c-1.289,.83-1.999,2.219-1.999,3.938,0,1.729,.71,3.118,1.999,3.948l-.59,.72c-1.579-.969-2.429-2.619-2.429-4.667Z"
       class="uuid-aa48b7de-eace-450e-b32c-7ba0f7ac9887" />
    <path
       id="path382"
       d="M515.549,300.725c0-1.469,1.06-2.589,2.438-2.589,1.369,0,2.369,1.089,2.369,2.589v.27h-3.698c.11,.81,.72,1.399,1.499,1.399,.47,0,.91-.18,1.189-.47l.739,.669c-.609,.51-1.219,.73-1.979,.73-1.439,0-2.559-1.129-2.559-2.599Zm3.738-.43c-.12-.73-.64-1.239-1.31-1.239-.68,0-1.18,.49-1.31,1.239h2.619Z"
       class="uuid-aa48b7de-eace-450e-b32c-7ba0f7ac9887" />
    <path
       id="path384"
       d="M522.498,300.645l-1.809-2.429h1.329l1.169,1.649,1.17-1.649h1.269l-1.828,2.458,1.908,2.549h-1.319l-1.259-1.749-1.26,1.749h-1.259l1.889-2.579Z"
       class="uuid-aa48b7de-eace-450e-b32c-7ba0f7ac9887" />
    <path
       id="path386"
       d="M526.389,296.507c0-.38,.31-.7,.7-.7,.379,0,.699,.32,.699,.7s-.32,.689-.699,.689c-.391,0-.7-.31-.7-.689Zm.13,1.709h1.13v5.007h-1.13v-5.007Z"
       class="uuid-aa48b7de-eace-450e-b32c-7ba0f7ac9887" />
    <path
       id="path388"
       d="M529.669,301.924v-2.809h-1v-.899h1v-1.379l1.129-.24v1.619h1.39v.899h-1.39v2.559c0,.49,.19,.68,.7,.68,.22,0,.38-.03,.68-.12v.949c-.29,.09-.67,.14-.97,.14-1.01,0-1.539-.48-1.539-1.399Z"
       class="uuid-aa48b7de-eace-450e-b32c-7ba0f7ac9887" />
    <path
       id="path390"
       d="M532.879,300.725c0-1.469,1.06-2.589,2.438-2.589,1.369,0,2.369,1.089,2.369,2.589v.27h-3.698c.11,.81,.72,1.399,1.499,1.399,.47,0,.91-.18,1.189-.47l.739,.669c-.609,.51-1.219,.73-1.979,.73-1.439,0-2.559-1.129-2.559-2.599Zm3.738-.43c-.12-.73-.64-1.239-1.31-1.239-.68,0-1.18,.49-1.31,1.239h2.619Z"
       class="uuid-aa48b7de-eace-450e-b32c-7ba0f7ac9887" />
    <path
       id="path392"
       d="M538.629,300.725c0-1.429,1.029-2.549,2.339-2.549,.569,0,1.089,.23,1.459,.65v-2.769l1.13-.2v7.366h-1.12v-.66c-.359,.45-.919,.709-1.549,.709-1.27,0-2.259-1.129-2.259-2.548Zm3.798,1.049v-2.109c-.29-.34-.72-.54-1.189-.54-.859,0-1.499,.68-1.499,1.599,0,.909,.64,1.599,1.499,1.599,.49,0,.899-.19,1.189-.55Z"
       class="uuid-aa48b7de-eace-450e-b32c-7ba0f7ac9887" />
    <path
       id="path394"
       d="M547.707,300.785c0,2.049-.85,3.698-2.429,4.667l-.59-.73c1.289-.83,1.999-2.219,1.999-3.938,0-1.729-.71-3.119-1.999-3.948l.59-.719c1.579,.969,2.429,2.619,2.429,4.667Z"
       class="uuid-aa48b7de-eace-450e-b32c-7ba0f7ac9887" />
  </g>
  <g
     id="g436">
    <path
       id="path398"
       d="M190.541,34.854h2.818c1.278,0,2.106,.801,2.106,1.962,0,1.134-.828,1.936-2.106,1.936h-1.738v2.404h-1.08v-6.302Zm2.646,3.016c.766,0,1.188-.423,1.188-1.062,0-.621-.423-1.044-1.179-1.044h-1.576v2.106h1.566Z" />
    <path
       id="path400"
       d="M195.914,38.906c0-1.333,.972-2.332,2.269-2.332,1.287,0,2.26,1,2.26,2.332s-.973,2.332-2.26,2.332c-1.296,0-2.269-1-2.269-2.332Zm3.529,0c0-.837-.531-1.468-1.26-1.468-.738,0-1.27,.63-1.27,1.468,0,.846,.531,1.467,1.27,1.467,.729,0,1.26-.621,1.26-1.467Z" />
    <path
       id="path402"
       d="M201.286,38.906c0-1.288,.927-2.296,2.106-2.296,.513,0,.981,.207,1.314,.585v-2.494l1.017-.18v6.635h-1.008v-.594c-.324,.405-.828,.639-1.396,.639-1.143,0-2.034-1.017-2.034-2.295Zm3.421,.945v-1.9c-.261-.306-.648-.486-1.071-.486-.774,0-1.351,.612-1.351,1.44,0,.819,.576,1.44,1.351,1.44,.441,0,.81-.171,1.071-.495Z" />
    <path
       id="path404"
       d="M208.882,35.106c0-.342,.279-.63,.63-.63,.342,0,.63,.288,.63,.63s-.288,.621-.63,.621c-.351,0-.63-.279-.63-.621Zm.117,1.54h1.018v4.51h-1.018v-4.51Z" />
    <path
       id="path406"
       d="M210.871,40.634l.477-.675c.594,.369,.99,.513,1.45,.513,.54,0,.909-.252,.909-.612,0-.279-.189-.423-.63-.513l-.792-.135c-.882-.162-1.306-.567-1.306-1.242,0-.846,.693-1.396,1.747-1.396,.63,0,1.197,.18,1.773,.541l-.477,.675c-.459-.297-.9-.432-1.359-.432-.468,0-.774,.198-.774,.522,0,.288,.162,.414,.63,.495l.801,.153c.9,.162,1.333,.576,1.333,1.251,0,.828-.792,1.467-1.846,1.467-.774,0-1.458-.216-1.936-.612Z" />
    <path
       id="path408"
       d="M217.377,39.86c0-.81,.667-1.323,1.729-1.323,.423,0,.819,.09,1.215,.288v-.504c0-.594-.342-.9-1.035-.9-.378,0-.792,.108-1.314,.351l-.36-.738c.675-.306,1.269-.459,1.873-.459,1.179,0,1.845,.594,1.845,1.639v2.944h-1.008v-.468c-.387,.378-.819,.549-1.341,.549-.945,0-1.603-.567-1.603-1.377Zm1.882,.657c.405,0,.756-.117,1.062-.378v-.729c-.324-.153-.648-.216-1.035-.216-.585,0-.954,.243-.954,.648,0,.414,.36,.675,.927,.675Z" />
    <path
       id="path410"
       d="M222.157,40.634l.477-.675c.594,.369,.99,.513,1.45,.513,.54,0,.909-.252,.909-.612,0-.279-.189-.423-.63-.513l-.792-.135c-.882-.162-1.306-.567-1.306-1.242,0-.846,.693-1.396,1.747-1.396,.63,0,1.197,.18,1.773,.541l-.477,.675c-.459-.297-.9-.432-1.359-.432-.468,0-.774,.198-.774,.522,0,.288,.162,.414,.63,.495l.801,.153c.9,.162,1.333,.576,1.333,1.251,0,.828-.792,1.467-1.846,1.467-.774,0-1.458-.216-1.936-.612Z" />
    <path
       id="path412"
       d="M226.467,40.634l.477-.675c.594,.369,.99,.513,1.45,.513,.54,0,.909-.252,.909-.612,0-.279-.189-.423-.63-.513l-.792-.135c-.882-.162-1.306-.567-1.306-1.242,0-.846,.693-1.396,1.747-1.396,.63,0,1.197,.18,1.773,.541l-.477,.675c-.459-.297-.9-.432-1.359-.432-.468,0-.774,.198-.774,.522,0,.288,.162,.414,.63,.495l.801,.153c.9,.162,1.333,.576,1.333,1.251,0,.828-.792,1.467-1.846,1.467-.774,0-1.458-.216-1.936-.612Z" />
    <path
       id="path414"
       d="M231.057,35.106c0-.342,.279-.63,.63-.63,.342,0,.63,.288,.63,.63s-.288,.621-.63,.621c-.351,0-.63-.279-.63-.621Zm.117,1.54h1.018v4.51h-1.018v-4.51Z" />
    <path
       id="path416"
       d="M233.749,42.686l.351-.747c.531,.261,.963,.378,1.414,.378,.756,0,1.152-.342,1.152-.999v-.765c-.324,.396-.819,.63-1.387,.63-1.143,0-2.034-1.017-2.034-2.295s.927-2.278,2.106-2.278c.522,0,.99,.207,1.323,.603v-.567h1.008v4.672c0,1.161-.756,1.81-2.125,1.81-.648,0-1.278-.162-1.81-.441Zm2.917-2.845v-1.891c-.261-.306-.648-.486-1.071-.486-.774,0-1.351,.603-1.351,1.431,0,.819,.576,1.44,1.351,1.44,.441,0,.81-.18,1.071-.495Z" />
    <path
       id="path418"
       d="M238.933,36.646h1.017v.738c.342-.531,.837-.811,1.422-.811,.927,0,1.576,.657,1.576,1.612v2.971h-1.026v-2.683c0-.657-.387-1.081-.99-1.081-.414,0-.748,.189-.981,.549v3.214h-1.017v-4.51Z" />
    <path
       id="path420"
       d="M243.963,38.906c0-1.324,.954-2.332,2.196-2.332,1.233,0,2.134,.981,2.134,2.332v.243h-3.331c.099,.729,.648,1.261,1.351,1.261,.423,0,.819-.162,1.071-.423l.666,.603c-.549,.459-1.098,.657-1.782,.657-1.296,0-2.305-1.017-2.305-2.34Zm3.367-.387c-.108-.657-.576-1.116-1.179-1.116-.612,0-1.062,.441-1.179,1.116h2.358Z" />
    <path
       id="path422"
       d="M249.138,38.906c0-1.288,.927-2.296,2.106-2.296,.513,0,.981,.207,1.314,.585v-2.494l1.017-.18v6.635h-1.008v-.594c-.324,.405-.828,.639-1.396,.639-1.143,0-2.034-1.017-2.034-2.295Zm3.421,.945v-1.9c-.261-.306-.648-.486-1.071-.486-.774,0-1.351,.612-1.351,1.44,0,.819,.576,1.44,1.351,1.44,.441,0,.81-.171,1.071-.495Z" />
    <path
       id="path424"
       d="M257.418,39.986v-2.53h-.9v-.81h.9v-1.243l1.017-.216v1.458h1.251v.81h-1.251v2.305c0,.441,.171,.612,.63,.612,.198,0,.342-.027,.612-.108v.855c-.261,.081-.604,.126-.874,.126-.909,0-1.386-.432-1.386-1.26Z" />
    <path
       id="path426"
       d="M260.307,38.906c0-1.333,.972-2.332,2.269-2.332,1.287,0,2.26,1,2.26,2.332s-.973,2.332-2.26,2.332c-1.296,0-2.269-1-2.269-2.332Zm3.529,0c0-.837-.531-1.468-1.26-1.468-.738,0-1.27,.63-1.27,1.468,0,.846,.531,1.467,1.27,1.467,.729,0,1.26-.621,1.26-1.467Z" />
    <path
       id="path428"
       d="M268.038,34.854h1.053l3.286,4.582-.018-4.582h1.017v6.302h-.963l-3.376-4.708,.018,4.708h-1.017v-6.302Z" />
    <path
       id="path430"
       d="M274.554,38.906c0-1.333,.972-2.332,2.269-2.332,1.287,0,2.26,1,2.26,2.332s-.973,2.332-2.26,2.332c-1.296,0-2.269-1-2.269-2.332Zm3.529,0c0-.837-.531-1.468-1.26-1.468-.738,0-1.27,.63-1.27,1.468,0,.846,.531,1.467,1.27,1.467,.729,0,1.26-.621,1.26-1.467Z" />
    <path
       id="path432"
       d="M279.927,38.906c0-1.288,.927-2.296,2.106-2.296,.513,0,.981,.207,1.314,.585v-2.494l1.017-.18v6.635h-1.008v-.594c-.324,.405-.828,.639-1.396,.639-1.143,0-2.034-1.017-2.034-2.295Zm3.421,.945v-1.9c-.261-.306-.648-.486-1.071-.486-.774,0-1.351,.612-1.351,1.44,0,.819,.576,1.44,1.351,1.44,.441,0,.81-.171,1.071-.495Z" />
    <path
       id="path434"
       d="M285.417,38.906c0-1.324,.954-2.332,2.196-2.332,1.233,0,2.134,.981,2.134,2.332v.243h-3.331c.099,.729,.648,1.261,1.351,1.261,.423,0,.819-.162,1.071-.423l.666,.603c-.549,.459-1.098,.657-1.782,.657-1.296,0-2.305-1.017-2.305-2.34Zm3.367-.387c-.108-.657-.576-1.116-1.179-1.116-.612,0-1.062,.441-1.179,1.116h2.358Z" />
  </g>
</svg>
