<?xml version="1.0" encoding="UTF-8" standalone="no"?>
<svg
   xmlns:dc="http://purl.org/dc/elements/1.1/"
   xmlns:cc="http://creativecommons.org/ns#"
   xmlns:rdf="http://www.w3.org/1999/02/22-rdf-syntax-ns#"
   xmlns:svg="http://www.w3.org/2000/svg"
   xmlns="http://www.w3.org/2000/svg"
   xmlns:sodipodi="http://sodipodi.sourceforge.net/DTD/sodipodi-0.dtd"
   xmlns:inkscape="http://www.inkscape.org/namespaces/inkscape"
   inkscape:version="1.0 (4035a4f, 2020-05-01)"
   sodipodi:docname="OCP PV lifecycle.svg"
   version="1.1"
   viewBox="0 0 841.89 277.67"
   height="277.67"
   width="841.89"
   data-name="Layer 1"
   id="uuid-acdaa4d9-b2b4-4670-bd56-5cbf6f783453">
  <metadata
     id="metadata393">
    <rdf:RDF>
      <cc:Work
         rdf:about="">
        <dc:format>image/svg+xml</dc:format>
        <dc:type
           rdf:resource="http://purl.org/dc/dcmitype/StillImage" />
        <dc:title></dc:title>
        <dc:subject>
          <rdf:Bag>
            <rdf:li>PV</rdf:li>
            <rdf:li>PV lifecycle</rdf:li>
          </rdf:Bag>
        </dc:subject>
      </cc:Work>
    </rdf:RDF>
  </metadata>
  <sodipodi:namedview
     inkscape:current-layer="uuid-acdaa4d9-b2b4-4670-bd56-5cbf6f783453"
     inkscape:window-maximized="0"
     inkscape:window-y="25"
     inkscape:window-x="0"
     inkscape:cy="138.83501"
     inkscape:cx="420.94501"
     inkscape:zoom="1.2507572"
     showgrid="false"
     id="namedview391"
     inkscape:window-height="480"
     inkscape:window-width="705"
     inkscape:pageshadow="2"
     inkscape:pageopacity="0"
     guidetolerance="10"
     gridtolerance="10"
     objecttolerance="10"
     borderopacity="1"
     bordercolor="#666666"
     pagecolor="#ffffff" />
  <defs
     id="defs12">
    <style
       id="style10">
      .uuid-0264333d-01f7-4a80-8835-127f8a326740, .uuid-1f722c80-0e03-4f02-abf0-317fb49ea348 {
        fill: #fff;
      }

      .uuid-4020b2eb-ea52-4b19-9550-570d36eff928 {
        fill: #e8e8e8;
      }

      .uuid-33daa64f-8567-4c95-8cbd-3b3d30fee47a {
        fill: #c8c8c8;
      }

      .uuid-32ad7b90-08d0-4ae6-84b7-43f89a73fcdf {
        fill: #151515;
      }

      .uuid-468f0bf9-71f7-4cc1-838a-373eea074e1b {
        fill: none;
        stroke: #000;
        stroke-miterlimit: 10;
      }

      .uuid-1f722c80-0e03-4f02-abf0-317fb49ea348 {
        stroke: #5b5b5b;
        stroke-linecap: round;
        stroke-linejoin: round;
        stroke-width: 1.5px;
      }
    </style>
  </defs>
  <rect
     id="rect14"
     height="134.265"
     width="117"
     y="108.015"
     x="115.249"
     class="uuid-33daa64f-8567-4c95-8cbd-3b3d30fee47a" />
  <rect
     id="rect16"
     height="28.098"
     width="105.161"
     y="136.707"
     x="121.169"
     class="uuid-0264333d-01f7-4a80-8835-127f8a326740" />
  <rect
     id="rect18"
     height="28.098"
     width="105.161"
     y="172.59"
     x="121.169"
     class="uuid-0264333d-01f7-4a80-8835-127f8a326740" />
  <rect
     id="rect20"
     height="28.098"
     width="105.161"
     y="208.472"
     x="121.169"
     class="uuid-0264333d-01f7-4a80-8835-127f8a326740" />
  <polygon
     id="polygon22"
     points="410.626 239.138 342.821 239.138 342.821 195.422 376.723 195.422 410.626 195.422 410.626 239.138" />
  <g
     id="g28">
    <line
       id="line24"
       y2="48.75"
       x2="194.632"
       y1="48.75"
       x1="295.851"
       class="uuid-468f0bf9-71f7-4cc1-838a-373eea074e1b" />
    <polygon
       id="polygon26"
       points="294.757 45.011 301.233 48.75 294.757 52.49 294.757 45.011" />
  </g>
  <g
     id="g34">
    <line
       id="line30"
       y2="217.28"
       x2="295.851"
       y1="217.28"
       x1="232.249"
       class="uuid-468f0bf9-71f7-4cc1-838a-373eea074e1b" />
    <polygon
       id="polygon32"
       points="294.757 221.02 301.233 217.28 294.757 213.54 294.757 221.02" />
  </g>
  <g
     id="g40">
    <line
       id="line36"
       y2="102.633"
       x2="173.749"
       y1="80.68"
       x1="173.749"
       class="uuid-468f0bf9-71f7-4cc1-838a-373eea074e1b" />
    <polygon
       id="polygon38"
       points="170.01 101.539 173.749 108.015 177.489 101.539 170.01 101.539" />
  </g>
  <g
     id="g46">
    <line
       id="line42"
       y2="217.28"
       x2="671.261"
       y1="217.28"
       x1="608.838"
       class="uuid-468f0bf9-71f7-4cc1-838a-373eea074e1b" />
    <polygon
       id="polygon44"
       points="609.932 221.02 603.456 217.28 609.932 213.54 609.932 221.02" />
  </g>
  <g
     id="g52">
    <line
       id="line48"
       y2="217.28"
       x2="486.512"
       y1="217.28"
       x1="424.09"
       class="uuid-468f0bf9-71f7-4cc1-838a-373eea074e1b" />
    <polygon
       id="polygon50"
       points="425.184 221.02 418.708 217.28 425.184 213.54 425.184 221.02" />
  </g>
  <g
     id="g58">
    <line
       id="line54"
       y2="48.75"
       x2="481.13"
       y1="48.75"
       x1="418.708"
       class="uuid-468f0bf9-71f7-4cc1-838a-373eea074e1b" />
    <polygon
       id="polygon56"
       points="480.036 52.49 486.512 48.75 480.036 45.011 480.036 52.49" />
  </g>
  <g
     id="g64">
    <line
       id="line60"
       y2="193.422"
       x2="359.733"
       y1="163.501"
       x1="359.733"
       class="uuid-468f0bf9-71f7-4cc1-838a-373eea074e1b" />
    <polygon
       id="polygon62"
       points="355.993 164.595 359.733 158.118 363.473 164.595 355.993 164.595" />
  </g>
  <g
     id="g70">
    <line
       id="line66"
       y2="109.054"
       x2="359.733"
       y1="79.133"
       x1="359.733"
       class="uuid-468f0bf9-71f7-4cc1-838a-373eea074e1b" />
    <polygon
       id="polygon68"
       points="355.993 80.227 359.733 73.75 363.473 80.227 355.993 80.227" />
  </g>
  <g
     id="g98">
    <g
       id="g90">
      <path
         id="path72"
         d="m149.909,69.077h2.559c2.009,0,3.508,1.529,3.508,3.498s-1.499,3.498-3.508,3.498h-2.559v-6.996Zm2.589,5.957c1.259,0,2.249-1.069,2.249-2.458s-.989-2.458-2.249-2.458h-1.389v4.917h1.389Z"
         class="uuid-32ad7b90-08d0-4ae6-84b7-43f89a73fcdf" />
      <path
         id="path74"
         d="m156.959,73.575c0-1.469,1.06-2.589,2.438-2.589,1.37,0,2.369,1.09,2.369,2.589v.27h-3.698c.11.81.72,1.399,1.499,1.399.47,0,.91-.18,1.189-.47l.74.669c-.61.51-1.219.73-1.979.73-1.439,0-2.559-1.129-2.559-2.599Zm3.738-.43c-.12-.73-.64-1.239-1.309-1.239-.68,0-1.179.489-1.309,1.239h2.618Z"
         class="uuid-32ad7b90-08d0-4ae6-84b7-43f89a73fcdf" />
      <path
         id="path76"
         d="m162.33,71.066h1.229l1.399,3.638,1.39-3.638h1.179l-2.059,5.007h-1.099l-2.039-5.007Z"
         class="uuid-32ad7b90-08d0-4ae6-84b7-43f89a73fcdf" />
      <path
         id="path78"
         d="m168.109,73.575c0-1.469,1.06-2.589,2.438-2.589,1.37,0,2.369,1.09,2.369,2.589v.27h-3.698c.11.81.72,1.399,1.499,1.399.47,0,.91-.18,1.189-.47l.74.669c-.61.51-1.219.73-1.979.73-1.439,0-2.559-1.129-2.559-2.599Zm3.738-.43c-.12-.73-.64-1.239-1.309-1.239-.68,0-1.179.489-1.309,1.239h2.618Z"
         class="uuid-32ad7b90-08d0-4ae6-84b7-43f89a73fcdf" />
      <path
         id="path80"
         d="m174.069,68.907l1.129-.2v7.366h-1.129v-7.166Z"
         class="uuid-32ad7b90-08d0-4ae6-84b7-43f89a73fcdf" />
      <path
         id="path82"
         d="m176.359,73.575c0-1.479,1.08-2.589,2.519-2.589,1.429,0,2.509,1.109,2.509,2.589s-1.08,2.588-2.509,2.588c-1.439,0-2.519-1.109-2.519-2.588Zm3.918,0c0-.93-.59-1.629-1.399-1.629-.819,0-1.409.7-1.409,1.629,0,.939.59,1.629,1.409,1.629.81,0,1.399-.689,1.399-1.629Z"
         class="uuid-32ad7b90-08d0-4ae6-84b7-43f89a73fcdf" />
      <path
         id="path84"
         d="m182.559,71.066h1.109v.709c.36-.47.919-.75,1.559-.75,1.27,0,2.259,1.129,2.259,2.549,0,1.429-1.02,2.548-2.329,2.548-.59,0-1.109-.22-1.469-.64v2.679h-1.129v-7.096Zm3.818,2.509c0-.91-.64-1.599-1.489-1.599-.5,0-.91.2-1.199.56v2.089c.29.35.72.56,1.199.56.859,0,1.489-.689,1.489-1.609Z"
         class="uuid-32ad7b90-08d0-4ae6-84b7-43f89a73fcdf" />
      <path
         id="path86"
         d="m188.439,73.575c0-1.469,1.06-2.589,2.438-2.589,1.37,0,2.369,1.09,2.369,2.589v.27h-3.698c.11.81.72,1.399,1.499,1.399.47,0,.91-.18,1.189-.47l.74.669c-.61.51-1.219.73-1.979.73-1.439,0-2.559-1.129-2.559-2.599Zm3.738-.43c-.12-.73-.64-1.239-1.309-1.239-.68,0-1.179.489-1.309,1.239h2.618Z"
         class="uuid-32ad7b90-08d0-4ae6-84b7-43f89a73fcdf" />
      <path
         id="path88"
         d="m194.399,71.066h1.129v1.08c.28-.76.759-1.169,1.379-1.169.19.01.32.03.49.1v.989c-.18-.07-.41-.12-.62-.12-.549,0-.999.31-1.249.83v3.298h-1.129v-5.007Z"
         class="uuid-32ad7b90-08d0-4ae6-84b7-43f89a73fcdf" />
    </g>
    <g
       id="g96">
      <path
         id="path92"
         d="m191.833,63.942c0-10.19-8.275-18.451-18.483-18.451s-18.483,8.261-18.483,18.451h36.966Z"
         class="uuid-1f722c80-0e03-4f02-abf0-317fb49ea348" />
      <ellipse
         id="ellipse94"
         ry="9.266"
         rx="9.279"
         cy="36.234"
         cx="173.35"
         class="uuid-1f722c80-0e03-4f02-abf0-317fb49ea348" />
    </g>
  </g>
  <g
     id="g146">
    <g
       id="g138">
      <path
         id="path100"
         d="m675.886,232.142h1.389l2.709,6.996h-1.289l-.72-1.959h-2.868l-.72,1.959h-1.25l2.749-6.996Zm1.759,4.098l-1.1-2.958-1.089,2.958h2.188Z"
         class="uuid-32ad7b90-08d0-4ae6-84b7-43f89a73fcdf" />
      <path
         id="path102"
         d="m680.517,236.64c0-1.429,1.029-2.549,2.339-2.549.569,0,1.089.23,1.459.65v-2.769l1.13-.2v7.366h-1.12v-.66c-.359.45-.919.709-1.549.709-1.27,0-2.259-1.129-2.259-2.548Zm3.798,1.049v-2.109c-.29-.34-.72-.54-1.189-.54-.859,0-1.499.68-1.499,1.599,0,.909.64,1.599,1.499,1.599.49,0,.899-.19,1.189-.55Z"
         class="uuid-32ad7b90-08d0-4ae6-84b7-43f89a73fcdf" />
      <path
         id="path104"
         d="m686.846,234.131h1.13v.79c.37-.57.869-.87,1.479-.87.689,0,1.219.37,1.479.959.39-.629.95-.959,1.659-.959.97,0,1.64.75,1.64,1.809v3.278h-1.13v-3.028c0-.7-.39-1.149-1.01-1.149-.409,0-.749.19-.999.6.01.1.02.2.02.3v3.278h-1.139v-3.028c0-.7-.39-1.149-1.01-1.149-.41,0-.739.19-.989.58v3.598h-1.13v-5.007Z"
         class="uuid-32ad7b90-08d0-4ae6-84b7-43f89a73fcdf" />
      <path
         id="path106"
         d="m695.467,232.422c0-.38.31-.7.7-.7.379,0,.699.32.699.7s-.32.689-.699.689c-.391,0-.7-.31-.7-.689Zm.13,1.709h1.13v5.007h-1.13v-5.007Z"
         class="uuid-32ad7b90-08d0-4ae6-84b7-43f89a73fcdf" />
      <path
         id="path108"
         d="m698.126,234.131h1.13v.82c.38-.59.93-.9,1.579-.9,1.029,0,1.749.73,1.749,1.789v3.298h-1.14v-2.979c0-.729-.43-1.199-1.1-1.199-.459,0-.829.21-1.089.61v3.568h-1.13v-5.007Z"
         class="uuid-32ad7b90-08d0-4ae6-84b7-43f89a73fcdf" />
      <path
         id="path110"
         d="m705.966,236.64c0-1.479,1.079-2.589,2.519-2.589,1.43,0,2.509,1.109,2.509,2.589s-1.079,2.588-2.509,2.588c-1.439,0-2.519-1.109-2.519-2.588Zm3.918,0c0-.93-.59-1.629-1.399-1.629-.819,0-1.409.7-1.409,1.629,0,.939.59,1.629,1.409,1.629.81,0,1.399-.689,1.399-1.629Z"
         class="uuid-32ad7b90-08d0-4ae6-84b7-43f89a73fcdf" />
      <path
         id="path112"
         d="m712.166,234.131h1.13v1.08c.279-.76.76-1.169,1.379-1.169.19.01.32.03.49.1v.989c-.181-.07-.41-.12-.62-.12-.55,0-.999.31-1.249.83v3.298h-1.13v-5.007Z"
         class="uuid-32ad7b90-08d0-4ae6-84b7-43f89a73fcdf" />
      <path
         id="path114"
         d="m663.073,249.119l.649-.879c.899.74,1.549,1.02,2.358,1.02.92,0,1.56-.47,1.56-1.12,0-.569-.34-.839-1.27-1l-1.289-.22c-1.21-.22-1.799-.819-1.799-1.779,0-1.27,1.009-2.109,2.578-2.109,1.05,0,2.009.31,2.809.899l-.609.899c-.7-.53-1.449-.81-2.239-.81-.84,0-1.399.43-1.399,1,0,.51.32.77,1.08.89l1.249.21c1.409.25,2.068.869,2.068,1.929,0,1.29-1.139,2.199-2.808,2.199-1.1,0-2.05-.38-2.938-1.129Z"
         class="uuid-32ad7b90-08d0-4ae6-84b7-43f89a73fcdf" />
      <path
         id="path116"
         d="m670.522,248.839v-2.809h-1v-.899h1v-1.379l1.129-.24v1.619h1.39v.899h-1.39v2.559c0,.49.19.68.7.68.22,0,.38-.03.68-.12v.949c-.29.09-.67.14-.97.14-1.01,0-1.539-.48-1.539-1.399Z"
         class="uuid-32ad7b90-08d0-4ae6-84b7-43f89a73fcdf" />
      <path
         id="path118"
         d="m673.812,247.64c0-1.479,1.079-2.589,2.519-2.589,1.43,0,2.509,1.109,2.509,2.589s-1.079,2.588-2.509,2.588c-1.439,0-2.519-1.109-2.519-2.588Zm3.918,0c0-.93-.59-1.629-1.399-1.629-.819,0-1.409.7-1.409,1.629,0,.939.59,1.629,1.409,1.629.81,0,1.399-.689,1.399-1.629Z"
         class="uuid-32ad7b90-08d0-4ae6-84b7-43f89a73fcdf" />
      <path
         id="path120"
         d="m680.011,245.131h1.13v1.08c.279-.76.76-1.169,1.379-1.169.19.01.32.03.49.1v.989c-.18-.07-.41-.12-.62-.12-.55,0-.999.31-1.249.83v3.298h-1.13v-5.007Z"
         class="uuid-32ad7b90-08d0-4ae6-84b7-43f89a73fcdf" />
      <path
         id="path122"
         d="m683.681,248.7c0-.9.74-1.469,1.919-1.469.47,0,.91.1,1.35.32v-.56c0-.66-.38-1-1.149-1-.42,0-.88.12-1.459.39l-.4-.82c.75-.34,1.409-.51,2.079-.51,1.31,0,2.049.66,2.049,1.819v3.268h-1.119v-.52c-.43.419-.909.609-1.489.609-1.05,0-1.779-.629-1.779-1.529Zm2.089.729c.45,0,.84-.13,1.18-.42v-.81c-.359-.17-.72-.24-1.149-.24-.649,0-1.06.27-1.06.72,0,.459.4.75,1.029.75Z"
         class="uuid-32ad7b90-08d0-4ae6-84b7-43f89a73fcdf" />
      <path
         id="path124"
         d="m689.771,251.838l.39-.83c.59.29,1.069.419,1.569.419.84,0,1.279-.379,1.279-1.109v-.849c-.359.439-.909.699-1.539.699-1.27,0-2.259-1.129-2.259-2.548s1.029-2.529,2.339-2.529c.579,0,1.1.23,1.469.67v-.63h1.12v5.187c0,1.29-.84,2.009-2.359,2.009-.72,0-1.419-.18-2.009-.49Zm3.238-3.158v-2.099c-.29-.34-.72-.54-1.189-.54-.859,0-1.499.669-1.499,1.589,0,.91.64,1.599,1.499,1.599.49,0,.899-.2,1.189-.549Z"
         class="uuid-32ad7b90-08d0-4ae6-84b7-43f89a73fcdf" />
      <path
         id="path126"
         d="m695.301,247.64c0-1.469,1.06-2.589,2.438-2.589,1.369,0,2.369,1.09,2.369,2.589v.27h-3.698c.11.81.72,1.399,1.499,1.399.47,0,.91-.18,1.189-.47l.739.669c-.609.51-1.219.73-1.979.73-1.439,0-2.559-1.129-2.559-2.599Zm3.738-.43c-.12-.73-.64-1.239-1.31-1.239-.68,0-1.18.489-1.31,1.239h2.619Z"
         class="uuid-32ad7b90-08d0-4ae6-84b7-43f89a73fcdf" />
      <path
         id="path128"
         d="m703.282,247.64c0-1.449,1.1-2.589,2.528-2.589.78,0,1.499.31,1.999.85l-.699.729c-.35-.39-.779-.589-1.26-.589-.81,0-1.439.7-1.439,1.599,0,.909.63,1.599,1.439,1.599.48,0,.91-.2,1.26-.58l.699.719c-.5.54-1.219.85-1.999.85-1.429,0-2.528-1.129-2.528-2.588Z"
         class="uuid-32ad7b90-08d0-4ae6-84b7-43f89a73fcdf" />
      <path
         id="path130"
         d="m708.741,242.972l1.13-.2v7.366h-1.13v-7.166Z"
         class="uuid-32ad7b90-08d0-4ae6-84b7-43f89a73fcdf" />
      <path
         id="path132"
         d="m711.001,248.7c0-.9.74-1.469,1.919-1.469.47,0,.91.1,1.35.32v-.56c0-.66-.38-1-1.149-1-.42,0-.88.12-1.459.39l-.4-.82c.75-.34,1.409-.51,2.079-.51,1.31,0,2.049.66,2.049,1.819v3.268h-1.119v-.52c-.43.419-.909.609-1.489.609-1.05,0-1.779-.629-1.779-1.529Zm2.089.729c.45,0,.84-.13,1.18-.42v-.81c-.359-.17-.72-.24-1.149-.24-.649,0-1.06.27-1.06.72,0,.459.4.75,1.029.75Z"
         class="uuid-32ad7b90-08d0-4ae6-84b7-43f89a73fcdf" />
      <path
         id="path134"
         d="m716.312,249.559l.529-.75c.66.41,1.1.569,1.609.569.6,0,1.01-.28,1.01-.679,0-.31-.21-.47-.7-.57l-.879-.15c-.979-.18-1.449-.63-1.449-1.379,0-.939.77-1.549,1.938-1.549.7,0,1.329.2,1.969.6l-.529.75c-.51-.33-1-.48-1.509-.48-.521,0-.86.22-.86.58,0,.32.181.46.7.55l.89.17c.999.18,1.479.64,1.479,1.389,0,.919-.879,1.629-2.049,1.629-.859,0-1.619-.24-2.148-.68Z"
         class="uuid-32ad7b90-08d0-4ae6-84b7-43f89a73fcdf" />
      <path
         id="path136"
         d="m721.101,249.559l.529-.75c.66.41,1.1.569,1.609.569.6,0,1.01-.28,1.01-.679,0-.31-.21-.47-.7-.57l-.879-.15c-.979-.18-1.449-.63-1.449-1.379,0-.939.77-1.549,1.938-1.549.7,0,1.329.2,1.969.6l-.529.75c-.51-.33-1-.48-1.509-.48-.521,0-.86.22-.86.58,0,.32.181.46.7.55l.89.17c.999.18,1.479.64,1.479,1.389,0,.919-.879,1.629-2.049,1.629-.859,0-1.619-.24-2.148-.68Z"
         class="uuid-32ad7b90-08d0-4ae6-84b7-43f89a73fcdf" />
    </g>
    <g
       id="g144">
      <path
         id="path140"
         d="m712.719,227.007c0-10.19-8.275-18.451-18.483-18.451s-18.483,8.261-18.483,18.451h36.966Z"
         class="uuid-1f722c80-0e03-4f02-abf0-317fb49ea348" />
      <ellipse
         id="ellipse142"
         ry="9.266"
         rx="9.279"
         cy="199.299"
         cx="694.236"
         class="uuid-1f722c80-0e03-4f02-abf0-317fb49ea348" />
    </g>
  </g>
  <rect
     id="rect148"
     height="50"
     width="117"
     y="192.28"
     x="301.233"
     class="uuid-4020b2eb-ea52-4b19-9550-570d36eff928" />
  <rect
     id="rect150"
     height="50"
     width="117"
     y="23.75"
     x="301.233"
     class="uuid-4020b2eb-ea52-4b19-9550-570d36eff928" />
  <rect
     id="rect152"
     height="50"
     width="117"
     y="193.114"
     x="486.153"
     class="uuid-4020b2eb-ea52-4b19-9550-570d36eff928" />
  <rect
     id="rect154"
     height="50"
     width="117"
     y="23.75"
     x="486.153"
     class="uuid-4020b2eb-ea52-4b19-9550-570d36eff928" />
  <g
     id="g176">
    <path
       id="path156"
       d="m333.858,44.524h3.128c1.419,0,2.339.89,2.339,2.179,0,1.259-.919,2.149-2.339,2.149h-1.929v2.668h-1.2v-6.996Zm2.938,3.348c.85,0,1.319-.47,1.319-1.179,0-.69-.47-1.16-1.309-1.16h-1.749v2.339h1.739Z" />
    <path
       id="path158"
       d="m339.718,44.524h1.289l2.149,5.777,2.169-5.777h1.239l-2.739,6.996h-1.389l-2.718-6.996Z" />
    <path
       id="path160"
       d="m349.578,46.513h1.129v1.08c.28-.76.759-1.169,1.379-1.169.19.01.32.03.49.1v.989c-.18-.07-.41-.12-.62-.12-.549,0-.999.31-1.249.83v3.298h-1.129v-5.007Z" />
    <path
       id="path162"
       d="m353.048,49.022c0-1.469,1.06-2.589,2.438-2.589,1.37,0,2.369,1.09,2.369,2.589v.27h-3.698c.11.81.72,1.399,1.499,1.399.47,0,.91-.18,1.189-.47l.74.669c-.61.51-1.219.73-1.979.73-1.439,0-2.559-1.129-2.559-2.599Zm3.738-.43c-.12-.73-.64-1.239-1.309-1.239-.68,0-1.179.489-1.309,1.239h2.618Z" />
    <path
       id="path164"
       d="m359.008,44.354l1.129-.2v7.366h-1.129v-7.166Z" />
    <path
       id="path166"
       d="m361.298,49.022c0-1.469,1.06-2.589,2.438-2.589,1.369,0,2.369,1.09,2.369,2.589v.27h-3.698c.11.81.72,1.399,1.499,1.399.47,0,.91-.18,1.189-.47l.739.669c-.609.51-1.219.73-1.979.73-1.439,0-2.559-1.129-2.559-2.599Zm3.738-.43c-.12-.73-.64-1.239-1.31-1.239-.68,0-1.179.489-1.309,1.239h2.619Z" />
    <path
       id="path168"
       d="m366.947,50.081c0-.9.74-1.469,1.919-1.469.47,0,.91.1,1.35.32v-.56c0-.66-.38-1-1.149-1-.42,0-.88.12-1.459.39l-.4-.82c.75-.34,1.409-.51,2.079-.51,1.31,0,2.049.66,2.049,1.819v3.268h-1.119v-.52c-.43.419-.909.609-1.489.609-1.05,0-1.779-.629-1.779-1.529Zm2.089.729c.45,0,.84-.13,1.18-.42v-.81c-.359-.17-.72-.24-1.149-.24-.649,0-1.06.27-1.06.72,0,.459.4.75,1.029.75Z" />
    <path
       id="path170"
       d="m372.258,50.941l.529-.75c.66.41,1.1.569,1.609.569.6,0,1.01-.28,1.01-.679,0-.31-.21-.47-.7-.57l-.879-.15c-.979-.18-1.449-.63-1.449-1.379,0-.939.77-1.549,1.938-1.549.7,0,1.329.2,1.969.6l-.529.75c-.51-.33-1-.48-1.51-.48-.52,0-.859.22-.859.58,0,.32.181.46.7.55l.89.17c.999.18,1.479.64,1.479,1.389,0,.919-.879,1.629-2.049,1.629-.859,0-1.619-.24-2.148-.68Z" />
    <path
       id="path172"
       d="m377.317,49.022c0-1.469,1.06-2.589,2.438-2.589,1.369,0,2.369,1.09,2.369,2.589v.27h-3.698c.11.81.72,1.399,1.499,1.399.47,0,.91-.18,1.189-.47l.739.669c-.609.51-1.219.73-1.979.73-1.439,0-2.559-1.129-2.559-2.599Zm3.738-.43c-.12-.73-.64-1.239-1.31-1.239-.68,0-1.18.489-1.31,1.239h2.619Z" />
    <path
       id="path174"
       d="m383.067,49.022c0-1.429,1.029-2.549,2.339-2.549.569,0,1.089.23,1.459.65v-2.769l1.13-.2v7.366h-1.12v-.66c-.359.45-.919.709-1.549.709-1.27,0-2.259-1.129-2.259-2.548Zm3.798,1.049v-2.109c-.29-.34-.72-.54-1.189-.54-.859,0-1.499.68-1.499,1.599,0,.909.64,1.599,1.499,1.599.49,0,.899-.19,1.189-.55Z" />
  </g>
  <rect
     id="rect178"
     height="50"
     width="117"
     y="108.015"
     x="301.233"
     class="uuid-4020b2eb-ea52-4b19-9550-570d36eff928" />
  <g
     id="g190">
    <path
       id="path180"
       d="m346.903,128.789h1.199v6.996h-1.199v-6.996Z" />
    <path
       id="path182"
       d="m349.593,130.778h1.129v.82c.38-.59.929-.9,1.579-.9,1.029,0,1.749.73,1.749,1.789v3.298h-1.14v-2.979c0-.729-.43-1.199-1.099-1.199-.46,0-.83.21-1.089.61v3.568h-1.129v-5.007Z" />
    <path
       id="path184"
       d="m357.623,134.076v-3.298h1.139v2.968c0,.74.43,1.209,1.1,1.209.45,0,.83-.2,1.089-.6v-3.578h1.129v5.007h-1.129v-.81c-.38.59-.919.89-1.589.89-1.019,0-1.739-.74-1.739-1.789Z" />
    <path
       id="path186"
       d="m363.033,135.205l.53-.75c.659.41,1.1.569,1.609.569.6,0,1.009-.28,1.009-.679,0-.31-.21-.47-.699-.57l-.88-.15c-.979-.18-1.449-.63-1.449-1.379,0-.939.77-1.549,1.939-1.549.699,0,1.329.2,1.969.6l-.53.75c-.51-.33-.999-.48-1.509-.48-.52,0-.859.22-.859.58,0,.32.18.46.699.55l.89.17c1,.18,1.479.64,1.479,1.389,0,.919-.88,1.629-2.049,1.629-.859,0-1.619-.24-2.149-.68Z" />
    <path
       id="path188"
       d="m368.093,133.286c0-1.469,1.06-2.589,2.438-2.589,1.369,0,2.369,1.09,2.369,2.589v.27h-3.698c.11.81.72,1.399,1.499,1.399.47,0,.91-.18,1.189-.47l.739.669c-.609.51-1.219.73-1.979.73-1.439,0-2.559-1.129-2.559-2.599Zm3.738-.43c-.12-.73-.64-1.239-1.31-1.239-.68,0-1.18.489-1.31,1.239h2.619Z" />
  </g>
  <g
     id="g206">
    <path
       id="path192"
       d="m338.858,213.054h3.128c1.419,0,2.339.89,2.339,2.179,0,1.259-.919,2.149-2.339,2.149h-1.929v2.668h-1.2v-6.996Zm2.938,3.348c.85,0,1.319-.47,1.319-1.179,0-.69-.47-1.16-1.309-1.16h-1.749v2.339h1.739Z" />
    <path
       id="path194"
       d="m344.718,213.054h1.289l2.149,5.777,2.169-5.777h1.239l-2.739,6.996h-1.389l-2.718-6.996Z" />
    <path
       id="path196"
       d="m354.578,212.914l1.129-.19v2.989c.35-.44.909-.71,1.539-.71,1.27,0,2.259,1.129,2.259,2.549,0,1.429-1.02,2.548-2.329,2.548-.59,0-1.109-.24-1.489-.689v.64h-1.109v-7.136Zm3.818,4.638c0-.91-.64-1.599-1.489-1.599-.5,0-.91.2-1.199.56v2.089c.29.35.72.56,1.199.56.859,0,1.489-.689,1.489-1.609Z" />
    <path
       id="path198"
       d="m360.458,217.552c0-1.479,1.08-2.589,2.519-2.589,1.43,0,2.509,1.109,2.509,2.589s-1.079,2.588-2.509,2.588c-1.439,0-2.519-1.109-2.519-2.588Zm3.918,0c0-.93-.59-1.629-1.399-1.629-.819,0-1.409.7-1.409,1.629,0,.939.59,1.629,1.409,1.629.81,0,1.399-.689,1.399-1.629Z" />
    <path
       id="path200"
       d="m366.617,218.341v-3.298h1.14v2.968c0,.74.43,1.209,1.1,1.209.45,0,.829-.2,1.09-.6v-3.578h1.129v5.007h-1.129v-.81c-.38.59-.92.89-1.59.89-1.02,0-1.739-.74-1.739-1.789Z" />
    <path
       id="path202"
       d="m372.477,215.043h1.13v.82c.38-.59.93-.9,1.579-.9,1.029,0,1.749.73,1.749,1.789v3.298h-1.14v-2.979c0-.729-.43-1.199-1.1-1.199-.459,0-.829.21-1.089.61v3.568h-1.13v-5.007Z" />
    <path
       id="path204"
       d="m378.067,217.552c0-1.429,1.029-2.549,2.339-2.549.569,0,1.089.23,1.459.65v-2.769l1.13-.2v7.366h-1.12v-.66c-.359.45-.919.709-1.549.709-1.27,0-2.259-1.129-2.259-2.548Zm3.798,1.049v-2.109c-.29-.34-.72-.54-1.189-.54-.859,0-1.499.68-1.499,1.599,0,.909.64,1.599,1.499,1.599.49,0,.899-.19,1.189-.55Z" />
  </g>
  <g
     id="g226">
    <path
       id="path208"
       d="m225.604,37.848h1.972c1.594,0,2.728,1.161,2.728,2.8,0,1.909-1.576,3.502-3.484,3.502h-2.557l1.341-6.302Zm.855.936l-.945,4.43h1.422c1.251,0,2.26-1.117,2.26-2.503,0-1.134-.702-1.927-1.71-1.927h-1.026Z" />
    <path
       id="path210"
       d="m231.076,42.134c0-1.404,1.071-2.566,2.376-2.566,1.107,0,1.882.829,1.882,2.008,0,.207-.009.387-.036.567h-3.25c.009.72.531,1.261,1.233,1.261.387,0,.765-.126,1.035-.36l.54.657c-.549.378-1.062.54-1.656.54-1.251,0-2.125-.864-2.125-2.106Zm3.358-.621c-.027-.639-.45-1.107-1.044-1.107s-1.08.45-1.27,1.107h2.314Z" />
    <path
       id="path212"
       d="m237.223,37.695l1.026-.18-1.387,6.635h-1.008l1.369-6.455Z" />
    <path
       id="path214"
       d="m238.375,42.134c0-1.404,1.071-2.566,2.376-2.566,1.107,0,1.882.829,1.882,2.008,0,.207-.009.387-.036.567h-3.25c.009.72.531,1.261,1.233,1.261.387,0,.765-.126,1.035-.36l.54.657c-.549.378-1.062.54-1.656.54-1.251,0-2.125-.864-2.125-2.106Zm3.358-.621c-.027-.639-.45-1.107-1.044-1.107s-1.08.45-1.27,1.107h2.314Z" />
    <path
       id="path216"
       d="m243.802,42.89l.522-2.44h-.882l.18-.81h.864l.27-1.243,1.053-.216-.315,1.458h1.233l-.18.81h-1.233l-.486,2.26c-.099.468.063.648.576.648.144,0,.234-.009.513-.081l-.18.855c-.216.054-.495.09-.765.09-.936,0-1.35-.477-1.17-1.332Z" />
    <path
       id="path218"
       d="m246.898,42.134c0-1.404,1.071-2.566,2.376-2.566,1.107,0,1.882.829,1.882,2.008,0,.207-.009.387-.036.567h-3.25c.009.72.531,1.261,1.233,1.261.387,0,.765-.126,1.035-.36l.54.657c-.549.378-1.062.54-1.656.54-1.251,0-2.125-.864-2.125-2.106Zm3.358-.621c-.027-.639-.45-1.107-1.044-1.107s-1.08.45-1.27,1.107h2.314Z" />
    <path
       id="path220"
       d="m255.169,37.848h2.512c1.161,0,1.908.675,1.908,1.747,0,1.233-.99,2.151-2.322,2.151h-1.873l-.513,2.404h-1.054l1.342-6.302Zm2.025,3.016c.783,0,1.323-.477,1.323-1.197,0-.567-.396-.909-1.062-.909h-1.422l-.45,2.106h1.611Z" />
    <path
       id="path222"
       d="m260.334,37.848h1.089l.819,5.221,2.989-5.221h1.144l-3.719,6.302h-1.233l-1.089-6.302Z" />
    <path
       id="path224"
       d="m266.077,41.261c0-1.927,1.54-3.502,3.403-3.502,1.062,0,1.908.423,2.422,1.225l-.819.675c-.352-.604-.945-.927-1.656-.927-1.261,0-2.26,1.098-2.26,2.476,0,1.197.837,2.08,1.98,2.08.612,0,1.225-.279,1.71-.774l.576.711c-.657.639-1.539,1.026-2.403,1.026-1.675,0-2.953-1.296-2.953-2.989Z" />
  </g>
  <g
     id="g256">
    <path
       id="path228"
       d="m448.65,55.617c0-1.422,1.09-2.575,2.44-2.575,1.179,0,2.025.882,2.025,2.106,0,1.414-1.107,2.575-2.439,2.575-1.171,0-2.026-.882-2.026-2.106Zm3.476-.45c0-.756-.433-1.26-1.099-1.26-.774,0-1.396.747-1.396,1.674,0,.756.441,1.26,1.099,1.26.783,0,1.396-.729,1.396-1.674Z" />
    <path
       id="path230"
       d="m454.626,53.123h1.008l-.197.891c.378-.639.828-.963,1.341-.963.181,0,.369.045.505.108l-.198.891c-.108-.081-.378-.135-.595-.135-.44,0-.873.243-1.179.675l-.667,3.043h-.999l.981-4.51Z" />
    <path
       id="path232"
       d="m426.236,67.244c0-.882.693-1.449,1.773-1.449.486,0,.954.117,1.323.324l.09-.387c.153-.693-.171-1.044-.963-1.044-.333,0-.711.09-1.225.288l-.243-.738c.648-.252,1.197-.378,1.711-.378,1.314,0,1.972.693,1.72,1.836l-.604,2.737h-.99l.09-.405c-.432.315-.81.459-1.233.459-.882,0-1.449-.486-1.449-1.243Zm2.8.207l.171-.756c-.288-.171-.648-.252-1.08-.252-.585,0-.963.288-.963.702,0,.405.323.64.882.64.36,0,.675-.099.99-.333Z" />
    <path
       id="path234"
       d="m431.293,66.776l.612-2.854h1l-.567,2.62c-.153.684.171,1.144.783,1.144.369,0,.711-.162.999-.495l.711-3.268h1.009l-.981,4.51h-.999l.135-.675c-.405.486-.9.738-1.44.738-.945,0-1.477-.729-1.261-1.72Z" />
    <path
       id="path236"
       d="m436.918,67.173l.522-2.44h-.882l.18-.81h.864l.271-1.243,1.053-.216-.314,1.458h1.233l-.181.81h-1.233l-.486,2.26c-.099.468.063.648.576.648.145,0,.234-.009.514-.081l-.181.855c-.216.054-.495.09-.765.09-.937,0-1.351-.477-1.171-1.332Z" />
    <path
       id="path238"
       d="m440.024,66.416c0-1.422,1.089-2.575,2.439-2.575,1.18,0,2.025.882,2.025,2.106,0,1.414-1.107,2.575-2.439,2.575-1.17,0-2.025-.882-2.025-2.106Zm3.475-.45c0-.756-.432-1.26-1.098-1.26-.774,0-1.396.747-1.396,1.674,0,.756.44,1.26,1.098,1.26.783,0,1.396-.729,1.396-1.674Z" />
    <path
       id="path240"
       d="m445.64,65.444h3.069l-.18.864h-3.079l.189-.864Z" />
    <path
       id="path242"
       d="m450.166,63.923h1.009l-.198.891c.378-.639.828-.963,1.342-.963.18,0,.369.045.504.108l-.198.891c-.107-.081-.378-.135-.594-.135-.441,0-.873.243-1.18.675l-.666,3.043h-.999l.98-4.51Z" />
    <path
       id="path244"
       d="m452.885,66.416c0-1.404,1.071-2.566,2.376-2.566,1.108,0,1.882.829,1.882,2.008,0,.207-.009.387-.036.567h-3.25c.009.72.531,1.261,1.233,1.261.388,0,.766-.126,1.035-.36l.541.657c-.55.378-1.062.54-1.657.54-1.251,0-2.124-.864-2.124-2.106Zm3.357-.621c-.026-.639-.45-1.107-1.044-1.107s-1.08.45-1.27,1.107h2.313Z" />
    <path
       id="path246"
       d="m457.943,66.479c0-1.449,1.107-2.62,2.458-2.62.738,0,1.413.333,1.782.9l-.729.594c-.243-.405-.612-.603-1.08-.603-.783,0-1.44.747-1.44,1.647,0,.729.495,1.242,1.17,1.242.388,0,.747-.153,1.045-.414l.486.639c-.469.432-1.071.657-1.693.657-1.152,0-1.998-.864-1.998-2.043Z" />
    <path
       id="path248"
       d="m463.63,61.978l1.026-.18-1.386,6.635h-1.009l1.368-6.455Z" />
    <path
       id="path250"
       d="m464.593,67.244c0-.882.693-1.449,1.773-1.449.486,0,.955.117,1.323.324l.091-.387c.152-.693-.171-1.044-.964-1.044-.333,0-.711.09-1.224.288l-.243-.738c.647-.252,1.197-.378,1.71-.378,1.314,0,1.972.693,1.72,1.836l-.604,2.737h-.99l.09-.405c-.432.315-.81.459-1.233.459-.882,0-1.449-.486-1.449-1.243Zm2.8.207l.171-.756c-.288-.171-.647-.252-1.08-.252-.585,0-.963.288-.963.702,0,.405.324.64.882.64.36,0,.676-.099.99-.333Z" />
    <path
       id="path252"
       d="m470.345,63.923h.999l-.972,4.51h-1.009l.981-4.51Zm.153-1.468c0-.369.324-.702.692-.702.307,0,.559.243.559.559,0,.378-.315.693-.693.693-.324,0-.558-.234-.558-.549Z" />
    <path
       id="path254"
       d="m472.585,63.923h.999l-.162.756c.424-.541.892-.811,1.404-.811.612,0,1.045.369,1.171.927.477-.621,1.018-.927,1.611-.927.864,0,1.342.72,1.125,1.702l-.612,2.863h-.999l.576-2.719c.135-.612-.144-1.044-.684-1.044-.343,0-.657.18-1,.585,0,.099-.009.207-.036.315l-.611,2.863h-1l.576-2.683c.135-.648-.144-1.081-.684-1.081-.343,0-.648.171-.945.522l-.702,3.241h-1.009l.981-4.51Z" />
  </g>
  <g
     id="g274">
    <path
       id="path258"
       d="m433.418,39.106h1.972c1.594,0,2.728,1.161,2.728,2.8,0,1.909-1.575,3.502-3.483,3.502h-2.558l1.342-6.302Zm.855.936l-.945,4.43h1.422c1.252,0,2.26-1.117,2.26-2.503,0-1.134-.702-1.927-1.71-1.927h-1.026Z" />
    <path
       id="path260"
       d="m438.89,43.391c0-1.404,1.071-2.566,2.376-2.566,1.107,0,1.882.829,1.882,2.008,0,.207-.009.387-.036.567h-3.25c.009.72.531,1.261,1.233,1.261.388,0,.766-.126,1.035-.36l.54.657c-.549.378-1.062.54-1.656.54-1.251,0-2.124-.864-2.124-2.106Zm3.357-.621c-.026-.639-.45-1.107-1.044-1.107s-1.08.45-1.27,1.107h2.313Z" />
    <path
       id="path262"
       d="m445.038,38.952l1.026-.18-1.387,6.635h-1.009l1.369-6.455Z" />
    <path
       id="path264"
       d="m446.189,43.391c0-1.404,1.071-2.566,2.377-2.566,1.107,0,1.882.829,1.882,2.008,0,.207-.01.387-.036.567h-3.25c.009.72.531,1.261,1.233,1.261.387,0,.765-.126,1.035-.36l.54.657c-.549.378-1.062.54-1.656.54-1.252,0-2.125-.864-2.125-2.106Zm3.358-.621c-.027-.639-.45-1.107-1.045-1.107s-1.08.45-1.27,1.107h2.314Z" />
    <path
       id="path266"
       d="m451.616,44.147l.522-2.44h-.882l.18-.81h.864l.271-1.243,1.053-.216-.314,1.458h1.233l-.181.81h-1.233l-.486,2.26c-.099.468.063.648.576.648.145,0,.234-.009.514-.081l-.181.855c-.216.054-.495.09-.765.09-.937,0-1.351-.477-1.171-1.332Z" />
    <path
       id="path268"
       d="m454.712,43.391c0-1.404,1.071-2.566,2.377-2.566,1.106,0,1.881.829,1.881,2.008,0,.207-.009.387-.036.567h-3.25c.009.72.531,1.261,1.233,1.261.388,0,.766-.126,1.036-.36l.54.657c-.55.378-1.062.54-1.657.54-1.251,0-2.124-.864-2.124-2.106Zm3.357-.621c-.026-.639-.45-1.107-1.044-1.107s-1.08.45-1.27,1.107h2.313Z" />
    <path
       id="path270"
       d="m462.984,39.106h2.512c1.161,0,1.908.675,1.908,1.747,0,1.233-.99,2.151-2.322,2.151h-1.873l-.513,2.404h-1.054l1.342-6.302Zm2.025,3.016c.783,0,1.323-.477,1.323-1.197,0-.567-.396-.909-1.062-.909h-1.422l-.45,2.106h1.611Z" />
    <path
       id="path272"
       d="m468.149,39.106h1.089l.819,5.221,2.989-5.221h1.144l-3.719,6.302h-1.233l-1.089-6.302Z" />
  </g>
  <g
     id="g298">
    <path
       id="path276"
       d="m518.212,213.054h3.128c1.42,0,2.339.89,2.339,2.179,0,1.259-.919,2.149-2.339,2.149h-1.929v2.668h-1.199v-6.996Zm2.938,3.348c.85,0,1.319-.47,1.319-1.179,0-.69-.47-1.16-1.31-1.16h-1.749v2.339h1.739Z" />
    <path
       id="path278"
       d="m524.073,213.054h1.289l2.148,5.777,2.169-5.777h1.239l-2.738,6.996h-1.39l-2.718-6.996Z" />
    <path
       id="path280"
       d="m533.672,218.611c0-.9.739-1.469,1.919-1.469.47,0,.909.1,1.349.32v-.56c0-.66-.38-1-1.149-1-.42,0-.879.12-1.459.39l-.399-.82c.749-.34,1.409-.51,2.078-.51,1.31,0,2.049.66,2.049,1.819v3.268h-1.119v-.52c-.43.419-.909.609-1.489.609-1.049,0-1.778-.629-1.778-1.529Zm2.089.729c.449,0,.839-.13,1.179-.42v-.81c-.359-.17-.72-.24-1.149-.24-.649,0-1.06.27-1.06.72,0,.459.4.75,1.03.75Z" />
    <path
       id="path282"
       d="m538.623,215.043h1.229l1.398,3.638,1.39-3.638h1.18l-2.06,5.007h-1.099l-2.039-5.007Z" />
    <path
       id="path284"
       d="m544.222,218.611c0-.9.739-1.469,1.919-1.469.47,0,.909.1,1.35.32v-.56c0-.66-.38-1-1.149-1-.42,0-.88.12-1.459.39l-.4-.82c.75-.34,1.409-.51,2.079-.51,1.31,0,2.049.66,2.049,1.819v3.268h-1.119v-.52c-.43.419-.91.609-1.489.609-1.05,0-1.779-.629-1.779-1.529Zm2.089.729c.45,0,.84-.13,1.18-.42v-.81c-.36-.17-.72-.24-1.149-.24-.649,0-1.06.27-1.06.72,0,.459.399.75,1.029.75Z" />
    <path
       id="path286"
       d="m549.841,213.334c0-.38.31-.7.7-.7.379,0,.699.32.699.7s-.32.689-.699.689c-.391,0-.7-.31-.7-.689Zm.13,1.709h1.13v5.007h-1.13v-5.007Z" />
    <path
       id="path288"
       d="m552.501,212.884l1.13-.2v7.366h-1.13v-7.166Z" />
    <path
       id="path290"
       d="m554.761,218.611c0-.9.74-1.469,1.919-1.469.47,0,.91.1,1.35.32v-.56c0-.66-.38-1-1.149-1-.42,0-.88.12-1.459.39l-.4-.82c.75-.34,1.409-.51,2.079-.51,1.31,0,2.049.66,2.049,1.819v3.268h-1.119v-.52c-.43.419-.909.609-1.489.609-1.05,0-1.779-.629-1.779-1.529Zm2.089.729c.45,0,.84-.13,1.18-.42v-.81c-.359-.17-.72-.24-1.149-.24-.649,0-1.06.27-1.06.72,0,.459.4.75,1.029.75Z" />
    <path
       id="path292"
       d="m560.521,212.914l1.13-.19v2.989c.35-.44.909-.71,1.539-.71,1.27,0,2.259,1.129,2.259,2.549,0,1.429-1.02,2.548-2.329,2.548-.589,0-1.109-.24-1.489-.689v.64h-1.109v-7.136Zm3.818,4.638c0-.91-.64-1.599-1.489-1.599-.5,0-.909.2-1.199.56v2.089c.29.35.72.56,1.199.56.859,0,1.489-.689,1.489-1.609Z" />
    <path
       id="path294"
       d="m566.631,212.884l1.13-.2v7.366h-1.13v-7.166Z" />
    <path
       id="path296"
       d="m568.921,217.552c0-1.469,1.06-2.589,2.438-2.589,1.369,0,2.369,1.09,2.369,2.589v.27h-3.698c.11.81.72,1.399,1.499,1.399.47,0,.91-.18,1.189-.47l.739.669c-.609.51-1.219.73-1.979.73-1.439,0-2.559-1.129-2.559-2.599Zm3.738-.43c-.12-.73-.64-1.239-1.31-1.239-.68,0-1.18.489-1.31,1.239h2.619Z" />
  </g>
  <g
     id="g322">
    <path
       id="path300"
       d="m515.772,44.524h3.129c1.419,0,2.339.89,2.339,2.179,0,1.259-.92,2.149-2.339,2.149h-1.929v2.668h-1.2v-6.996Zm2.938,3.348c.85,0,1.319-.47,1.319-1.179,0-.69-.47-1.16-1.309-1.16h-1.749v2.339h1.738Z" />
    <path
       id="path302"
       d="m521.632,44.524h1.289l2.149,5.777,2.169-5.777h1.239l-2.739,6.996h-1.389l-2.719-6.996Z" />
    <path
       id="path304"
       d="m531.492,46.513h1.13v1.08c.279-.76.759-1.169,1.379-1.169.189.01.319.03.489.1v.989c-.18-.07-.409-.12-.619-.12-.55,0-1,.31-1.249.83v3.298h-1.13v-5.007Z" />
    <path
       id="path306"
       d="m534.962,49.022c0-1.469,1.06-2.589,2.438-2.589,1.369,0,2.368,1.09,2.368,2.589v.27h-3.697c.109.81.72,1.399,1.499,1.399.47,0,.909-.18,1.189-.47l.739.669c-.609.51-1.219.73-1.979.73-1.439,0-2.559-1.129-2.559-2.599Zm3.737-.43c-.119-.73-.64-1.239-1.309-1.239-.68,0-1.18.489-1.31,1.239h2.618Z" />
    <path
       id="path308"
       d="m540.712,49.022c0-1.449,1.1-2.589,2.528-2.589.779,0,1.499.31,1.999.85l-.699.729c-.351-.39-.78-.589-1.26-.589-.81,0-1.439.7-1.439,1.599,0,.909.63,1.599,1.439,1.599.479,0,.909-.2,1.26-.58l.699.719c-.5.54-1.22.85-1.999.85-1.429,0-2.528-1.129-2.528-2.588Z" />
    <path
       id="path310"
       d="m546.172,44.354l1.129-.2v7.366h-1.129v-7.166Z" />
    <path
       id="path312"
       d="m548.432,50.081c0-.9.739-1.469,1.919-1.469.47,0,.909.1,1.349.32v-.56c0-.66-.379-1-1.149-1-.419,0-.879.12-1.459.39l-.399-.82c.749-.34,1.409-.51,2.079-.51,1.309,0,2.049.66,2.049,1.819v3.268h-1.12v-.52c-.43.419-.909.609-1.488.609-1.05,0-1.779-.629-1.779-1.529Zm2.089.729c.449,0,.839-.13,1.179-.42v-.81c-.359-.17-.719-.24-1.149-.24-.649,0-1.059.27-1.059.72,0,.459.399.75,1.029.75Z" />
    <path
       id="path314"
       d="m554.051,44.804c0-.38.31-.7.7-.7.379,0,.699.32.699.7s-.32.689-.699.689c-.391,0-.7-.31-.7-.689Zm.13,1.709h1.13v5.007h-1.13v-5.007Z" />
    <path
       id="path316"
       d="m556.711,46.513h1.13v.79c.37-.57.869-.87,1.479-.87.689,0,1.219.37,1.479.959.39-.629.95-.959,1.659-.959.97,0,1.64.75,1.64,1.809v3.278h-1.13v-3.028c0-.7-.39-1.149-1.01-1.149-.409,0-.749.19-.999.6.01.1.02.2.02.3v3.278h-1.139v-3.028c0-.7-.39-1.149-1.01-1.149-.41,0-.739.19-.989.58v3.598h-1.13v-5.007Z" />
    <path
       id="path318"
       d="m565.242,49.022c0-1.469,1.06-2.589,2.438-2.589,1.369,0,2.369,1.09,2.369,2.589v.27h-3.698c.11.81.72,1.399,1.499,1.399.47,0,.91-.18,1.189-.47l.739.669c-.609.51-1.219.73-1.979.73-1.439,0-2.559-1.129-2.559-2.599Zm3.738-.43c-.12-.73-.64-1.239-1.31-1.239-.68,0-1.18.489-1.31,1.239h2.619Z" />
    <path
       id="path320"
       d="m570.992,49.022c0-1.429,1.029-2.549,2.339-2.549.569,0,1.089.23,1.459.65v-2.769l1.13-.2v7.366h-1.12v-.66c-.359.45-.919.709-1.549.709-1.27,0-2.259-1.129-2.259-2.548Zm3.798,1.049v-2.109c-.29-.34-.72-.54-1.189-.54-.859,0-1.499.68-1.499,1.599,0,.909.64,1.599,1.499,1.599.49,0,.899-.19,1.189-.55Z" />
  </g>
  <g
     id="g330">
    <path
       id="path324"
       d="m164.994,117.623h3.418c1.489,0,2.469.969,2.469,2.309,0,1.27-.979,2.249-2.469,2.249h-1.699v2.438h-1.719v-6.996Zm3.108,3.188c.7,0,1.04-.379,1.04-.889,0-.5-.34-.88-1.029-.88h-1.399v1.769h1.389Z" />
    <path
       id="path326"
       d="m171.184,117.623h1.859l1.849,5.207,1.879-5.207h1.789l-2.729,6.996h-1.959l-2.688-6.996Z" />
    <path
       id="path328"
       d="m178.684,121.121c0-2.039,1.608-3.608,3.688-3.608,1.119,0,2.229.53,2.839,1.359l-1.16,1.1c-.459-.62-1.019-.93-1.679-.93-1.09,0-1.909.89-1.909,2.079s.819,2.079,1.909,2.079c.66,0,1.22-.31,1.679-.929l1.16,1.099c-.61.83-1.72,1.359-2.839,1.359-2.079,0-3.688-1.569-3.688-3.608Z" />
  </g>
  <g
     id="g340">
    <path
       id="path332"
       d="m164.344,152.23l.65-.879c.899.74,1.549,1.02,2.358,1.02.919,0,1.559-.47,1.559-1.12,0-.569-.339-.839-1.269-1l-1.29-.22c-1.209-.22-1.799-.819-1.799-1.779,0-1.27,1.009-2.109,2.579-2.109,1.049,0,2.009.31,2.809.899l-.61.899c-.7-.53-1.449-.81-2.239-.81-.839,0-1.399.43-1.399,1,0,.51.32.77,1.079.89l1.25.21c1.409.25,2.069.869,2.069,1.929,0,1.29-1.14,2.199-2.809,2.199-1.099,0-2.049-.38-2.938-1.129Z" />
    <path
       id="path334"
       d="m171.034,146.533c0-.38.31-.7.7-.7.38,0,.7.32.7.7s-.32.689-.7.689c-.39,0-.7-.31-.7-.689Zm.13,1.709h1.129v5.007h-1.129v-5.007Z" />
    <path
       id="path336"
       d="m173.384,152.42l2.579-3.208-2.559.02v-.99h3.948v.83l-2.588,3.218,2.648-.01v.969h-4.028v-.83Z" />
    <path
       id="path338"
       d="m178.134,150.751c0-1.469,1.06-2.589,2.438-2.589,1.369,0,2.369,1.09,2.369,2.589v.27h-3.698c.11.81.72,1.399,1.499,1.399.47,0,.91-.18,1.189-.47l.739.669c-.609.51-1.219.73-1.979.73-1.439,0-2.559-1.129-2.559-2.599Zm3.738-.43c-.12-.73-.64-1.239-1.31-1.239-.68,0-1.18.489-1.31,1.239h2.619Z" />
  </g>
  <g
     id="g350">
    <path
       id="path342"
       d="m161.244,182.136h1.56l2.049,4.248,2.039-4.248h1.559v6.996h-1.129v-5.477l-2.479,4.978-2.489-5.007v5.507h-1.109v-6.996Z" />
    <path
       id="path344"
       d="m169.765,186.634c0-1.479,1.08-2.589,2.519-2.589,1.429,0,2.509,1.109,2.509,2.589s-1.08,2.588-2.509,2.588c-1.439,0-2.519-1.109-2.519-2.588Zm3.918,0c0-.93-.59-1.629-1.399-1.629-.819,0-1.409.7-1.409,1.629,0,.939.59,1.629,1.409,1.629.81,0,1.399-.689,1.399-1.629Z" />
    <path
       id="path346"
       d="m175.734,186.634c0-1.429,1.029-2.549,2.339-2.549.569,0,1.089.23,1.459.65v-2.769l1.13-.2v7.366h-1.12v-.66c-.359.45-.919.709-1.549.709-1.27,0-2.259-1.129-2.259-2.548Zm3.798,1.049v-2.109c-.29-.34-.72-.54-1.189-.54-.859,0-1.499.68-1.499,1.599,0,.909.64,1.599,1.499,1.599.49,0,.899-.19,1.189-.55Z" />
    <path
       id="path348"
       d="m181.834,186.634c0-1.469,1.06-2.589,2.438-2.589,1.369,0,2.369,1.09,2.369,2.589v.27h-3.698c.11.81.72,1.399,1.499,1.399.47,0,.91-.18,1.189-.47l.739.669c-.609.51-1.219.73-1.979.73-1.439,0-2.559-1.129-2.559-2.599Zm3.738-.43c-.12-.73-.64-1.239-1.31-1.239-.68,0-1.18.489-1.31,1.239h2.619Z" />
  </g>
  <g
     id="g362">
    <path
       id="path352"
       d="m161.844,221.516c0-2.029,1.579-3.608,3.618-3.608,1.069,0,2.089.459,2.729,1.249l-.8.78c-.5-.62-1.189-.95-1.929-.95-1.359,0-2.389,1.089-2.389,2.529s1.029,2.529,2.389,2.529c.739,0,1.429-.33,1.929-.95l.8.78c-.64.79-1.659,1.249-2.729,1.249-2.039,0-3.618-1.579-3.618-3.608Z" />
    <path
       id="path354"
       d="m169.264,217.848l1.129-.2v7.366h-1.129v-7.166Z" />
    <path
       id="path356"
       d="m171.524,223.575c0-.9.739-1.469,1.919-1.469.47,0,.909.1,1.349.32v-.56c0-.66-.38-1-1.149-1-.42,0-.879.12-1.459.39l-.4-.82c.75-.34,1.409-.51,2.079-.51,1.31,0,2.049.66,2.049,1.819v3.268h-1.119v-.52c-.43.419-.91.609-1.489.609-1.049,0-1.779-.629-1.779-1.529Zm2.089.729c.45,0,.839-.13,1.179-.42v-.81c-.36-.17-.72-.24-1.149-.24-.649,0-1.06.27-1.06.72,0,.459.4.75,1.03.75Z" />
    <path
       id="path358"
       d="m176.834,224.435l.529-.75c.66.41,1.1.569,1.609.569.6,0,1.01-.28,1.01-.679,0-.31-.21-.47-.7-.57l-.879-.15c-.979-.18-1.45-.63-1.45-1.379,0-.939.77-1.549,1.939-1.549.7,0,1.329.2,1.969.6l-.529.75c-.51-.33-1-.48-1.51-.48-.52,0-.859.22-.859.58,0,.32.181.46.7.55l.89.17c.999.18,1.479.64,1.479,1.389,0,.919-.879,1.629-2.049,1.629-.859,0-1.619-.24-2.148-.68Z" />
    <path
       id="path360"
       d="m181.624,224.435l.529-.75c.66.41,1.1.569,1.609.569.6,0,1.01-.28,1.01-.679,0-.31-.21-.47-.7-.57l-.879-.15c-.979-.18-1.449-.63-1.449-1.379,0-.939.77-1.549,1.938-1.549.7,0,1.329.2,1.969.6l-.529.75c-.51-.33-1-.48-1.509-.48-.521,0-.86.22-.86.58,0,.32.181.46.7.55l.89.17c.999.18,1.479.64,1.479,1.389,0,.919-.879,1.629-2.049,1.629-.859,0-1.619-.24-2.148-.68Z" />
  </g>
  <g
     id="g388">
    <path
       id="path364"
       d="m367.984,173.26h.99l-.099.468c.333-.315.756-.496,1.225-.496.99,0,1.746.882,1.746,2.053,0,1.396-1.035,2.539-2.305,2.539-.603,0-1.08-.261-1.368-.738l-.567,2.565h-.999l1.377-6.392Zm.747,1.206l-.414,1.918c.216.342.63.576,1.071.576.837,0,1.476-.693,1.476-1.594,0-.765-.486-1.287-1.179-1.287-.352,0-.675.135-.955.387Z" />
    <path
       id="path366"
       d="m372.673,175.753c0-1.422,1.09-2.575,2.439-2.575,1.18,0,2.026.882,2.026,2.106,0,1.414-1.107,2.575-2.44,2.575-1.17,0-2.025-.882-2.025-2.106Zm3.475-.45c0-.756-.432-1.26-1.098-1.26-.774,0-1.396.747-1.396,1.674,0,.756.441,1.26,1.099,1.26.783,0,1.395-.729,1.395-1.674Z" />
    <path
       id="path368"
       d="m377.965,175.762c0-1.395,1.035-2.539,2.313-2.539.576,0,1.054.252,1.351.693l.549-2.602,1.026-.18-1.386,6.635h-.99l.09-.423c-.324.297-.738.468-1.206.468-.991,0-1.747-.891-1.747-2.053Zm3.106.829l.404-1.972c-.216-.324-.611-.531-1.053-.531-.828,0-1.468.693-1.468,1.594,0,.756.486,1.287,1.171,1.287.359,0,.666-.126.945-.378Z" />
    <path
       id="path370"
       d="m383.428,176.546c0-2.242,1.206-4.258,3.106-5.177l.396.702c-1.566.774-2.593,2.503-2.593,4.375,0,1.134.388,2.062,1.125,2.692l-.656.594c-.91-.738-1.378-1.836-1.378-3.187Z" />
    <path
       id="path372"
       d="m386.568,177.113l.558-.648c.567.459.954.621,1.449.621.478,0,.838-.27.838-.612,0-.243-.153-.387-.531-.486l-.766-.198c-.702-.198-1.053-.594-1.053-1.18,0-.873.657-1.431,1.692-1.431.675,0,1.296.234,1.836.675l-.558.639c-.441-.351-.919-.54-1.333-.54-.468,0-.747.207-.747.531,0,.252.136.387.522.495l.766.207c.747.208,1.106.576,1.106,1.135,0,.882-.765,1.539-1.8,1.539-.774,0-1.495-.27-1.98-.747Z" />
    <path
       id="path374"
       d="m393.977,174.556c0,2.232-1.207,4.249-3.106,5.176l-.396-.702c1.567-.774,2.593-2.502,2.593-4.384,0-1.125-.387-2.053-1.125-2.683l.657-.594c.909.738,1.378,1.836,1.378,3.187Z" />
    <path
       id="path376"
       d="m367.335,186.913l.612-2.854h1l-.567,2.62c-.153.684.171,1.144.783,1.144.369,0,.711-.162,1-.495l.711-3.268h1.008l-.981,4.51h-.999l.135-.675c-.405.486-.9.738-1.44.738-.945,0-1.477-.729-1.261-1.72Z" />
    <path
       id="path378"
       d="m371.989,187.912l.558-.648c.567.459.954.621,1.449.621.478,0,.838-.27.838-.612,0-.243-.153-.387-.531-.486l-.766-.198c-.702-.198-1.053-.594-1.053-1.18,0-.873.657-1.431,1.692-1.431.675,0,1.296.234,1.836.675l-.558.639c-.441-.351-.919-.54-1.333-.54-.468,0-.747.207-.747.531,0,.252.136.387.522.495l.766.207c.747.208,1.106.576,1.106,1.135,0,.882-.765,1.539-1.8,1.539-.774,0-1.495-.27-1.98-.747Z" />
    <path
       id="path380"
       d="m376.65,186.553c0-1.404,1.071-2.566,2.377-2.566,1.106,0,1.881.829,1.881,2.008,0,.207-.009.387-.036.567h-3.25c.01.72.531,1.261,1.233,1.261.388,0,.766-.126,1.036-.36l.54.657c-.55.378-1.062.54-1.657.54-1.251,0-2.124-.864-2.124-2.106Zm3.357-.621c-.026-.639-.45-1.107-1.044-1.107s-1.08.45-1.27,1.107h2.313Z" />
    <path
       id="path382"
       d="m381.312,187.912l.558-.648c.567.459.954.621,1.449.621.478,0,.838-.27.838-.612,0-.243-.153-.387-.531-.486l-.766-.198c-.702-.198-1.053-.594-1.053-1.18,0-.873.657-1.431,1.692-1.431.675,0,1.296.234,1.836.675l-.558.639c-.441-.351-.919-.54-1.333-.54-.468,0-.747.207-.747.531,0,.252.136.387.522.495l.766.207c.747.208,1.106.576,1.106,1.135,0,.882-.765,1.539-1.8,1.539-.774,0-1.495-.27-1.98-.747Z" />
    <path
       id="path384"
       d="m389.187,182.268h2.512c1.161,0,1.908.675,1.908,1.747,0,1.233-.99,2.151-2.322,2.151h-1.873l-.513,2.404h-1.054l1.342-6.302Zm2.025,3.016c.783,0,1.323-.477,1.323-1.197,0-.567-.396-.909-1.062-.909h-1.422l-.45,2.106h1.611Z" />
    <path
       id="path386"
       d="m394.353,182.268h1.089l.819,5.221,2.989-5.221h1.144l-3.719,6.302h-1.233l-1.089-6.302Z" />
  </g>
</svg>
