<?xml version="1.0" encoding="UTF-8" standalone="no"?>
<svg
   id="uuid-de6eaa4a-1073-4424-a2fc-d1dc87ee93d1"
   data-name="Layer 1"
   width="595.276"
   height="271.329"
   viewBox="0 0 595.276 271.329"
   version="1.1"
   sodipodi:docname="replicaset.svg"
   inkscape:version="1.4.2 (ebf0e940d0, 2025-05-08)"
   xmlns:inkscape="http://www.inkscape.org/namespaces/inkscape"
   xmlns:sodipodi="http://sodipodi.sourceforge.net/DTD/sodipodi-0.dtd"
   xmlns="http://www.w3.org/2000/svg"
   xmlns:svg="http://www.w3.org/2000/svg">
  <sodipodi:namedview
     id="namedview55"
     pagecolor="#ffffff"
     bordercolor="#cccccc"
     borderopacity="1"
     inkscape:showpageshadow="0"
     inkscape:pageopacity="1"
     inkscape:pagecheckerboard="true"
     inkscape:deskcolor="#d1d1d1"
     inkscape:zoom="2.0267909"
     inkscape:cx="342.16652"
     inkscape:cy="142.09655"
     inkscape:window-width="2560"
     inkscape:window-height="1335"
     inkscape:window-x="1440"
     inkscape:window-y="32"
     inkscape:window-maximized="1"
     inkscape:current-layer="uuid-de6eaa4a-1073-4424-a2fc-d1dc87ee93d1" />
  <defs
     id="defs1">
    <style
       id="style1">
      .uuid-40d2a5e1-4556-42e6-95dc-a32907e24f35, .uuid-49fa2295-e5d0-4a19-a6df-4b9fdd0946cf, .uuid-8639a0b9-72fd-46f9-93e4-a98518b150cd {
        stroke: #3f9c35;
        stroke-linecap: round;
        stroke-linejoin: round;
      }

      .uuid-40d2a5e1-4556-42e6-95dc-a32907e24f35, .uuid-49fa2295-e5d0-4a19-a6df-4b9fdd0946cf, .uuid-8639a0b9-72fd-46f9-93e4-a98518b150cd, .uuid-bb5aed13-9d47-4472-a2f7-c93bbe9e31bc {
        fill: none;
      }

      .uuid-3d94449d-23b3-4c85-a5d5-dc1de80dfa7c {
        fill: #06c;
      }

      .uuid-c9fc2888-2aef-4a0f-b6ca-71cfb9385452 {
        fill: #fff;
      }

      .uuid-662478a5-35c7-4ed9-bf18-0de26b8683cb {
        fill: #dbe8f5;
      }

      .uuid-7127ecff-25b0-4179-9b99-d92ce71c56d5 {
        fill: #a1c2e7;
      }

      .uuid-49fa2295-e5d0-4a19-a6df-4b9fdd0946cf {
        stroke-dasharray: 0 0 3.018 3.018;
      }

      .uuid-8639a0b9-72fd-46f9-93e4-a98518b150cd {
        stroke-dasharray: 0 0 3.176 3.176;
      }

      .uuid-bb5aed13-9d47-4472-a2f7-c93bbe9e31bc {
        stroke: #000;
        stroke-miterlimit: 10;
      }
    </style>
  </defs>
  <rect
     style="fill:#ffffff"
     id="rect55"
     width="594.53589"
     height="270.37817"
     x="0.4933908"
     y="0" />
  <rect
     class="uuid-662478a5-35c7-4ed9-bf18-0de26b8683cb"
     x="318.825"
     y="193.434"
     width="55.03"
     height="44.294"
     id="rect1" />
  <rect
     class="uuid-662478a5-35c7-4ed9-bf18-0de26b8683cb"
     x="381.855"
     y="193.434"
     width="55.03"
     height="44.294"
     id="rect2" />
  <rect
     class="uuid-662478a5-35c7-4ed9-bf18-0de26b8683cb"
     x="444.885"
     y="193.434"
     width="55.03"
     height="44.294"
     id="rect3" />
  <g
     id="g4">
    <rect
       class="uuid-c9fc2888-2aef-4a0f-b6ca-71cfb9385452"
       x="207.593"
       y="34.562"
       width="180.089"
       height="43.293"
       id="rect4" />
    <path
       class="uuid-3d94449d-23b3-4c85-a5d5-dc1de80dfa7c"
       d="m387.182,35.061v42.294h-179.089v-42.294h179.089m1-1h-181.089v44.294h181.089v-44.294h0Z"
       id="path4" />
  </g>
  <g
     id="g14">
    <path
       d="m262.352,51.035h3.418c2.351,0,4.222,1.871,4.222,4.198s-1.871,4.198-4.222,4.198h-3.418v-8.396Zm3.418,6.632c1.164,0,2.087-1.079,2.087-2.435s-.923-2.435-2.087-2.435h-1.355v4.869h1.355Z"
       id="path5" />
    <path
       d="m271.016,56.348c0-1.811,1.344-3.202,3.119-3.202,1.787,0,3.046,1.355,3.046,3.274v.419h-4.258c.18.696.744,1.164,1.451,1.164.516,0,.947-.18,1.223-.516l1.284,1.067c-.804.708-1.56.996-2.603.996-1.823,0-3.263-1.403-3.263-3.203Zm4.366-.611c-.168-.66-.636-1.08-1.259-1.08-.611,0-1.043.396-1.199,1.08h2.458Z"
       id="path6" />
    <path
       d="m278.396,53.242h1.919v.863c.408-.552,1.092-.899,1.835-.899,1.523,0,2.734,1.403,2.734,3.142s-1.271,3.119-2.878,3.119c-.672,0-1.259-.252-1.667-.72v3.19h-1.943v-8.695Zm4.582,3.094c0-.875-.636-1.523-1.475-1.523-.479,0-.852.168-1.163.504v2.063c.3.312.708.492,1.163.492.852,0,1.475-.648,1.475-1.535Z"
       id="path7" />
    <path
       d="m286.124,50.891l1.943-.3v8.839h-1.943v-8.539Z"
       id="path8" />
    <path
       d="m289.304,56.348c0-1.823,1.391-3.202,3.226-3.202s3.226,1.379,3.226,3.202-1.391,3.203-3.226,3.203-3.226-1.379-3.226-3.203Zm4.557,0c0-.923-.552-1.583-1.331-1.583s-1.332.66-1.332,1.583.552,1.583,1.332,1.583,1.331-.66,1.331-1.583Z"
       id="path9" />
    <path
       d="m296.684,61.961v-1.631c.144.024.348.048.576.048.528,0,.815-.216,1.008-.624l.096-.204-2.279-6.309h2.147l1.235,3.994,1.415-3.994h2.1l-2.783,6.884c-.575,1.415-1.283,1.931-2.71,1.931-.228,0-.54-.036-.804-.096Z"
       id="path10" />
    <path
       d="m303.823,53.242h1.943v.983c.456-.708,1.079-1.08,1.835-1.08.804,0,1.439.444,1.739,1.151.479-.744,1.175-1.151,2.026-1.151,1.14,0,1.943.899,1.943,2.171v4.114h-1.943v-3.73c0-.624-.371-1.031-.923-1.031-.36,0-.647.144-.899.468v4.293h-1.943v-3.73c0-.624-.372-1.031-.924-1.031-.359,0-.659.156-.911.479v4.282h-1.943v-6.188Z"
       id="path11" />
    <path
       d="m314.503,56.348c0-1.811,1.344-3.202,3.119-3.202,1.787,0,3.046,1.355,3.046,3.274v.419h-4.258c.18.696.744,1.164,1.451,1.164.516,0,.947-.18,1.224-.516l1.283,1.067c-.804.708-1.56.996-2.603.996-1.823,0-3.263-1.403-3.263-3.203Zm4.366-.611c-.168-.66-.636-1.08-1.26-1.08-.611,0-1.043.396-1.199,1.08h2.459Z"
       id="path12" />
    <path
       d="m321.883,53.242h1.943v1.007c.479-.72,1.151-1.104,1.955-1.104,1.199,0,2.051.875,2.051,2.111v4.174h-1.943v-3.61c0-.696-.407-1.151-1.031-1.151-.42,0-.756.168-1.031.516v4.246h-1.943v-6.188Z"
       id="path13" />
    <path
       d="m329.936,57.559v-2.818h-1.2v-1.499h1.2v-1.715l1.942-.396v2.111h1.655v1.499h-1.655v2.435c0,.552.216.744.815.744.229,0,.408-.024.792-.132v1.571c-.36.108-.936.192-1.331.192-1.464,0-2.219-.672-2.219-1.991Z"
       id="path14" />
  </g>
  <g
     id="g18">
    <rect
       class="uuid-c9fc2888-2aef-4a0f-b6ca-71cfb9385452"
       x="95.361"
       y="114.26"
       width="181.089"
       height="44.294"
       id="rect14" />
    <g
       id="g17">
      <polyline
         class="uuid-40d2a5e1-4556-42e6-95dc-a32907e24f35"
         points="276.45 157.054 276.45 158.554 274.95 158.554"
         id="polyline14" />
      <line
         class="uuid-49fa2295-e5d0-4a19-a6df-4b9fdd0946cf"
         x1="271.932"
         y1="158.554"
         x2="98.37"
         y2="158.554"
         id="line14" />
      <polyline
         class="uuid-40d2a5e1-4556-42e6-95dc-a32907e24f35"
         points="96.861 158.554 95.361 158.554 95.361 157.054"
         id="polyline15" />
      <line
         class="uuid-8639a0b9-72fd-46f9-93e4-a98518b150cd"
         x1="95.361"
         y1="153.878"
         x2="95.361"
         y2="117.349"
         id="line15" />
      <polyline
         class="uuid-40d2a5e1-4556-42e6-95dc-a32907e24f35"
         points="95.361 115.76 95.361 114.26 96.861 114.26"
         id="polyline16" />
      <line
         class="uuid-49fa2295-e5d0-4a19-a6df-4b9fdd0946cf"
         x1="99.88"
         y1="114.26"
         x2="273.441"
         y2="114.26"
         id="line16" />
      <polyline
         class="uuid-40d2a5e1-4556-42e6-95dc-a32907e24f35"
         points="274.95 114.26 276.45 114.26 276.45 115.76"
         id="polyline17" />
      <line
         class="uuid-8639a0b9-72fd-46f9-93e4-a98518b150cd"
         x1="276.45"
         y1="118.937"
         x2="276.45"
         y2="155.466"
         id="line17" />
    </g>
  </g>
  <g
     id="g29">
    <path
       d="m154.994,125.234h4.078c1.727,0,2.962,1.116,2.962,2.675,0,1.067-.612,1.931-1.559,2.351l1.763,3.37h-2.303l-1.523-3.083h-1.355v3.083h-2.063v-8.396Zm3.886,3.694c.636,0,1.067-.396,1.067-.996s-.432-.996-1.067-.996h-1.823v1.991h1.823Z"
       id="path18" />
    <path
       d="m162.673,130.547c0-1.811,1.344-3.202,3.119-3.202,1.787,0,3.046,1.355,3.046,3.274v.419h-4.258c.18.696.744,1.164,1.451,1.164.516,0,.947-.18,1.223-.516l1.284,1.067c-.804.708-1.56.996-2.603.996-1.823,0-3.263-1.403-3.263-3.203Zm4.366-.611c-.168-.66-.636-1.08-1.259-1.08-.611,0-1.043.396-1.199,1.08h2.458Z"
       id="path19" />
    <path
       d="m170.053,127.441h1.919v.863c.408-.552,1.092-.899,1.835-.899,1.523,0,2.735,1.403,2.735,3.142s-1.271,3.119-2.878,3.119c-.672,0-1.259-.252-1.667-.72v3.19h-1.943v-8.695Zm4.582,3.094c0-.875-.635-1.523-1.475-1.523-.479,0-.852.168-1.163.504v2.063c.3.312.708.492,1.163.492.852,0,1.475-.648,1.475-1.535Z"
       id="path20" />
    <path
       d="m177.781,125.09l1.943-.3v8.839h-1.943v-8.539Z"
       id="path21" />
    <path
       d="m181.118,125.402c0-.6.492-1.091,1.091-1.091s1.091.492,1.091,1.091-.492,1.091-1.091,1.091-1.091-.492-1.091-1.091Zm.12,2.039h1.943v6.188h-1.943v-6.188Z"
       id="path22" />
    <path
       d="m184.417,130.547c0-1.811,1.392-3.202,3.203-3.202,1.019,0,1.955.408,2.579,1.14l-1.188,1.187c-.396-.468-.792-.671-1.319-.671-.768,0-1.343.66-1.343,1.547s.576,1.547,1.343,1.547c.528,0,.923-.204,1.319-.672l1.188,1.188c-.624.731-1.56,1.14-2.579,1.14-1.811,0-3.203-1.392-3.203-3.203Z"
       id="path23" />
    <path
       d="m190.874,131.854c0-1.14.888-1.799,2.411-1.799.444,0,.888.084,1.439.288v-.504c0-.6-.396-.899-1.223-.899-.468,0-1.02.132-1.739.432l-.672-1.355c1.02-.456,1.931-.672,2.842-.672,1.715,0,2.71.852,2.71,2.327v3.958h-1.919v-.54c-.54.456-1.055.635-1.715.635-1.259,0-2.135-.768-2.135-1.871Zm2.734.587c.408,0,.78-.108,1.115-.312v-.792c-.359-.084-.708-.132-1.067-.132-.635,0-.995.216-.995.612s.348.624.947.624Z"
       id="path24" />
    <path
       d="m197.582,132.49l1.055-1.523c1.164.815,1.895,1.115,2.723,1.115.887,0,1.427-.359,1.427-.887,0-.492-.288-.731-1.104-.875l-1.787-.312c-1.331-.228-2.062-1.067-2.062-2.255,0-1.631,1.247-2.65,3.334-2.65,1.295,0,2.579.42,3.442,1.104l-1.043,1.499c-.815-.624-1.619-.923-2.506-.923-.815,0-1.283.336-1.283.792,0,.432.276.647.947.768l1.679.288c1.571.264,2.398,1.092,2.398,2.375,0,1.643-1.391,2.758-3.586,2.758-1.331,0-2.519-.444-3.634-1.271Z"
       id="path25" />
    <path
       d="m205.813,130.547c0-1.811,1.344-3.202,3.119-3.202,1.787,0,3.046,1.355,3.046,3.274v.419h-4.258c.18.696.744,1.164,1.451,1.164.516,0,.947-.18,1.223-.516l1.284,1.067c-.804.708-1.56.996-2.603.996-1.823,0-3.263-1.403-3.263-3.203Zm4.366-.611c-.168-.66-.636-1.08-1.259-1.08-.611,0-1.043.396-1.199,1.08h2.458Z"
       id="path26" />
    <path
       d="m213.829,131.758v-2.818h-1.2v-1.499h1.2v-1.715l1.943-.396v2.111h1.655v1.499h-1.655v2.435c0,.552.216.744.815.744.228,0,.408-.024.792-.132v1.571c-.36.108-.936.192-1.331.192-1.463,0-2.219-.672-2.219-1.991Z"
       id="path27" />
    <path
       d="m179.168,139.634h2.231l2.219,6.249,2.255-6.249h2.146l-3.274,8.396h-2.351l-3.226-8.396Z"
       id="path28" />
    <path
       d="m190.087,141.553l-1.655.684v-1.631l2.339-.972h1.163v8.396h-1.847v-6.477Z"
       id="path29" />
  </g>
  <rect
     class="uuid-7127ecff-25b0-4179-9b99-d92ce71c56d5"
     x="318.825"
     y="114.26"
     width="181.089"
     height="44.294"
     id="rect29" />
  <g
     id="g41">
    <path
       d="m378.458,125.234h4.077c1.728,0,2.963,1.116,2.963,2.675,0,1.067-.612,1.931-1.56,2.351l1.764,3.37h-2.303l-1.523-3.083h-1.355v3.083h-2.062v-8.396Zm3.886,3.694c.636,0,1.067-.396,1.067-.996s-.432-.996-1.067-.996h-1.823v1.991h1.823Z"
       id="path30" />
    <path
       d="m386.138,130.547c0-1.811,1.344-3.202,3.118-3.202,1.787,0,3.047,1.355,3.047,3.274v.419h-4.258c.18.696.743,1.164,1.451,1.164.516,0,.947-.18,1.223-.516l1.284,1.067c-.804.708-1.56.996-2.603.996-1.823,0-3.263-1.403-3.263-3.203Zm4.365-.611c-.168-.66-.636-1.08-1.259-1.08-.611,0-1.044.396-1.199,1.08h2.458Z"
       id="path31" />
    <path
       d="m393.518,127.441h1.919v.863c.408-.552,1.092-.899,1.835-.899,1.523,0,2.734,1.403,2.734,3.142s-1.271,3.119-2.878,3.119c-.672,0-1.26-.252-1.667-.72v3.19h-1.943v-8.695Zm4.581,3.094c0-.875-.635-1.523-1.475-1.523-.479,0-.852.168-1.163.504v2.063c.3.312.707.492,1.163.492.852,0,1.475-.648,1.475-1.535Z"
       id="path32" />
    <path
       d="m401.245,125.09l1.943-.3v8.839h-1.943v-8.539Z"
       id="path33" />
    <path
       d="m404.582,125.402c0-.6.491-1.091,1.091-1.091s1.092.492,1.092,1.091-.492,1.091-1.092,1.091-1.091-.492-1.091-1.091Zm.119,2.039h1.943v6.188h-1.943v-6.188Z"
       id="path34" />
    <path
       d="m407.882,130.547c0-1.811,1.392-3.202,3.202-3.202,1.02,0,1.955.408,2.579,1.14l-1.188,1.187c-.396-.468-.792-.671-1.319-.671-.768,0-1.344.66-1.344,1.547s.576,1.547,1.344,1.547c.527,0,.923-.204,1.319-.672l1.188,1.188c-.624.731-1.56,1.14-2.579,1.14-1.811,0-3.202-1.392-3.202-3.203Z"
       id="path35" />
    <path
       d="m414.338,131.854c0-1.14.888-1.799,2.41-1.799.444,0,.888.084,1.439.288v-.504c0-.6-.396-.899-1.224-.899-.468,0-1.02.132-1.738.432l-.672-1.355c1.02-.456,1.931-.672,2.842-.672,1.716,0,2.711.852,2.711,2.327v3.958h-1.919v-.54c-.54.456-1.056.635-1.715.635-1.26,0-2.135-.768-2.135-1.871Zm2.734.587c.407,0,.779-.108,1.115-.312v-.792c-.359-.084-.708-.132-1.067-.132-.636,0-.995.216-.995.612s.348.624.947.624Z"
       id="path36" />
    <path
       d="m421.046,132.49l1.055-1.523c1.164.815,1.896,1.115,2.723,1.115.888,0,1.428-.359,1.428-.887,0-.492-.288-.731-1.104-.875l-1.787-.312c-1.331-.228-2.062-1.067-2.062-2.255,0-1.631,1.247-2.65,3.334-2.65,1.295,0,2.578.42,3.441,1.104l-1.043,1.499c-.815-.624-1.619-.923-2.507-.923-.815,0-1.283.336-1.283.792,0,.432.276.647.947.768l1.68.288c1.571.264,2.398,1.092,2.398,2.375,0,1.643-1.392,2.758-3.586,2.758-1.331,0-2.519-.444-3.634-1.271Z"
       id="path37" />
    <path
       d="m429.277,130.547c0-1.811,1.344-3.202,3.118-3.202,1.787,0,3.047,1.355,3.047,3.274v.419h-4.258c.18.696.743,1.164,1.451,1.164.516,0,.947-.18,1.223-.516l1.284,1.067c-.804.708-1.56.996-2.603.996-1.823,0-3.263-1.403-3.263-3.203Zm4.365-.611c-.168-.66-.636-1.08-1.259-1.08-.611,0-1.044.396-1.199,1.08h2.458Z"
       id="path38" />
    <path
       d="m437.293,131.758v-2.818h-1.2v-1.499h1.2v-1.715l1.942-.396v2.111h1.655v1.499h-1.655v2.435c0,.552.216.744.815.744.229,0,.408-.024.792-.132v1.571c-.36.108-.936.192-1.331.192-1.464,0-2.219-.672-2.219-1.991Z"
       id="path39" />
    <path
       d="m401.36,139.634h2.23l2.219,6.249,2.255-6.249h2.146l-3.273,8.396h-2.352l-3.226-8.396Z"
       id="path40" />
    <path
       d="m410.852,146.71l3.55-3.514c.396-.384.564-.744.564-1.139,0-.54-.528-.948-1.235-.948-.756,0-1.355.288-2.123,1.032l-1.031-1.259c.959-.912,2.051-1.379,3.214-1.379,1.787,0,2.975.972,2.975,2.435,0,.792-.336,1.463-1.092,2.195l-2.423,2.339,3.635-.012v1.571h-6.033v-1.319Z"
       id="path41" />
  </g>
  <g
     id="g44">
    <path
       d="m336.302,210.407h3.754c1.703,0,2.807,1.067,2.807,2.615,0,1.511-1.104,2.579-2.807,2.579h-2.314v3.202h-1.439v-8.396Zm3.526,4.018c1.019,0,1.583-.564,1.583-1.416,0-.827-.564-1.391-1.571-1.391h-2.099v2.807h2.087Z"
       id="path42" />
    <path
       d="m343.466,215.804c0-1.775,1.295-3.106,3.022-3.106,1.715,0,3.01,1.331,3.01,3.106s-1.295,3.106-3.01,3.106c-1.728,0-3.022-1.331-3.022-3.106Zm4.701,0c0-1.115-.707-1.955-1.679-1.955-.983,0-1.691.839-1.691,1.955,0,1.127.708,1.955,1.691,1.955.972,0,1.679-.828,1.679-1.955Z"
       id="path43" />
    <path
       d="m350.629,215.804c0-1.715,1.235-3.058,2.807-3.058.684,0,1.308.276,1.751.779v-3.322l1.355-.24v8.839h-1.343v-.792c-.433.54-1.104.852-1.859.852-1.523,0-2.711-1.355-2.711-3.059Zm4.558,1.259v-2.53c-.348-.408-.863-.648-1.427-.648-1.031,0-1.799.816-1.799,1.919,0,1.092.768,1.919,1.799,1.919.588,0,1.079-.228,1.427-.66Z"
       id="path44" />
  </g>
  <g
     id="g47">
    <path
       d="m399.331,210.407h3.754c1.703,0,2.807,1.067,2.807,2.615,0,1.511-1.104,2.579-2.807,2.579h-2.314v3.202h-1.439v-8.396Zm3.526,4.018c1.02,0,1.583-.564,1.583-1.416,0-.827-.563-1.391-1.571-1.391h-2.099v2.807h2.087Z"
       id="path45" />
    <path
       d="m406.495,215.804c0-1.775,1.296-3.106,3.022-3.106,1.716,0,3.011,1.331,3.011,3.106s-1.295,3.106-3.011,3.106c-1.727,0-3.022-1.331-3.022-3.106Zm4.702,0c0-1.115-.708-1.955-1.68-1.955-.983,0-1.69.839-1.69,1.955,0,1.127.707,1.955,1.69,1.955.972,0,1.68-.828,1.68-1.955Z"
       id="path46" />
    <path
       d="m413.659,215.804c0-1.715,1.235-3.058,2.807-3.058.684,0,1.307.276,1.751.779v-3.322l1.355-.24v8.839h-1.344v-.792c-.432.54-1.104.852-1.858.852-1.523,0-2.711-1.355-2.711-3.059Zm4.558,1.259v-2.53c-.348-.408-.863-.648-1.428-.648-1.031,0-1.799.816-1.799,1.919,0,1.092.768,1.919,1.799,1.919.588,0,1.08-.228,1.428-.66Z"
       id="path47" />
  </g>
  <g
     id="g50">
    <path
       d="m462.361,210.407h3.754c1.703,0,2.807,1.067,2.807,2.615,0,1.511-1.104,2.579-2.807,2.579h-2.314v3.202h-1.439v-8.396Zm3.525,4.018c1.02,0,1.584-.564,1.584-1.416,0-.827-.564-1.391-1.572-1.391h-2.098v2.807h2.086Z"
       id="path48" />
    <path
       d="m469.525,215.804c0-1.775,1.295-3.106,3.021-3.106,1.716,0,3.011,1.331,3.011,3.106s-1.295,3.106-3.011,3.106c-1.727,0-3.021-1.331-3.021-3.106Zm4.701,0c0-1.115-.707-1.955-1.68-1.955-.982,0-1.69.839-1.69,1.955,0,1.127.708,1.955,1.69,1.955.973,0,1.68-.828,1.68-1.955Z"
       id="path49" />
    <path
       d="m476.688,215.804c0-1.715,1.235-3.058,2.807-3.058.684,0,1.308.276,1.751.779v-3.322l1.355-.24v8.839h-1.344v-.792c-.432.54-1.104.852-1.858.852-1.523,0-2.711-1.355-2.711-3.059Zm4.558,1.259v-2.53c-.348-.408-.863-.648-1.428-.648-1.031,0-1.799.816-1.799,1.919,0,1.092.768,1.919,1.799,1.919.588,0,1.08-.228,1.428-.66Z"
       id="path50" />
  </g>
  <g
     id="g51">
    <polyline
       class="uuid-bb5aed13-9d47-4472-a2f7-c93bbe9e31bc"
       points="409.37 158.554 409.37 175.994 346.34 175.994 346.34 188.052"
       id="polyline50" />
    <polygon
       points="342.6 186.957 346.34 193.434 350.08 186.957 342.6 186.957"
       id="polygon50" />
  </g>
  <g
     id="g52">
    <polyline
       class="uuid-bb5aed13-9d47-4472-a2f7-c93bbe9e31bc"
       points="409.37 158.554 409.37 175.994 472.4 175.994 472.4 188.052"
       id="polyline51" />
    <polygon
       points="468.66 186.957 472.4 193.434 476.139 186.957 468.66 186.957"
       id="polygon51" />
  </g>
  <g
     id="g53">
    <polyline
       class="uuid-bb5aed13-9d47-4472-a2f7-c93bbe9e31bc"
       points="297.638 78.355 297.638 96.308 409.37 96.308 409.37 108.878"
       id="polyline52" />
    <polygon
       points="405.63 107.784 409.37 114.26 413.11 107.784 405.63 107.784"
       id="polygon52" />
  </g>
  <g
     id="g54">
    <polyline
       class="uuid-bb5aed13-9d47-4472-a2f7-c93bbe9e31bc"
       points="297.638 78.355 297.638 96.308 185.906 96.308 185.906 108.878"
       id="polyline53" />
    <polygon
       points="182.166 107.784 185.906 114.26 189.645 107.784 182.166 107.784"
       id="polygon53" />
  </g>
  <g
     id="g55">
    <line
       class="uuid-bb5aed13-9d47-4472-a2f7-c93bbe9e31bc"
       x1="409.37"
       y1="158.554"
       x2="409.37"
       y2="188.052"
       id="line54" />
    <polygon
       points="405.63 186.957 409.37 193.434 413.11 186.957 405.63 186.957"
       id="polygon54" />
  </g>
</svg>
