<?xml version="1.0" encoding="UTF-8" standalone="no"?>
<svg
   id="uuid-f338d410-e3d2-4847-b7b3-90c4cc5c2b28"
   data-name="Layer 1"
   width="595.276"
   height="284.42"
   viewBox="0 0 595.276 284.42"
   version="1.1"
   sodipodi:docname="rolling-strategy.svg"
   inkscape:version="1.3 (0e150ed, 2023-07-21)"
   xmlns:inkscape="http://www.inkscape.org/namespaces/inkscape"
   xmlns:sodipodi="http://sodipodi.sourceforge.net/DTD/sodipodi-0.dtd"
   xmlns="http://www.w3.org/2000/svg"
   xmlns:svg="http://www.w3.org/2000/svg"
   xmlns:rdf="http://www.w3.org/1999/02/22-rdf-syntax-ns#"
   xmlns:cc="http://creativecommons.org/ns#"
   xmlns:dc="http://purl.org/dc/elements/1.1/">
  <sodipodi:namedview
     id="namedview116"
     pagecolor="#ffffff"
     bordercolor="#666666"
     borderopacity="1.0"
     inkscape:showpageshadow="2"
     inkscape:pageopacity="0.0"
     inkscape:pagecheckerboard="0"
     inkscape:deskcolor="#d1d1d1"
     inkscape:zoom="1.4497477"
     inkscape:cx="297.638"
     inkscape:cy="142.43858"
     inkscape:window-width="720"
     inkscape:window-height="480"
     inkscape:window-x="0"
     inkscape:window-y="25"
     inkscape:window-maximized="0"
     inkscape:current-layer="uuid-f338d410-e3d2-4847-b7b3-90c4cc5c2b28" />
  <defs
     id="defs1">
    <style
       id="style1">&#10;      .uuid-f0e89fdd-42d0-40e1-a58c-2705e2ce46c0 {&#10;        stroke-width: 1.5px;&#10;      }&#10;&#10;      .uuid-f0e89fdd-42d0-40e1-a58c-2705e2ce46c0, .uuid-43cdbcf2-d9a5-4b87-9f69-74d9c151fb2a, .uuid-fe911ba7-85c6-48c1-8393-05e7fdcbf11f, .uuid-176d6895-ef7f-4106-a201-6d399fb3e8d1, .uuid-dd1fef98-1cc5-4fca-9c3b-9df30ddaa9f5 {&#10;        stroke-linecap: round;&#10;        stroke-linejoin: round;&#10;      }&#10;&#10;      .uuid-f0e89fdd-42d0-40e1-a58c-2705e2ce46c0, .uuid-43cdbcf2-d9a5-4b87-9f69-74d9c151fb2a, .uuid-176d6895-ef7f-4106-a201-6d399fb3e8d1 {&#10;        stroke: #5b5b5b;&#10;      }&#10;&#10;      .uuid-f0e89fdd-42d0-40e1-a58c-2705e2ce46c0, .uuid-fe911ba7-85c6-48c1-8393-05e7fdcbf11f, .uuid-176d6895-ef7f-4106-a201-6d399fb3e8d1, .uuid-dd1fef98-1cc5-4fca-9c3b-9df30ddaa9f5 {&#10;        fill: none;&#10;      }&#10;&#10;      .uuid-43cdbcf2-d9a5-4b87-9f69-74d9c151fb2a, .uuid-cf2a0765-f9c6-43c8-9e86-fa335591d129, .uuid-791981ee-0e97-47ba-8b64-969b704da965, .uuid-d4661fee-d3b1-4aa6-b2e5-d16805814301 {&#10;        fill: #fff;&#10;      }&#10;&#10;      .uuid-fe911ba7-85c6-48c1-8393-05e7fdcbf11f {&#10;        stroke: #4c4c4c;&#10;      }&#10;&#10;      .uuid-dd1fef98-1cc5-4fca-9c3b-9df30ddaa9f5 {&#10;        stroke: #be0000;&#10;        stroke-dasharray: 0 0 0 0 0 0 2 0 0 2 0 0;&#10;      }&#10;&#10;      .uuid-cf2a0765-f9c6-43c8-9e86-fa335591d129 {&#10;        stroke: #b4b4b4;&#10;      }&#10;&#10;      .uuid-cf2a0765-f9c6-43c8-9e86-fa335591d129, .uuid-791981ee-0e97-47ba-8b64-969b704da965 {&#10;        stroke-miterlimit: 10;&#10;      }&#10;&#10;      .uuid-791981ee-0e97-47ba-8b64-969b704da965 {&#10;        stroke: #d2d2d2;&#10;      }&#10;&#10;      .uuid-fee1458f-2ec9-4505-80dc-6c644763bdb1 {&#10;        fill: #faaa4f;&#10;      }&#10;&#10;      .uuid-fee1458f-2ec9-4505-80dc-6c644763bdb1, .uuid-2126744b-7208-485a-95c8-1ecb53ab4e75, .uuid-7e8e535a-0cc8-428a-821f-c311bea19a37, .uuid-159afac3-7684-4a1f-8ad2-f0b07f2529fa, .uuid-aa724cd2-ce1b-44fe-a9c6-2bdbdc2f5480, .uuid-d4661fee-d3b1-4aa6-b2e5-d16805814301, .uuid-10a1df1a-aa6b-437b-92fb-864cd9eef09b, .uuid-05a653de-f17e-4f87-a5b1-462e4867740a, .uuid-ebff05b9-bd9e-47cb-ba37-8f319b2299a3 {&#10;        stroke-width: 0px;&#10;      }&#10;&#10;      .uuid-2126744b-7208-485a-95c8-1ecb53ab4e75 {&#10;        fill: #4c4c4c;&#10;      }&#10;&#10;      .uuid-7e8e535a-0cc8-428a-821f-c311bea19a37 {&#10;        fill: #151515;&#10;      }&#10;&#10;      .uuid-159afac3-7684-4a1f-8ad2-f0b07f2529fa {&#10;        fill: #be0000;&#10;      }&#10;&#10;      .uuid-aa724cd2-ce1b-44fe-a9c6-2bdbdc2f5480 {&#10;        fill: #8c77d1;&#10;      }&#10;&#10;      .uuid-10a1df1a-aa6b-437b-92fb-864cd9eef09b {&#10;        fill: #e00;&#10;      }&#10;&#10;      .uuid-05a653de-f17e-4f87-a5b1-462e4867740a {&#10;        fill: #e8e4f6;&#10;      }&#10;&#10;      .uuid-ebff05b9-bd9e-47cb-ba37-8f319b2299a3 {&#10;        fill: #f0f0f0;&#10;      }&#10;    </style>
  </defs>
  <rect
     class="uuid-ebff05b9-bd9e-47cb-ba37-8f319b2299a3"
     x="75.875"
     y="7.296"
     width="217.849"
     height="131.211"
     id="rect1" />
  <rect
     class="uuid-ebff05b9-bd9e-47cb-ba37-8f319b2299a3"
     x="301.551"
     y="7.296"
     width="217.849"
     height="131.211"
     id="rect2" />
  <rect
     class="uuid-ebff05b9-bd9e-47cb-ba37-8f319b2299a3"
     x="75.875"
     y="145.896"
     width="217.849"
     height="131.211"
     id="rect3" />
  <rect
     class="uuid-ebff05b9-bd9e-47cb-ba37-8f319b2299a3"
     x="301.551"
     y="145.896"
     width="217.849"
     height="131.211"
     id="rect4" />
  <line
     class="uuid-fe911ba7-85c6-48c1-8393-05e7fdcbf11f"
     x1="107.081"
     y1="72.917"
     x2="129.479"
     y2="72.917"
     id="line4" />
  <polygon
     class="uuid-2126744b-7208-485a-95c8-1ecb53ab4e75"
     points="128.677 75.659 133.426 72.917 128.677 70.174 128.677 75.659"
     id="polygon4" />
  <rect
     class="uuid-791981ee-0e97-47ba-8b64-969b704da965"
     x="150.325"
     y="23.24"
     width="127.324"
     height="99.353"
     id="rect5" />
  <polyline
     class="uuid-d4661fee-d3b1-4aa6-b2e5-d16805814301"
     points="166.085 72.734 177.183 72.734 177.183 52.026 187.889 52.026"
     id="polyline5" />
  <g
     id="g6">
    <polyline
       class="uuid-fe911ba7-85c6-48c1-8393-05e7fdcbf11f"
       points="166.085 72.734 177.183 72.734 177.183 52.026 183.943 52.026"
       id="polyline6" />
    <polygon
       class="uuid-2126744b-7208-485a-95c8-1ecb53ab4e75"
       points="183.14 54.768 187.889 52.026 183.14 49.284 183.14 54.768"
       id="polygon6" />
  </g>
  <polyline
     class="uuid-d4661fee-d3b1-4aa6-b2e5-d16805814301"
     points="166.085 72.734 177.183 72.734 177.183 93.442 187.889 93.442"
     id="polyline7" />
  <g
     id="g8">
    <polyline
       class="uuid-fe911ba7-85c6-48c1-8393-05e7fdcbf11f"
       points="166.085 72.734 177.183 72.734 177.183 93.442 183.943 93.442"
       id="polyline8" />
    <polygon
       class="uuid-2126744b-7208-485a-95c8-1ecb53ab4e75"
       points="183.14 96.185 187.889 93.443 183.14 90.7 183.14 96.185"
       id="polygon8" />
  </g>
  <g
     id="g11">
    <path
       class="uuid-7e8e535a-0cc8-428a-821f-c311bea19a37"
       d="m91.119,87.686c-.93.047-1.722-.669-1.769-1.599-.004-.087-.002-.174.007-.26v-2.4h.719v2.4c-.08.584.329,1.122.913,1.201.045.006.091.009.137.01.635,0,1.043-.474,1.043-1.211v-2.4h.719v2.4c.089.935-.597,1.764-1.532,1.853-.079.007-.158.009-.237.006Z"
       id="path8" />
    <path
       class="uuid-7e8e535a-0cc8-428a-821f-c311bea19a37"
       d="m93.776,86.822c.28.209.616.328.965.342.36,0,.606-.162.606-.4,0-.185-.126-.287-.414-.342l-.534-.09c-.581-.107-.869-.377-.869-.827,0-.564.461-.929,1.163-.929.421,0,.832.124,1.181.359l-.318.444c-.267-.183-.582-.284-.905-.288-.312,0-.516.132-.516.354,0,.192.108.276.426.33l.528.1c.6.114.887.39.887.839-.063.604-.604,1.043-1.208.98-.005,0-.01-.001-.015-.002-.466.018-.924-.126-1.295-.408l.318-.462Z"
       id="path9" />
    <path
       class="uuid-7e8e535a-0cc8-428a-821f-c311bea19a37"
       d="m97.996,87.686c-.843.001-1.528-.681-1.529-1.525,0-.011,0-.023,0-.034-.041-.816.587-1.51,1.403-1.551.02,0,.04-.002.06-.002.796.009,1.434.663,1.425,1.459,0,.029-.002.059-.004.088v.167h-2.219c.049.462.435.815.9.822.266.007.524-.094.713-.281l.444.413c-.327.294-.753.453-1.193.444Zm-.852-1.811h1.565c-.035-.412-.372-.733-.785-.75-.414.013-.751.337-.78.75Z"
       id="path10" />
    <path
       class="uuid-7e8e535a-0cc8-428a-821f-c311bea19a37"
       d="m100.043,84.621h.677v.654c.083-.397.423-.687.828-.707.101,0,.201.021.294.059v.594c-.118-.049-.244-.073-.372-.072-.327.003-.621.199-.75.5v1.979h-.677v-3.007Z"
       id="path11" />
  </g>
  <g
     id="g12">
    <path
       class="uuid-43cdbcf2-d9a5-4b87-9f69-74d9c151fb2a"
       d="m107.081,80c0-6.419-5.203-11.622-11.622-11.622s-11.622,5.203-11.622,11.622h23.244Z"
       id="path12" />
    <ellipse
       class="uuid-43cdbcf2-d9a5-4b87-9f69-74d9c151fb2a"
       cx="95.459"
       cy="62.575"
       rx="5.835"
       ry="5.827"
       id="ellipse12" />
  </g>
  <rect
     class="uuid-cf2a0765-f9c6-43c8-9e86-fa335591d129"
     x="134.426"
     y="57.087"
     width="31.659"
     height="31.659"
     id="rect12" />
  <rect
     class="uuid-d4661fee-d3b1-4aa6-b2e5-d16805814301"
     x="188.943"
     y="36.571"
     width="30.909"
     height="30.909"
     id="rect13" />
  <path
     class="uuid-aa724cd2-ce1b-44fe-a9c6-2bdbdc2f5480"
     d="m219.476,36.946v30.16h-30.16v-30.16h30.16m.75-.75h-31.66v31.66h31.66v-31.66Z"
     id="path13" />
  <path
     class="uuid-aa724cd2-ce1b-44fe-a9c6-2bdbdc2f5480"
     d="m200.467,49.062h1.3l1.3,3.649,1.317-3.649h1.254l-1.912,4.9h-1.373l-1.886-4.9Z"
     id="path14" />
  <path
     class="uuid-aa724cd2-ce1b-44fe-a9c6-2bdbdc2f5480"
     d="m207.916,53.965h-1.079v-3.782l-.966.4v-.953l1.366-.567h.679v4.902Z"
     id="path15" />
  <rect
     class="uuid-d4661fee-d3b1-4aa6-b2e5-d16805814301"
     x="188.943"
     y="78.642"
     width="30.909"
     height="30.909"
     id="rect15" />
  <path
     class="uuid-aa724cd2-ce1b-44fe-a9c6-2bdbdc2f5480"
     d="m219.476,79.017v30.159h-30.16v-30.159h30.16m.75-.75h-31.66v31.659h31.66v-31.659Z"
     id="path16" />
  <rect
     class="uuid-d4661fee-d3b1-4aa6-b2e5-d16805814301"
     x="233.828"
     y="36.196"
     width="31.659"
     height="31.659"
     id="rect16" />
  <path
     class="uuid-fee1458f-2ec9-4505-80dc-6c644763bdb1"
     d="m265.487,36.2h-2.111c-.207,0-.375.168-.375.375s.168.375.375.375h2.11v-.75h0Zm-4.11,0h-2.22c-.207,0-.375.168-.375.375s.168.375.375.375h2.22c.207,0,.375-.168.375-.375s-.168-.375-.375-.375Zm-4.22,0h-2.22c-.207,0-.375.168-.375.375s.168.375.375.375h2.22c.207,0,.375-.168.375-.375s-.168-.375-.375-.375Zm-4.22,0h-2.22c-.207,0-.375.168-.375.375s.168.375.375.375h2.22c.207,0,.375-.168.375-.375s-.168-.375-.375-.375Zm-4.22,0h-2.22c-.207,0-.375.168-.375.375s.168.375.375.375h2.22c.207,0,.375-.168.375-.375s-.168-.375-.375-.375Zm-4.22,0h-2.221c-.207,0-.375.168-.375.375s.168.375.375.375h2.22c.207,0,.375-.168.375-.375s-.168-.375-.375-.375h0Zm-4.22,0h-2.22c-.207,0-.375.168-.375.375s.168.375.375.375h2.22c.207,0,.375-.168.375-.375s-.168-.375-.375-.375Zm-4.22,0h-2.229v.75h2.229c.207,0,.375-.168.375-.375s-.168-.375-.375-.375Zm-1.854,1.616c-.207,0-.375.168-.375.375v2.22c0,.207.168.375.375.375s.375-.168.375-.375v-2.22c0-.207-.168-.375-.375-.375Zm0,4.22c-.207,0-.375.168-.375.375v2.22c0,.207.168.375.375.375s.375-.168.375-.375v-2.22c0-.207-.168-.375-.375-.375Zm0,4.22c-.207,0-.375.168-.375.375v2.22c0,.207.168.375.375.375s.375-.168.375-.375v-2.22c0-.207-.168-.375-.375-.375Zm0,4.22c-.207,0-.375.168-.375.375v2.22c0,.207.168.375.375.375s.375-.168.375-.375v-2.22c0-.207-.168-.375-.375-.375Zm0,4.22c-.207,0-.375.168-.375.375v2.22c0,.207.168.375.375.375s.375-.168.375-.375v-2.22c0-.207-.168-.375-.375-.375Zm0,4.22c-.207,0-.375.168-.375.375v2.22c0,.207.168.375.375.375s.375-.168.375-.375v-2.22c0-.207-.168-.375-.375-.375Zm0,4.22c-.207,0-.375.168-.375.375v2.22c0,.207.168.375.375.375s.375-.168.375-.375v-2.22c0-.207-.168-.375-.375-.375Zm1.716,3.974h-2.091v.621h0v.055h0v.055h0v.019h2.091c.207,0,.375-.168.375-.375s-.168-.375-.375-.375Zm-2.091.731v-.055h0v.055Zm0,.019v-.019h0v.019h0Zm.743,0h0Zm5.568-.75h-2.22c-.207,0-.375.168-.375.375s.168.375.375.375h2.22c.207,0,.375-.168.375-.375s-.168-.375-.375-.375Zm4.22,0h-2.22c-.207,0-.375.168-.375.375s.168.375.375.375h2.22c.207,0,.375-.168.375-.375s-.168-.375-.375-.375Zm4.22,0h-2.22c-.207,0-.375.168-.375.375s.168.375.375.375h2.22c.207,0,.375-.168.375-.375s-.168-.375-.375-.375Zm4.22,0h-2.223c-.207,0-.375.168-.375.375s.168.375.375.375h2.22c.207,0,.375-.168.375-.375s-.168-.375-.375-.375h.003Zm4.22,0h-2.22c-.207,0-.375.168-.375.375s.168.375.375.375h2.22c.207,0,.375-.168.375-.375s-.168-.375-.375-.375Zm4.22,0h-2.22c-.207,0-.375.168-.375.375s.168.375.375.375h2.22c.207,0,.375-.168.375-.375s-.168-.375-.375-.375Zm4.22,0h-2.22c-.207,0-.375.168-.375.375s.168.375.375.375h2.248v-.748l-.028-.002Zm-.347-3.818c-.207,0-.375.168-.375.375v2.22c0,.207.168.375.375.375s.375-.168.375-.375v-2.22c0-.207-.168-.375-.375-.375Zm0-4.22c-.207,0-.375.168-.375.375v2.22c0,.207.168.375.375.375s.375-.168.375-.375v-2.22c0-.207-.168-.375-.375-.375Zm0-4.22c-.207,0-.375.168-.375.375v2.22c0,.207.168.375.375.375s.375-.168.375-.375v-2.22c0-.207-.168-.375-.375-.375Zm0-4.22c-.207,0-.375.168-.375.375v2.22c0,.207.168.375.375.375s.375-.168.375-.375v-2.227c0-.207-.168-.375-.375-.375v.007Zm0-4.22c-.207,0-.375.168-.375.375v2.213c0,.207.168.375.375.375s.375-.168.375-.375v-2.22c0-.207-.168-.375-.375-.375v.007Zm0-4.22c-.207,0-.375.168-.375.375v2.22c0,.207.168.375.375.375s.375-.168.375-.375v-2.22c0-.207-.168-.375-.375-.375Zm0-4.22c-.207,0-.375.168-.375.375v2.22c0,.207.168.375.375.375s.375-.168.375-.375v-2.22c0-.207-.168-.375-.375-.375Z"
     id="path17" />
  <path
     class="uuid-fee1458f-2ec9-4505-80dc-6c644763bdb1"
     d="m244.985,49.062h1.3l1.3,3.649,1.317-3.649h1.254l-1.912,4.9h-1.373l-1.886-4.9Z"
     id="path18" />
  <path
     class="uuid-fee1458f-2ec9-4505-80dc-6c644763bdb1"
     d="m250.522,53.194l2.073-2.052c.195-.162.314-.398.329-.651,0-.315-.308-.554-.721-.554-.48.015-.93.233-1.24.6l-.6-.735c.495-.503,1.169-.791,1.875-.802,1.044,0,1.737.567,1.737,1.422-.019.495-.252.957-.637,1.267l-1.415,1.366,2.122-.007v.918h-3.523v-.772Z"
     id="path19" />
  <path
     class="uuid-aa724cd2-ce1b-44fe-a9c6-2bdbdc2f5480"
     d="m200.467,91.132h1.3l1.3,3.649,1.317-3.649h1.254l-1.912,4.9h-1.373l-1.886-4.9Z"
     id="path20" />
  <path
     class="uuid-aa724cd2-ce1b-44fe-a9c6-2bdbdc2f5480"
     d="m207.916,96.035h-1.079v-3.782l-.966.4v-.953l1.366-.568h.679v4.903Z"
     id="path21" />
  <g
     id="g26">
    <path
       class="uuid-7e8e535a-0cc8-428a-821f-c311bea19a37"
       d="m142.605,79.073h1.877c.718,0,1.301.581,1.301,1.299,0,.718-.581,1.301-1.299,1.301h-1.16v1.6h-.72v-4.2Zm.72.606v1.4h1.043c.386.052.742-.218.794-.605.052-.386-.218-.742-.605-.794-.061-.008-.123-.009-.184,0h-1.049Z"
       id="path22" />
    <path
       class="uuid-7e8e535a-0cc8-428a-821f-c311bea19a37"
       d="m146.595,80.266h.681v.654c.083-.397.423-.688.828-.708.101.001.201.022.294.06v.594c-.118-.049-.244-.073-.372-.072-.327.004-.621.2-.75.5v1.976h-.677l-.004-3.004Z"
       id="path23" />
    <path
       class="uuid-7e8e535a-0cc8-428a-821f-c311bea19a37"
       d="m150.326,80.218c.86-.025,1.577.651,1.602,1.51.025.86-.651,1.577-1.51,1.602-.86.025-1.577-.651-1.602-1.51,0-.016,0-.033,0-.049-.029-.828.618-1.523,1.446-1.552.022,0,.043-.001.065,0Zm.839,1.559c.072-.463-.246-.897-.709-.969-.463-.072-.897.246-.969.709-.013.086-.013.174,0,.26-.064.463.259.891.723.955.463.064.891-.259.955-.723.011-.077.011-.155,0-.232Z"
       id="path24" />
    <path
       class="uuid-7e8e535a-0cc8-428a-821f-c311bea19a37"
       d="m153.321,81.741l-1.1-1.475h.792l.7.99.7-.99h.763l-1.079,1.457,1.163,1.547h-.8l-.756-1.061-.755,1.061h-.756l1.128-1.529Z"
       id="path25" />
    <path
       class="uuid-7e8e535a-0cc8-428a-821f-c311bea19a37"
       d="m156.513,83.288l-1.137-3.022h.756l.764,2.234.84-2.231h.74l-1.427,3.5c-.11.492-.564.829-1.067.792-.115,0-.23-.014-.342-.042v-.589c.088.013.176.021.264.024.223.011.425-.133.486-.348l.123-.318Z"
       id="path26" />
  </g>
  <g
     id="g30">
    <g
       id="g27">
      <rect
         class="uuid-43cdbcf2-d9a5-4b87-9f69-74d9c151fb2a"
         x="139.26"
         y="70.479"
         width="22.13"
         height="5.532"
         id="rect26" />
      <line
         class="uuid-f0e89fdd-42d0-40e1-a58c-2705e2ce46c0"
         x1="159.024"
         y1="73.246"
         x2="159.024"
         y2="73.246"
         id="line26" />
      <line
         class="uuid-176d6895-ef7f-4106-a201-6d399fb3e8d1"
         x1="141.97"
         y1="73.246"
         x2="145.289"
         y2="73.246"
         id="line27" />
    </g>
    <g
       id="g29">
      <rect
         class="uuid-43cdbcf2-d9a5-4b87-9f69-74d9c151fb2a"
         x="139.26"
         y="62.835"
         width="22.13"
         height="5.532"
         id="rect27" />
      <line
         class="uuid-f0e89fdd-42d0-40e1-a58c-2705e2ce46c0"
         x1="159.024"
         y1="65.601"
         x2="159.024"
         y2="65.601"
         id="line28" />
      <line
         class="uuid-176d6895-ef7f-4106-a201-6d399fb3e8d1"
         x1="141.97"
         y1="65.601"
         x2="145.289"
         y2="65.601"
         id="line29" />
    </g>
  </g>
  <g
     id="g64">
    <g
       id="g31">
      <line
         class="uuid-fe911ba7-85c6-48c1-8393-05e7fdcbf11f"
         x1="333.369"
         y1="72.917"
         x2="356.463"
         y2="72.917"
         id="line30" />
      <polygon
         class="uuid-2126744b-7208-485a-95c8-1ecb53ab4e75"
         points="355.661 75.659 360.41 72.917 355.661 70.174 355.661 75.659"
         id="polygon30" />
    </g>
    <rect
       class="uuid-791981ee-0e97-47ba-8b64-969b704da965"
       x="376.612"
       y="23.24"
       width="128.163"
       height="99.353"
       id="rect31" />
    <g
       id="g33">
      <polyline
         class="uuid-d4661fee-d3b1-4aa6-b2e5-d16805814301"
         points="392.372 72.734 452.852 72.734 452.852 52.026 460.115 52.026"
         id="polyline31" />
      <g
         id="g32">
        <polyline
           class="uuid-fe911ba7-85c6-48c1-8393-05e7fdcbf11f"
           points="392.372 72.734 452.852 72.734 452.852 52.026 456.169 52.026"
           id="polyline32" />
        <polygon
           class="uuid-2126744b-7208-485a-95c8-1ecb53ab4e75"
           points="455.366 54.768 460.115 52.026 455.366 49.284 455.366 54.768"
           id="polygon32" />
      </g>
    </g>
    <g
       id="g35">
      <polyline
         class="uuid-d4661fee-d3b1-4aa6-b2e5-d16805814301"
         points="392.372 76.012 404.139 76.012 404.139 94.096 414.287 94.096"
         id="polyline33" />
      <g
         id="g34">
        <polyline
           class="uuid-fe911ba7-85c6-48c1-8393-05e7fdcbf11f"
           points="392.372 76.012 404.139 76.012 404.139 94.096 410.34 94.096"
           id="polyline34" />
        <polygon
           class="uuid-2126744b-7208-485a-95c8-1ecb53ab4e75"
           points="409.538 96.838 414.287 94.097 409.538 91.354 409.538 96.838"
           id="polygon34" />
      </g>
    </g>
    <g
       id="g36">
      <polyline
         class="uuid-dd1fef98-1cc5-4fca-9c3b-9df30ddaa9f5"
         points="392.372 70.017 404.139 70.017 404.139 51.933 410.34 51.933"
         id="polyline35" />
      <polygon
         class="uuid-159afac3-7684-4a1f-8ad2-f0b07f2529fa"
         points="409.538 54.675 414.287 51.933 409.538 49.191 409.538 54.675"
         id="polygon35" />
    </g>
    <g
       id="g41">
      <g
         id="g39">
        <path
           class="uuid-7e8e535a-0cc8-428a-821f-c311bea19a37"
           d="m317.407,87.686c-.931.047-1.723-.669-1.77-1.6-.004-.086-.002-.173.007-.259v-2.4h.72v2.4c-.08.584.329,1.122.913,1.201.045.006.09.009.136.01.635,0,1.043-.474,1.043-1.211v-2.4h.72v2.4c.089.935-.597,1.764-1.532,1.853-.079.007-.158.009-.237.006Z"
           id="path36" />
        <path
           class="uuid-7e8e535a-0cc8-428a-821f-c311bea19a37"
           d="m320.066,86.822c.28.209.617.328.966.342.359,0,.605-.162.605-.4,0-.185-.126-.287-.414-.342l-.533-.09c-.582-.107-.87-.377-.87-.827,0-.564.462-.929,1.164-.929.42,0,.831.124,1.18.359l-.317.444c-.265-.182-.578-.282-.9-.288-.313,0-.516.132-.516.354,0,.192.108.276.426.33l.527.1c.6.114.888.39.888.839-.063.604-.604,1.043-1.208.98-.005,0-.01-.001-.016-.002-.468.019-.927-.125-1.3-.408l.318-.462Z"
           id="path37" />
        <path
           class="uuid-7e8e535a-0cc8-428a-821f-c311bea19a37"
           d="m324.284,87.686c-.844.001-1.529-.682-1.53-1.526,0-.011,0-.022,0-.033-.041-.816.587-1.51,1.403-1.551.02,0,.04-.002.06-.002.796.009,1.435.662,1.426,1.458,0,.03-.002.059-.004.089v.167h-2.22c.049.462.435.815.9.822.266.007.523-.094.713-.281l.444.413c-.327.293-.753.452-1.192.444Zm-.852-1.811h1.565c-.036-.412-.373-.733-.786-.75-.414.013-.75.337-.779.75h0Z"
           id="path38" />
        <path
           class="uuid-7e8e535a-0cc8-428a-821f-c311bea19a37"
           d="m326.33,84.621h.677v.654c.083-.397.423-.687.828-.707.101,0,.201.021.294.059v.594c-.118-.049-.244-.073-.372-.072-.327.004-.621.2-.75.5v1.979h-.677v-3.007Z"
           id="path39" />
      </g>
      <g
         id="g40">
        <path
           class="uuid-43cdbcf2-d9a5-4b87-9f69-74d9c151fb2a"
           d="m333.369,80c-.06-6.419-5.312-11.574-11.731-11.514-6.335.059-11.456,5.18-11.514,11.514h23.245Z"
           id="path40" />
        <ellipse
           class="uuid-43cdbcf2-d9a5-4b87-9f69-74d9c151fb2a"
           cx="321.746"
           cy="62.575"
           rx="5.835"
           ry="5.827"
           id="ellipse40" />
      </g>
    </g>
    <rect
       class="uuid-cf2a0765-f9c6-43c8-9e86-fa335591d129"
       x="360.713"
       y="57.087"
       width="31.659"
       height="31.659"
       id="rect41" />
    <g
       id="g50">
      <g
         id="g45">
        <path
           class="uuid-7e8e535a-0cc8-428a-821f-c311bea19a37"
           d="m368.893,79.073h1.877c.718,0,1.301.581,1.301,1.299,0,.718-.581,1.301-1.299,1.301h-1.161v1.6h-.719v-4.2Zm.719.606v1.4h1.044c.386.052.742-.218.794-.605.052-.386-.218-.742-.605-.794-.061-.008-.123-.009-.184,0h-1.05Z"
           id="path41" />
        <path
           class="uuid-7e8e535a-0cc8-428a-821f-c311bea19a37"
           d="m372.882,80.266h.678v.654c.083-.397.422-.687.827-.708.101.001.201.022.294.06v.594c-.118-.049-.244-.073-.371-.072-.327.004-.621.2-.75.5v1.976h-.678v-3.004Z"
           id="path42" />
        <path
           class="uuid-7e8e535a-0cc8-428a-821f-c311bea19a37"
           d="m376.614,80.218c.86-.025,1.577.652,1.601,1.511.025.86-.652,1.576-1.511,1.601-.86.025-1.576-.652-1.601-1.511,0-.016,0-.032,0-.048-.029-.828.618-1.523,1.446-1.552.022,0,.044-.001.066,0Zm.839,1.559c.07-.464-.249-.896-.713-.966-.464-.07-.896.249-.966.713-.013.084-.013.169,0,.253-.066.464.256.893.72.959.464.066.893-.256.959-.72.011-.079.011-.16,0-.24Z"
           id="path43" />
        <path
           class="uuid-7e8e535a-0cc8-428a-821f-c311bea19a37"
           d="m379.608,81.741l-1.1-1.475h.791l.7.99.7-.99h.756l-1.079,1.457,1.163,1.547h-.8l-.755-1.061-.755,1.061h-.756l1.135-1.529Z"
           id="path44" />
        <path
           class="uuid-7e8e535a-0cc8-428a-821f-c311bea19a37"
           d="m382.8,83.288l-1.134-3.022h.756l.762,2.231.839-2.231h.738l-1.428,3.5c-.109.493-.564.83-1.067.792-.115,0-.23-.014-.342-.042v-.586c.087.013.176.021.264.024.223.012.425-.133.486-.348l.126-.318Z"
           id="path45" />
      </g>
      <g
         id="g49">
        <g
           id="g46">
          <rect
             class="uuid-43cdbcf2-d9a5-4b87-9f69-74d9c151fb2a"
             x="365.547"
             y="70.479"
             width="22.13"
             height="5.532"
             id="rect45" />
          <line
             class="uuid-f0e89fdd-42d0-40e1-a58c-2705e2ce46c0"
             x1="385.311"
             y1="73.246"
             x2="385.311"
             y2="73.246"
             id="line45" />
          <line
             class="uuid-176d6895-ef7f-4106-a201-6d399fb3e8d1"
             x1="368.257"
             y1="73.246"
             x2="371.577"
             y2="73.246"
             id="line46" />
        </g>
        <g
           id="g48">
          <rect
             class="uuid-43cdbcf2-d9a5-4b87-9f69-74d9c151fb2a"
             x="365.547"
             y="62.835"
             width="22.13"
             height="5.532"
             id="rect46" />
          <line
             class="uuid-f0e89fdd-42d0-40e1-a58c-2705e2ce46c0"
             x1="385.311"
             y1="65.601"
             x2="385.311"
             y2="65.601"
             id="line47" />
          <line
             class="uuid-176d6895-ef7f-4106-a201-6d399fb3e8d1"
             x1="368.257"
             y1="65.601"
             x2="371.577"
             y2="65.601"
             id="line48" />
        </g>
      </g>
    </g>
    <g
       id="g51">
      <rect
         class="uuid-d4661fee-d3b1-4aa6-b2e5-d16805814301"
         x="414.856"
         y="36.196"
         width="31.659"
         height="31.659"
         id="rect50" />
      <path
         class="uuid-05a653de-f17e-4f87-a5b1-462e4867740a"
         d="m446.515,36.2h-2.11c-.207,0-.375.168-.375.375s.168.375.375.375h2.11v-.75Zm-4.11,0h-2.22c-.207,0-.375.168-.375.375s.168.375.375.375h2.22c.207,0,.375-.168.375-.375s-.168-.375-.375-.375Zm-4.22,0h-2.22c-.207,0-.375.168-.375.375s.168.375.375.375h2.22c.207,0,.375-.168.375-.375s-.168-.375-.375-.375h0Zm-4.22,0h-2.22c-.207,0-.375.168-.375.375s.168.375.375.375h2.22c.207,0,.375-.168.375-.375s-.168-.375-.375-.375Zm-4.22,0h-2.22c-.207,0-.375.168-.375.375s.168.375.375.375h2.22c.207,0,.375-.168.375-.375s-.168-.375-.375-.375Zm-4.22,0h-2.22c-.207,0-.375.168-.375.375s.168.375.375.375h2.22c.207,0,.375-.168.375-.375s-.168-.375-.375-.375Zm-4.22,0h-2.22c-.207,0-.375.168-.375.375s.168.375.375.375h2.22c.207,0,.375-.168.375-.375s-.168-.375-.375-.375Zm-4.22,0h-2.229v.75h2.229c.207,0,.375-.168.375-.375s-.168-.375-.375-.375Zm-1.854,1.616c-.207,0-.374.166-.375.373v2.222c0,.207.168.375.375.375s.375-.168.375-.375v-2.22c0-.207-.168-.375-.375-.375Zm0,4.22c-.207,0-.374.166-.375.373v2.222c0,.207.168.375.375.375s.375-.168.375-.375v-2.22c0-.207-.168-.375-.375-.375Zm0,4.22c-.207,0-.374.166-.375.373v2.222c0,.207.168.375.375.375s.375-.168.375-.375v-2.22c0-.207-.168-.375-.375-.375Zm0,4.22c-.207,0-.374.166-.375.373v2.222c0,.207.168.375.375.375s.375-.168.375-.375v-2.22c0-.207-.168-.375-.375-.375Zm0,4.22c-.207,0-.374.166-.375.373v2.222c0,.207.168.375.375.375s.375-.168.375-.375v-2.22c0-.207-.168-.375-.375-.375Zm0,4.22c-.207,0-.374.166-.375.373v2.222c0,.207.168.375.375.375s.375-.168.375-.375v-2.22c0-.207-.168-.375-.375-.375Zm0,4.22c-.207,0-.374.166-.375.373v2.222c0,.207.168.375.375.375s.375-.168.375-.375v-2.22c0-.207-.168-.375-.375-.375Zm1.716,3.974h-2.091v.621h0v.055h0v.055h0v.019h2.095c.207,0,.375-.168.375-.375s-.168-.375-.375-.375h-.004Zm-2.091.731v-.055h0v.055Zm0,.019v-.019h0v.019h0Zm.742,0h0Zm5.569-.75h-2.216c-.207,0-.375.168-.375.375s.168.375.375.375h2.22c.207,0,.375-.168.375-.375s-.168-.375-.375-.375h-.004Zm4.22,0h-2.22c-.207,0-.375.168-.375.375s.168.375.375.375h2.22c.207,0,.375-.168.375-.375s-.168-.375-.375-.375Zm4.22,0h-2.22c-.207,0-.375.168-.375.375s.168.375.375.375h2.22c.207,0,.375-.168.375-.375s-.168-.375-.375-.375Zm4.22,0h-2.22c-.207,0-.375.168-.375.375s.168.375.375.375h2.22c.207,0,.375-.168.375-.375s-.168-.375-.375-.375h0Zm4.22,0h-2.22c-.207,0-.375.168-.375.375s.168.375.375.375h2.22c.207,0,.375-.168.375-.375s-.168-.375-.375-.375Zm4.22,0h-2.216c-.207,0-.375.168-.375.375s.168.375.375.375h2.22c.207,0,.375-.168.375-.375s-.168-.375-.375-.375h-.004Zm4.22,0h-2.22c-.207,0-.375.168-.375.375s.168.375.375.375h2.248v-.748l-.028-.002Zm-.347-3.818c-.207,0-.375.168-.375.375v2.22c0,.207.168.375.375.375s.375-.168.375-.375v-2.22c0-.207-.168-.375-.375-.375Zm0-4.22c-.207,0-.375.168-.375.375v2.22c0,.207.168.375.375.375s.375-.168.375-.375v-2.22c0-.207-.168-.375-.375-.375Zm0-4.22c-.207,0-.375.168-.375.375v2.22c0,.207.168.375.375.375s.375-.168.375-.375v-2.22c0-.207-.168-.375-.375-.375Zm0-4.22c-.207,0-.375.168-.375.375v2.22c0,.207.168.375.375.375s.375-.168.375-.375v-2.227c0-.207-.168-.375-.375-.375v.007Zm0-4.22c-.207,0-.375.168-.375.375v2.213c0,.207.168.375.375.375s.375-.168.375-.375v-2.22c0-.207-.168-.375-.375-.375v.007Zm0-4.22c-.207,0-.375.168-.375.375v2.22c0,.207.168.375.375.375s.375-.168.375-.375v-2.22c0-.207-.168-.375-.375-.375Zm0-4.22c-.207,0-.375.168-.375.375v2.22c0,.207.168.375.375.375s.375-.168.375-.375v-2.22c0-.207-.168-.375-.375-.375Z"
         id="path50" />
    </g>
    <g
       id="g52">
      <path
         class="uuid-05a653de-f17e-4f87-a5b1-462e4867740a"
         d="m426.751,49.062h1.3l1.3,3.649,1.316-3.649h1.254l-1.912,4.9h-1.373l-1.885-4.9Z"
         id="path51" />
      <path
         class="uuid-05a653de-f17e-4f87-a5b1-462e4867740a"
         d="m434.204,53.965h-1.08v-3.782l-.965.4v-.953l1.365-.567h.68v4.902Z"
         id="path52" />
    </g>
    <g
       id="g53">
      <rect
         class="uuid-d4661fee-d3b1-4aa6-b2e5-d16805814301"
         x="415.231"
         y="78.642"
         width="30.909"
         height="30.909"
         id="rect52" />
      <path
         class="uuid-aa724cd2-ce1b-44fe-a9c6-2bdbdc2f5480"
         d="m445.765,79.017v30.159h-30.159v-30.159h30.159m.75-.75h-31.659v31.659h31.659v-31.659Z"
         id="path53" />
    </g>
    <g
       id="g54">
      <rect
         class="uuid-d4661fee-d3b1-4aa6-b2e5-d16805814301"
         x="460.491"
         y="36.571"
         width="30.909"
         height="30.909"
         id="rect53" />
      <path
         class="uuid-fee1458f-2ec9-4505-80dc-6c644763bdb1"
         d="m491.024,36.946v30.16h-30.159v-30.16h30.159m.75-.75h-31.659v31.66h31.659v-31.66Z"
         id="path54" />
    </g>
    <g
       id="g55">
      <rect
         class="uuid-d4661fee-d3b1-4aa6-b2e5-d16805814301"
         x="460.115"
         y="78.267"
         width="31.659"
         height="31.659"
         id="rect54" />
      <path
         class="uuid-fee1458f-2ec9-4505-80dc-6c644763bdb1"
         d="m491.774,78.267h-2.11c-.207,0-.375.168-.375.375s.168.375.375.375h2.11v-.75Zm-4.11,0h-2.22c-.207,0-.375.168-.375.375s.168.375.375.375h2.22c.207,0,.375-.168.375-.375s-.168-.375-.375-.375Zm-4.22,0h-2.22c-.207,0-.375.168-.375.375s.168.375.375.375h2.22c.207,0,.375-.168.375-.375s-.168-.375-.375-.375Zm-4.22,0h-2.22c-.207,0-.375.168-.375.375s.168.375.375.375h2.22c.207,0,.375-.168.375-.375s-.168-.375-.375-.375Zm-4.22,0h-2.22c-.207,0-.375.168-.375.375s.168.375.375.375h2.22c.207,0,.375-.168.375-.375s-.168-.375-.375-.375Zm-4.22,0h-2.22c-.207,0-.375.168-.375.375s.168.375.375.375h2.22c.207,0,.375-.168.375-.375s-.168-.375-.375-.375h0Zm-4.22,0h-2.22c-.207,0-.375.168-.375.375s.168.375.375.375h2.22c.207,0,.375-.168.375-.375s-.168-.375-.375-.375Zm-4.22,0h-2.229v.75h2.229c.207,0,.375-.168.375-.375s-.168-.375-.375-.375Zm-1.854,1.615c-.207,0-.375.168-.375.375v2.22c0,.207.168.375.375.375s.375-.168.375-.375v-2.22c0-.207-.168-.375-.375-.375Zm0,4.22c-.207,0-.375.168-.375.375v2.223c0,.207.168.375.375.375s.375-.168.375-.375v-2.22c0-.207-.168-.375-.375-.375v-.003Zm0,4.22c-.207,0-.375.168-.375.375v2.22c0,.207.168.375.375.375s.375-.168.375-.375v-2.217c0-.207-.168-.375-.375-.375v-.003Zm0,4.22c-.207,0-.375.168-.375.375v2.22c0,.207.168.375.375.375s.375-.168.375-.375v-2.22c0-.207-.168-.375-.375-.375Zm0,4.22c-.207,0-.375.168-.375.375v2.22c0,.207.168.375.375.375s.375-.168.375-.375v-2.22c0-.207-.168-.375-.375-.375Zm0,4.22c-.207,0-.375.168-.375.375v2.22c0,.207.168.375.375.375s.375-.168.375-.375v-2.22c0-.207-.168-.375-.375-.375Zm0,4.22c-.207,0-.375.168-.375.375v2.22c0,.207.168.375.375.375s.375-.168.375-.375v-2.22c0-.207-.168-.375-.375-.375Zm1.717,3.974h-2.092v.621h0v.055h0v.055h0v.019h2.092c.207,0,.375-.168.375-.375s-.168-.375-.375-.375h0Zm-2.092.731v-.055h0v.055Zm0,.019v-.019h0v.019h0Zm.743,0h0Zm5.569-.75h-2.22c-.207,0-.375.168-.375.375s.168.375.375.375h2.22c.207,0,.375-.168.375-.375s-.168-.375-.375-.375Zm4.22,0h-2.22c-.207,0-.375.168-.375.375s.168.375.375.375h2.22c.207,0,.375-.168.375-.375s-.168-.375-.375-.375Zm4.22,0h-2.216c-.207,0-.375.168-.375.375s.168.375.375.375h2.22c.207,0,.375-.168.375-.375s-.168-.375-.375-.375h-.004Zm4.22,0h-2.22c-.207,0-.375.168-.375.375s.168.375.375.375h2.22c.207,0,.375-.168.375-.375s-.168-.375-.375-.375Zm4.22,0h-2.22c-.207,0-.375.168-.375.375s.168.375.375.375h2.22c.207,0,.375-.168.375-.375s-.168-.375-.375-.375h0Zm4.22,0h-2.22c-.207,0-.375.168-.375.375s.168.375.375.375h2.22c.207,0,.375-.168.375-.375s-.168-.375-.375-.375Zm4.22,0h-2.22c-.207,0-.375.168-.375.375s.168.375.375.375h2.247v-.748l-.027-.002Zm-.348-3.817c-.207,0-.374.166-.375.373v2.222c0,.207.168.375.375.375s.375-.168.375-.375v-2.22c0-.207-.166-.374-.373-.375h-.002Zm0-4.22c-.207,0-.374.166-.375.373v2.222c0,.207.168.375.375.375s.375-.168.375-.375v-2.22c0-.207-.166-.374-.373-.375h-.002Zm0-4.22c-.207,0-.374.166-.375.373v2.222c0,.207.168.375.375.375s.375-.168.375-.375v-2.22c0-.207-.166-.374-.373-.375h-.002Zm0-4.22c-.207,0-.374.166-.375.373v2.222c0,.207.168.375.375.375s.375-.168.375-.375v-2.22c0-.207-.166-.374-.373-.375h-.002Zm0-4.22c-.207,0-.374.166-.375.373v2.222c0,.207.168.375.375.375s.375-.168.375-.375v-2.22c0-.207-.166-.374-.373-.375h-.002Zm0-4.22c-.207,0-.374.166-.375.373v2.222c0,.207.168.375.375.375s.375-.168.375-.375v-2.22c0-.207-.166-.374-.373-.375h-.002Zm0-4.22c-.207,0-.374.166-.375.373v2.222c0,.207.168.375.375.375s.375-.168.375-.375v-2.22c0-.207-.166-.374-.373-.375h-.002Z"
         id="path55" />
    </g>
    <g
       id="g57">
      <path
         class="uuid-fee1458f-2ec9-4505-80dc-6c644763bdb1"
         d="m471.272,49.062h1.3l1.3,3.649,1.316-3.649h1.254l-1.912,4.9h-1.373l-1.885-4.9Z"
         id="path56" />
      <path
         class="uuid-fee1458f-2ec9-4505-80dc-6c644763bdb1"
         d="m476.809,53.194l2.073-2.052c.195-.162.314-.398.329-.651,0-.315-.308-.554-.721-.554-.48.015-.93.233-1.24.6l-.6-.735c.495-.503,1.169-.791,1.875-.802,1.044,0,1.737.567,1.737,1.422-.019.495-.252.957-.638,1.267l-1.415,1.366,2.122-.007v.918h-3.522v-.772Z"
         id="path57" />
    </g>
    <g
       id="g59">
      <path
         class="uuid-aa724cd2-ce1b-44fe-a9c6-2bdbdc2f5480"
         d="m426.751,91.132h1.3l1.3,3.649,1.316-3.649h1.254l-1.912,4.9h-1.373l-1.885-4.9Z"
         id="path58" />
      <path
         class="uuid-aa724cd2-ce1b-44fe-a9c6-2bdbdc2f5480"
         d="m434.204,96.035h-1.08v-3.782l-.965.4v-.953l1.365-.568h.68v4.903Z"
         id="path59" />
    </g>
    <g
       id="g61">
      <path
         class="uuid-fee1458f-2ec9-4505-80dc-6c644763bdb1"
         d="m471.272,91.132h1.3l1.3,3.649,1.316-3.649h1.254l-1.912,4.9h-1.373l-1.885-4.9Z"
         id="path60" />
      <path
         class="uuid-fee1458f-2ec9-4505-80dc-6c644763bdb1"
         d="m476.809,95.265l2.073-2.053c.195-.162.314-.398.329-.651,0-.315-.308-.553-.721-.553-.48.015-.931.233-1.24.6l-.6-.735c.495-.505,1.17-.794,1.877-.806,1.044,0,1.737.568,1.737,1.422-.019.495-.252.957-.638,1.268l-1.415,1.365,2.122-.006v.917h-3.522l-.002-.768Z"
         id="path61" />
    </g>
    <g
       id="g62">
      <circle
         class="uuid-159afac3-7684-4a1f-8ad2-f0b07f2529fa"
         cx="445.828"
         cy="36.816"
         r="4.448"
         id="circle61" />
      <path
         class="uuid-d4661fee-d3b1-4aa6-b2e5-d16805814301"
         d="m443.916,38.5l1.308-1.768-1.249-1.661h1l.734,1.039.735-1.039h.964l-1.224,1.661,1.328,1.768h-1l-.812-1.156-.819,1.156h-.965Z"
         id="path62" />
    </g>
    <g
       id="g63">
      <circle
         class="uuid-10a1df1a-aa6b-437b-92fb-864cd9eef09b"
         cx="504.775"
         cy="23.542"
         r="6.053"
         id="circle62" />
      <path
         class="uuid-d4661fee-d3b1-4aa6-b2e5-d16805814301"
         d="m502.975,25.101l1.97-1.95c.186-.154.299-.377.313-.618,0-.3-.293-.526-.686-.526-.456.015-.884.223-1.178.572l-.571-.7c.47-.479,1.11-.754,1.782-.765.992,0,1.651.539,1.651,1.35-.02.469-.241.906-.606,1.2l-1.343,1.3,2.015-.007v.872h-3.347v-.728Z"
         id="path63" />
    </g>
  </g>
  <line
     class="uuid-fe911ba7-85c6-48c1-8393-05e7fdcbf11f"
     x1="107.081"
     y1="211.517"
     x2="129.479"
     y2="211.517"
     id="line64" />
  <polygon
     class="uuid-2126744b-7208-485a-95c8-1ecb53ab4e75"
     points="128.677 214.259 133.426 211.517 128.677 208.775 128.677 214.259"
     id="polygon64" />
  <rect
     class="uuid-791981ee-0e97-47ba-8b64-969b704da965"
     x="150.325"
     y="161.84"
     width="127.324"
     height="99.353"
     id="rect64" />
  <g
     id="g67">
    <path
       class="uuid-7e8e535a-0cc8-428a-821f-c311bea19a37"
       d="m91.119,226.286c-.93.047-1.722-.669-1.769-1.599-.004-.087-.002-.174.007-.26v-2.4h.719v2.4c-.08.584.329,1.122.913,1.201.045.006.091.009.137.01.635,0,1.043-.474,1.043-1.211v-2.4h.719v2.4c.089.935-.597,1.764-1.532,1.853-.079.007-.158.009-.237.006Z"
       id="path64" />
    <path
       class="uuid-7e8e535a-0cc8-428a-821f-c311bea19a37"
       d="m93.776,225.422c.28.209.616.328.965.342.36,0,.606-.162.606-.4,0-.185-.126-.287-.414-.342l-.534-.089c-.581-.108-.869-.378-.869-.828,0-.564.461-.929,1.163-.929.421-.001.832.124,1.181.36l-.318.443c-.267-.183-.582-.284-.905-.288-.312,0-.516.132-.516.354,0,.192.108.276.426.33l.528.1c.6.114.887.39.887.839-.063.604-.604,1.043-1.208.98-.005,0-.01-.001-.015-.002-.466.018-.924-.126-1.295-.408l.318-.462Z"
       id="path65" />
    <path
       class="uuid-7e8e535a-0cc8-428a-821f-c311bea19a37"
       d="m97.996,226.286c-.843.001-1.528-.681-1.529-1.525,0-.011,0-.023,0-.034-.041-.816.587-1.51,1.403-1.551.02,0,.04-.002.06-.002.796.009,1.434.663,1.425,1.459,0,.029-.002.059-.004.088v.168h-2.219c.049.462.436.814.9.821.266.007.524-.094.713-.281l.444.413c-.327.294-.753.453-1.193.444Zm-.852-1.811h1.565c-.035-.412-.372-.733-.785-.75-.414.013-.751.337-.78.75h0Z"
       id="path66" />
    <path
       class="uuid-7e8e535a-0cc8-428a-821f-c311bea19a37"
       d="m100.043,223.222h.677v.653c.083-.397.423-.687.828-.707.101,0,.201.021.294.059v.594c-.118-.049-.244-.073-.372-.072-.327.003-.621.199-.75.5v1.979h-.677v-3.006Z"
       id="path67" />
  </g>
  <g
     id="g68">
    <path
       class="uuid-43cdbcf2-d9a5-4b87-9f69-74d9c151fb2a"
       d="m107.081,218.6c0-6.419-5.203-11.622-11.622-11.622s-11.622,5.203-11.622,11.622h23.244Z"
       id="path68" />
    <ellipse
       class="uuid-43cdbcf2-d9a5-4b87-9f69-74d9c151fb2a"
       cx="95.459"
       cy="201.176"
       rx="5.835"
       ry="5.827"
       id="ellipse68" />
  </g>
  <rect
     class="uuid-d4661fee-d3b1-4aa6-b2e5-d16805814301"
     x="188.943"
     y="175.171"
     width="30.909"
     height="30.91"
     id="rect68" />
  <path
     class="uuid-fee1458f-2ec9-4505-80dc-6c644763bdb1"
     d="m219.476,175.546v30.16h-30.16v-30.16h30.16m.75-.75h-31.66v31.66h31.66v-31.66Z"
     id="path69" />
  <path
     class="uuid-fee1458f-2ec9-4505-80dc-6c644763bdb1"
     d="m199.725,187.662h1.3l1.3,3.649,1.317-3.649h1.253l-1.911,4.9h-1.373l-1.886-4.9Z"
     id="path70" />
  <path
     class="uuid-fee1458f-2ec9-4505-80dc-6c644763bdb1"
     d="m205.262,191.794l2.073-2.052c.195-.162.314-.398.329-.651,0-.315-.308-.554-.721-.554-.48.015-.931.233-1.24.6l-.6-.735c.495-.505,1.17-.795,1.877-.806,1.043,0,1.737.567,1.737,1.422-.02.495-.252.957-.638,1.267l-1.415,1.366,2.122-.007v.918h-3.522l-.002-.768Z"
     id="path71" />
  <rect
     class="uuid-d4661fee-d3b1-4aa6-b2e5-d16805814301"
     x="188.568"
     y="216.867"
     width="31.659"
     height="31.659"
     id="rect71" />
  <path
     class="uuid-05a653de-f17e-4f87-a5b1-462e4867740a"
     d="m220.228,216.867h-2.11c-.207,0-.375.168-.375.375s.168.375.375.375h2.11v-.75Zm-4.11,0h-2.22c-.207,0-.375.168-.375.375s.168.375.375.375h2.22c.207,0,.375-.168.375-.375s-.168-.375-.375-.375Zm-4.22,0h-2.222c-.207,0-.375.168-.375.375s.168.375.375.375h2.22c.207,0,.375-.168.375-.375s-.168-.375-.375-.375h.002Zm-4.22,0h-2.22c-.207,0-.375.168-.375.375s.168.375.375.375h2.22c.207,0,.375-.168.375-.375s-.168-.375-.375-.375Zm-4.22,0h-2.22c-.207,0-.375.168-.375.375s.168.375.375.375h2.22c.207,0,.375-.168.375-.375s-.168-.375-.375-.375Zm-4.22,0h-2.22c-.207,0-.375.168-.375.375s.168.375.375.375h2.22c.207,0,.375-.168.375-.375s-.168-.375-.375-.375Zm-4.22,0h-2.22c-.207,0-.375.168-.375.375s.168.375.375.375h2.22c.207,0,.375-.168.375-.375s-.168-.375-.375-.375Zm-4.22,0h-2.23v.75h2.23c.207,0,.375-.168.375-.375s-.168-.375-.375-.375h0Zm-1.855,1.616c-.207,0-.374.166-.375.373v2.222c0,.207.168.375.375.375s.375-.168.375-.375v-2.22c0-.207-.166-.374-.373-.375h-.002Zm0,4.22c-.207,0-.374.166-.375.373v2.222c0,.207.168.375.375.375s.375-.168.375-.375v-2.22c0-.207-.166-.374-.373-.375h-.002Zm0,4.22c-.207,0-.374.166-.375.373v2.222c0,.207.168.375.375.375s.375-.168.375-.375v-2.218c0-.207-.166-.374-.373-.375h-.002v-.002Zm0,4.22c-.207,0-.374.166-.375.373v2.222c0,.207.168.375.375.375s.375-.168.375-.375h0v-2.22c0-.207-.166-.374-.373-.375h-.002Zm0,4.22c-.207,0-.374.166-.375.373v2.222c0,.207.168.375.375.375s.375-.168.375-.375v-2.22c0-.207-.166-.374-.373-.375h-.002Zm0,4.22c-.207,0-.374.166-.375.373v2.222c0,.207.168.375.375.375s.375-.168.375-.375v-2.22c0-.207-.166-.374-.373-.375h-.002Zm0,4.22c-.207,0-.374.166-.375.373v2.222c0,.207.168.375.375.375s.375-.168.375-.375v-2.22c0-.207-.166-.374-.373-.375h-.002Zm1.717,3.973h-2.092v.622h0v.055h0v.055h0v.018h2.092c.207,0,.375-.168.375-.375s-.168-.375-.375-.375h0Zm-2.092.732v-.055h0v.055Zm0,.018v-.018h0v.018h0Zm.743,0h0Zm5.569-.75h-2.22c-.207,0-.375.168-.375.375s.168.375.375.375h2.22c.207,0,.375-.168.375-.375s-.168-.375-.375-.375Zm4.22,0h-2.224c-.207,0-.375.168-.375.375s.168.375.375.375h2.22c.207,0,.375-.168.375-.375s-.168-.375-.375-.375h.004Zm4.22,0h-2.22c-.207,0-.375.168-.375.375s.168.375.375.375h2.22c.207,0,.375-.168.375-.375s-.168-.375-.375-.375Zm4.22,0h-2.22c-.207,0-.375.168-.375.375s.168.375.375.375h2.22c.207,0,.375-.168.375-.375s-.168-.375-.375-.375Zm4.22,0h-2.22c-.207,0-.375.168-.375.375s.168.375.375.375h2.22c.207,0,.375-.168.375-.375s-.168-.375-.375-.375Zm4.22,0h-2.22c-.207,0-.375.168-.375.375s.168.375.375.375h2.22c.207,0,.375-.168.375-.375s-.168-.375-.375-.375Zm4.22,0h-2.224c-.207,0-.375.168-.375.375s.168.375.375.375h2.248v-.748l-.024-.002Zm-.347-3.817c-.207,0-.374.166-.375.373v2.222c0,.207.168.375.375.375s.375-.168.375-.375v-2.22c0-.207-.168-.375-.375-.375Zm0-4.22c-.207,0-.374.166-.375.373v2.222c0,.207.168.375.375.375s.375-.168.375-.375v-2.22c0-.207-.168-.375-.375-.375h0Zm0-4.22c-.207,0-.374.166-.375.373v2.222c0,.207.168.375.375.375s.375-.168.375-.375h0v-2.22c0-.207-.168-.375-.375-.375Zm0-4.22c-.207,0-.374.166-.375.373v2.222c0,.207.168.375.375.375s.375-.168.375-.375v-2.22c0-.207-.168-.375-.375-.375Zm0-4.22c-.207,0-.374.166-.375.373v2.222c0,.207.168.375.375.375s.375-.168.375-.375v-2.22c0-.207-.168-.375-.375-.375h0Zm0-4.22c-.207,0-.374.166-.375.373v2.222c0,.207.168.375.375.375s.375-.168.375-.375h0v-2.22c0-.207-.168-.375-.375-.375Zm0-4.22c-.207,0-.374.166-.375.373v2.222c0,.207.168.375.375.375s.375-.168.375-.375v-2.22c0-.207-.168-.375-.375-.375Z"
     id="path72" />
  <rect
     class="uuid-d4661fee-d3b1-4aa6-b2e5-d16805814301"
     x="234.203"
     y="217.242"
     width="30.909"
     height="30.91"
     id="rect72" />
  <path
     class="uuid-fee1458f-2ec9-4505-80dc-6c644763bdb1"
     d="m264.737,217.617v30.159h-30.161v-30.159h30.159m.75-.75h-31.657v31.659h31.659v-31.659h-.002Z"
     id="path73" />
  <path
     class="uuid-05a653de-f17e-4f87-a5b1-462e4867740a"
     d="m200.467,229.732h1.3l1.3,3.649,1.317-3.649h1.254l-1.912,4.9h-1.373l-1.886-4.9Z"
     id="path74" />
  <path
     class="uuid-05a653de-f17e-4f87-a5b1-462e4867740a"
     d="m207.916,234.635h-1.079v-3.782l-.966.4v-.953l1.366-.568h.679v4.903Z"
     id="path75" />
  <path
     class="uuid-fee1458f-2ec9-4505-80dc-6c644763bdb1"
     d="m244.985,229.732h1.3l1.3,3.649,1.317-3.649h1.254l-1.912,4.9h-1.373l-1.886-4.9Z"
     id="path76" />
  <path
     class="uuid-fee1458f-2ec9-4505-80dc-6c644763bdb1"
     d="m250.522,233.865l2.073-2.053c.195-.162.314-.397.329-.65,0-.316-.308-.554-.721-.554-.48.015-.931.233-1.24.6l-.6-.735c.495-.505,1.17-.794,1.877-.806,1.044,0,1.737.568,1.737,1.422-.019.495-.251.957-.637,1.268l-1.415,1.366,2.122-.007v.917h-3.523l-.002-.768Z"
     id="path77" />
  <polyline
     class="uuid-fe911ba7-85c6-48c1-8393-05e7fdcbf11f"
     points="166.085 211.236 224.565 211.236 224.565 231.945 229.881 231.945"
     id="polyline77" />
  <polygon
     class="uuid-2126744b-7208-485a-95c8-1ecb53ab4e75"
     points="229.079 234.687 233.828 231.945 229.079 229.202 229.079 234.687"
     id="polygon77" />
  <polyline
     class="uuid-dd1fef98-1cc5-4fca-9c3b-9df30ddaa9f5"
     points="166.085 214.514 177.852 214.514 177.852 232.598 184.053 232.598"
     id="polyline78" />
  <polygon
     class="uuid-159afac3-7684-4a1f-8ad2-f0b07f2529fa"
     points="183.25 235.341 187.999 232.599 183.25 229.856 183.25 235.341"
     id="polygon78" />
  <polyline
     class="uuid-d4661fee-d3b1-4aa6-b2e5-d16805814301"
     points="166.085 208.52 177.852 208.52 177.852 190.435 187.999 190.435"
     id="polyline79" />
  <g
     id="g80">
    <polyline
       class="uuid-fe911ba7-85c6-48c1-8393-05e7fdcbf11f"
       points="166.085 208.52 177.852 208.52 177.852 190.435 184.053 190.435"
       id="polyline80" />
    <polygon
       class="uuid-2126744b-7208-485a-95c8-1ecb53ab4e75"
       points="183.25 193.177 187.999 190.436 183.25 187.693 183.25 193.177"
       id="polygon80" />
  </g>
  <circle
     class="uuid-159afac3-7684-4a1f-8ad2-f0b07f2529fa"
     cx="219.719"
     cy="248.526"
     r="4.448"
     id="circle80" />
  <path
     class="uuid-d4661fee-d3b1-4aa6-b2e5-d16805814301"
     d="m217.807,250.21l1.308-1.768-1.249-1.661h1l.734,1.039.735-1.039h.965l-1.224,1.661,1.328,1.768h-1l-.812-1.156-.819,1.156h-.966Z"
     id="path80" />
  <rect
     class="uuid-cf2a0765-f9c6-43c8-9e86-fa335591d129"
     x="134.426"
     y="195.687"
     width="31.659"
     height="31.659"
     id="rect80" />
  <g
     id="g85">
    <path
       class="uuid-7e8e535a-0cc8-428a-821f-c311bea19a37"
       d="m142.605,217.673h1.877c.718,0,1.3.582,1.3,1.3s-.582,1.3-1.3,1.3h-1.157v1.6h-.72v-4.2Zm.72.606v1.4h1.043c.386.052.742-.218.794-.605s-.218-.742-.605-.794c-.061-.008-.123-.009-.184,0h-1.049Z"
       id="path81" />
    <path
       class="uuid-7e8e535a-0cc8-428a-821f-c311bea19a37"
       d="m146.595,218.867h.681v.653c.083-.397.423-.687.828-.707.101,0,.201.021.294.059v.594c-.118-.049-.244-.073-.372-.072-.327.004-.621.2-.75.5v1.979h-.677l-.004-3.006Z"
       id="path82" />
    <path
       class="uuid-7e8e535a-0cc8-428a-821f-c311bea19a37"
       d="m150.326,218.819c.86-.025,1.577.651,1.602,1.51.025.86-.651,1.577-1.51,1.602-.86.025-1.577-.651-1.602-1.51,0-.017,0-.034,0-.05-.029-.828.619-1.522,1.447-1.551.021,0,.043-.001.064,0Zm.839,1.558c.072-.463-.246-.897-.709-.969-.463-.072-.897.246-.969.709-.013.086-.013.174,0,.26-.064.463.259.891.723.955.463.064.891-.26.955-.723.011-.077.011-.155,0-.232Z"
       id="path83" />
    <path
       class="uuid-7e8e535a-0cc8-428a-821f-c311bea19a37"
       d="m153.321,220.341l-1.1-1.474h.792l.7.989.7-.989h.763l-1.079,1.457,1.163,1.547h-.8l-.756-1.062-.755,1.062h-.756l1.128-1.53Z"
       id="path84" />
    <path
       class="uuid-7e8e535a-0cc8-428a-821f-c311bea19a37"
       d="m156.513,221.889l-1.137-3.022h.756l.761,2.23.84-2.23h.743l-1.427,3.5c-.11.492-.564.829-1.067.791-.115,0-.23-.014-.342-.042v-.581c.162.017.2.023.264.023.223.012.425-.133.486-.348l.123-.321Z"
       id="path85" />
  </g>
  <g
     id="g89">
    <g
       id="g86">
      <rect
         class="uuid-43cdbcf2-d9a5-4b87-9f69-74d9c151fb2a"
         x="139.26"
         y="209.08"
         width="22.13"
         height="5.532"
         id="rect85" />
      <line
         class="uuid-f0e89fdd-42d0-40e1-a58c-2705e2ce46c0"
         x1="159.024"
         y1="211.846"
         x2="159.024"
         y2="211.846"
         id="line85" />
      <line
         class="uuid-176d6895-ef7f-4106-a201-6d399fb3e8d1"
         x1="141.97"
         y1="211.846"
         x2="145.289"
         y2="211.846"
         id="line86" />
    </g>
    <g
       id="g88">
      <rect
         class="uuid-43cdbcf2-d9a5-4b87-9f69-74d9c151fb2a"
         x="139.26"
         y="201.435"
         width="22.13"
         height="5.532"
         id="rect86" />
      <line
         class="uuid-f0e89fdd-42d0-40e1-a58c-2705e2ce46c0"
         x1="159.024"
         y1="204.201"
         x2="159.024"
         y2="204.201"
         id="line87" />
      <line
         class="uuid-176d6895-ef7f-4106-a201-6d399fb3e8d1"
         x1="141.97"
         y1="204.201"
         x2="145.289"
         y2="204.201"
         id="line88" />
    </g>
  </g>
  <g
     id="g90">
    <circle
       class="uuid-10a1df1a-aa6b-437b-92fb-864cd9eef09b"
       cx="277.649"
       cy="23.542"
       r="6.053"
       id="circle89" />
    <path
       class="uuid-d4661fee-d3b1-4aa6-b2e5-d16805814301"
       d="m278.371,25.833h-1.025v-3.593l-.918.379v-.9l1.3-.539h.645l-.002,4.653Z"
       id="path89" />
    <circle
       class="uuid-10a1df1a-aa6b-437b-92fb-864cd9eef09b"
       cx="277.649"
       cy="161.795"
       r="6.053"
       id="circle90" />
    <path
       class="uuid-d4661fee-d3b1-4aa6-b2e5-d16805814301"
       d="m277.425,164.153c-.691.022-1.359-.252-1.836-.752l.692-.639c.272.341.696.526,1.131.493.506,0,.839-.226.839-.573,0-.292-.24-.479-.613-.479h-.6v-.844h.492c.379,0,.605-.193.605-.519s-.312-.573-.732-.573c-.427-.011-.832.188-1.084.533l-.7-.632c.464-.518,1.127-.813,1.822-.812,1.019,0,1.724.552,1.724,1.344-.015.514-.377.952-.879,1.064.536.038.962.464,1,1,.003.81-.776,1.389-1.861,1.389Z"
       id="path90" />
  </g>
  <g
     id="g116">
    <g
       id="g91">
      <line
         class="uuid-fe911ba7-85c6-48c1-8393-05e7fdcbf11f"
         x1="333.369"
         y1="211.517"
         x2="356.463"
         y2="211.517"
         id="line90" />
      <polygon
         class="uuid-2126744b-7208-485a-95c8-1ecb53ab4e75"
         points="355.661 214.259 360.41 211.517 355.661 208.775 355.661 214.259"
         id="polygon90" />
    </g>
    <rect
       class="uuid-791981ee-0e97-47ba-8b64-969b704da965"
       x="376.612"
       y="161.84"
       width="128.163"
       height="99.353"
       id="rect91" />
    <g
       id="g93">
      <polyline
         class="uuid-d4661fee-d3b1-4aa6-b2e5-d16805814301"
         points="392.372 211.334 404.139 211.334 404.139 190.626 414.856 190.626"
         id="polyline91" />
      <g
         id="g92">
        <polyline
           class="uuid-fe911ba7-85c6-48c1-8393-05e7fdcbf11f"
           points="392.372 211.334 404.139 211.334 404.139 190.626 410.909 190.626"
           id="polyline92" />
        <polygon
           class="uuid-2126744b-7208-485a-95c8-1ecb53ab4e75"
           points="410.106 193.368 414.856 190.626 410.106 187.884 410.106 193.368"
           id="polygon92" />
      </g>
    </g>
    <g
       id="g95">
      <polyline
         class="uuid-d4661fee-d3b1-4aa6-b2e5-d16805814301"
         points="392.372 211.334 404.139 211.334 404.139 232.043 414.856 232.043"
         id="polyline93" />
      <g
         id="g94">
        <polyline
           class="uuid-fe911ba7-85c6-48c1-8393-05e7fdcbf11f"
           points="392.372 211.334 404.139 211.334 404.139 232.043 410.909 232.043"
           id="polyline94" />
        <polygon
           class="uuid-2126744b-7208-485a-95c8-1ecb53ab4e75"
           points="410.106 234.785 414.856 232.043 410.106 229.3 410.106 234.785"
           id="polygon94" />
      </g>
    </g>
    <g
       id="g100">
      <g
         id="g98">
        <path
           class="uuid-7e8e535a-0cc8-428a-821f-c311bea19a37"
           d="m317.407,226.286c-.931.047-1.723-.669-1.77-1.6-.004-.086-.002-.173.007-.259v-2.4h.72v2.4c-.08.584.329,1.122.913,1.201.045.006.09.009.136.01.635,0,1.043-.474,1.043-1.211v-2.4h.72v2.4c.089.935-.597,1.764-1.532,1.853-.079.007-.158.009-.237.006Z"
           id="path95" />
        <path
           class="uuid-7e8e535a-0cc8-428a-821f-c311bea19a37"
           d="m320.066,225.422c.28.209.617.328.966.342.359,0,.605-.162.605-.4,0-.185-.126-.287-.414-.342l-.533-.089c-.582-.108-.87-.378-.87-.828,0-.564.462-.929,1.164-.929.421,0,.832.125,1.18.36l-.317.443c-.265-.182-.578-.282-.9-.288-.313,0-.516.132-.516.354,0,.192.108.276.426.33l.527.1c.6.114.888.39.888.839-.063.604-.604,1.043-1.208.98-.005,0-.01-.001-.016-.002-.468.019-.927-.125-1.3-.408l.318-.462Z"
           id="path96" />
        <path
           class="uuid-7e8e535a-0cc8-428a-821f-c311bea19a37"
           d="m324.284,226.286c-.844.001-1.529-.682-1.53-1.526,0-.011,0-.022,0-.033-.041-.816.587-1.51,1.403-1.551.02,0,.04-.002.06-.002.796.009,1.435.662,1.426,1.458,0,.03-.002.059-.004.089v.168h-2.22c.05.462.436.814.9.821.266.007.523-.094.713-.281l.444.413c-.327.293-.753.452-1.192.444Zm-.852-1.811h1.565c-.036-.412-.373-.733-.786-.75-.414.013-.75.337-.779.75h0Z"
           id="path97" />
        <path
           class="uuid-7e8e535a-0cc8-428a-821f-c311bea19a37"
           d="m326.33,223.222h.677v.653c.083-.397.423-.687.828-.707.101,0,.201.021.294.059v.594c-.118-.049-.244-.073-.372-.072-.327.004-.621.2-.75.5v1.979h-.677v-3.006Z"
           id="path98" />
      </g>
      <g
         id="g99">
        <path
           class="uuid-43cdbcf2-d9a5-4b87-9f69-74d9c151fb2a"
           d="m333.369,218.6c-.06-6.419-5.312-11.574-11.731-11.514-6.335.059-11.456,5.18-11.514,11.514h23.245Z"
           id="path99" />
        <ellipse
           class="uuid-43cdbcf2-d9a5-4b87-9f69-74d9c151fb2a"
           cx="321.746"
           cy="201.176"
           rx="5.835"
           ry="5.827"
           id="ellipse99" />
      </g>
    </g>
    <rect
       class="uuid-cf2a0765-f9c6-43c8-9e86-fa335591d129"
       x="360.713"
       y="195.687"
       width="31.659"
       height="31.659"
       id="rect100" />
    <g
       id="g109">
      <g
         id="g104">
        <path
           class="uuid-7e8e535a-0cc8-428a-821f-c311bea19a37"
           d="m368.893,217.673h1.877c.718,0,1.3.582,1.3,1.3s-.582,1.3-1.3,1.3h-1.158v1.6h-.719v-4.2Zm.719.606v1.4h1.044c.386.052.742-.218.794-.605.052-.386-.218-.742-.605-.794-.061-.008-.123-.009-.184,0h-1.05Z"
           id="path100" />
        <path
           class="uuid-7e8e535a-0cc8-428a-821f-c311bea19a37"
           d="m372.882,218.867h.678v.653c.083-.396.423-.687.827-.707.101,0,.201.021.294.059v.594c-.118-.049-.244-.073-.371-.072-.327.003-.621.199-.75.5v1.979h-.678v-3.006Z"
           id="path101" />
        <path
           class="uuid-7e8e535a-0cc8-428a-821f-c311bea19a37"
           d="m376.614,218.819c.86-.025,1.577.652,1.601,1.511.025.86-.652,1.576-1.511,1.601s-1.576-.652-1.601-1.511c0-.016,0-.033,0-.049-.029-.828.619-1.522,1.447-1.551.022,0,.043-.001.065,0Zm.839,1.558c.07-.464-.249-.896-.713-.966-.464-.07-.896.249-.966.713-.013.084-.013.169,0,.253-.066.464.256.893.72.959.464.066.893-.256.959-.72.011-.079.011-.16,0-.24Z"
           id="path102" />
        <path
           class="uuid-7e8e535a-0cc8-428a-821f-c311bea19a37"
           d="m379.608,220.341l-1.1-1.474h.791l.7.989.7-.989h.756l-1.079,1.457,1.163,1.547h-.8l-.755-1.062-.755,1.062h-.756l1.135-1.53Z"
           id="path103" />
        <path
           class="uuid-7e8e535a-0cc8-428a-821f-c311bea19a37"
           d="m382.8,221.889l-1.134-3.022h.756l.762,2.23.839-2.23h.738l-1.428,3.5c-.11.492-.564.829-1.067.791-.115,0-.23-.014-.342-.042v-.581c.162.017.2.023.264.023.223.012.425-.133.486-.348l.126-.321Z"
           id="path104" />
      </g>
      <g
         id="g108">
        <g
           id="g105">
          <rect
             class="uuid-43cdbcf2-d9a5-4b87-9f69-74d9c151fb2a"
             x="365.547"
             y="209.08"
             width="22.13"
             height="5.532"
             id="rect104" />
          <line
             class="uuid-f0e89fdd-42d0-40e1-a58c-2705e2ce46c0"
             x1="385.311"
             y1="211.846"
             x2="385.311"
             y2="211.846"
             id="line104" />
          <line
             class="uuid-176d6895-ef7f-4106-a201-6d399fb3e8d1"
             x1="368.257"
             y1="211.846"
             x2="371.577"
             y2="211.846"
             id="line105" />
        </g>
        <g
           id="g107">
          <rect
             class="uuid-43cdbcf2-d9a5-4b87-9f69-74d9c151fb2a"
             x="365.547"
             y="201.435"
             width="22.13"
             height="5.532"
             id="rect105" />
          <line
             class="uuid-f0e89fdd-42d0-40e1-a58c-2705e2ce46c0"
             x1="385.311"
             y1="204.201"
             x2="385.311"
             y2="204.201"
             id="line106" />
          <line
             class="uuid-176d6895-ef7f-4106-a201-6d399fb3e8d1"
             x1="368.257"
             y1="204.201"
             x2="371.577"
             y2="204.201"
             id="line107" />
        </g>
      </g>
    </g>
    <g
       id="g110">
      <rect
         class="uuid-d4661fee-d3b1-4aa6-b2e5-d16805814301"
         x="415.231"
         y="175.171"
         width="30.909"
         height="30.91"
         id="rect109" />
      <path
         class="uuid-fee1458f-2ec9-4505-80dc-6c644763bdb1"
         d="m445.765,175.546v30.16h-30.159v-30.16h30.159m.75-.75h-31.659v31.66h31.659v-31.66Z"
         id="path109" />
    </g>
    <g
       id="g111">
      <rect
         class="uuid-d4661fee-d3b1-4aa6-b2e5-d16805814301"
         x="415.231"
         y="217.242"
         width="30.909"
         height="30.91"
         id="rect110" />
      <path
         class="uuid-fee1458f-2ec9-4505-80dc-6c644763bdb1"
         d="m445.765,217.617v30.159h-30.159v-30.159h30.159m.75-.75h-31.659v31.659h31.659v-31.659Z"
         id="path110" />
    </g>
    <g
       id="g112">
      <path
         class="uuid-fee1458f-2ec9-4505-80dc-6c644763bdb1"
         d="m426.013,187.662h1.3l1.3,3.649,1.317-3.649h1.253l-1.911,4.9h-1.373l-1.886-4.9Z"
         id="path111" />
      <path
         class="uuid-fee1458f-2ec9-4505-80dc-6c644763bdb1"
         d="m431.551,191.794l2.072-2.052c.196-.162.315-.398.33-.651,0-.315-.308-.554-.721-.554-.48.015-.931.233-1.24.6l-.6-.735c.495-.505,1.17-.795,1.877-.806,1.043,0,1.736.567,1.736,1.422-.019.494-.251.956-.636,1.267l-1.415,1.366,2.122-.007v.918h-3.525v-.768Z"
         id="path112" />
    </g>
    <g
       id="g114">
      <path
         class="uuid-fee1458f-2ec9-4505-80dc-6c644763bdb1"
         d="m426.013,229.732h1.3l1.3,3.649,1.317-3.649h1.253l-1.911,4.9h-1.373l-1.886-4.9Z"
         id="path113" />
      <path
         class="uuid-fee1458f-2ec9-4505-80dc-6c644763bdb1"
         d="m431.551,233.865l2.072-2.053c.195-.161.315-.397.33-.65,0-.316-.308-.554-.721-.554-.48.015-.931.233-1.24.6l-.6-.735c.495-.505,1.17-.794,1.877-.806,1.043,0,1.736.568,1.736,1.422-.019.495-.251.957-.636,1.268l-1.415,1.366,2.122-.007v.917h-3.525v-.768Z"
         id="path114" />
    </g>
    <g
       id="g115">
      <circle
         class="uuid-10a1df1a-aa6b-437b-92fb-864cd9eef09b"
         cx="504.775"
         cy="161.795"
         r="6.053"
         id="circle114" />
      <path
         class="uuid-d4661fee-d3b1-4aa6-b2e5-d16805814301"
         d="m506.112,162.17h.552v.872h-.552v1.044h-1.025v-1.04h-2.484v-.846l2.315-2.767h1.2l-.006,2.737Zm-1.025,0v-1.716l-1.423,1.716h1.423Z"
         id="path115" />
    </g>
  </g>
  <metadata
     id="metadata116">
    <rdf:RDF>
      <cc:Work
         rdf:about="">
        <dc:subject>
          <rdf:Bag>
            <rdf:li>rolling</rdf:li>
            <rdf:li>strategy</rdf:li>
            <rdf:li>recreate</rdf:li>
          </rdf:Bag>
        </dc:subject>
      </cc:Work>
    </rdf:RDF>
  </metadata>
</svg>
